<?xml version="1.0" encoding="UTF-8" standalone="no"?><!DOCTYPE svg PUBLIC "-//W3C//DTD SVG 1.1//EN" "http://www.w3.org/Graphics/SVG/1.1/DTD/svg11.dtd"><!-- Generated by graphviz version 2.40.1 (20161225.0304)
 --><!-- Title: G Pages: 1 --><svg xmlns="http://www.w3.org/2000/svg" xmlns:xlink="http://www.w3.org/1999/xlink" width="4332pt" height="620pt" viewBox="0.00 0.00 4331.58 620.00">
<g id="graph0" class="graph" transform="scale(1 1) rotate(0) translate(4 616)">
<title>G</title>
<polygon fill="#ffffff" stroke="transparent" points="-4,4 -4,-616 4327.5788,-616 4327.5788,4 -4,4"/>
<!-- fogi -->
<g id="node1" class="node">
<title>fogi</title>
<ellipse fill="none" stroke="#000000" cx="3005.5788" cy="-306" rx="27" ry="18"/>
<text text-anchor="middle" x="3005.5788" y="-301.8" font-family="Times,serif" font-size="14.00" fill="#000000">fogi</text>
</g>
<!-- a_kup_pw -->
<g id="node2" class="node">
<title>a_kup_pw</title>
<ellipse fill="none" stroke="#000000" cx="2017.5788" cy="-234" rx="51.0319" ry="18"/>
<text text-anchor="middle" x="2017.5788" y="-229.8" font-family="Times,serif" font-size="14.00" fill="#000000">a_kup_pw</text>
</g>
<!-- fogi&#45;&gt;a_kup_pw -->
<g id="edge1" class="edge">
<title>fogi-&gt;a_kup_pw</title>
<path fill="none" stroke="#000000" d="M2978.5618,-304.1102C2880.8367,-297.2642 2536.5377,-273.0567 2252.5788,-252 2193.2729,-247.6022 2125.5637,-242.3964 2078.107,-238.7174"/>
<polygon fill="#000000" stroke="#000000" points="2078.2399,-235.2173 2067.999,-237.9331 2077.6983,-242.1963 2078.2399,-235.2173"/>
</g>
<!-- fkgl -->
<g id="node3" class="node">
<title>fkgl</title>
<ellipse fill="none" stroke="#000000" cx="2288.5788" cy="-234" rx="27" ry="18"/>
<text text-anchor="middle" x="2288.5788" y="-229.8" font-family="Times,serif" font-size="14.00" fill="#000000">fkgl</text>
</g>
<!-- fogi&#45;&gt;fkgl -->
<g id="edge2" class="edge">
<title>fogi-&gt;fkgl</title>
<path fill="none" stroke="#000000" d="M2983.9278,-294.8892C2977.8162,-292.1997 2971.0619,-289.6326 2964.5788,-288 2841.8548,-257.0943 2448.5158,-240.0141 2325.626,-235.3343"/>
<polygon fill="#000000" stroke="#000000" points="2325.7079,-231.835 2315.5834,-234.9567 2325.4448,-238.8301 2325.7079,-231.835"/>
</g>
<!-- black -->
<g id="node42" class="node">
<title>black</title>
<ellipse fill="none" stroke="#000000" cx="2620.5788" cy="-162" rx="31.9012" ry="18"/>
<text text-anchor="middle" x="2620.5788" y="-157.8" font-family="Times,serif" font-size="14.00" fill="#000000">black</text>
</g>
<!-- fogi&#45;&gt;black -->
<g id="edge154" class="edge">
<title>fogi-&gt;black</title>
<path fill="none" stroke="#000000" d="M2987.2142,-292.6821C2959.4118,-273.1195 2904.3749,-236.7003 2852.5788,-216 2788.4952,-190.3889 2709.3751,-175.2216 2662.0535,-167.7651"/>
<polygon fill="#000000" stroke="#000000" points="2662.2978,-164.2617 2651.8826,-166.2044 2661.2361,-171.1807 2662.2978,-164.2617"/>
</g>
<!-- sim_codeBleu -->
<g id="node46" class="node">
<title>sim_codeBleu</title>
<ellipse fill="none" stroke="#000000" cx="2110.5788" cy="-90" rx="66.0723" ry="18"/>
<text text-anchor="middle" x="2110.5788" y="-85.8" font-family="Times,serif" font-size="14.00" fill="#000000">sim_codeBleu</text>
</g>
<!-- fogi&#45;&gt;sim_codeBleu -->
<g id="edge163" class="edge">
<title>fogi-&gt;sim_codeBleu</title>
<path fill="none" stroke="#000000" d="M2991.6113,-290.3715C2972.9513,-270.3944 2937.9919,-236.0065 2901.5788,-216 2803.9772,-162.3745 2770.8407,-165.532 2661.5788,-144 2493.9383,-110.9635 2293.4308,-97.7698 2186.5359,-92.7911"/>
<polygon fill="#000000" stroke="#000000" points="2186.6363,-89.2921 2176.4877,-92.3345 2186.3185,-96.2849 2186.6363,-89.2921"/>
</g>
<!-- a_kup_pw&#45;&gt;sim_codeBleu -->
<g id="edge164" class="edge">
<title>a_kup_pw-&gt;sim_codeBleu</title>
<path fill="none" stroke="#000000" d="M2028.9825,-216.3428C2045.1583,-191.2963 2074.881,-145.2741 2093.6395,-116.2287"/>
<polygon fill="#000000" stroke="#000000" points="2096.5968,-118.1009 2099.0819,-107.8017 2090.7165,-114.3032 2096.5968,-118.1009"/>
</g>
<!-- sim_Bleu -->
<g id="node47" class="node">
<title>sim_Bleu</title>
<ellipse fill="none" stroke="#000000" cx="1862.5788" cy="-162" rx="48.1109" ry="18"/>
<text text-anchor="middle" x="1862.5788" y="-157.8" font-family="Times,serif" font-size="14.00" fill="#000000">sim_Bleu</text>
</g>
<!-- a_kup_pw&#45;&gt;sim_Bleu -->
<g id="edge166" class="edge">
<title>a_kup_pw-&gt;sim_Bleu</title>
<path fill="none" stroke="#000000" d="M1986.5848,-219.6028C1962.3505,-208.3455 1928.4887,-192.6162 1902.2719,-180.4381"/>
<polygon fill="#000000" stroke="#000000" points="1903.5348,-177.1655 1892.9909,-176.1269 1900.5857,-183.5141 1903.5348,-177.1655"/>
</g>
<!-- timeout_rate -->
<g id="node50" class="node">
<title>timeout_rate</title>
<ellipse fill="none" stroke="#000000" cx="2292.5788" cy="-162" rx="59.6878" ry="18"/>
<text text-anchor="middle" x="2292.5788" y="-157.8" font-family="Times,serif" font-size="14.00" fill="#000000">timeout_rate</text>
</g>
<!-- a_kup_pw&#45;&gt;timeout_rate -->
<g id="edge175" class="edge">
<title>a_kup_pw-&gt;timeout_rate</title>
<path fill="none" stroke="#000000" d="M2058.7491,-223.2209C2106.1864,-210.8009 2184.3646,-190.3325 2237.1283,-176.518"/>
<polygon fill="#000000" stroke="#000000" points="2238.2108,-179.8526 2246.9983,-173.9338 2236.4378,-173.0808 2238.2108,-179.8526"/>
</g>
<!-- fkgl&#45;&gt;black -->
<g id="edge156" class="edge">
<title>fkgl-&gt;black</title>
<path fill="none" stroke="#000000" d="M2314.3541,-228.4102C2371.885,-215.9336 2511.1254,-185.7369 2580.255,-170.7449"/>
<polygon fill="#000000" stroke="#000000" points="2581.2954,-174.1007 2590.3264,-168.5608 2579.8117,-167.2598 2581.2954,-174.1007"/>
</g>
<!-- syntaxError_rate -->
<g id="node43" class="node">
<title>syntaxError_rate</title>
<ellipse fill="none" stroke="#000000" cx="1973.5788" cy="-18" rx="75.8412" ry="18"/>
<text text-anchor="middle" x="1973.5788" y="-13.8" font-family="Times,serif" font-size="14.00" fill="#000000">syntaxError_rate</text>
</g>
<!-- fkgl&#45;&gt;syntaxError_rate -->
<g id="edge158" class="edge">
<title>fkgl-&gt;syntaxError_rate</title>
<path fill="none" stroke="#000000" d="M2268.4686,-221.5849C2254.1758,-211.8442 2235.4782,-197.0999 2223.5788,-180 2194.5144,-138.2329 2223.1231,-106.3462 2185.5788,-72 2165.3731,-53.5154 2100.6611,-38.7208 2047.9956,-29.3245"/>
<polygon fill="#000000" stroke="#000000" points="2048.4311,-25.8477 2037.9781,-27.5755 2047.2271,-32.7434 2048.4311,-25.8477"/>
</g>
<!-- fkgl&#45;&gt;sim_codeBleu -->
<g id="edge165" class="edge">
<title>fkgl-&gt;sim_codeBleu</title>
<path fill="none" stroke="#000000" d="M2265.8395,-224.1903C2245.07,-214.6221 2214.1068,-198.7896 2190.5788,-180 2167.0996,-161.2494 2144.7673,-135.1836 2129.6951,-115.9275"/>
<polygon fill="#000000" stroke="#000000" points="2132.3711,-113.6657 2123.5007,-107.872 2126.822,-117.9328 2132.3711,-113.6657"/>
</g>
<!-- pass_rate -->
<g id="node48" class="node">
<title>pass_rate</title>
<ellipse fill="none" stroke="#000000" cx="1759.5788" cy="-90" rx="46.9265" ry="18"/>
<text text-anchor="middle" x="1759.5788" y="-85.8" font-family="Times,serif" font-size="14.00" fill="#000000">pass_rate</text>
</g>
<!-- fkgl&#45;&gt;pass_rate -->
<g id="edge173" class="edge">
<title>fkgl-&gt;pass_rate</title>
<path fill="none" stroke="#000000" d="M2261.7434,-231.7069C2162.9929,-223.1774 1824.5361,-193.1039 1805.5788,-180 1784.7099,-165.5747 1772.7412,-138.7384 1766.2758,-118.11"/>
<polygon fill="#000000" stroke="#000000" points="1769.5763,-116.9224 1763.4537,-108.2758 1762.8479,-118.8533 1769.5763,-116.9224"/>
</g>
<!-- fkgl&#45;&gt;timeout_rate -->
<g id="edge177" class="edge">
<title>fkgl-&gt;timeout_rate</title>
<path fill="none" stroke="#000000" d="M2289.5882,-215.8314C2290.016,-208.131 2290.5247,-198.9743 2291.0001,-190.4166"/>
<polygon fill="#000000" stroke="#000000" points="2294.4957,-190.592 2291.5559,-180.4133 2287.5065,-190.2037 2294.4957,-190.592"/>
</g>
<!-- t_n_ent_art -->
<g id="node4" class="node">
<title>t_n_ent_art</title>
<ellipse fill="none" stroke="#000000" cx="2876.5788" cy="-378" rx="55.0362" ry="18"/>
<text text-anchor="middle" x="2876.5788" y="-373.8" font-family="Times,serif" font-size="14.00" fill="#000000">t_n_ent_art</text>
</g>
<!-- t_n_ent_art&#45;&gt;fogi -->
<g id="edge3" class="edge">
<title>t_n_ent_art-&gt;fogi</title>
<path fill="none" stroke="#000000" d="M2904.5699,-362.3771C2925.613,-350.6321 2954.3865,-334.5725 2975.8417,-322.5975"/>
<polygon fill="#000000" stroke="#000000" points="2977.8109,-325.5067 2984.8371,-317.5768 2974.3993,-319.3943 2977.8109,-325.5067"/>
</g>
<!-- t_n_ent_art&#45;&gt;a_kup_pw -->
<g id="edge4" class="edge">
<title>t_n_ent_art-&gt;a_kup_pw</title>
<path fill="none" stroke="#000000" d="M2852.9934,-361.5679C2821.178,-340.3743 2761.9791,-304.3038 2705.5788,-288 2701.818,-286.9128 2245.1026,-251.5679 2077.9624,-238.6597"/>
<polygon fill="#000000" stroke="#000000" points="2078.0915,-235.1594 2067.8517,-237.879 2077.5525,-242.1386 2078.0915,-235.1594"/>
</g>
<!-- t_n_ent_art&#45;&gt;fkgl -->
<g id="edge7" class="edge">
<title>t_n_ent_art-&gt;fkgl</title>
<path fill="none" stroke="#000000" d="M2869.6839,-359.9206C2860.5636,-338.7359 2842.3282,-304.4433 2814.5788,-288 2772.6911,-263.1788 2438.9731,-242.4107 2325.8935,-236.025"/>
<polygon fill="#000000" stroke="#000000" points="2325.8362,-232.5165 2315.6563,-235.4523 2325.4451,-239.5055 2325.8362,-232.5165"/>
</g>
<!-- a_punct_pw -->
<g id="node5" class="node">
<title>a_punct_pw</title>
<ellipse fill="none" stroke="#000000" cx="3645.5788" cy="-306" rx="58.4725" ry="18"/>
<text text-anchor="middle" x="3645.5788" y="-301.8" font-family="Times,serif" font-size="14.00" fill="#000000">a_punct_pw</text>
</g>
<!-- t_n_ent_art&#45;&gt;a_punct_pw -->
<g id="edge5" class="edge">
<title>t_n_ent_art-&gt;a_punct_pw</title>
<path fill="none" stroke="#000000" d="M2929.7387,-373.0227C3066.4953,-360.2185 3430.2232,-326.1633 3579.864,-312.1528"/>
<polygon fill="#000000" stroke="#000000" points="3580.2043,-315.6363 3589.8345,-311.2192 3579.5517,-308.6668 3580.2043,-315.6363"/>
</g>
<!-- a_n_ent_loc_pw -->
<g id="node6" class="node">
<title>a_n_ent_loc_pw</title>
<ellipse fill="none" stroke="#000000" cx="2621.5788" cy="-306" rx="74.7265" ry="18"/>
<text text-anchor="middle" x="2621.5788" y="-301.8" font-family="Times,serif" font-size="14.00" fill="#000000">a_n_ent_loc_pw</text>
</g>
<!-- t_n_ent_art&#45;&gt;a_n_ent_loc_pw -->
<g id="edge6" class="edge">
<title>t_n_ent_art-&gt;a_n_ent_loc_pw</title>
<path fill="none" stroke="#000000" d="M2834.7563,-366.1913C2792.6765,-354.3099 2727.4229,-335.8854 2680.1921,-322.5496"/>
<polygon fill="#000000" stroke="#000000" points="2680.9767,-319.1344 2670.4019,-319.7853 2679.0746,-325.871 2680.9767,-319.1344"/>
</g>
<!-- sta_codeBleu -->
<g id="node44" class="node">
<title>sta_codeBleu</title>
<ellipse fill="none" stroke="#000000" cx="1963.5788" cy="-90" rx="63.1209" ry="18"/>
<text text-anchor="middle" x="1963.5788" y="-85.8" font-family="Times,serif" font-size="14.00" fill="#000000">sta_codeBleu</text>
</g>
<!-- a_punct_pw&#45;&gt;sta_codeBleu -->
<g id="edge159" class="edge">
<title>a_punct_pw-&gt;sta_codeBleu</title>
<path fill="none" stroke="#000000" d="M3596.6868,-296.0648C3453.592,-267.3956 3022.9485,-184.0243 2661.5788,-144 2384.5907,-113.3216 2311.0808,-149.9796 2035.5788,-108 2030.0857,-107.163 2024.4001,-106.0972 2018.7427,-104.9034"/>
<polygon fill="#000000" stroke="#000000" points="2019.1611,-101.4104 2008.6377,-102.6382 2017.6299,-108.2409 2019.1611,-101.4104"/>
</g>
<!-- a_punct_pw&#45;&gt;timeout_rate -->
<g id="edge176" class="edge">
<title>a_punct_pw-&gt;timeout_rate</title>
<path fill="none" stroke="#000000" d="M3602.4419,-293.8184C3592.9977,-291.5444 3583.0049,-289.435 3573.5788,-288 3296.7552,-245.8578 3223.271,-279.1663 2944.5788,-252 2727.3731,-230.8273 2471.3692,-191.1543 2355.3479,-172.369"/>
<polygon fill="#000000" stroke="#000000" points="2355.6621,-168.8743 2345.2304,-170.7263 2354.5402,-175.7838 2355.6621,-168.8743"/>
</g>
<!-- a_n_ent_loc_pw&#45;&gt;a_kup_pw -->
<g id="edge120" class="edge">
<title>a_n_ent_loc_pw-&gt;a_kup_pw</title>
<path fill="none" stroke="#000000" d="M2567.5156,-293.5203C2557.5932,-291.4851 2547.3008,-289.5419 2537.5788,-288 2372.3803,-261.8005 2175.5566,-245.3381 2078.2459,-238.1708"/>
<polygon fill="#000000" stroke="#000000" points="2078.2396,-234.6611 2068.0114,-237.4243 2077.7303,-241.6425 2078.2396,-234.6611"/>
</g>
<!-- a_n_ent_loc_pw&#45;&gt;fkgl -->
<g id="edge121" class="edge">
<title>a_n_ent_loc_pw-&gt;fkgl</title>
<path fill="none" stroke="#000000" d="M2565.8421,-293.9488C2497.0248,-279.0694 2382.0061,-254.2005 2324.1317,-241.6871"/>
<polygon fill="#000000" stroke="#000000" points="2324.8614,-238.2641 2314.3475,-239.5716 2323.382,-245.106 2324.8614,-238.2641"/>
</g>
<!-- t_n_ent_money -->
<g id="node7" class="node">
<title>t_n_ent_money</title>
<ellipse fill="none" stroke="#000000" cx="730.5788" cy="-378" rx="71.2346" ry="18"/>
<text text-anchor="middle" x="730.5788" y="-373.8" font-family="Times,serif" font-size="14.00" fill="#000000">t_n_ent_money</text>
</g>
<!-- t_n_ent_money&#45;&gt;a_kup_pw -->
<g id="edge8" class="edge">
<title>t_n_ent_money-&gt;a_kup_pw</title>
<path fill="none" stroke="#000000" d="M739.9559,-359.9215C752.2361,-338.3938 775.9753,-303.4163 807.5788,-288 859.5759,-262.6357 1716.6131,-240.969 1955.9434,-235.3914"/>
<polygon fill="#000000" stroke="#000000" points="1956.2869,-238.8844 1966.203,-235.1533 1956.1245,-231.8863 1956.2869,-238.8844"/>
</g>
<!-- t_n_ent_money&#45;&gt;fkgl -->
<g id="edge10" class="edge">
<title>t_n_ent_money-&gt;fkgl</title>
<path fill="none" stroke="#000000" d="M753.4391,-360.9369C767.4333,-350.4117 785.6518,-336.5659 801.5788,-324 821.4153,-308.3496 821.9091,-296.8411 845.5788,-288 973.869,-240.0813 1940.8552,-259.8233 2077.5788,-252 2138.6553,-248.5052 2209.479,-241.9488 2251.5742,-237.7873"/>
<polygon fill="#000000" stroke="#000000" points="2252.0307,-241.2592 2261.634,-236.7842 2251.3361,-234.2938 2252.0307,-241.2592"/>
</g>
<!-- WTopc20_S -->
<g id="node8" class="node">
<title>WTopc20_S</title>
<ellipse fill="none" stroke="#000000" cx="1443.5788" cy="-306" rx="59.6974" ry="18"/>
<text text-anchor="middle" x="1443.5788" y="-301.8" font-family="Times,serif" font-size="14.00" fill="#000000">WTopc20_S</text>
</g>
<!-- t_n_ent_money&#45;&gt;WTopc20_S -->
<g id="edge9" class="edge">
<title>t_n_ent_money-&gt;WTopc20_S</title>
<path fill="none" stroke="#000000" d="M796.6967,-371.3233C932.1225,-357.6478 1239.7621,-326.5818 1376.227,-312.8013"/>
<polygon fill="#000000" stroke="#000000" points="1376.9402,-316.2472 1386.5379,-311.7601 1376.2369,-309.2826 1376.9402,-316.2472"/>
</g>
<!-- WTopc20_S&#45;&gt;fkgl -->
<g id="edge122" class="edge">
<title>WTopc20_S-&gt;fkgl</title>
<path fill="none" stroke="#000000" d="M1501.2736,-301.0885C1612.6726,-291.6047 1865.146,-270.1079 2077.5788,-252 2138.5342,-246.8041 2209.3941,-240.758 2251.5297,-237.1621"/>
<polygon fill="#000000" stroke="#000000" points="2251.9336,-240.6404 2261.5997,-236.3027 2251.3383,-233.6658 2251.9336,-240.6404"/>
</g>
<!-- WTopc20_S&#45;&gt;sta_codeBleu -->
<g id="edge160" class="edge">
<title>WTopc20_S-&gt;sta_codeBleu</title>
<path fill="none" stroke="#000000" d="M1496.9849,-297.5906C1607.078,-279.359 1854.4173,-233.4986 1919.5788,-180 1938.8097,-164.2112 1950.2878,-137.9622 1956.6726,-117.8749"/>
<polygon fill="#000000" stroke="#000000" points="1960.1069,-118.601 1959.5611,-108.0203 1953.3895,-116.632 1960.1069,-118.601"/>
</g>
<!-- WTopc20_S&#45;&gt;pass_rate -->
<g id="edge172" class="edge">
<title>WTopc20_S-&gt;pass_rate</title>
<path fill="none" stroke="#000000" d="M1467.8501,-289.4095C1524.4424,-250.7262 1665.1117,-154.5725 1728.1497,-111.4832"/>
<polygon fill="#000000" stroke="#000000" points="1730.232,-114.2994 1736.5126,-105.7668 1726.2818,-108.5205 1730.232,-114.2994"/>
</g>
<!-- a_n_ent_law_ps -->
<g id="node9" class="node">
<title>a_n_ent_law_ps</title>
<ellipse fill="none" stroke="#000000" cx="3491.5788" cy="-378" rx="73.5811" ry="18"/>
<text text-anchor="middle" x="3491.5788" y="-373.8" font-family="Times,serif" font-size="14.00" fill="#000000">a_n_ent_law_ps</text>
</g>
<!-- a_n_ent_law_ps&#45;&gt;fogi -->
<g id="edge11" class="edge">
<title>a_n_ent_law_ps-&gt;fogi</title>
<path fill="none" stroke="#000000" d="M3435.8213,-366.0093C3425.1424,-363.879 3414.033,-361.7763 3403.5788,-360 3271.1675,-337.5012 3112.7014,-318.2892 3042.3445,-310.1545"/>
<polygon fill="#000000" stroke="#000000" points="3042.5557,-306.6558 3032.2213,-308.9903 3041.7559,-313.6099 3042.5557,-306.6558"/>
</g>
<!-- a_n_ent_law_ps&#45;&gt;fkgl -->
<g id="edge12" class="edge">
<title>a_n_ent_law_ps-&gt;fkgl</title>
<path fill="none" stroke="#000000" d="M3444.9871,-364.0181C3374.8852,-343.6084 3237.7831,-306.1214 3118.5788,-288 2962.3977,-264.2573 2466.8822,-241.6533 2326.1702,-235.5853"/>
<polygon fill="#000000" stroke="#000000" points="2326.0483,-232.077 2315.9074,-235.145 2325.7481,-239.0706 2326.0483,-232.077"/>
</g>
<!-- a_space_ps -->
<g id="node10" class="node">
<title>a_space_ps</title>
<ellipse fill="none" stroke="#000000" cx="2438.5788" cy="-378" rx="55.0169" ry="18"/>
<text text-anchor="middle" x="2438.5788" y="-373.8" font-family="Times,serif" font-size="14.00" fill="#000000">a_space_ps</text>
</g>
<!-- a_space_ps&#45;&gt;fogi -->
<g id="edge13" class="edge">
<title>a_space_ps-&gt;fogi</title>
<path fill="none" stroke="#000000" d="M2478.6191,-365.6327C2486.505,-363.5114 2494.7589,-361.5084 2502.5788,-360 2675.011,-326.7383 2884.9356,-312.4926 2968.5961,-307.849"/>
<polygon fill="#000000" stroke="#000000" points="2968.829,-311.3416 2978.6248,-307.3051 2968.4499,-304.3518 2968.829,-311.3416"/>
</g>
<!-- a_space_ps&#45;&gt;a_kup_pw -->
<g id="edge14" class="edge">
<title>a_space_ps-&gt;a_kup_pw</title>
<path fill="none" stroke="#000000" d="M2410.6649,-362.4203C2369.3544,-339.5618 2293.6908,-298.5045 2264.5788,-288 2201.8085,-265.3505 2126.4835,-250.5582 2075.6518,-242.2787"/>
<polygon fill="#000000" stroke="#000000" points="2075.9334,-238.7795 2065.5067,-240.6598 2074.8302,-245.692 2075.9334,-238.7795"/>
</g>
<!-- a_space_ps&#45;&gt;fkgl -->
<g id="edge16" class="edge">
<title>a_space_ps-&gt;fkgl</title>
<path fill="none" stroke="#000000" d="M2420.7828,-360.9158C2393.5698,-334.7913 2341.619,-284.9186 2311.5808,-256.0819"/>
<polygon fill="#000000" stroke="#000000" points="2313.724,-253.2876 2304.0862,-248.8871 2308.8763,-258.3373 2313.724,-253.2876"/>
</g>
<!-- a_space_ps&#45;&gt;a_punct_pw -->
<g id="edge15" class="edge">
<title>a_space_ps-&gt;a_punct_pw</title>
<path fill="none" stroke="#000000" d="M2478.2097,-365.3487C2486.2044,-363.2243 2494.6034,-361.2927 2502.5788,-360 2608.3182,-342.8612 3347.2292,-316.2706 3577.3346,-308.3207"/>
<polygon fill="#000000" stroke="#000000" points="3577.7062,-311.81 3587.5796,-307.9674 3577.4649,-304.8142 3577.7062,-311.81"/>
</g>
<!-- a_space_ps&#45;&gt;black -->
<g id="edge155" class="edge">
<title>a_space_ps-&gt;black</title>
<path fill="none" stroke="#000000" d="M2428.5299,-359.987C2419.39,-340.9847 2409.0804,-310.7066 2421.5788,-288 2455.7272,-225.9605 2534.7438,-190.1967 2582.2951,-173.5498"/>
<polygon fill="#000000" stroke="#000000" points="2583.5876,-176.8074 2591.9369,-170.2851 2581.3426,-170.1771 2583.5876,-176.8074"/>
</g>
<!-- a_n_ent_money_ps -->
<g id="node11" class="node">
<title>a_n_ent_money_ps</title>
<ellipse fill="none" stroke="#000000" cx="669.5788" cy="-306" rx="86.2657" ry="18"/>
<text text-anchor="middle" x="669.5788" y="-301.8" font-family="Times,serif" font-size="14.00" fill="#000000">a_n_ent_money_ps</text>
</g>
<!-- a_n_ent_money_ps&#45;&gt;a_kup_pw -->
<g id="edge17" class="edge">
<title>a_n_ent_money_ps-&gt;a_kup_pw</title>
<path fill="none" stroke="#000000" d="M731.8015,-293.4612C744.2685,-291.3275 757.3063,-289.3637 769.5788,-288 1003.5181,-262.0043 1738.0223,-241.2685 1956.0049,-235.563"/>
<polygon fill="#000000" stroke="#000000" points="1956.3892,-239.0543 1966.2946,-235.2948 1956.2068,-232.0567 1956.3892,-239.0543"/>
</g>
<!-- a_n_ent_money_ps&#45;&gt;fkgl -->
<g id="edge18" class="edge">
<title>a_n_ent_money_ps-&gt;fkgl</title>
<path fill="none" stroke="#000000" d="M739.6385,-295.4636C761.3649,-292.5729 785.4198,-289.7547 807.5788,-288 1370.488,-243.4257 1513.8158,-284.0112 2077.5788,-252 2138.6568,-248.5319 2209.48,-241.9674 2251.5748,-237.7971"/>
<polygon fill="#000000" stroke="#000000" points="2252.0321,-241.2689 2261.6345,-236.7917 2251.3359,-234.3036 2252.0321,-241.2689"/>
</g>
<!-- root_punct_var -->
<g id="node12" class="node">
<title>root_punct_var</title>
<ellipse fill="none" stroke="#000000" cx="1003.5788" cy="-378" rx="70.0693" ry="18"/>
<text text-anchor="middle" x="1003.5788" y="-373.8" font-family="Times,serif" font-size="14.00" fill="#000000">root_punct_var</text>
</g>
<!-- root_punct_var&#45;&gt;a_kup_pw -->
<g id="edge19" class="edge">
<title>root_punct_var-&gt;a_kup_pw</title>
<path fill="none" stroke="#000000" d="M1015.7145,-359.9346C1031.3261,-338.4202 1060.6364,-303.456 1095.5788,-288 1173.8221,-253.3908 1762.4652,-238.9557 1956.0663,-235.1119"/>
<polygon fill="#000000" stroke="#000000" points="1956.1443,-238.6112 1966.0738,-234.9157 1956.0071,-231.6125 1956.1443,-238.6112"/>
</g>
<!-- root_punct_var&#45;&gt;fkgl -->
<g id="edge21" class="edge">
<title>root_punct_var-&gt;fkgl</title>
<path fill="none" stroke="#000000" d="M1031.1961,-361.2701C1068.3758,-339.7468 1137.2983,-303.3122 1201.5788,-288 1391.1068,-242.8529 1883.1355,-264.2832 2077.5788,-252 2138.6335,-248.1431 2209.4637,-241.6953 2251.5662,-237.6542"/>
<polygon fill="#000000" stroke="#000000" points="2252.011,-241.1276 2261.6279,-236.6817 2251.3375,-234.1601 2252.011,-241.1276"/>
</g>
<!-- root_punct_var&#45;&gt;WTopc20_S -->
<g id="edge20" class="edge">
<title>root_punct_var-&gt;WTopc20_S</title>
<path fill="none" stroke="#000000" d="M1056.8061,-366.0862C1066.9992,-363.9488 1077.6024,-361.8238 1087.5788,-360 1188.6827,-341.517 1306.7614,-324.5015 1378.3082,-314.6922"/>
<polygon fill="#000000" stroke="#000000" points="1379.0846,-318.1188 1388.5191,-313.2979 1378.1374,-311.1831 1379.0846,-318.1188"/>
</g>
<!-- WTopc10_S -->
<g id="node13" class="node">
<title>WTopc10_S</title>
<ellipse fill="none" stroke="#000000" cx="3010.5788" cy="-522" rx="59.6974" ry="18"/>
<text text-anchor="middle" x="3010.5788" y="-517.8" font-family="Times,serif" font-size="14.00" fill="#000000">WTopc10_S</text>
</g>
<!-- WTopc10_S&#45;&gt;a_kup_pw -->
<g id="edge22" class="edge">
<title>WTopc10_S-&gt;a_kup_pw</title>
<path fill="none" stroke="#000000" d="M3070.5978,-521.0768C3284.3268,-517.5006 3997.4012,-502.9805 4030.5788,-468 4041.5894,-456.3911 4038.3569,-445.9822 4030.5788,-432 3971.5833,-325.9461 3914.8912,-322.6315 3798.5788,-288 3633.8992,-238.9673 2424.1896,-260.5643 2252.5788,-252 2192.9937,-249.0264 2125.0527,-243.6012 2077.6018,-239.4816"/>
<polygon fill="#000000" stroke="#000000" points="2077.766,-235.9826 2067.4989,-238.5973 2077.1556,-242.956 2077.766,-235.9826"/>
</g>
<!-- WTopc10_S&#45;&gt;fkgl -->
<g id="edge27" class="edge">
<title>WTopc10_S-&gt;fkgl</title>
<path fill="none" stroke="#000000" d="M3070.4854,-520.3716C3279.3155,-514.4961 3967.6914,-493.389 4063.5788,-468 4175.094,-438.4732 4331.0193,-370.6849 4250.5788,-288 4215.7173,-252.1658 2595.049,-236.6441 2326.1836,-234.3138"/>
<polygon fill="#000000" stroke="#000000" points="2325.8198,-230.8107 2315.7901,-234.2245 2325.7596,-237.8104 2325.8198,-230.8107"/>
</g>
<!-- WTopc10_S&#45;&gt;a_punct_pw -->
<g id="edge24" class="edge">
<title>WTopc10_S-&gt;a_punct_pw</title>
<path fill="none" stroke="#000000" d="M3069.2823,-518.4902C3188.5582,-510.9603 3455.3993,-491.9754 3543.5788,-468 3617.6551,-447.8592 3659.1274,-460.612 3700.5788,-396 3709.2184,-382.5331 3706.7695,-374.7538 3700.5788,-360 3695.644,-348.2391 3686.7598,-337.7503 3677.5511,-329.2167"/>
<polygon fill="#000000" stroke="#000000" points="3679.6704,-326.4221 3669.819,-322.5233 3675.0889,-331.7145 3679.6704,-326.4221"/>
</g>
<!-- WTopc10_S&#45;&gt;a_n_ent_loc_pw -->
<g id="edge25" class="edge">
<title>WTopc10_S-&gt;a_n_ent_loc_pw</title>
<path fill="none" stroke="#000000" d="M3015.2028,-504.0213C3019.2041,-483.898 3021.9407,-451.557 3004.5788,-432 2946.9397,-367.0731 2895.1851,-422.7206 2812.5788,-396 2757.4372,-378.1633 2697.5554,-348.031 2659.82,-327.5934"/>
<polygon fill="#000000" stroke="#000000" points="2661.1732,-324.3444 2650.7197,-322.6196 2657.816,-330.4868 2661.1732,-324.3444"/>
</g>
<!-- WTopc10_S&#45;&gt;WTopc20_S -->
<g id="edge26" class="edge">
<title>WTopc10_S-&gt;WTopc20_S</title>
<path fill="none" stroke="#000000" d="M3008.0937,-503.8791C3004.2023,-482.9876 2994.5703,-449.3095 2971.5788,-432 2872.0463,-357.0651 2810.2501,-439.7012 2693.5788,-396 2666.5671,-385.8823 2666.9922,-368.9726 2639.5788,-360 2554.3816,-332.1142 1923.1314,-328.0665 1833.5788,-324 1721.4728,-318.9093 1591.2463,-312.8744 1513.2294,-309.2459"/>
<polygon fill="#000000" stroke="#000000" points="1513.1949,-305.7406 1503.0431,-308.772 1512.8696,-312.733 1513.1949,-305.7406"/>
</g>
<!-- WRich10_S -->
<g id="node14" class="node">
<title>WRich10_S</title>
<ellipse fill="none" stroke="#000000" cx="2904.5788" cy="-450" rx="58.49" ry="18"/>
<text text-anchor="middle" x="2904.5788" y="-445.8" font-family="Times,serif" font-size="14.00" fill="#000000">WRich10_S</text>
</g>
<!-- WTopc10_S&#45;&gt;WRich10_S -->
<g id="edge23" class="edge">
<title>WTopc10_S-&gt;WRich10_S</title>
<path fill="none" stroke="#000000" d="M2986.2603,-505.4817C2971.7169,-495.6032 2953.0504,-482.924 2937.2337,-472.1807"/>
<polygon fill="#000000" stroke="#000000" points="2939.023,-469.165 2928.7842,-466.4414 2935.0898,-474.9555 2939.023,-469.165"/>
</g>
<!-- bilog_ttr -->
<g id="node15" class="node">
<title>bilog_ttr</title>
<ellipse fill="none" stroke="#000000" cx="1652.5788" cy="-450" rx="44.1006" ry="18"/>
<text text-anchor="middle" x="1652.5788" y="-445.8" font-family="Times,serif" font-size="14.00" fill="#000000">bilog_ttr</text>
</g>
<!-- WTopc10_S&#45;&gt;bilog_ttr -->
<g id="edge28" class="edge">
<title>WTopc10_S-&gt;bilog_ttr</title>
<path fill="none" stroke="#000000" d="M2955.7985,-514.5531C2926.4287,-510.8246 2889.5883,-506.569 2856.5788,-504 2447.2824,-472.1461 2343.5692,-489.1235 1933.5788,-468 1854.5287,-463.9272 1763.0597,-457.8054 1706.5072,-453.8559"/>
<polygon fill="#000000" stroke="#000000" points="1706.5851,-450.3529 1696.3648,-453.1448 1706.0954,-457.3358 1706.5851,-450.3529"/>
</g>
<!-- WRich10_S&#45;&gt;fogi -->
<g id="edge30" class="edge">
<title>WRich10_S-&gt;fogi</title>
<path fill="none" stroke="#000000" d="M2956.6973,-441.7015C3005.0364,-432.815 3071.8113,-417.0924 3087.5788,-396 3097.1587,-383.1849 3095.1684,-374.0854 3087.5788,-360 3077.3455,-341.008 3057.1885,-327.5962 3039.4211,-318.8891"/>
<polygon fill="#000000" stroke="#000000" points="3040.4248,-315.4998 3029.8745,-314.5302 3037.5174,-321.8675 3040.4248,-315.4998"/>
</g>
<!-- WRich10_S&#45;&gt;fkgl -->
<g id="edge32" class="edge">
<title>WRich10_S-&gt;fkgl</title>
<path fill="none" stroke="#000000" d="M2957.806,-442.5675C2984.6809,-439.0012 3017.8169,-434.8873 3047.5788,-432 3105.9966,-426.3327 3534.5165,-438.8924 3574.5788,-396 3585.5002,-384.3071 3584.7059,-372.3872 3574.5788,-360 3472.6815,-235.3615 3379.2309,-308.7134 3219.5788,-288 3130.0183,-276.3804 2489.3471,-243.9947 2326.2683,-235.8682"/>
<polygon fill="#000000" stroke="#000000" points="2325.9576,-232.3485 2315.796,-235.347 2325.6096,-239.3398 2325.9576,-232.3485"/>
</g>
<!-- WRich10_S&#45;&gt;WTopc20_S -->
<g id="edge31" class="edge">
<title>WRich10_S-&gt;WTopc20_S</title>
<path fill="none" stroke="#000000" d="M2852.9677,-441.3656C2804.0183,-432.4706 2728.7682,-416.9555 2665.5788,-396 2628.186,-383.5994 2622.9119,-369.087 2584.5788,-360 2578.0248,-358.4463 1759.9123,-320.5959 1513.2069,-309.2104"/>
<polygon fill="#000000" stroke="#000000" points="1513.0847,-305.7011 1502.9339,-308.7363 1512.7619,-312.6937 1513.0847,-305.7011"/>
</g>
<!-- smog -->
<g id="node17" class="node">
<title>smog</title>
<ellipse fill="none" stroke="#000000" cx="2543.5788" cy="-378" rx="31.9224" ry="18"/>
<text text-anchor="middle" x="2543.5788" y="-373.8" font-family="Times,serif" font-size="14.00" fill="#000000">smog</text>
</g>
<!-- WRich10_S&#45;&gt;smog -->
<g id="edge33" class="edge">
<title>WRich10_S-&gt;smog</title>
<path fill="none" stroke="#000000" d="M2849.4872,-443.999C2786.0177,-436.2968 2678.9816,-420.8761 2589.5788,-396 2585.9798,-394.9986 2582.2736,-393.8167 2578.6009,-392.5449"/>
<polygon fill="#000000" stroke="#000000" points="2579.6477,-389.2007 2569.0542,-389.0302 2577.2292,-395.7696 2579.6477,-389.2007"/>
</g>
<!-- bilog_ttr&#45;&gt;a_kup_pw -->
<g id="edge149" class="edge">
<title>bilog_ttr-&gt;a_kup_pw</title>
<path fill="none" stroke="#000000" d="M1608.4016,-448.3658C1454.2057,-442.4511 947.9574,-421.1769 924.5788,-396 913.6916,-384.2753 916.6957,-373.9232 924.5788,-360 955.2231,-305.8763 985.122,-306.2574 1044.5788,-288 1131.3646,-261.3507 1756.6356,-241.4277 1956.3967,-235.6861"/>
<polygon fill="#000000" stroke="#000000" points="1956.5295,-239.1838 1966.4255,-235.3995 1956.3295,-232.1867 1956.5295,-239.1838"/>
</g>
<!-- bilog_ttr&#45;&gt;fkgl -->
<g id="edge153" class="edge">
<title>bilog_ttr-&gt;fkgl</title>
<path fill="none" stroke="#000000" d="M1609.1065,-446.3908C1520.1839,-438.5674 1324.1953,-418.8952 1304.5788,-396 1294.1686,-383.8498 1298.5602,-374.8248 1304.5788,-360 1321.3675,-318.6473 1333.9245,-306.4153 1374.5788,-288 1445.8239,-255.7279 1999.5469,-257.3248 2077.5788,-252 2138.6133,-247.8351 2209.4495,-241.4796 2251.5588,-237.541"/>
<polygon fill="#000000" stroke="#000000" points="2251.9938,-241.0156 2261.6221,-236.5945 2251.3383,-234.0464 2251.9938,-241.0156"/>
</g>
<!-- bilog_ttr&#45;&gt;a_punct_pw -->
<g id="edge150" class="edge">
<title>bilog_ttr-&gt;a_punct_pw</title>
<path fill="none" stroke="#000000" d="M1694.3673,-443.5783C1805.0227,-426.8374 2114.9514,-381.6608 2374.5788,-360 2611.5275,-340.2313 3349.0109,-315.5164 3577.4325,-308.1602"/>
<polygon fill="#000000" stroke="#000000" points="3577.7178,-311.6529 3587.6002,-307.8334 3577.4928,-304.6565 3577.7178,-311.6529"/>
</g>
<!-- bilog_ttr&#45;&gt;WTopc20_S -->
<g id="edge152" class="edge">
<title>bilog_ttr-&gt;WTopc20_S</title>
<path fill="none" stroke="#000000" d="M1611.7152,-442.8402C1592.2966,-439.4774 1568.7527,-435.4575 1547.5788,-432 1496.0882,-423.5921 1349.5244,-435.6192 1315.5788,-396 1305.1686,-383.8498 1306.7332,-373.3324 1315.5788,-360 1330.2345,-337.9106 1355.9,-324.835 1380.42,-317.105"/>
<polygon fill="#000000" stroke="#000000" points="1381.4652,-320.4462 1390.0956,-314.3006 1379.5165,-313.7228 1381.4652,-320.4462"/>
</g>
<!-- bilog_ttr&#45;&gt;a_space_ps -->
<g id="edge148" class="edge">
<title>bilog_ttr-&gt;a_space_ps</title>
<path fill="none" stroke="#000000" d="M1695.9572,-446.0264C1827.2241,-434.002 2220.6373,-397.9641 2375.2198,-383.8039"/>
<polygon fill="#000000" stroke="#000000" points="2375.852,-387.2607 2385.491,-382.863 2375.2134,-380.2899 2375.852,-387.2607"/>
</g>
<!-- bilog_ttr_no_lem -->
<g id="node20" class="node">
<title>bilog_ttr_no_lem</title>
<ellipse fill="none" stroke="#000000" cx="1945.5788" cy="-378" rx="78.1926" ry="18"/>
<text text-anchor="middle" x="1945.5788" y="-373.8" font-family="Times,serif" font-size="14.00" fill="#000000">bilog_ttr_no_lem</text>
</g>
<!-- bilog_ttr&#45;&gt;bilog_ttr_no_lem -->
<g id="edge151" class="edge">
<title>bilog_ttr-&gt;bilog_ttr_no_lem</title>
<path fill="none" stroke="#000000" d="M1690.5831,-440.6611C1739.1058,-428.7374 1823.7552,-407.9362 1882.1314,-393.5912"/>
<polygon fill="#000000" stroke="#000000" points="1883.1111,-396.9546 1891.9869,-391.1693 1881.4406,-390.1569 1883.1111,-396.9546"/>
</g>
<!-- a_n_ent_ordinal_pw -->
<g id="node16" class="node">
<title>a_n_ent_ordinal_pw</title>
<ellipse fill="none" stroke="#000000" cx="4129.5788" cy="-306" rx="90.3371" ry="18"/>
<text text-anchor="middle" x="4129.5788" y="-301.8" font-family="Times,serif" font-size="14.00" fill="#000000">a_n_ent_ordinal_pw</text>
</g>
<!-- a_n_ent_ordinal_pw&#45;&gt;fkgl -->
<g id="edge29" class="edge">
<title>a_n_ent_ordinal_pw-&gt;fkgl</title>
<path fill="none" stroke="#000000" d="M4064.8636,-293.3543C4051.8982,-291.2294 4038.34,-289.2962 4025.5788,-288 3679.3079,-252.8273 2546.2957,-237.1916 2325.9148,-234.4467"/>
<polygon fill="#000000" stroke="#000000" points="2325.8714,-230.946 2315.8289,-234.3222 2325.7849,-237.9455 2325.8714,-230.946"/>
</g>
<!-- smog&#45;&gt;fkgl -->
<g id="edge147" class="edge">
<title>smog-&gt;fkgl</title>
<path fill="none" stroke="#000000" d="M2574.1641,-372.1982C2616.6347,-363.4492 2690.0211,-345.5852 2705.5788,-324 2714.9342,-311.0201 2716.1411,-300.0182 2705.5788,-288 2680.6161,-259.5962 2422.8897,-241.7963 2325.5389,-236.0422"/>
<polygon fill="#000000" stroke="#000000" points="2325.7416,-232.5482 2315.5552,-235.4613 2325.3349,-239.5364 2325.7416,-232.5482"/>
</g>
<!-- smog&#45;&gt;black -->
<g id="edge157" class="edge">
<title>smog-&gt;black</title>
<path fill="none" stroke="#000000" d="M2574.4125,-373.2386C2620.9743,-365.3479 2705.7101,-348.0161 2723.5788,-324 2760.0592,-274.9693 2691.4348,-213.063 2649.5577,-181.8816"/>
<polygon fill="#000000" stroke="#000000" points="2651.4709,-178.9451 2641.3265,-175.8887 2647.3508,-184.6042 2651.4709,-178.9451"/>
</g>
<!-- error_rate -->
<g id="node49" class="node">
<title>error_rate</title>
<ellipse fill="none" stroke="#000000" cx="2479.5788" cy="-306" rx="49.1931" ry="18"/>
<text text-anchor="middle" x="2479.5788" y="-301.8" font-family="Times,serif" font-size="14.00" fill="#000000">error_rate</text>
</g>
<!-- smog&#45;&gt;error_rate -->
<g id="edge174" class="edge">
<title>smog-&gt;error_rate</title>
<path fill="none" stroke="#000000" d="M2529.0563,-361.6621C2520.9449,-352.5368 2510.6724,-340.9802 2501.5922,-330.765"/>
<polygon fill="#000000" stroke="#000000" points="2504.196,-328.4261 2494.9364,-323.2773 2498.9642,-333.0767 2504.196,-328.4261"/>
</g>
<!-- simp_ttr_no_lem -->
<g id="node18" class="node">
<title>simp_ttr_no_lem</title>
<ellipse fill="none" stroke="#000000" cx="2073.5788" cy="-522" rx="77.0468" ry="18"/>
<text text-anchor="middle" x="2073.5788" y="-517.8" font-family="Times,serif" font-size="14.00" fill="#000000">simp_ttr_no_lem</text>
</g>
<!-- simp_ttr_no_lem&#45;&gt;fogi -->
<g id="edge34" class="edge">
<title>simp_ttr_no_lem-&gt;fogi</title>
<path fill="none" stroke="#000000" d="M2143.838,-514.5048C2223.0846,-505.5621 2355.6428,-489.1295 2468.5788,-468 2536.3942,-455.3123 2551.5153,-443.2809 2619.5788,-432 2703.2598,-418.1306 2940.4424,-456.809 2999.5788,-396 3015.1262,-380.0129 3015.233,-353.9625 3012.2666,-333.9918"/>
<polygon fill="#000000" stroke="#000000" points="3015.6665,-333.1238 3010.4413,-323.9071 3008.7784,-334.3706 3015.6665,-333.1238"/>
</g>
<!-- simp_ttr_no_lem&#45;&gt;a_kup_pw -->
<g id="edge36" class="edge">
<title>simp_ttr_no_lem-&gt;a_kup_pw</title>
<path fill="none" stroke="#000000" d="M1997.7716,-518.7788C1909.3875,-515.0575 1758.9023,-508.8278 1629.5788,-504 1395.1612,-495.2488 806.0586,-506.0175 574.5788,-468 464.6878,-449.9519 401.055,-485.346 334.5788,-396 290.2118,-336.3694 403.4492,-293.2006 416.5788,-288 489.2905,-259.1993 1670.6088,-239.3155 1955.9193,-234.9184"/>
<polygon fill="#000000" stroke="#000000" points="1956.1374,-238.4155 1966.0825,-234.7625 1956.0299,-231.4164 1956.1374,-238.4155"/>
</g>
<!-- simp_ttr_no_lem&#45;&gt;fkgl -->
<g id="edge41" class="edge">
<title>simp_ttr_no_lem-&gt;fkgl</title>
<path fill="none" stroke="#000000" d="M2072.4524,-503.7957C2072.028,-484.9034 2073.4866,-454.962 2084.5788,-432 2089.466,-421.8832 2218.3923,-295.6951 2226.5788,-288 2238.547,-276.7503 2252.2826,-264.7035 2263.7788,-254.8492"/>
<polygon fill="#000000" stroke="#000000" points="2266.3541,-257.2532 2271.6967,-248.1039 2261.8147,-251.9246 2266.3541,-257.2532"/>
</g>
<!-- simp_ttr_no_lem&#45;&gt;a_n_ent_loc_pw -->
<g id="edge39" class="edge">
<title>simp_ttr_no_lem-&gt;a_n_ent_loc_pw</title>
<path fill="none" stroke="#000000" d="M2076.625,-503.9043C2080.9511,-483.6738 2090.7871,-451.2346 2111.5788,-432 2254.9576,-299.359 2345.7868,-360.9721 2537.5788,-324 2543.6335,-322.8328 2549.9235,-321.5732 2556.2147,-320.2813"/>
<polygon fill="#000000" stroke="#000000" points="2556.9898,-323.6951 2566.0685,-318.2335 2555.5655,-316.8416 2556.9898,-323.6951"/>
</g>
<!-- simp_ttr_no_lem&#45;&gt;WTopc20_S -->
<g id="edge40" class="edge">
<title>simp_ttr_no_lem-&gt;WTopc20_S</title>
<path fill="none" stroke="#000000" d="M2028.3184,-507.3719C1964.4308,-487.2926 1843.8377,-451.4714 1738.5788,-432 1662.3472,-417.8982 1443.4919,-453.5774 1391.5788,-396 1373.6849,-376.1536 1393.8914,-349.1534 1414.1077,-329.9161"/>
<polygon fill="#000000" stroke="#000000" points="1416.7249,-332.2673 1421.7768,-322.9545 1412.02,-327.0843 1416.7249,-332.2673"/>
</g>
<!-- simp_ttr_no_lem&#45;&gt;a_space_ps -->
<g id="edge35" class="edge">
<title>simp_ttr_no_lem-&gt;a_space_ps</title>
<path fill="none" stroke="#000000" d="M2122.4209,-508.0731C2150.9456,-498.8547 2187.0255,-485.2779 2216.5788,-468 2238.096,-455.4203 2237.6461,-443.8401 2259.5788,-432 2271.0027,-425.833 2338.0517,-406.2856 2386.7426,-392.4894"/>
<polygon fill="#000000" stroke="#000000" points="2387.8492,-395.8139 2396.5204,-389.7262 2385.9455,-389.0777 2387.8492,-395.8139"/>
</g>
<!-- simp_ttr_no_lem&#45;&gt;bilog_ttr -->
<g id="edge43" class="edge">
<title>simp_ttr_no_lem-&gt;bilog_ttr</title>
<path fill="none" stroke="#000000" d="M2011.0055,-511.2986C1927.3748,-496.996 1780.7539,-471.9207 1703.5068,-458.7098"/>
<polygon fill="#000000" stroke="#000000" points="1703.9805,-455.24 1693.5336,-457.0041 1702.8004,-462.1399 1703.9805,-455.24"/>
</g>
<!-- simp_ttr_no_lem&#45;&gt;smog -->
<g id="edge42" class="edge">
<title>simp_ttr_no_lem-&gt;smog</title>
<path fill="none" stroke="#000000" d="M2145.233,-515.1629C2232.8464,-506.0801 2375.5304,-488.7423 2424.5788,-468 2461.9259,-452.2061 2498.0951,-422.0746 2520.562,-401.046"/>
<polygon fill="#000000" stroke="#000000" points="2523.0995,-403.4623 2527.9168,-394.026 2518.2664,-398.3987 2523.0995,-403.4623"/>
</g>
<!-- simp_ttr -->
<g id="node19" class="node">
<title>simp_ttr</title>
<ellipse fill="none" stroke="#000000" cx="2671.5788" cy="-450" rx="43.4551" ry="18"/>
<text text-anchor="middle" x="2671.5788" y="-445.8" font-family="Times,serif" font-size="14.00" fill="#000000">simp_ttr</text>
</g>
<!-- simp_ttr_no_lem&#45;&gt;simp_ttr -->
<g id="edge37" class="edge">
<title>simp_ttr_no_lem-&gt;simp_ttr</title>
<path fill="none" stroke="#000000" d="M2150.0336,-519.3343C2255.508,-514.5343 2451.159,-501.5834 2614.5788,-468 2619.2262,-467.0449 2624.0316,-465.8569 2628.7903,-464.5496"/>
<polygon fill="#000000" stroke="#000000" points="2629.8095,-467.8983 2638.4272,-461.735 2627.847,-461.179 2629.8095,-467.8983"/>
</g>
<!-- simp_ttr_no_lem&#45;&gt;bilog_ttr_no_lem -->
<g id="edge38" class="edge">
<title>simp_ttr_no_lem-&gt;bilog_ttr_no_lem</title>
<path fill="none" stroke="#000000" d="M2021.6149,-508.5938C1986.269,-498.3033 1944.0797,-483.3053 1933.5788,-468 1921.0484,-449.7366 1925.8878,-424.4092 1932.8046,-405.2737"/>
<polygon fill="#000000" stroke="#000000" points="1936.0885,-406.4874 1936.53,-395.9018 1929.5836,-403.9016 1936.0885,-406.4874"/>
</g>
<!-- a_num_pw -->
<g id="node22" class="node">
<title>a_num_pw</title>
<ellipse fill="none" stroke="#000000" cx="3307.5788" cy="-378" rx="53.8982" ry="18"/>
<text text-anchor="middle" x="3307.5788" y="-373.8" font-family="Times,serif" font-size="14.00" fill="#000000">a_num_pw</text>
</g>
<!-- simp_ttr&#45;&gt;a_num_pw -->
<g id="edge53" class="edge">
<title>simp_ttr-&gt;a_num_pw</title>
<path fill="none" stroke="#000000" d="M2713.3086,-445.2759C2822.5497,-432.909 3117.3403,-399.5364 3246.0535,-384.9651"/>
<polygon fill="#000000" stroke="#000000" points="3246.5954,-388.4262 3256.1382,-383.8235 3245.8079,-381.4707 3246.5954,-388.4262"/>
</g>
<!-- bilog_ttr_no_lem&#45;&gt;fogi -->
<g id="edge112" class="edge">
<title>bilog_ttr_no_lem-&gt;fogi</title>
<path fill="none" stroke="#000000" d="M2019.7814,-372.3798C2068.1291,-368.7539 2132.5877,-363.9878 2189.5788,-360 2490.0158,-338.9777 2852.8341,-315.7172 2968.3672,-308.3621"/>
<polygon fill="#000000" stroke="#000000" points="2968.6975,-311.8482 2978.4551,-307.7203 2968.253,-304.8623 2968.6975,-311.8482"/>
</g>
<!-- bilog_ttr_no_lem&#45;&gt;a_kup_pw -->
<g id="edge113" class="edge">
<title>bilog_ttr_no_lem-&gt;a_kup_pw</title>
<path fill="none" stroke="#000000" d="M1954.5521,-360.0535C1966.948,-335.2618 1989.4185,-290.3207 2003.91,-261.3378"/>
<polygon fill="#000000" stroke="#000000" points="2007.1508,-262.6823 2008.4925,-252.1727 2000.8898,-259.5517 2007.1508,-262.6823"/>
</g>
<!-- bilog_ttr_no_lem&#45;&gt;fkgl -->
<g id="edge116" class="edge">
<title>bilog_ttr_no_lem-&gt;fkgl</title>
<path fill="none" stroke="#000000" d="M1983.4048,-362.1853C2009.1192,-351.4296 2043.9072,-336.8693 2074.5788,-324 2138.9206,-297.0033 2214.106,-265.3611 2256.0442,-247.7026"/>
<polygon fill="#000000" stroke="#000000" points="2257.6089,-250.8414 2265.4668,-243.7348 2254.8923,-244.39 2257.6089,-250.8414"/>
</g>
<!-- bilog_ttr_no_lem&#45;&gt;a_punct_pw -->
<g id="edge114" class="edge">
<title>bilog_ttr_no_lem-&gt;a_punct_pw</title>
<path fill="none" stroke="#000000" d="M2019.208,-371.8638C2067.6006,-368.0047 2132.3238,-363.1725 2189.5788,-360 2465.0023,-344.7386 3327.9436,-316.2863 3577.4068,-308.1966"/>
<polygon fill="#000000" stroke="#000000" points="3577.5423,-311.6941 3587.4237,-307.872 3577.3155,-304.6978 3577.5423,-311.6941"/>
</g>
<!-- bilog_ttr_no_lem&#45;&gt;WTopc20_S -->
<g id="edge115" class="edge">
<title>bilog_ttr_no_lem-&gt;WTopc20_S</title>
<path fill="none" stroke="#000000" d="M1879.1762,-368.4761C1782.376,-354.5924 1603.6601,-328.9599 1507.9949,-315.239"/>
<polygon fill="#000000" stroke="#000000" points="1508.272,-311.743 1497.8764,-313.7877 1507.2782,-318.6721 1508.272,-311.743"/>
</g>
<!-- a_n_ent_cardinal_pw -->
<g id="node21" class="node">
<title>a_n_ent_cardinal_pw</title>
<ellipse fill="none" stroke="#000000" cx="3927.5788" cy="-450" rx="94.3273" ry="18"/>
<text text-anchor="middle" x="3927.5788" y="-445.8" font-family="Times,serif" font-size="14.00" fill="#000000">a_n_ent_cardinal_pw</text>
</g>
<!-- a_n_ent_cardinal_pw&#45;&gt;a_kup_pw -->
<g id="edge44" class="edge">
<title>a_n_ent_cardinal_pw-&gt;a_kup_pw</title>
<path fill="none" stroke="#000000" d="M3915.5389,-431.9658C3890.6381,-396.4775 3829.5716,-318.3898 3755.5788,-288 3678.3175,-256.2678 2335.9976,-256.1909 2252.5788,-252 2192.9947,-249.0065 2125.0536,-243.5841 2077.6023,-239.4705"/>
<polygon fill="#000000" stroke="#000000" points="2077.7662,-235.9716 2067.4994,-238.5876 2077.1567,-242.945 2077.7662,-235.9716"/>
</g>
<!-- a_n_ent_cardinal_pw&#45;&gt;fkgl -->
<g id="edge47" class="edge">
<title>a_n_ent_cardinal_pw-&gt;fkgl</title>
<path fill="none" stroke="#000000" d="M3999.1497,-438.2065C4110.7256,-417.0596 4305.7436,-367.3425 4228.5788,-288 4194.1316,-252.5805 2593.2963,-236.7266 2326.182,-234.3258"/>
<polygon fill="#000000" stroke="#000000" points="2325.8816,-230.8231 2315.8508,-234.2337 2325.8192,-237.8228 2325.8816,-230.8231"/>
</g>
<!-- a_n_ent_cardinal_pw&#45;&gt;a_punct_pw -->
<g id="edge46" class="edge">
<title>a_n_ent_cardinal_pw-&gt;a_punct_pw</title>
<path fill="none" stroke="#000000" d="M3913.9498,-432.0843C3897.5231,-411.7094 3868.0488,-378.8359 3835.5788,-360 3796.3684,-337.254 3746.9924,-323.6004 3708.4035,-315.7139"/>
<polygon fill="#000000" stroke="#000000" points="3708.8189,-312.2287 3698.3317,-313.7355 3707.4695,-319.0975 3708.8189,-312.2287"/>
</g>
<!-- a_n_ent_cardinal_pw&#45;&gt;a_num_pw -->
<g id="edge45" class="edge">
<title>a_n_ent_cardinal_pw-&gt;a_num_pw</title>
<path fill="none" stroke="#000000" d="M3840.5643,-442.8927C3737.2773,-434.0069 3559.9543,-417.3352 3408.5788,-396 3394.2449,-393.9797 3378.8325,-391.428 3364.4711,-388.8859"/>
<polygon fill="#000000" stroke="#000000" points="3364.6916,-385.3695 3354.23,-387.0443 3363.4526,-392.259 3364.6916,-385.3695"/>
</g>
<!-- a_num_pw&#45;&gt;fogi -->
<g id="edge51" class="edge">
<title>a_num_pw-&gt;fogi</title>
<path fill="none" stroke="#000000" d="M3265.555,-366.6514C3256.9736,-364.3973 3247.9952,-362.0845 3239.5788,-360 3169.4093,-342.6211 3086.9488,-324.0123 3041.035,-313.8117"/>
<polygon fill="#000000" stroke="#000000" points="3041.7863,-310.3933 3031.2658,-311.6457 3040.2711,-317.2274 3041.7863,-310.3933"/>
</g>
<!-- a_num_pw&#45;&gt;fkgl -->
<g id="edge52" class="edge">
<title>a_num_pw-&gt;fkgl</title>
<path fill="none" stroke="#000000" d="M3274.3256,-363.6706C3224.6982,-342.9993 3127.8414,-305.3896 3041.5788,-288 2902.1006,-259.8827 2457.5669,-240.6163 2325.7574,-235.4127"/>
<polygon fill="#000000" stroke="#000000" points="2325.8783,-231.9148 2315.749,-235.021 2325.6045,-238.9095 2325.8783,-231.9148"/>
</g>
<!-- a_n_ent_ordinal_ps -->
<g id="node23" class="node">
<title>a_n_ent_ordinal_ps</title>
<ellipse fill="none" stroke="#000000" cx="3447.5788" cy="-450" rx="87.406" ry="18"/>
<text text-anchor="middle" x="3447.5788" y="-445.8" font-family="Times,serif" font-size="14.00" fill="#000000">a_n_ent_ordinal_ps</text>
</g>
<!-- a_n_ent_ordinal_ps&#45;&gt;fogi -->
<g id="edge48" class="edge">
<title>a_n_ent_ordinal_ps-&gt;fogi</title>
<path fill="none" stroke="#000000" d="M3386.6705,-437.0386C3345.8467,-427.5667 3291.2306,-413.3675 3244.5788,-396 3210.3027,-383.2397 3204.4823,-373.72 3170.5788,-360 3126.5212,-342.1709 3074.1362,-325.8176 3040.3987,-315.8867"/>
<polygon fill="#000000" stroke="#000000" points="3041.137,-312.4563 3030.5569,-313.0164 3039.177,-319.1763 3041.137,-312.4563"/>
</g>
<!-- a_n_ent_ordinal_ps&#45;&gt;a_n_ent_ordinal_pw -->
<g id="edge49" class="edge">
<title>a_n_ent_ordinal_ps-&gt;a_n_ent_ordinal_pw</title>
<path fill="none" stroke="#000000" d="M3530.9843,-444.6322C3652.8179,-436.1788 3873.2492,-418.3961 3949.5788,-396 4002.5121,-380.4687 4058.6218,-349.8602 4093.8544,-328.6805"/>
<polygon fill="#000000" stroke="#000000" points="4096.0603,-331.4352 4102.7824,-323.2459 4092.4206,-325.4559 4096.0603,-331.4352"/>
</g>
<!-- a_n_ent_ordinal_ps&#45;&gt;a_num_pw -->
<g id="edge50" class="edge">
<title>a_n_ent_ordinal_ps-&gt;a_num_pw</title>
<path fill="none" stroke="#000000" d="M3414.7551,-433.1192C3394.3386,-422.6193 3367.9782,-409.0625 3346.5093,-398.0214"/>
<polygon fill="#000000" stroke="#000000" points="3347.8284,-394.7641 3337.3348,-393.3031 3344.627,-400.9891 3347.8284,-394.7641"/>
</g>
<!-- a_n_ent_fac_pw -->
<g id="node24" class="node">
<title>a_n_ent_fac_pw</title>
<ellipse fill="none" stroke="#000000" cx="3267.5788" cy="-450" rx="74.7053" ry="18"/>
<text text-anchor="middle" x="3267.5788" y="-445.8" font-family="Times,serif" font-size="14.00" fill="#000000">a_n_ent_fac_pw</text>
</g>
<!-- a_n_ent_fac_pw&#45;&gt;fogi -->
<g id="edge54" class="edge">
<title>a_n_ent_fac_pw-&gt;fogi</title>
<path fill="none" stroke="#000000" d="M3243.2895,-432.9247C3215.71,-413.9122 3169.0247,-382.8549 3126.5788,-360 3097.6118,-344.4028 3063.2464,-329.3793 3038.5548,-319.1564"/>
<polygon fill="#000000" stroke="#000000" points="3039.8487,-315.9042 3029.2684,-315.349 3037.1932,-322.381 3039.8487,-315.9042"/>
</g>
<!-- a_n_ent_fac_pw&#45;&gt;a_kup_pw -->
<g id="edge56" class="edge">
<title>a_n_ent_fac_pw-&gt;a_kup_pw</title>
<path fill="none" stroke="#000000" d="M3321.6412,-437.5148C3331.5637,-435.4801 3341.8563,-433.5385 3351.5788,-432 3428.5877,-419.814 3637.2098,-441.4228 3700.5788,-396 3741.3722,-366.7594 3768.6352,-323.9188 3733.5788,-288 3704.8364,-258.5504 2293.6777,-254.0721 2252.5788,-252 2192.9952,-248.9959 2125.0541,-243.575 2077.6026,-239.4646"/>
<polygon fill="#000000" stroke="#000000" points="2077.7662,-235.9657 2067.4997,-238.5825 2077.1573,-242.9392 2077.7662,-235.9657"/>
</g>
<!-- a_n_ent_fac_pw&#45;&gt;fkgl -->
<g id="edge59" class="edge">
<title>a_n_ent_fac_pw-&gt;fkgl</title>
<path fill="none" stroke="#000000" d="M3321.1442,-437.2955C3331.2099,-435.2575 3341.6807,-433.3711 3351.5788,-432 3413.3398,-423.4448 3868.9279,-441.4808 3911.5788,-396 3944.4132,-360.9871 3944.9509,-322.5008 3911.5788,-288 3883.09,-258.5475 2567.0704,-238.0439 2326.2192,-234.5349"/>
<polygon fill="#000000" stroke="#000000" points="2325.9342,-231.0305 2315.8845,-234.3852 2325.8327,-238.0297 2325.9342,-231.0305"/>
</g>
<!-- a_n_ent_fac_pw&#45;&gt;a_punct_pw -->
<g id="edge57" class="edge">
<title>a_n_ent_fac_pw-&gt;a_punct_pw</title>
<path fill="none" stroke="#000000" d="M3322.0992,-437.4641C3331.8814,-435.4587 3342.0076,-433.5402 3351.5788,-432 3424.8465,-420.2097 3634.0133,-451.2306 3683.5788,-396 3700.206,-377.4725 3685.2751,-350.6048 3669.5079,-331.0512"/>
<polygon fill="#000000" stroke="#000000" points="3672.1682,-328.7767 3663.0235,-323.4264 3666.8358,-333.3117 3672.1682,-328.7767"/>
</g>
<!-- a_n_ent_fac_pw&#45;&gt;WTopc20_S -->
<g id="edge58" class="edge">
<title>a_n_ent_fac_pw-&gt;WTopc20_S</title>
<path fill="none" stroke="#000000" d="M3213.5241,-437.4661C3203.6008,-435.4364 3193.306,-433.5091 3183.5788,-432 3019.8738,-406.6028 2970.2747,-446.7578 2812.5788,-396 2782.2474,-386.2372 2781.1784,-368.887 2750.5788,-360 2652.6576,-331.5609 1935.4534,-328.3506 1833.5788,-324 1721.2974,-319.2049 1590.8605,-313.0704 1512.8865,-309.343"/>
<polygon fill="#000000" stroke="#000000" points="1512.8635,-305.838 1502.7075,-308.8558 1512.5287,-312.83 1512.8635,-305.838"/>
</g>
<!-- a_n_ent_fac_pw&#45;&gt;a_space_ps -->
<g id="edge55" class="edge">
<title>a_n_ent_fac_pw-&gt;a_space_ps</title>
<path fill="none" stroke="#000000" d="M3214.4765,-437.2943C3204.2719,-435.2299 3193.6325,-433.3344 3183.5788,-432 2883.1244,-392.1222 2801.6265,-445.3319 2502.5788,-396 2497.8456,-395.2192 2492.9623,-394.2175 2488.1025,-393.0871"/>
<polygon fill="#000000" stroke="#000000" points="2488.7658,-389.6453 2478.2155,-390.6159 2487.0683,-396.4364 2488.7658,-389.6453"/>
</g>
<!-- a_subtlex_us_zipf_pw -->
<g id="node25" class="node">
<title>a_subtlex_us_zipf_pw</title>
<ellipse fill="none" stroke="#000000" cx="1486.5788" cy="-594" rx="97.8594" ry="18"/>
<text text-anchor="middle" x="1486.5788" y="-589.8" font-family="Times,serif" font-size="14.00" fill="#000000">a_subtlex_us_zipf_pw</text>
</g>
<!-- a_subtlex_us_zipf_pw&#45;&gt;fogi -->
<g id="edge60" class="edge">
<title>a_subtlex_us_zipf_pw-&gt;fogi</title>
<path fill="none" stroke="#000000" d="M1487.5279,-575.7777C1489.1559,-556.8708 1493.5764,-526.9176 1505.5788,-504 1525.9998,-465.0081 1535.2188,-453.5845 1573.5788,-432 1640.1287,-394.5536 1674.501,-432.4921 1741.5788,-396 1761.4553,-385.1867 1756.8456,-369.0628 1777.5788,-360 1872.1293,-318.6707 2602.5158,-329.0904 2705.5788,-324 2800.3129,-319.321 2911.7769,-312.2108 2968.4431,-308.4816"/>
<polygon fill="#000000" stroke="#000000" points="2968.9498,-311.9558 2978.6973,-307.8042 2968.4884,-304.971 2968.9498,-311.9558"/>
</g>
<!-- a_subtlex_us_zipf_pw&#45;&gt;a_kup_pw -->
<g id="edge62" class="edge">
<title>a_subtlex_us_zipf_pw-&gt;a_kup_pw</title>
<path fill="none" stroke="#000000" d="M1389.0297,-592.3206C1095.9156,-586.9618 239.9245,-568.907 187.5788,-540 145.0588,-516.519 125.5788,-498.5727 125.5788,-450 125.5788,-450 125.5788,-450 125.5788,-378 125.5788,-294.4669 209.9683,-309.9025 290.5788,-288 453.567,-243.7149 1666.415,-235.5556 1955.7407,-234.2336"/>
<polygon fill="#000000" stroke="#000000" points="1956.0559,-237.7324 1966.0402,-234.1877 1956.0246,-230.7324 1956.0559,-237.7324"/>
</g>
<!-- a_subtlex_us_zipf_pw&#45;&gt;fkgl -->
<g id="edge65" class="edge">
<title>a_subtlex_us_zipf_pw-&gt;fkgl</title>
<path fill="none" stroke="#000000" d="M1388.9741,-592.2956C1193.5281,-588.1692 760.5382,-575.2456 616.5788,-540 472.1553,-504.6408 261.3199,-489.3892 334.5788,-360 460.5504,-137.5103 135.4182,-356.2771 2077.5788,-252 2138.6672,-248.7201 2209.4873,-242.0992 2251.5786,-237.8662"/>
<polygon fill="#000000" stroke="#000000" points="2252.0421,-241.3373 2261.6374,-236.845 2251.335,-234.3731 2252.0421,-241.3373"/>
</g>
<!-- a_subtlex_us_zipf_pw&#45;&gt;a_space_ps -->
<g id="edge61" class="edge">
<title>a_subtlex_us_zipf_pw-&gt;a_space_ps</title>
<path fill="none" stroke="#000000" d="M1580.906,-589.0099C1739.1497,-580.2057 2051.3891,-560.8624 2159.5788,-540 2265.5884,-519.558 2308.6734,-537.1563 2391.5788,-468 2410.9171,-451.8689 2423.3088,-425.7132 2430.4846,-405.7454"/>
<polygon fill="#000000" stroke="#000000" points="2433.8135,-406.8268 2433.6833,-396.2328 2427.1785,-404.5957 2433.8135,-406.8268"/>
</g>
<!-- a_subtlex_us_zipf_pw&#45;&gt;bilog_ttr -->
<g id="edge68" class="edge">
<title>a_subtlex_us_zipf_pw-&gt;bilog_ttr</title>
<path fill="none" stroke="#000000" d="M1557.7489,-581.4739C1583.6022,-573.5799 1610.9977,-560.7645 1629.5788,-540 1644.6416,-523.1674 1650.1069,-497.8131 1651.9678,-478.3006"/>
<polygon fill="#000000" stroke="#000000" points="1655.4712,-478.37 1652.6688,-468.1525 1648.4879,-477.8875 1655.4712,-478.37"/>
</g>
<!-- a_subtlex_us_zipf_pw&#45;&gt;smog -->
<g id="edge67" class="edge">
<title>a_subtlex_us_zipf_pw-&gt;smog</title>
<path fill="none" stroke="#000000" d="M1583.9249,-591.5803C1762.78,-586.4141 2136.8726,-572.0617 2262.5788,-540 2366.2989,-513.5459 2470.9174,-437.0595 2517.9144,-399.4268"/>
<polygon fill="#000000" stroke="#000000" points="2520.1743,-402.1005 2525.7439,-393.0877 2515.7695,-396.6601 2520.1743,-402.1005"/>
</g>
<!-- a_subtlex_us_zipf_pw&#45;&gt;simp_ttr_no_lem -->
<g id="edge63" class="edge">
<title>a_subtlex_us_zipf_pw-&gt;simp_ttr_no_lem</title>
<path fill="none" stroke="#000000" d="M1568.1987,-583.9887C1681.0757,-570.1435 1883.4802,-545.317 1994.8206,-531.6603"/>
<polygon fill="#000000" stroke="#000000" points="1995.4771,-535.1061 2004.9766,-530.4146 1994.6248,-528.1582 1995.4771,-535.1061"/>
</g>
<!-- a_stopword_pw -->
<g id="node26" class="node">
<title>a_stopword_pw</title>
<ellipse fill="none" stroke="#000000" cx="416.5788" cy="-378" rx="72.9392" ry="18"/>
<text text-anchor="middle" x="416.5788" y="-373.8" font-family="Times,serif" font-size="14.00" fill="#000000">a_stopword_pw</text>
</g>
<!-- a_subtlex_us_zipf_pw&#45;&gt;a_stopword_pw -->
<g id="edge64" class="edge">
<title>a_subtlex_us_zipf_pw-&gt;a_stopword_pw</title>
<path fill="none" stroke="#000000" d="M1391.3585,-589.7867C1175.9829,-578.9874 658.1417,-545.5264 503.5788,-468 474.5547,-453.4419 449.7742,-425.2193 434.1707,-404.2419"/>
<polygon fill="#000000" stroke="#000000" points="436.9439,-402.1036 428.2567,-396.0386 431.2656,-406.1972 436.9439,-402.1036"/>
</g>
<!-- a_det_pw -->
<g id="node27" class="node">
<title>a_det_pw</title>
<ellipse fill="none" stroke="#000000" cx="48.5788" cy="-522" rx="48.6578" ry="18"/>
<text text-anchor="middle" x="48.5788" y="-517.8" font-family="Times,serif" font-size="14.00" fill="#000000">a_det_pw</text>
</g>
<!-- a_subtlex_us_zipf_pw&#45;&gt;a_det_pw -->
<g id="edge66" class="edge">
<title>a_subtlex_us_zipf_pw-&gt;a_det_pw</title>
<path fill="none" stroke="#000000" d="M1388.5095,-593.1895C1116.7394,-590.4593 357.7935,-579.4249 111.5788,-540 106.1032,-539.1232 100.4284,-537.9276 94.8289,-536.5664"/>
<polygon fill="#000000" stroke="#000000" points="95.4502,-533.1114 84.8903,-533.9706 93.6812,-539.8842 95.4502,-533.1114"/>
</g>
<!-- a_stopword_pw&#45;&gt;a_kup_pw -->
<g id="edge117" class="edge">
<title>a_stopword_pw-&gt;a_kup_pw</title>
<path fill="none" stroke="#000000" d="M415.6014,-359.7782C415.5854,-338.7897 419.1954,-305.0183 440.5788,-288 470.7505,-263.9876 1668.3786,-240.431 1955.9644,-235.113"/>
<polygon fill="#000000" stroke="#000000" points="1956.2717,-238.608 1966.2054,-234.9243 1956.1426,-231.6092 1956.2717,-238.608"/>
</g>
<!-- a_stopword_pw&#45;&gt;fkgl -->
<g id="edge119" class="edge">
<title>a_stopword_pw-&gt;fkgl</title>
<path fill="none" stroke="#000000" d="M427.4725,-360.1306C441.8343,-338.4639 469.3368,-302.9889 503.5788,-288 583.7058,-252.9257 1990.239,-256.7196 2077.5788,-252 2138.6661,-248.699 2209.4865,-242.0844 2251.5782,-237.8585"/>
<polygon fill="#000000" stroke="#000000" points="2252.041,-241.3296 2261.6371,-236.839 2251.3351,-234.3653 2252.041,-241.3296"/>
</g>
<!-- a_stopword_pw&#45;&gt;WTopc20_S -->
<g id="edge118" class="edge">
<title>a_stopword_pw-&gt;WTopc20_S</title>
<path fill="none" stroke="#000000" d="M485.9363,-372.5043C532.4938,-368.8548 595.2091,-364.0148 650.5788,-360 918.4495,-340.5772 1237.3751,-319.4749 1374.892,-310.4735"/>
<polygon fill="#000000" stroke="#000000" points="1375.1215,-313.9661 1384.8716,-309.8207 1374.6645,-306.981 1375.1215,-313.9661"/>
</g>
<!-- a_det_pw&#45;&gt;a_kup_pw -->
<g id="edge134" class="edge">
<title>a_det_pw-&gt;a_kup_pw</title>
<path fill="none" stroke="#000000" d="M47.0017,-503.8709C44.2024,-458.7652 44.0383,-341.2967 111.5788,-288 148.6344,-258.7593 1633.4637,-238.7483 1956.1194,-234.7401"/>
<polygon fill="#000000" stroke="#000000" points="1956.2601,-238.2388 1966.216,-234.6152 1956.1734,-231.2393 1956.2601,-238.2388"/>
</g>
<!-- a_n_ent_percent_ps -->
<g id="node28" class="node">
<title>a_n_ent_percent_ps</title>
<ellipse fill="none" stroke="#000000" cx="671.5788" cy="-450" rx="88.0287" ry="18"/>
<text text-anchor="middle" x="671.5788" y="-445.8" font-family="Times,serif" font-size="14.00" fill="#000000">a_n_ent_percent_ps</text>
</g>
<!-- a_n_ent_percent_ps&#45;&gt;t_n_ent_money -->
<g id="edge69" class="edge">
<title>a_n_ent_percent_ps-&gt;t_n_ent_money</title>
<path fill="none" stroke="#000000" d="M686.1631,-432.2022C693.1836,-423.6348 701.7336,-413.2009 709.4504,-403.7839"/>
<polygon fill="#000000" stroke="#000000" points="712.3268,-405.7957 715.9579,-395.8425 706.9124,-401.359 712.3268,-405.7957"/>
</g>
<!-- a_n_ent_percent_ps&#45;&gt;a_n_ent_money_ps -->
<g id="edge70" class="edge">
<title>a_n_ent_percent_ps-&gt;a_n_ent_money_ps</title>
<path fill="none" stroke="#000000" d="M646.9233,-432.6807C635.7094,-423.2695 623.6166,-410.5763 617.5788,-396 611.4559,-381.2179 611.5956,-374.8392 617.5788,-360 622.0584,-348.8902 630.0384,-338.7889 638.4229,-330.407"/>
<polygon fill="#000000" stroke="#000000" points="640.8975,-332.8849 645.8173,-323.5016 636.1198,-327.7688 640.8975,-332.8849"/>
</g>
<!-- simp_propn_var -->
<g id="node29" class="node">
<title>simp_propn_var</title>
<ellipse fill="none" stroke="#000000" cx="1177.5788" cy="-522" rx="74.1644" ry="18"/>
<text text-anchor="middle" x="1177.5788" y="-517.8" font-family="Times,serif" font-size="14.00" fill="#000000">simp_propn_var</text>
</g>
<!-- simp_propn_var&#45;&gt;fogi -->
<g id="edge71" class="edge">
<title>simp_propn_var-&gt;fogi</title>
<path fill="none" stroke="#000000" d="M1220.9136,-507.2626C1279.4719,-487.7892 1387.3921,-453.4523 1481.5788,-432 1579.4662,-409.7049 1612.8037,-436.6981 1704.5788,-396 1727.9924,-385.6171 1725.574,-368.9312 1749.5788,-360 1849.2043,-322.9334 2599.4078,-329.1835 2705.5788,-324 2800.3155,-319.3747 2911.7785,-312.242 2968.4437,-308.4951"/>
<polygon fill="#000000" stroke="#000000" points="2968.9517,-311.9692 2978.6978,-307.8144 2968.4879,-304.9846 2968.9517,-311.9692"/>
</g>
<!-- simp_propn_var&#45;&gt;a_kup_pw -->
<g id="edge72" class="edge">
<title>simp_propn_var-&gt;a_kup_pw</title>
<path fill="none" stroke="#000000" d="M1103.6863,-519.8208C901.6462,-513.5331 353.1235,-494.127 324.5788,-468 265.5583,-413.9782 262.8171,-342.3031 321.5788,-288 352.1819,-259.7191 1654.1705,-239.2383 1955.6942,-234.869"/>
<polygon fill="#000000" stroke="#000000" points="1956.0461,-238.3644 1965.9945,-234.7204 1955.945,-231.3651 1956.0461,-238.3644"/>
</g>
<!-- simp_propn_var&#45;&gt;fkgl -->
<g id="edge74" class="edge">
<title>simp_propn_var-&gt;fkgl</title>
<path fill="none" stroke="#000000" d="M1103.4431,-520.6554C945.1446,-517.0818 585.1504,-504.944 544.5788,-468 485.4277,-414.1377 483.7965,-340.0145 544.5788,-288 576.9417,-260.3055 2035.0465,-254.3114 2077.5788,-252 2138.6651,-248.6803 2209.4858,-242.0713 2251.5778,-237.8516"/>
<polygon fill="#000000" stroke="#000000" points="2252.04,-241.3228 2261.6368,-236.8338 2251.3352,-234.3584 2252.04,-241.3228"/>
</g>
<!-- simp_propn_var&#45;&gt;WTopc20_S -->
<g id="edge73" class="edge">
<title>simp_propn_var-&gt;WTopc20_S</title>
<path fill="none" stroke="#000000" d="M1186.0187,-503.9524C1202.3865,-470.8182 1241.5488,-400.0217 1294.5788,-360 1320.7076,-340.2807 1354.7314,-327.227 1383.6688,-318.9024"/>
<polygon fill="#000000" stroke="#000000" points="1384.9568,-322.1782 1393.6708,-316.152 1383.1007,-315.4288 1384.9568,-322.1782"/>
</g>
<!-- simp_propn_var&#45;&gt;bilog_ttr -->
<g id="edge75" class="edge">
<title>simp_propn_var-&gt;bilog_ttr</title>
<path fill="none" stroke="#000000" d="M1240.6552,-512.439C1335.5706,-498.0518 1513.3201,-471.1087 1600.988,-457.8201"/>
<polygon fill="#000000" stroke="#000000" points="1601.6045,-461.2667 1610.9669,-456.3075 1600.5553,-454.3458 1601.6045,-461.2667"/>
</g>
<!-- at_TreeH_C -->
<g id="node30" class="node">
<title>at_TreeH_C</title>
<ellipse fill="none" stroke="#000000" cx="3115.5788" cy="-450" rx="58.5271" ry="18"/>
<text text-anchor="middle" x="3115.5788" y="-445.8" font-family="Times,serif" font-size="14.00" fill="#000000">at_TreeH_C</text>
</g>
<!-- at_TreeH_C&#45;&gt;fogi -->
<g id="edge76" class="edge">
<title>at_TreeH_C-&gt;fogi</title>
<path fill="none" stroke="#000000" d="M3118.2166,-431.7669C3120.0416,-412.3018 3119.991,-381.3785 3105.5788,-360 3090.4952,-337.6255 3062.988,-323.7456 3040.6361,-315.6699"/>
<polygon fill="#000000" stroke="#000000" points="3041.7028,-312.336 3031.1086,-312.4573 3039.4661,-318.9691 3041.7028,-312.336"/>
</g>
<!-- at_TreeH_C&#45;&gt;a_kup_pw -->
<g id="edge78" class="edge">
<title>at_TreeH_C-&gt;a_kup_pw</title>
<path fill="none" stroke="#000000" d="M3158.1201,-437.4557C3166.499,-435.3498 3175.2692,-433.3979 3183.5788,-432 3289.5001,-414.1818 3573.0964,-450.6241 3665.5788,-396 3710.6522,-369.3778 3749.1356,-325.4693 3712.5788,-288 3684.2488,-258.9628 2293.0949,-254.0498 2252.5788,-252 2192.9957,-248.9855 2125.0545,-243.566 2077.6029,-239.4589"/>
<polygon fill="#000000" stroke="#000000" points="2077.7663,-235.9599 2067.4999,-238.5774 2077.1578,-242.9334 2077.7663,-235.9599"/>
</g>
<!-- at_TreeH_C&#45;&gt;fkgl -->
<g id="edge81" class="edge">
<title>at_TreeH_C-&gt;fkgl</title>
<path fill="none" stroke="#000000" d="M3158.1068,-437.3749C3166.4868,-435.2762 3175.2609,-433.3474 3183.5788,-432 3246.8786,-421.7461 3715.6727,-442.736 3759.5788,-396 3792.4443,-361.0163 3792.8916,-322.5581 3759.5788,-288 3733.9227,-261.3848 2552.2513,-238.7555 2325.8571,-234.6602"/>
<polygon fill="#000000" stroke="#000000" points="2325.8684,-231.16 2315.807,-234.4793 2325.7423,-238.1588 2325.8684,-231.16"/>
</g>
<!-- at_TreeH_C&#45;&gt;a_punct_pw -->
<g id="edge79" class="edge">
<title>at_TreeH_C-&gt;a_punct_pw</title>
<path fill="none" stroke="#000000" d="M3158.1237,-437.477C3166.5023,-435.3693 3175.2715,-433.4112 3183.5788,-432 3234.3406,-423.3769 3610.6135,-433.7959 3645.5788,-396 3660.6684,-379.6889 3658.9931,-353.7264 3654.5226,-333.869"/>
<polygon fill="#000000" stroke="#000000" points="3657.8952,-332.9307 3652.004,-324.1247 3651.1179,-334.6825 3657.8952,-332.9307"/>
</g>
<!-- at_TreeH_C&#45;&gt;WTopc20_S -->
<g id="edge80" class="edge">
<title>at_TreeH_C-&gt;WTopc20_S</title>
<path fill="none" stroke="#000000" d="M3063.63,-441.5526C3045.0064,-438.5304 3023.853,-435.1047 3004.5788,-432 2904.5958,-415.8946 2876.9751,-423.7484 2779.5788,-396 2739.7286,-384.6466 2734.0239,-369.0077 2693.5788,-360 2506.8748,-318.4182 2024.6724,-332.4094 1833.5788,-324 1721.3038,-319.0591 1590.8649,-312.9677 1512.8888,-309.2887"/>
<polygon fill="#000000" stroke="#000000" points="1512.8636,-305.7837 1502.7096,-308.8081 1512.5334,-312.7759 1512.8636,-305.7837"/>
</g>
<!-- at_TreeH_C&#45;&gt;a_space_ps -->
<g id="edge77" class="edge">
<title>at_TreeH_C-&gt;a_space_ps</title>
<path fill="none" stroke="#000000" d="M3061.6271,-442.6363C3034.6221,-439.1084 3001.4091,-435.0075 2971.5788,-432 2763.5757,-411.0288 2708.4293,-432.4785 2502.5788,-396 2497.9227,-395.1749 2493.1177,-394.1529 2488.3308,-393.0181"/>
<polygon fill="#000000" stroke="#000000" points="2489.1365,-389.6117 2478.5839,-390.5575 2487.423,-396.3988 2489.1365,-389.6117"/>
</g>
<!-- BNois05_S -->
<g id="node31" class="node">
<title>BNois05_S</title>
<ellipse fill="none" stroke="#000000" cx="1603.5788" cy="-378" rx="55.6391" ry="18"/>
<text text-anchor="middle" x="1603.5788" y="-373.8" font-family="Times,serif" font-size="14.00" fill="#000000">BNois05_S</text>
</g>
<!-- BNois05_S&#45;&gt;WTopc20_S -->
<g id="edge83" class="edge">
<title>BNois05_S-&gt;WTopc20_S</title>
<path fill="none" stroke="#000000" d="M1570.8144,-363.256C1546.3865,-352.2634 1512.8042,-337.1514 1486.2744,-325.213"/>
<polygon fill="#000000" stroke="#000000" points="1487.4049,-321.8837 1476.8494,-320.9717 1484.5323,-328.2672 1487.4049,-321.8837"/>
</g>
<!-- BTopc05_S -->
<g id="node32" class="node">
<title>BTopc05_S</title>
<ellipse fill="none" stroke="#000000" cx="1899.5788" cy="-306" rx="57.3476" ry="18"/>
<text text-anchor="middle" x="1899.5788" y="-301.8" font-family="Times,serif" font-size="14.00" fill="#000000">BTopc05_S</text>
</g>
<!-- BNois05_S&#45;&gt;BTopc05_S -->
<g id="edge82" class="edge">
<title>BNois05_S-&gt;BTopc05_S</title>
<path fill="none" stroke="#000000" d="M1647.2383,-366.6501C1655.9566,-364.4184 1665.0535,-362.1145 1673.5788,-360 1731.4568,-345.645 1797.847,-329.8633 1843.6215,-319.0887"/>
<polygon fill="#000000" stroke="#000000" points="1844.7076,-322.4289 1853.641,-316.7327 1843.1053,-315.6147 1844.7076,-322.4289"/>
</g>
<!-- BTopc05_S&#45;&gt;fkgl -->
<g id="edge99" class="edge">
<title>BTopc05_S-&gt;fkgl</title>
<path fill="none" stroke="#000000" d="M1949.2411,-296.808C2028.5337,-282.1317 2181.9177,-253.7419 2252.0195,-240.7668"/>
<polygon fill="#000000" stroke="#000000" points="2252.9398,-244.156 2262.1358,-238.8943 2251.6658,-237.2729 2252.9398,-244.156"/>
</g>
<!-- t_n_ent_percent -->
<g id="node33" class="node">
<title>t_n_ent_percent</title>
<ellipse fill="none" stroke="#000000" cx="851.5788" cy="-450" rx="73.4978" ry="18"/>
<text text-anchor="middle" x="851.5788" y="-445.8" font-family="Times,serif" font-size="14.00" fill="#000000">t_n_ent_percent</text>
</g>
<!-- t_n_ent_percent&#45;&gt;fkgl -->
<g id="edge87" class="edge">
<title>t_n_ent_percent-&gt;fkgl</title>
<path fill="none" stroke="#000000" d="M862.1119,-432.165C874.7182,-412.1735 897.5473,-379.9533 924.5788,-360 993.5694,-309.0746 1019.707,-305.8493 1103.5788,-288 1315.4268,-242.9154 1861.3898,-265.2089 2077.5788,-252 2138.6414,-248.2691 2209.4692,-241.7835 2251.5691,-237.7005"/>
<polygon fill="#000000" stroke="#000000" points="2252.0179,-241.1734 2261.6301,-236.7174 2251.3371,-234.2066 2252.0179,-241.1734"/>
</g>
<!-- t_n_ent_percent&#45;&gt;t_n_ent_money -->
<g id="edge84" class="edge">
<title>t_n_ent_percent-&gt;t_n_ent_money</title>
<path fill="none" stroke="#000000" d="M823.5149,-433.3008C806.8687,-423.3956 785.5712,-410.7227 767.5648,-400.0082"/>
<polygon fill="#000000" stroke="#000000" points="768.8741,-396.7145 758.4906,-394.6087 765.2945,-402.7301 768.8741,-396.7145"/>
</g>
<!-- t_n_ent_percent&#45;&gt;WTopc20_S -->
<g id="edge86" class="edge">
<title>t_n_ent_percent-&gt;WTopc20_S</title>
<path fill="none" stroke="#000000" d="M912.6703,-439.932C971.014,-429.57 1054.1383,-412.635 1082.5788,-396 1101.3144,-385.0415 1096.4895,-370.3299 1115.5788,-360 1159.3695,-336.3035 1293.1453,-320.0181 1375.7049,-311.919"/>
<polygon fill="#000000" stroke="#000000" points="1376.1405,-315.3933 1385.7578,-310.9483 1375.4677,-308.4257 1376.1405,-315.3933"/>
</g>
<!-- t_n_ent_percent&#45;&gt;a_n_ent_money_ps -->
<g id="edge85" class="edge">
<title>t_n_ent_percent-&gt;a_n_ent_money_ps</title>
<path fill="none" stroke="#000000" d="M798.8084,-437.5035C740.8241,-423.523 655.2099,-402.0394 650.5788,-396 636.7999,-378.0307 644.1143,-352.3557 653.3824,-333.0242"/>
<polygon fill="#000000" stroke="#000000" points="656.5108,-334.5943 658.0053,-324.1054 650.296,-331.373 656.5108,-334.5943"/>
</g>
<!-- WRich20_S -->
<g id="node34" class="node">
<title>WRich20_S</title>
<ellipse fill="none" stroke="#000000" cx="2610.5788" cy="-594" rx="58.49" ry="18"/>
<text text-anchor="middle" x="2610.5788" y="-589.8" font-family="Times,serif" font-size="14.00" fill="#000000">WRich20_S</text>
</g>
<!-- WRich20_S&#45;&gt;fogi -->
<g id="edge88" class="edge">
<title>WRich20_S-&gt;fogi</title>
<path fill="none" stroke="#000000" d="M2667.9264,-590.621C2862.1399,-578.5962 3486.1849,-534.9868 3543.5788,-468 3553.9891,-455.8498 3553.3266,-444.6878 3543.5788,-432 3505.7473,-382.758 3462.7889,-426.2866 3408.5788,-396 3388.2691,-384.6532 3391.5369,-370.0992 3370.5788,-360 3267.0722,-310.1227 3228.1569,-341.3614 3114.5788,-324 3090.3016,-320.289 3063.0405,-315.7871 3041.8543,-312.2138"/>
<polygon fill="#000000" stroke="#000000" points="3042.4255,-308.7608 3031.9815,-310.5419 3041.2566,-315.6626 3042.4255,-308.7608"/>
</g>
<!-- WRich20_S&#45;&gt;a_kup_pw -->
<g id="edge90" class="edge">
<title>WRich20_S-&gt;a_kup_pw</title>
<path fill="none" stroke="#000000" d="M2552.3304,-593.2452C2350.4121,-590.3473 1661.8311,-578.1157 1094.5788,-540 770.1762,-518.2022 643.6912,-638.0616 366.5788,-468 334.2141,-448.138 331.2284,-432.4494 320.5788,-396 306.6722,-348.403 308.1097,-316.6551 348.5788,-288 415.3662,-240.7096 1663.0281,-234.8315 1956.2532,-234.1028"/>
<polygon fill="#000000" stroke="#000000" points="1956.2864,-237.6028 1966.278,-234.079 1956.2697,-230.6028 1956.2864,-237.6028"/>
</g>
<!-- WRich20_S&#45;&gt;fkgl -->
<g id="edge96" class="edge">
<title>WRich20_S-&gt;fkgl</title>
<path fill="none" stroke="#000000" d="M2668.555,-592.2303C2967.7833,-582.724 4323.5788,-534.9635 4323.5788,-450 4323.5788,-450 4323.5788,-450 4323.5788,-378 4323.5788,-332.4558 4313.4134,-311.7939 4274.5788,-288 4231.3848,-261.535 2594.1558,-238.1567 2325.6556,-234.4969"/>
<polygon fill="#000000" stroke="#000000" points="2325.6809,-230.997 2315.6342,-234.3608 2325.5858,-237.9964 2325.6809,-230.997"/>
</g>
<!-- WRich20_S&#45;&gt;WTopc20_S -->
<g id="edge95" class="edge">
<title>WRich20_S-&gt;WTopc20_S</title>
<path fill="none" stroke="#000000" d="M2552.5172,-592.0021C2411.1603,-586.7121 2052.2619,-570.6061 1936.5788,-540 1827.0152,-511.0129 1814.6845,-462.666 1705.5788,-432 1635.8381,-412.3982 1429.8927,-449.9794 1381.5788,-396 1362.6755,-374.8799 1386.9462,-347.7619 1410.4403,-328.8378"/>
<polygon fill="#000000" stroke="#000000" points="1412.865,-331.3878 1418.646,-322.5091 1408.59,-325.8448 1412.865,-331.3878"/>
</g>
<!-- WRich20_S&#45;&gt;WTopc10_S -->
<g id="edge89" class="edge">
<title>WRich20_S-&gt;WTopc10_S</title>
<path fill="none" stroke="#000000" d="M2661.2391,-584.8812C2734.4724,-571.6992 2869.7712,-547.3454 2948.7761,-533.1245"/>
<polygon fill="#000000" stroke="#000000" points="2949.8447,-536.4885 2959.0664,-531.2722 2948.6046,-529.5992 2949.8447,-536.4885"/>
</g>
<!-- WRich20_S&#45;&gt;WRich10_S -->
<g id="edge91" class="edge">
<title>WRich20_S-&gt;WRich10_S</title>
<path fill="none" stroke="#000000" d="M2664.9058,-587.4494C2727.905,-578.9429 2826.9131,-562.4801 2856.5788,-540 2876.863,-524.6291 2889.5003,-498.1512 2896.6836,-477.8818"/>
<polygon fill="#000000" stroke="#000000" points="2900.0607,-478.8165 2899.8681,-468.2234 2893.4127,-476.6246 2900.0607,-478.8165"/>
</g>
<!-- WRich20_S&#45;&gt;bilog_ttr -->
<g id="edge98" class="edge">
<title>WRich20_S-&gt;bilog_ttr</title>
<path fill="none" stroke="#000000" d="M2552.3495,-593.5367C2364.5685,-591.6272 1782.955,-582.3221 1710.5788,-540 1686.8909,-526.1484 1671.2359,-498.345 1662.2262,-477.2861"/>
<polygon fill="#000000" stroke="#000000" points="1665.4182,-475.8427 1658.4401,-467.8705 1658.9236,-478.4543 1665.4182,-475.8427"/>
</g>
<!-- WRich20_S&#45;&gt;smog -->
<g id="edge97" class="edge">
<title>WRich20_S-&gt;smog</title>
<path fill="none" stroke="#000000" d="M2640.3159,-578.3919C2654.383,-569.2626 2669.7777,-556.307 2677.5788,-540 2684.4837,-525.5666 2685.3569,-517.9822 2677.5788,-504 2662.83,-477.4865 2642.5375,-487.8342 2619.5788,-468 2597.1672,-448.6383 2575.7906,-422.3807 2561.4503,-403.2254"/>
<polygon fill="#000000" stroke="#000000" points="2564.1243,-400.9539 2555.3782,-394.9744 2558.4865,-405.103 2564.1243,-400.9539"/>
</g>
<!-- WRich20_S&#45;&gt;simp_ttr_no_lem -->
<g id="edge92" class="edge">
<title>WRich20_S-&gt;simp_ttr_no_lem</title>
<path fill="none" stroke="#000000" d="M2557.126,-586.8331C2461.5548,-574.0191 2261.0802,-547.1398 2150.6419,-532.3325"/>
<polygon fill="#000000" stroke="#000000" points="2150.9444,-528.8418 2140.5679,-530.9818 2150.0141,-535.7797 2150.9444,-528.8418"/>
</g>
<!-- WRich20_S&#45;&gt;bilog_ttr_no_lem -->
<g id="edge94" class="edge">
<title>WRich20_S-&gt;bilog_ttr_no_lem</title>
<path fill="none" stroke="#000000" d="M2552.7156,-591.3992C2407.8299,-584.5464 2037.4597,-564.8039 1987.5788,-540 1948.9769,-520.8047 1938.0548,-508.2376 1922.5788,-468 1914.7144,-447.5525 1921.6727,-423.4635 1929.937,-405.3551"/>
<polygon fill="#000000" stroke="#000000" points="1933.2819,-406.4868 1934.5769,-395.9714 1927.0071,-403.3841 1933.2819,-406.4868"/>
</g>
<!-- WRich15_S -->
<g id="node35" class="node">
<title>WRich15_S</title>
<ellipse fill="none" stroke="#000000" cx="2610.5788" cy="-522" rx="58.49" ry="18"/>
<text text-anchor="middle" x="2610.5788" y="-517.8" font-family="Times,serif" font-size="14.00" fill="#000000">WRich15_S</text>
</g>
<!-- WRich20_S&#45;&gt;WRich15_S -->
<g id="edge93" class="edge">
<title>WRich20_S-&gt;WRich15_S</title>
<path fill="none" stroke="#000000" d="M2610.5788,-575.8314C2610.5788,-568.131 2610.5788,-558.9743 2610.5788,-550.4166"/>
<polygon fill="#000000" stroke="#000000" points="2614.0789,-550.4132 2610.5788,-540.4133 2607.0789,-550.4133 2614.0789,-550.4132"/>
</g>
<!-- WRich15_S&#45;&gt;fogi -->
<g id="edge106" class="edge">
<title>WRich15_S-&gt;fogi</title>
<path fill="none" stroke="#000000" d="M2661.1459,-513.0217C2699.3729,-504.8735 2752.3078,-490.6144 2794.5788,-468 2816.556,-456.2425 2814.9505,-442.4495 2837.5788,-432 2924.3452,-391.9323 2987.9157,-469.017 3049.5788,-396 3066.9154,-375.4713 3047.3027,-346.9426 3029.0235,-327.5462"/>
<polygon fill="#000000" stroke="#000000" points="3031.4237,-324.9956 3021.9043,-320.3447 3026.4456,-329.9169 3031.4237,-324.9956"/>
</g>
<!-- WRich15_S&#45;&gt;a_kup_pw -->
<g id="edge107" class="edge">
<title>WRich15_S-&gt;a_kup_pw</title>
<path fill="none" stroke="#000000" d="M2552.6183,-519.6071C2399.0043,-512.9519 1989.3368,-493.0535 1933.5788,-468 1891.4308,-449.0618 1883.5138,-434.9019 1858.5788,-396 1831.9916,-354.5202 1804.0502,-327.44 1833.5788,-288 1848.9468,-267.4738 1912.4426,-252.0977 1960.5819,-243.106"/>
<polygon fill="#000000" stroke="#000000" points="1961.3859,-246.5173 1970.5984,-241.2846 1960.1335,-239.6302 1961.3859,-246.5173"/>
</g>
<!-- WRich15_S&#45;&gt;fkgl -->
<g id="edge110" class="edge">
<title>WRich15_S-&gt;fkgl</title>
<path fill="none" stroke="#000000" d="M2658.8387,-511.7377C2682.673,-503.9729 2709.3162,-490.6233 2723.5788,-468 2766.2432,-400.3261 2776.5485,-347.9518 2723.5788,-288 2697.3603,-258.3255 2426.2355,-241.2087 2325.7648,-235.8453"/>
<polygon fill="#000000" stroke="#000000" points="2325.9274,-232.3491 2315.7576,-235.32 2325.5604,-239.3395 2325.9274,-232.3491"/>
</g>
<!-- WRich15_S&#45;&gt;WTopc20_S -->
<g id="edge109" class="edge">
<title>WRich15_S-&gt;WTopc20_S</title>
<path fill="none" stroke="#000000" d="M2552.3381,-520.5017C2405.4207,-516.254 2022.7596,-502.1552 1900.5788,-468 1866.505,-458.4748 1863.57,-441.8159 1829.5788,-432 1746.8109,-408.0984 1501.5988,-459.6829 1443.5788,-396 1428.6139,-379.5744 1430.2754,-353.6247 1434.709,-333.8011"/>
<polygon fill="#000000" stroke="#000000" points="1438.109,-334.6324 1437.2068,-324.076 1431.3291,-332.8909 1438.109,-334.6324"/>
</g>
<!-- WRich15_S&#45;&gt;WRich10_S -->
<g id="edge108" class="edge">
<title>WRich15_S-&gt;WRich10_S</title>
<path fill="none" stroke="#000000" d="M2656.5188,-510.9157C2701.4275,-500.0589 2771.7305,-483.0064 2832.5788,-468 2837.9737,-466.6695 2843.5942,-465.2765 2849.2112,-463.8798"/>
<polygon fill="#000000" stroke="#000000" points="2850.4111,-467.1879 2859.2684,-461.3743 2848.7189,-460.3955 2850.4111,-467.1879"/>
</g>
<!-- WRich15_S&#45;&gt;bilog_ttr -->
<g id="edge111" class="edge">
<title>WRich15_S-&gt;bilog_ttr</title>
<path fill="none" stroke="#000000" d="M2553.3161,-518.1296C2428.0376,-509.604 2120.2223,-488.3409 1862.5788,-468 1809.3331,-463.7963 1748.5352,-458.5345 1706.1074,-454.7878"/>
<polygon fill="#000000" stroke="#000000" points="1706.2715,-451.2887 1696.0018,-453.8934 1705.6543,-458.2615 1706.2715,-451.2887"/>
</g>
<!-- t_n_ent_fac -->
<g id="node36" class="node">
<title>t_n_ent_fac</title>
<ellipse fill="none" stroke="#000000" cx="2790.5788" cy="-522" rx="56.7426" ry="18"/>
<text text-anchor="middle" x="2790.5788" y="-517.8" font-family="Times,serif" font-size="14.00" fill="#000000">t_n_ent_fac</text>
</g>
<!-- t_n_ent_fac&#45;&gt;smog -->
<g id="edge101" class="edge">
<title>t_n_ent_fac-&gt;smog</title>
<path fill="none" stroke="#000000" d="M2781.8672,-503.9254C2771.0445,-483.4013 2750.6497,-450.3877 2723.5788,-432 2672.5666,-397.3502 2648.1597,-415.2652 2589.5788,-396 2586.2184,-394.8949 2582.7466,-393.6785 2579.2865,-392.4155"/>
<polygon fill="#000000" stroke="#000000" points="2580.2604,-389.0422 2569.6687,-388.7861 2577.7889,-395.5914 2580.2604,-389.0422"/>
</g>
<!-- t_n_ent_fac&#45;&gt;a_n_ent_fac_pw -->
<g id="edge100" class="edge">
<title>t_n_ent_fac-&gt;a_n_ent_fac_pw</title>
<path fill="none" stroke="#000000" d="M2844.1713,-515.9203C2920.0023,-507.0265 3062.8371,-489.2015 3183.5788,-468 3189.7485,-466.9166 3196.1547,-465.7043 3202.5538,-464.4344"/>
<polygon fill="#000000" stroke="#000000" points="3203.4647,-467.821 3212.5687,-462.4017 3202.0723,-460.9608 3203.4647,-467.821"/>
</g>
<!-- n_usym -->
<g id="node37" class="node">
<title>n_usym</title>
<ellipse fill="none" stroke="#000000" cx="1984.5788" cy="-450" rx="41.7366" ry="18"/>
<text text-anchor="middle" x="1984.5788" y="-445.8" font-family="Times,serif" font-size="14.00" fill="#000000">n_usym</text>
</g>
<!-- n_usym&#45;&gt;a_kup_pw -->
<g id="edge102" class="edge">
<title>n_usym-&gt;a_kup_pw</title>
<path fill="none" stroke="#000000" d="M2004.7961,-433.7959C2015.2465,-424.0851 2026.9622,-410.7729 2032.5788,-396 2049.5165,-351.4506 2037.6089,-295.2471 2027.5232,-262.1076"/>
<polygon fill="#000000" stroke="#000000" points="2030.7344,-260.6587 2024.3515,-252.2024 2024.0678,-262.7935 2030.7344,-260.6587"/>
</g>
<!-- n_usym&#45;&gt;fkgl -->
<g id="edge105" class="edge">
<title>n_usym-&gt;fkgl</title>
<path fill="none" stroke="#000000" d="M2004.1165,-434.079C2041.1375,-404.1689 2124.4461,-338.0877 2198.5788,-288 2218.2505,-274.7088 2241.2107,-260.9593 2259.0166,-250.6608"/>
<polygon fill="#000000" stroke="#000000" points="2260.8836,-253.6248 2267.8135,-245.6105 2257.3984,-247.5541 2260.8836,-253.6248"/>
</g>
<!-- n_usym&#45;&gt;WTopc20_S -->
<g id="edge104" class="edge">
<title>n_usym-&gt;WTopc20_S</title>
<path fill="none" stroke="#000000" d="M1947.219,-441.9181C1930.0363,-438.4404 1909.3434,-434.5879 1890.5788,-432 1797.1236,-419.1111 1539.8827,-456.5983 1467.5788,-396 1449.7424,-381.0512 1444.3753,-354.4672 1443.0947,-334.054"/>
<polygon fill="#000000" stroke="#000000" points="1446.592,-333.9109 1442.7532,-324.036 1439.5961,-334.1495 1446.592,-333.9109"/>
</g>
<!-- n_usym&#45;&gt;a_num_pw -->
<g id="edge103" class="edge">
<title>n_usym-&gt;a_num_pw</title>
<path fill="none" stroke="#000000" d="M2023.6533,-443.4578C2048.7106,-439.5116 2081.9758,-434.7341 2111.5788,-432 2478.8076,-398.0836 2572.1807,-413.0331 2940.5788,-396 3046.8681,-391.0856 3170.4498,-384.9339 3243.6685,-381.2434"/>
<polygon fill="#000000" stroke="#000000" points="3244.2868,-384.7167 3254.0977,-380.7172 3243.934,-377.7256 3244.2868,-384.7167"/>
</g>
<!-- fkre -->
<g id="node38" class="node">
<title>fkre</title>
<ellipse fill="none" stroke="#000000" cx="2147.5788" cy="-450" rx="27" ry="18"/>
<text text-anchor="middle" x="2147.5788" y="-445.8" font-family="Times,serif" font-size="14.00" fill="#000000">fkre</text>
</g>
<!-- fkre&#45;&gt;fogi -->
<g id="edge123" class="edge">
<title>fkre-&gt;fogi</title>
<path fill="none" stroke="#000000" d="M2169.8672,-439.4091C2175.8637,-436.7827 2182.4015,-434.117 2188.5788,-432 2250.5778,-410.753 2273.2009,-425.788 2331.5788,-396 2353.7802,-384.6715 2351.5372,-369.5036 2374.5788,-360 2402.1679,-348.6208 2836.9486,-317.6936 2968.291,-308.5678"/>
<polygon fill="#000000" stroke="#000000" points="2968.899,-312.0342 2978.6329,-307.8508 2968.4147,-305.0509 2968.899,-312.0342"/>
</g>
<!-- fkre&#45;&gt;a_kup_pw -->
<g id="edge125" class="edge">
<title>fkre-&gt;a_kup_pw</title>
<path fill="none" stroke="#000000" d="M2137.6395,-432.8834C2120.3753,-403.2305 2083.6222,-340.4477 2051.5788,-288 2046.0918,-279.019 2039.995,-269.2672 2034.4966,-260.5534"/>
<polygon fill="#000000" stroke="#000000" points="2037.3402,-258.5016 2029.034,-251.9244 2031.4257,-262.2458 2037.3402,-258.5016"/>
</g>
<!-- fkre&#45;&gt;fkgl -->
<g id="edge128" class="edge">
<title>fkre-&gt;fkgl</title>
<path fill="none" stroke="#000000" d="M2158.4088,-433.4095C2182.963,-395.7945 2242.9891,-303.8397 2272.1469,-259.1723"/>
<polygon fill="#000000" stroke="#000000" points="2275.1766,-260.934 2277.712,-250.647 2269.3149,-257.1076 2275.1766,-260.934"/>
</g>
<!-- fkre&#45;&gt;a_punct_pw -->
<g id="edge126" class="edge">
<title>fkre-&gt;a_punct_pw</title>
<path fill="none" stroke="#000000" d="M2173.7047,-444.7988C2196.3242,-440.5366 2229.9705,-434.7723 2259.5788,-432 2332.3435,-425.1868 3509.2596,-428.7798 3574.5788,-396 3601.0747,-382.7033 3620.7747,-354.4095 3632.6169,-333.0729"/>
<polygon fill="#000000" stroke="#000000" points="3635.7665,-334.604 3637.3544,-324.1288 3629.5807,-331.3274 3635.7665,-334.604"/>
</g>
<!-- fkre&#45;&gt;WTopc20_S -->
<g id="edge127" class="edge">
<title>fkre-&gt;WTopc20_S</title>
<path fill="none" stroke="#000000" d="M2121.4217,-445.1007C2098.7826,-441.0274 2065.1251,-435.3705 2035.5788,-432 1918.2904,-418.6201 1608.1592,-454.4198 1505.5788,-396 1481.3822,-382.2199 1464.5523,-354.6616 1454.5949,-333.6511"/>
<polygon fill="#000000" stroke="#000000" points="1457.6622,-331.9369 1450.3792,-324.2422 1451.2741,-334.7992 1457.6622,-331.9369"/>
</g>
<!-- fkre&#45;&gt;a_space_ps -->
<g id="edge124" class="edge">
<title>fkre-&gt;a_space_ps</title>
<path fill="none" stroke="#000000" d="M2169.7977,-439.1978C2175.7948,-436.5731 2182.3502,-433.961 2188.5788,-432 2266.8133,-407.369 2289.64,-414.3598 2369.5788,-396 2374.9331,-394.7703 2380.5044,-393.426 2386.0565,-392.0439"/>
<polygon fill="#000000" stroke="#000000" points="2387.1437,-395.3792 2395.9788,-389.5318 2385.4256,-388.5933 2387.1437,-395.3792"/>
</g>
<!-- fkre&#45;&gt;smog -->
<g id="edge129" class="edge">
<title>fkre-&gt;smog</title>
<path fill="none" stroke="#000000" d="M2173.8151,-445.6902C2196.5037,-441.9855 2230.1893,-436.5385 2259.5788,-432 2367.4786,-415.3375 2397.6636,-426.2124 2502.5788,-396 2504.9973,-395.3035 2507.4599,-394.4954 2509.9166,-393.6149"/>
<polygon fill="#000000" stroke="#000000" points="2511.2311,-396.8589 2519.2579,-389.9436 2508.6706,-390.344 2511.2311,-396.8589"/>
</g>
<!-- corr_punct_var -->
<g id="node39" class="node">
<title>corr_punct_var</title>
<ellipse fill="none" stroke="#000000" cx="1046.5788" cy="-450" rx="70.0481" ry="18"/>
<text text-anchor="middle" x="1046.5788" y="-445.8" font-family="Times,serif" font-size="14.00" fill="#000000">corr_punct_var</text>
</g>
<!-- corr_punct_var&#45;&gt;a_kup_pw -->
<g id="edge131" class="edge">
<title>corr_punct_var-&gt;a_kup_pw</title>
<path fill="none" stroke="#000000" d="M985.93,-440.9198C959.043,-433.5445 929.8628,-420.1865 913.5788,-396 885.242,-353.9115 907.9533,-315.5225 950.5788,-288 992.9999,-260.6096 1735.5166,-240.7399 1956.2073,-235.4191"/>
<polygon fill="#000000" stroke="#000000" points="1956.4039,-238.9155 1966.3171,-235.1768 1956.236,-231.9175 1956.4039,-238.9155"/>
</g>
<!-- corr_punct_var&#45;&gt;fkgl -->
<g id="edge133" class="edge">
<title>corr_punct_var-&gt;fkgl</title>
<path fill="none" stroke="#000000" d="M1115.3741,-446.3651C1266.5867,-438.0399 1618.4584,-416.7084 1668.5788,-396 1691.6146,-386.4822 1688.8094,-370.1384 1711.5788,-360 1815.7373,-313.6221 1854.5615,-349.9817 1965.5788,-324 2015.2548,-312.3742 2025.5912,-302.2504 2074.5788,-288 2136.78,-269.9058 2210.1562,-252.1597 2252.8204,-242.1932"/>
<polygon fill="#000000" stroke="#000000" points="2253.7763,-245.5644 2262.7239,-239.8908 2252.1911,-238.7463 2253.7763,-245.5644"/>
</g>
<!-- corr_punct_var&#45;&gt;WTopc20_S -->
<g id="edge132" class="edge">
<title>corr_punct_var-&gt;WTopc20_S</title>
<path fill="none" stroke="#000000" d="M1068.7706,-432.7238C1101.9466,-406.9253 1160.8989,-361.2068 1163.5788,-360 1231.3945,-329.4623 1316.0422,-316.1695 1374.4126,-310.3982"/>
<polygon fill="#000000" stroke="#000000" points="1375.0043,-313.8582 1384.633,-309.4379 1374.3494,-306.8888 1375.0043,-313.8582"/>
</g>
<!-- corr_punct_var&#45;&gt;root_punct_var -->
<g id="edge130" class="edge">
<title>corr_punct_var-&gt;root_punct_var</title>
<path fill="none" stroke="#000000" d="M1035.9496,-432.2022C1030.988,-423.8944 1024.9783,-413.8316 1019.4905,-404.6427"/>
<polygon fill="#000000" stroke="#000000" points="1022.3672,-402.6334 1014.2348,-395.8425 1016.3574,-406.2226 1022.3672,-402.6334"/>
</g>
<!-- at_FTree_C -->
<g id="node40" class="node">
<title>at_FTree_C</title>
<ellipse fill="none" stroke="#000000" cx="2325.5788" cy="-450" rx="57.3205" ry="18"/>
<text text-anchor="middle" x="2325.5788" y="-445.8" font-family="Times,serif" font-size="14.00" fill="#000000">at_FTree_C</text>
</g>
<!-- at_FTree_C&#45;&gt;fogi -->
<g id="edge135" class="edge">
<title>at_FTree_C-&gt;fogi</title>
<path fill="none" stroke="#000000" d="M2381.6243,-446.137C2536.8763,-435.3316 2961.8878,-405.0018 2973.5788,-396 2992.4886,-381.4401 3000.2505,-354.8077 3003.4223,-334.2776"/>
<polygon fill="#000000" stroke="#000000" points="3006.9151,-334.5543 3004.6974,-324.1942 2999.9704,-333.6761 3006.9151,-334.5543"/>
</g>
<!-- at_FTree_C&#45;&gt;a_kup_pw -->
<g id="edge137" class="edge">
<title>at_FTree_C-&gt;a_kup_pw</title>
<path fill="none" stroke="#000000" d="M2301.922,-433.4095C2247.0315,-394.9149 2110.9901,-299.5092 2049.1169,-256.1176"/>
<polygon fill="#000000" stroke="#000000" points="2051.0916,-253.2276 2040.8947,-250.3514 2047.0724,-258.9587 2051.0916,-253.2276"/>
</g>
<!-- at_FTree_C&#45;&gt;fkgl -->
<g id="edge139" class="edge">
<title>at_FTree_C-&gt;fkgl</title>
<path fill="none" stroke="#000000" d="M2381.6118,-446.0811C2531.5341,-435.4662 2931.1727,-406.2682 2940.5788,-396 2951.3864,-384.2019 2947.6617,-374.3469 2940.5788,-360 2917.2831,-312.8122 2895.5457,-307.2777 2846.5788,-288 2751.1569,-250.4333 2434.7229,-238.1232 2325.7993,-234.9444"/>
<polygon fill="#000000" stroke="#000000" points="2325.719,-231.4408 2315.6241,-234.6566 2325.5211,-238.438 2325.719,-231.4408"/>
</g>
<!-- at_FTree_C&#45;&gt;WTopc20_S -->
<g id="edge138" class="edge">
<title>at_FTree_C-&gt;WTopc20_S</title>
<path fill="none" stroke="#000000" d="M2273.409,-442.495C2246.6085,-438.8663 2213.3995,-434.7189 2183.5788,-432 2040.6154,-418.9655 1669.6248,-454.6123 1538.5788,-396 1517.9233,-386.7615 1518.9287,-375.6424 1502.5788,-360 1492.185,-350.0559 1480.5418,-339.3172 1470.3623,-330.0553"/>
<polygon fill="#000000" stroke="#000000" points="1472.668,-327.4214 1462.9083,-323.2982 1467.9666,-332.6076 1472.668,-327.4214"/>
</g>
<!-- at_FTree_C&#45;&gt;a_space_ps -->
<g id="edge136" class="edge">
<title>at_FTree_C-&gt;a_space_ps</title>
<path fill="none" stroke="#000000" d="M2350.9383,-433.8418C2366.786,-423.7441 2387.3873,-410.6176 2404.6339,-399.6286"/>
<polygon fill="#000000" stroke="#000000" points="2406.7513,-402.4296 2413.3041,-394.1043 2402.9898,-396.5262 2406.7513,-402.4296"/>
</g>
<!-- a_char_pw -->
<g id="node41" class="node">
<title>a_char_pw</title>
<ellipse fill="none" stroke="#000000" cx="1567.5788" cy="-522" rx="53.2936" ry="18"/>
<text text-anchor="middle" x="1567.5788" y="-517.8" font-family="Times,serif" font-size="14.00" fill="#000000">a_char_pw</text>
</g>
<!-- a_char_pw&#45;&gt;fogi -->
<g id="edge140" class="edge">
<title>a_char_pw-&gt;fogi</title>
<path fill="none" stroke="#000000" d="M1568.8615,-503.8773C1571.3269,-483.3081 1578.5305,-450.2521 1599.5788,-432 1660.558,-379.1218 1700.686,-420.5368 1777.5788,-396 1815.1098,-384.0237 1820.224,-368.9947 1858.5788,-360 2041.9949,-316.9865 2517.4336,-333.642 2705.5788,-324 2800.3041,-319.1456 2911.7718,-312.1091 2968.4409,-308.4373"/>
<polygon fill="#000000" stroke="#000000" points="2968.9438,-311.9121 2978.6957,-307.7708 2968.4897,-304.9269 2968.9438,-311.9121"/>
</g>
<!-- a_char_pw&#45;&gt;a_kup_pw -->
<g id="edge142" class="edge">
<title>a_char_pw-&gt;a_kup_pw</title>
<path fill="none" stroke="#000000" d="M1514.9009,-518.6179C1453.7628,-514.7609 1349.8981,-508.4185 1260.5788,-504 1161.3973,-499.0936 453.9337,-517.0294 367.5788,-468 322.0561,-442.1537 310.9266,-411.4508 320.5788,-360 326.9096,-326.2541 320.5576,-307.8412 348.5788,-288 415.3662,-240.7096 1663.0281,-234.8315 1956.2532,-234.1028"/>
<polygon fill="#000000" stroke="#000000" points="1956.2864,-237.6028 1966.278,-234.079 1956.2697,-230.6028 1956.2864,-237.6028"/>
</g>
<!-- a_char_pw&#45;&gt;fkgl -->
<g id="edge144" class="edge">
<title>a_char_pw-&gt;fkgl</title>
<path fill="none" stroke="#000000" d="M1514.8907,-518.8123C1453.7431,-515.1356 1349.8697,-508.9605 1260.5788,-504 1222.474,-501.8831 600.8479,-495.6838 574.5788,-468 519.5125,-409.9681 518.6917,-345.2418 574.5788,-288 603.7533,-258.1184 2035.8789,-254.2759 2077.5788,-252 2138.6643,-248.666 2209.4852,-242.0613 2251.5775,-237.8464"/>
<polygon fill="#000000" stroke="#000000" points="2252.0392,-241.3176 2261.6366,-236.8297 2251.3353,-234.3531 2252.0392,-241.3176"/>
</g>
<!-- a_char_pw&#45;&gt;WTopc20_S -->
<g id="edge143" class="edge">
<title>a_char_pw-&gt;WTopc20_S</title>
<path fill="none" stroke="#000000" d="M1518.8987,-514.5509C1456.754,-502.1443 1351.6584,-470.759 1304.5788,-396 1296.0526,-382.461 1295.5429,-373.2042 1304.5788,-360 1314.5925,-345.3671 1353.6861,-330.9332 1387.873,-320.6747"/>
<polygon fill="#000000" stroke="#000000" points="1389.2069,-323.9312 1397.8209,-317.7627 1387.2403,-317.2131 1389.2069,-323.9312"/>
</g>
<!-- a_char_pw&#45;&gt;a_space_ps -->
<g id="edge141" class="edge">
<title>a_char_pw-&gt;a_space_ps</title>
<path fill="none" stroke="#000000" d="M1620.6588,-519.5475C1760.85,-512.7614 2133.6919,-492.6012 2183.5788,-468 2203.0456,-458.4002 2197.8674,-442.9997 2216.5788,-432 2276.0552,-397.0362 2300.5834,-412.4777 2367.5788,-396 2373.2745,-394.5991 2379.2226,-393.1187 2385.1473,-391.6329"/>
<polygon fill="#000000" stroke="#000000" points="2386.2045,-394.9761 2395.0474,-389.1404 2384.4954,-388.1879 2386.2045,-394.9761"/>
</g>
<!-- a_char_pw&#45;&gt;bilog_ttr -->
<g id="edge146" class="edge">
<title>a_char_pw-&gt;bilog_ttr</title>
<path fill="none" stroke="#000000" d="M1587.7227,-504.937C1598.9987,-495.3855 1613.21,-483.3477 1625.4536,-472.9766"/>
<polygon fill="#000000" stroke="#000000" points="1627.7964,-475.5791 1633.1647,-466.4449 1623.272,-470.2377 1627.7964,-475.5791"/>
</g>
<!-- a_char_pw&#45;&gt;smog -->
<g id="edge145" class="edge">
<title>a_char_pw-&gt;smog</title>
<path fill="none" stroke="#000000" d="M1620.616,-519.6128C1797.3062,-511.5179 2356.7775,-484.6886 2391.5788,-468 2411.15,-458.6149 2407.0076,-444.7422 2424.5788,-432 2428.2982,-429.3028 2474.9684,-408.3929 2508.7375,-393.4021"/>
<polygon fill="#000000" stroke="#000000" points="2510.584,-396.4121 2518.307,-389.159 2507.7466,-390.0129 2510.584,-396.4121"/>
</g>
<!-- sta_codeBleu&#45;&gt;syntaxError_rate -->
<g id="edge161" class="edge">
<title>sta_codeBleu-&gt;syntaxError_rate</title>
<path fill="none" stroke="#000000" d="M1966.1023,-71.8314C1967.1718,-64.131 1968.4435,-54.9743 1969.6321,-46.4166"/>
<polygon fill="#000000" stroke="#000000" points="1973.1124,-46.7997 1971.0214,-36.4133 1966.179,-45.8367 1973.1124,-46.7997"/>
</g>
<!-- sta_Bleu -->
<g id="node45" class="node">
<title>sta_Bleu</title>
<ellipse fill="none" stroke="#000000" cx="1834.5788" cy="-18" rx="44.6607" ry="18"/>
<text text-anchor="middle" x="1834.5788" y="-13.8" font-family="Times,serif" font-size="14.00" fill="#000000">sta_Bleu</text>
</g>
<!-- sta_codeBleu&#45;&gt;sta_Bleu -->
<g id="edge162" class="edge">
<title>sta_codeBleu-&gt;sta_Bleu</title>
<path fill="none" stroke="#000000" d="M1934.6287,-73.8418C1915.4321,-63.1274 1890.1257,-49.0029 1869.7676,-37.6402"/>
<polygon fill="#000000" stroke="#000000" points="1871.2395,-34.4535 1860.8017,-32.636 1867.8279,-40.5659 1871.2395,-34.4535"/>
</g>
<!-- sim_Bleu&#45;&gt;syntaxError_rate -->
<g id="edge167" class="edge">
<title>sim_Bleu-&gt;syntaxError_rate</title>
<path fill="none" stroke="#000000" d="M1864.8095,-143.7874C1867.9653,-124.3397 1875.284,-93.4312 1891.5788,-72 1901.5653,-58.8656 1915.7233,-47.9435 1929.4703,-39.4384"/>
<polygon fill="#000000" stroke="#000000" points="1931.544,-42.2796 1938.3968,-34.1994 1928.0008,-36.2426 1931.544,-42.2796"/>
</g>
<!-- sim_Bleu&#45;&gt;sta_codeBleu -->
<g id="edge168" class="edge">
<title>sim_Bleu-&gt;sta_codeBleu</title>
<path fill="none" stroke="#000000" d="M1884.994,-146.0209C1898.5968,-136.3238 1916.1859,-123.7851 1931.2737,-113.0294"/>
<polygon fill="#000000" stroke="#000000" points="1933.7079,-115.5924 1939.8191,-106.9377 1929.6446,-109.8925 1933.7079,-115.5924"/>
</g>
<!-- sim_Bleu&#45;&gt;sta_Bleu -->
<g id="edge169" class="edge">
<title>sim_Bleu-&gt;sta_Bleu</title>
<path fill="none" stroke="#000000" d="M1859.0326,-143.7623C1854.2358,-119.0928 1845.6349,-74.8598 1840.0181,-45.9731"/>
<polygon fill="#000000" stroke="#000000" points="1843.4407,-45.2377 1838.0963,-36.0896 1836.5694,-46.5738 1843.4407,-45.2377"/>
</g>
<!-- sim_Bleu&#45;&gt;sim_codeBleu -->
<g id="edge170" class="edge">
<title>sim_Bleu-&gt;sim_codeBleu</title>
<path fill="none" stroke="#000000" d="M1900.7853,-150.9078C1942.1379,-138.9022 2008.4591,-119.6477 2055.4522,-106.0045"/>
<polygon fill="#000000" stroke="#000000" points="2056.5431,-109.3324 2065.1707,-103.183 2054.5914,-102.61 2056.5431,-109.3324"/>
</g>
<!-- sim_Bleu&#45;&gt;pass_rate -->
<g id="edge171" class="edge">
<title>sim_Bleu-&gt;pass_rate</title>
<path fill="none" stroke="#000000" d="M1839.7198,-146.0209C1825.318,-135.9536 1806.5345,-122.8234 1790.7727,-111.8054"/>
<polygon fill="#000000" stroke="#000000" points="1792.5753,-108.7952 1782.374,-105.9345 1788.5648,-114.5324 1792.5753,-108.7952"/>
</g>
</g>
</svg>