<svg xmlns="http://www.w3.org/2000/svg" xmlns:xlink="http://www.w3.org/1999/xlink" width="3865pt" height="764pt" viewBox="0.00 0.00 3864.96 764.00">
<g id="graph0" class="graph" transform="scale(1 1) rotate(0) translate(4 760)">
<title>G</title>
<polygon fill="white" stroke="none" points="-4,4 -4,-760 3860.96,-760 3860.96,4 -4,4"/>
<!-- n_adp -->
<g id="node1" class="node">
<title>n_adp</title>
<ellipse fill="none" stroke="black" cx="1213.69" cy="-450" rx="34.64" ry="18"/>
<text text-anchor="middle" x="1213.69" y="-445.8" font-family="Times,serif" font-size="14.00">n_adp</text>
</g>
<!-- simp_det_var -->
<g id="node2" class="node">
<title>simp_det_var</title>
<ellipse fill="none" stroke="black" cx="936.69" cy="-306" rx="63.6" ry="18"/>
<text text-anchor="middle" x="936.69" y="-301.8" font-family="Times,serif" font-size="14.00">simp_det_var</text>
</g>
<!-- n_adp&#45;&gt;simp_det_var -->
<g id="edge1" class="edge">
<title>n_adp-&gt;simp_det_var</title>
<path fill="none" stroke="black" d="M1197.29,-433.99C1172.45,-411.5 1126.12,-370.56 1106.69,-360 1072.78,-341.56 1031.5,-328.5 998.11,-319.95"/>
<polygon fill="black" stroke="black" points="999.13,-316.6 988.58,-317.59 997.44,-323.4 999.13,-316.6"/>
</g>
<!-- t_bry -->
<g id="node3" class="node">
<title>t_bry</title>
<ellipse fill="none" stroke="black" cx="995.69" cy="-378" rx="31.42" ry="18"/>
<text text-anchor="middle" x="995.69" y="-373.8" font-family="Times,serif" font-size="14.00">t_bry</text>
</g>
<!-- n_adp&#45;&gt;t_bry -->
<g id="edge2" class="edge">
<title>n_adp-&gt;t_bry</title>
<path fill="none" stroke="black" d="M1185.5,-439.06C1178.7,-436.7 1171.45,-434.23 1164.69,-432 1119.97,-417.23 1068.26,-401.16 1033.93,-390.63"/>
<polygon fill="black" stroke="black" points="1035.03,-387.31 1024.44,-387.73 1032.98,-394 1035.03,-387.31"/>
</g>
<!-- simp_adp_var -->
<g id="node4" class="node">
<title>simp_adp_var</title>
<ellipse fill="none" stroke="black" cx="1414.69" cy="-378" rx="65.75" ry="18"/>
<text text-anchor="middle" x="1414.69" y="-373.8" font-family="Times,serif" font-size="14.00">simp_adp_var</text>
</g>
<!-- n_adp&#45;&gt;simp_adp_var -->
<g id="edge3" class="edge">
<title>n_adp-&gt;simp_adp_var</title>
<path fill="none" stroke="black" d="M1242.07,-439.12C1273.82,-428.06 1325.87,-409.93 1364.53,-396.47"/>
<polygon fill="black" stroke="black" points="1365.33,-399.9 1373.62,-393.3 1363.03,-393.29 1365.33,-399.9"/>
</g>
<!-- t_stopword -->
<g id="node5" class="node">
<title>t_stopword</title>
<ellipse fill="none" stroke="black" cx="1590.69" cy="-306" rx="54.49" ry="18"/>
<text text-anchor="middle" x="1590.69" y="-301.8" font-family="Times,serif" font-size="14.00">t_stopword</text>
</g>
<!-- n_adp&#45;&gt;t_stopword -->
<g id="edge4" class="edge">
<title>n_adp-&gt;t_stopword</title>
<path fill="none" stroke="black" d="M1211.62,-431.88C1210.23,-411.68 1211.39,-378.5 1230.69,-360 1271.65,-320.76 1432.28,-310.49 1524.54,-307.86"/>
<polygon fill="black" stroke="black" points="1524.57,-311.36 1534.47,-307.6 1524.39,-304.36 1524.57,-311.36"/>
</g>
<!-- t_uword -->
<g id="node6" class="node">
<title>t_uword</title>
<ellipse fill="none" stroke="black" cx="2002.69" cy="-234" rx="43.22" ry="18"/>
<text text-anchor="middle" x="2002.69" y="-229.8" font-family="Times,serif" font-size="14.00">t_uword</text>
</g>
<!-- n_adp&#45;&gt;t_uword -->
<g id="edge5" class="edge">
<title>n_adp-&gt;t_uword</title>
<path fill="none" stroke="black" d="M1207.11,-432.08C1200.77,-412.67 1194.21,-380.87 1209.69,-360 1275.56,-271.26 1339.27,-309.36 1447.69,-288 1628.8,-252.33 1848.06,-240.39 1948.13,-236.62"/>
<polygon fill="black" stroke="black" points="1948.07,-240.13 1957.94,-236.27 1947.82,-233.13 1948.07,-240.13"/>
</g>
<!-- pass_rate -->
<g id="node38" class="node">
<title>pass_rate</title>
<ellipse fill="none" stroke="black" cx="384.69" cy="-234" rx="46.97" ry="18"/>
<text text-anchor="middle" x="384.69" y="-229.8" font-family="Times,serif" font-size="14.00">pass_rate</text>
</g>
<!-- n_adp&#45;&gt;pass_rate -->
<g id="edge180" class="edge">
<title>n_adp-&gt;pass_rate</title>
<path fill="none" stroke="black" d="M1189.01,-436.86C1167.3,-426.16 1134.86,-410.12 1106.69,-396 1075.06,-380.15 1069.85,-369.23 1035.69,-360 969.94,-342.22 479.59,-362.93 423.69,-324 403.91,-310.22 394.06,-284.08 389.22,-263.68"/>
<polygon fill="black" stroke="black" points="392.66,-263.04 387.21,-253.95 385.8,-264.45 392.66,-263.04"/>
</g>
<!-- sta_codeBleu -->
<g id="node35" class="node">
<title>sta_codeBleu</title>
<ellipse fill="none" stroke="black" cx="779.69" cy="-90" rx="63.06" ry="18"/>
<text text-anchor="middle" x="779.69" y="-85.8" font-family="Times,serif" font-size="14.00">sta_codeBleu</text>
</g>
<!-- simp_det_var&#45;&gt;sta_codeBleu -->
<g id="edge165" class="edge">
<title>simp_det_var-&gt;sta_codeBleu</title>
<path fill="none" stroke="black" d="M924.37,-288.21C897.1,-251.03 831.45,-161.55 798.8,-117.04"/>
<polygon fill="black" stroke="black" points="801.81,-115.22 793.07,-109.23 796.16,-119.36 801.81,-115.22"/>
</g>
<!-- simp_det_var&#45;&gt;pass_rate -->
<g id="edge179" class="edge">
<title>simp_det_var-&gt;pass_rate</title>
<path fill="none" stroke="black" d="M877.56,-299.1C790.95,-290.23 624.57,-272.32 483.69,-252 468.7,-249.84 452.49,-247.19 437.6,-244.62"/>
<polygon fill="black" stroke="black" points="438.47,-241.22 428.02,-242.95 437.27,-248.12 438.47,-241.22"/>
</g>
<!-- t_bry&#45;&gt;t_uword -->
<g id="edge20" class="edge">
<title>t_bry-&gt;t_uword</title>
<path fill="none" stroke="black" d="M1014.03,-363.07C1042.4,-342.39 1099.46,-304.26 1154.69,-288 1304.28,-243.95 1785.19,-236.51 1948.13,-235.25"/>
<polygon fill="black" stroke="black" points="1947.81,-238.76 1957.79,-235.19 1947.76,-231.76 1947.81,-238.76"/>
</g>
<!-- t_bry&#45;&gt;pass_rate -->
<g id="edge181" class="edge">
<title>t_bry-&gt;pass_rate</title>
<path fill="none" stroke="black" d="M964.61,-374.82C842.36,-366.2 400.87,-334.38 390.69,-324 375.45,-308.45 375.14,-283.13 377.96,-263.47"/>
<polygon fill="black" stroke="black" points="381.36,-264.33 379.69,-253.86 374.47,-263.09 381.36,-264.33"/>
</g>
<!-- simp_adp_var&#45;&gt;simp_det_var -->
<g id="edge39" class="edge">
<title>simp_adp_var-&gt;simp_det_var</title>
<path fill="none" stroke="black" d="M1357.98,-368.7C1269.23,-355.7 1097.89,-330.61 1003.36,-316.76"/>
<polygon fill="black" stroke="black" points="1004.12,-313.34 993.72,-315.35 1003.11,-320.26 1004.12,-313.34"/>
</g>
<!-- simp_adp_var&#45;&gt;t_uword -->
<g id="edge40" class="edge">
<title>simp_adp_var-&gt;t_uword</title>
<path fill="none" stroke="black" d="M1424.6,-359.78C1437.69,-338.82 1462.86,-304.22 1494.69,-288 1572.89,-248.15 1833.9,-238.24 1948.24,-235.79"/>
<polygon fill="black" stroke="black" points="1948.05,-239.3 1957.98,-235.6 1947.91,-232.3 1948.05,-239.3"/>
</g>
<!-- t_stopword&#45;&gt;t_uword -->
<g id="edge41" class="edge">
<title>t_stopword-&gt;t_uword</title>
<path fill="none" stroke="black" d="M1632.27,-293.96C1640.97,-291.83 1650.11,-289.73 1658.69,-288 1761.31,-267.31 1882.56,-250.36 1950.25,-241.55"/>
<polygon fill="black" stroke="black" points="1950.47,-245.05 1959.94,-240.3 1949.57,-238.11 1950.47,-245.05"/>
</g>
<!-- error_rate -->
<g id="node31" class="node">
<title>error_rate</title>
<ellipse fill="none" stroke="black" cx="459.69" cy="-162" rx="49.1" ry="18"/>
<text text-anchor="middle" x="459.69" y="-157.8" font-family="Times,serif" font-size="14.00">error_rate</text>
</g>
<!-- t_uword&#45;&gt;error_rate -->
<g id="edge187" class="edge">
<title>t_uword-&gt;error_rate</title>
<path fill="none" stroke="black" d="M1959.37,-232.22C1749.63,-228.35 838.17,-210.04 555.69,-180 541.62,-178.5 526.49,-176.17 512.5,-173.71"/>
<polygon fill="black" stroke="black" points="513.53,-170.33 503.06,-171.99 512.27,-177.22 513.53,-170.33"/>
</g>
<!-- sim_codeBleu -->
<g id="node42" class="node">
<title>sim_codeBleu</title>
<ellipse fill="none" stroke="black" cx="733.69" cy="-18" rx="66.29" ry="18"/>
<text text-anchor="middle" x="733.69" y="-13.8" font-family="Times,serif" font-size="14.00">sim_codeBleu</text>
</g>
<!-- t_uword&#45;&gt;sim_codeBleu -->
<g id="edge175" class="edge">
<title>t_uword-&gt;sim_codeBleu</title>
<path fill="none" stroke="black" d="M1962.97,-226.3C1781.32,-195.67 1028.74,-68.76 799.96,-30.17"/>
<polygon fill="black" stroke="black" points="800.76,-26.76 790.32,-28.55 799.6,-33.66 800.76,-26.76"/>
</g>
<!-- t_subtlex_us_zipf -->
<g id="node7" class="node">
<title>t_subtlex_us_zipf</title>
<ellipse fill="none" stroke="black" cx="1736.69" cy="-594" rx="79.7" ry="18"/>
<text text-anchor="middle" x="1736.69" y="-589.8" font-family="Times,serif" font-size="14.00">t_subtlex_us_zipf</text>
</g>
<!-- t_subtlex_us_zipf&#45;&gt;n_adp -->
<g id="edge7" class="edge">
<title>t_subtlex_us_zipf-&gt;n_adp</title>
<path fill="none" stroke="black" d="M1691.74,-578.73C1617.52,-555.22 1475.2,-510.28 1451.69,-504 1384.25,-485.99 1304.94,-469.19 1257.04,-459.52"/>
<polygon fill="black" stroke="black" points="1257.83,-456.11 1247.34,-457.57 1256.45,-462.97 1257.83,-456.11"/>
</g>
<!-- t_subtlex_us_zipf&#45;&gt;simp_det_var -->
<g id="edge6" class="edge">
<title>t_subtlex_us_zipf-&gt;simp_det_var</title>
<path fill="none" stroke="black" d="M1659.72,-588.94C1580.29,-583.26 1453.42,-570.04 1347.69,-540 1309.8,-529.23 1303.18,-518.86 1266.69,-504 1224.11,-486.65 1209.67,-490.72 1169.69,-468 1103.2,-430.2 1099.47,-402.24 1035.69,-360 1017.62,-348.03 996.58,-336.46 978.55,-327.2"/>
<polygon fill="black" stroke="black" points="980.18,-324.11 969.67,-322.72 977.02,-330.35 980.18,-324.11"/>
</g>
<!-- t_subtlex_us_zipf&#45;&gt;t_bry -->
<g id="edge9" class="edge">
<title>t_subtlex_us_zipf-&gt;t_bry</title>
<path fill="none" stroke="black" d="M1661.21,-588.02C1576.18,-581.37 1434.22,-567.15 1314.69,-540 1265.35,-528.79 1142.42,-493.46 1098.69,-468 1078.03,-455.96 1076.74,-447.7 1058.69,-432 1046.61,-421.49 1033.04,-410.02 1021.59,-400.46"/>
<polygon fill="black" stroke="black" points="1024.02,-397.93 1014.1,-394.21 1019.54,-403.3 1024.02,-397.93"/>
</g>
<!-- t_subtlex_us_zipf&#45;&gt;simp_adp_var -->
<g id="edge13" class="edge">
<title>t_subtlex_us_zipf-&gt;simp_adp_var</title>
<path fill="none" stroke="black" d="M1722.38,-576.07C1694.38,-543.89 1629.06,-473.4 1560.69,-432 1533.51,-415.54 1500.41,-403 1472.61,-394.26"/>
<polygon fill="black" stroke="black" points="1473.87,-390.99 1463.29,-391.42 1471.83,-397.68 1473.87,-390.99"/>
</g>
<!-- t_subtlex_us_zipf&#45;&gt;t_stopword -->
<g id="edge14" class="edge">
<title>t_subtlex_us_zipf-&gt;t_stopword</title>
<path fill="none" stroke="black" d="M1728,-575.97C1703.55,-528.08 1634.08,-391.98 1604.4,-333.85"/>
<polygon fill="black" stroke="black" points="1607.7,-332.61 1600.03,-325.29 1601.46,-335.79 1607.7,-332.61"/>
</g>
<!-- t_subtlex_us_zipf&#45;&gt;t_uword -->
<g id="edge16" class="edge">
<title>t_subtlex_us_zipf-&gt;t_uword</title>
<path fill="none" stroke="black" d="M1746.96,-575.97C1758.05,-557.83 1776.44,-528.43 1793.69,-504 1858.98,-411.59 1943.42,-307.06 1981.91,-260.14"/>
<polygon fill="black" stroke="black" points="1984.59,-262.4 1988.23,-252.46 1979.18,-257.96 1984.59,-262.4"/>
</g>
<!-- n_upunct -->
<g id="node8" class="node">
<title>n_upunct</title>
<ellipse fill="none" stroke="black" cx="2709.69" cy="-378" rx="46.98" ry="18"/>
<text text-anchor="middle" x="2709.69" y="-373.8" font-family="Times,serif" font-size="14.00">n_upunct</text>
</g>
<!-- t_subtlex_us_zipf&#45;&gt;n_upunct -->
<g id="edge8" class="edge">
<title>t_subtlex_us_zipf-&gt;n_upunct</title>
<path fill="none" stroke="black" d="M1792.39,-580.81C1838.46,-570.53 1905.53,-555.12 1963.69,-540 2076.01,-510.8 2103.19,-500.18 2214.69,-468 2269.83,-452.09 2282.6,-444.09 2338.69,-432 2449.03,-408.23 2580.18,-392.34 2653.28,-384.56"/>
<polygon fill="black" stroke="black" points="2653.42,-388.07 2663,-383.54 2652.69,-381.1 2653.42,-388.07"/>
</g>
<!-- t_syll3 -->
<g id="node9" class="node">
<title>t_syll3</title>
<ellipse fill="none" stroke="black" cx="1991.69" cy="-450" rx="37.33" ry="18"/>
<text text-anchor="middle" x="1991.69" y="-445.8" font-family="Times,serif" font-size="14.00">t_syll3</text>
</g>
<!-- t_subtlex_us_zipf&#45;&gt;t_syll3 -->
<g id="edge10" class="edge">
<title>t_subtlex_us_zipf-&gt;t_syll3</title>
<path fill="none" stroke="black" d="M1779.45,-578.37C1804.95,-568.91 1837.53,-555.48 1864.69,-540 1887.86,-526.8 1890.95,-519.43 1912.69,-504 1928.23,-492.97 1945.81,-481.12 1960.44,-471.42"/>
<polygon fill="black" stroke="black" points="1962.35,-474.36 1968.76,-465.93 1958.49,-468.52 1962.35,-474.36"/>
</g>
<!-- WTopc15_S -->
<g id="node10" class="node">
<title>WTopc15_S</title>
<ellipse fill="none" stroke="black" cx="2322.69" cy="-306" rx="59.85" ry="18"/>
<text text-anchor="middle" x="2322.69" y="-301.8" font-family="Times,serif" font-size="14.00">WTopc15_S</text>
</g>
<!-- t_subtlex_us_zipf&#45;&gt;WTopc15_S -->
<g id="edge11" class="edge">
<title>t_subtlex_us_zipf-&gt;WTopc15_S</title>
<path fill="none" stroke="black" d="M1754.71,-576.19C1807.26,-527.5 1960.55,-388.03 2021.69,-360 2095.6,-326.12 2188.85,-313.81 2251.83,-309.39"/>
<polygon fill="black" stroke="black" points="2251.96,-312.89 2261.71,-308.75 2251.51,-305.9 2251.96,-312.89"/>
</g>
<!-- corr_det_var -->
<g id="node11" class="node">
<title>corr_det_var</title>
<ellipse fill="none" stroke="black" cx="2470.69" cy="-522" rx="60.37" ry="18"/>
<text text-anchor="middle" x="2470.69" y="-517.8" font-family="Times,serif" font-size="14.00">corr_det_var</text>
</g>
<!-- t_subtlex_us_zipf&#45;&gt;corr_det_var -->
<g id="edge12" class="edge">
<title>t_subtlex_us_zipf-&gt;corr_det_var</title>
<path fill="none" stroke="black" d="M1809.08,-586.1C1951.03,-572.56 2264.11,-542.7 2402.56,-529.5"/>
<polygon fill="black" stroke="black" points="2402.68,-533 2412.31,-528.57 2402.02,-526.03 2402.68,-533"/>
</g>
<!-- root_det_var -->
<g id="node12" class="node">
<title>root_det_var</title>
<ellipse fill="none" stroke="black" cx="680.69" cy="-450" rx="60.38" ry="18"/>
<text text-anchor="middle" x="680.69" y="-445.8" font-family="Times,serif" font-size="14.00">root_det_var</text>
</g>
<!-- t_subtlex_us_zipf&#45;&gt;root_det_var -->
<g id="edge15" class="edge">
<title>t_subtlex_us_zipf-&gt;root_det_var</title>
<path fill="none" stroke="black" d="M1662.37,-587.33C1558.71,-579.03 1364.95,-562.15 1200.69,-540 1033.66,-517.48 838.07,-481.35 741.29,-462.81"/>
<polygon fill="black" stroke="black" points="741.95,-459.37 731.47,-460.92 740.63,-466.25 741.95,-459.37"/>
</g>
<!-- n_uverb -->
<g id="node13" class="node">
<title>n_uverb</title>
<ellipse fill="none" stroke="black" cx="1399.69" cy="-522" rx="42.68" ry="18"/>
<text text-anchor="middle" x="1399.69" y="-517.8" font-family="Times,serif" font-size="14.00">n_uverb</text>
</g>
<!-- t_subtlex_us_zipf&#45;&gt;n_uverb -->
<g id="edge17" class="edge">
<title>t_subtlex_us_zipf-&gt;n_uverb</title>
<path fill="none" stroke="black" d="M1672.91,-582.85C1615.9,-573.32 1530.25,-557.88 1456.69,-540 1452.47,-538.97 1448.09,-537.82 1443.73,-536.62"/>
<polygon fill="black" stroke="black" points="1445.03,-533.35 1434.45,-533.97 1443.1,-540.08 1445.03,-533.35"/>
</g>
<!-- bilog_ttr -->
<g id="node14" class="node">
<title>bilog_ttr</title>
<ellipse fill="none" stroke="black" cx="2128.69" cy="-450" rx="44.3" ry="18"/>
<text text-anchor="middle" x="2128.69" y="-445.8" font-family="Times,serif" font-size="14.00">bilog_ttr</text>
</g>
<!-- t_subtlex_us_zipf&#45;&gt;bilog_ttr -->
<g id="edge18" class="edge">
<title>t_subtlex_us_zipf-&gt;bilog_ttr</title>
<path fill="none" stroke="black" d="M1783.12,-579.08C1816.56,-568.83 1862.65,-554.26 1902.69,-540 1968.2,-516.67 2043.09,-486.47 2088.09,-467.93"/>
<polygon fill="black" stroke="black" points="2089.29,-471.22 2097.2,-464.17 2086.62,-464.75 2089.29,-471.22"/>
</g>
<!-- n_upunct&#45;&gt;t_uword -->
<g id="edge19" class="edge">
<title>n_upunct-&gt;t_uword</title>
<path fill="none" stroke="black" d="M2685.09,-362.24C2649.67,-341.79 2581.64,-305.37 2518.69,-288 2355.15,-242.88 2152.87,-235.46 2057.43,-234.7"/>
<polygon fill="black" stroke="black" points="2057.59,-231.2 2047.57,-234.64 2057.55,-238.2 2057.59,-231.2"/>
</g>
<!-- t_syll3&#45;&gt;simp_det_var -->
<g id="edge21" class="edge">
<title>t_syll3-&gt;simp_det_var</title>
<path fill="none" stroke="black" d="M1962.17,-438.66C1955.17,-436.35 1947.7,-433.99 1940.69,-432 1907.31,-422.5 1671,-365.33 1636.69,-360 1410.49,-324.87 1139.39,-312.76 1011.05,-308.8"/>
<polygon fill="black" stroke="black" points="1011.43,-305.31 1001.33,-308.51 1011.22,-312.31 1011.43,-305.31"/>
</g>
<!-- t_syll3&#45;&gt;t_bry -->
<g id="edge23" class="edge">
<title>t_syll3-&gt;t_bry</title>
<path fill="none" stroke="black" d="M1954.77,-446.4C1799.88,-435.52 1203.06,-393.57 1038.13,-381.98"/>
<polygon fill="black" stroke="black" points="1038.75,-378.52 1028.53,-381.31 1038.26,-385.5 1038.75,-378.52"/>
</g>
<!-- t_syll3&#45;&gt;t_stopword -->
<g id="edge24" class="edge">
<title>t_syll3-&gt;t_stopword</title>
<path fill="none" stroke="black" d="M1975.02,-433.78C1951.99,-413.63 1908.32,-378.5 1864.69,-360 1796.57,-331.1 1712.21,-317.82 1655.23,-311.81"/>
<polygon fill="black" stroke="black" points="1655.66,-308.34 1645.36,-310.82 1654.96,-315.3 1655.66,-308.34"/>
</g>
<!-- t_syll3&#45;&gt;t_uword -->
<g id="edge26" class="edge">
<title>t_syll3-&gt;t_uword</title>
<path fill="none" stroke="black" d="M1992.58,-431.85C1994.46,-395.14 1998.91,-308.66 2001.23,-263.53"/>
<polygon fill="black" stroke="black" points="2004.71,-263.91 2001.73,-253.74 1997.72,-263.55 2004.71,-263.91"/>
</g>
<!-- t_syll3&#45;&gt;n_upunct -->
<g id="edge22" class="edge">
<title>t_syll3-&gt;n_upunct</title>
<path fill="none" stroke="black" d="M2025.06,-441.32C2040.41,-438.03 2058.9,-434.39 2075.69,-432 2286.65,-401.94 2539.71,-387.09 2651.61,-381.59"/>
<polygon fill="black" stroke="black" points="2651.62,-385.1 2661.44,-381.12 2651.28,-378.1 2651.62,-385.1"/>
</g>
<!-- a_n_ent_pw -->
<g id="node15" class="node">
<title>a_n_ent_pw</title>
<ellipse fill="none" stroke="black" cx="2342.69" cy="-378" rx="58.24" ry="18"/>
<text text-anchor="middle" x="2342.69" y="-373.8" font-family="Times,serif" font-size="14.00">a_n_ent_pw</text>
</g>
<!-- t_syll3&#45;&gt;a_n_ent_pw -->
<g id="edge25" class="edge">
<title>t_syll3-&gt;a_n_ent_pw</title>
<path fill="none" stroke="black" d="M2025.61,-442.11C2040.91,-439 2059.21,-435.3 2075.69,-432 2147.07,-417.69 2229.23,-401.41 2283.34,-390.72"/>
<polygon fill="black" stroke="black" points="2283.83,-394.19 2292.96,-388.81 2282.48,-387.32 2283.83,-394.19"/>
</g>
<!-- WTopc15_S&#45;&gt;t_uword -->
<g id="edge28" class="edge">
<title>WTopc15_S-&gt;t_uword</title>
<path fill="none" stroke="black" d="M2275.48,-294.67C2215.37,-281.52 2112.07,-258.92 2051.3,-245.63"/>
<polygon fill="black" stroke="black" points="2052.1,-242.23 2041.59,-243.51 2050.61,-249.06 2052.1,-242.23"/>
</g>
<!-- BClar10_S -->
<g id="node16" class="node">
<title>BClar10_S</title>
<ellipse fill="none" stroke="black" cx="3462.69" cy="-234" rx="53.96" ry="18"/>
<text text-anchor="middle" x="3462.69" y="-229.8" font-family="Times,serif" font-size="14.00">BClar10_S</text>
</g>
<!-- WTopc15_S&#45;&gt;BClar10_S -->
<g id="edge27" class="edge">
<title>WTopc15_S-&gt;BClar10_S</title>
<path fill="none" stroke="black" d="M2380.79,-301.43C2574.3,-289.55 3196.07,-251.37 3398.41,-238.95"/>
<polygon fill="black" stroke="black" points="3398.43,-242.45 3408.2,-238.35 3398,-235.47 3398.43,-242.45"/>
</g>
<!-- WTopc15_S&#45;&gt;error_rate -->
<g id="edge186" class="edge">
<title>WTopc15_S-&gt;error_rate</title>
<path fill="none" stroke="black" d="M2262.95,-303.43C1951.36,-295.24 526.42,-257.51 516.69,-252 504.3,-244.98 485.98,-213.75 473.48,-190.25"/>
<polygon fill="black" stroke="black" points="476.62,-188.7 468.88,-181.46 470.41,-191.94 476.62,-188.7"/>
</g>
<!-- corr_det_var&#45;&gt;simp_det_var -->
<g id="edge30" class="edge">
<title>corr_det_var-&gt;simp_det_var</title>
<path fill="none" stroke="black" d="M2411.71,-517.52C2314.22,-511.22 2113.55,-495.91 1945.69,-468 1806.59,-444.87 1773.85,-428.77 1636.69,-396 1571.27,-380.37 1556.01,-371.24 1489.69,-360 1319.27,-331.12 1116.44,-316.7 1010.1,-310.65"/>
<polygon fill="black" stroke="black" points="1010.56,-307.17 1000.38,-310.11 1010.16,-314.16 1010.56,-307.17"/>
</g>
<!-- corr_det_var&#45;&gt;t_uword -->
<g id="edge32" class="edge">
<title>corr_det_var-&gt;t_uword</title>
<path fill="none" stroke="black" d="M2471.43,-503.7C2472.29,-457.89 2467.3,-333.83 2391.69,-288 2336.57,-254.58 2150.52,-241.61 2057.13,-237.12"/>
<polygon fill="black" stroke="black" points="2057.33,-233.62 2047.18,-236.66 2057.01,-240.62 2057.33,-233.62"/>
</g>
<!-- corr_det_var&#45;&gt;BClar10_S -->
<g id="edge31" class="edge">
<title>corr_det_var-&gt;BClar10_S</title>
<path fill="none" stroke="black" d="M2522.71,-512.54C2652.48,-490.51 2999.82,-425.95 3274.69,-324 3328.54,-304.03 3388.05,-274.52 3425.4,-255.03"/>
<polygon fill="black" stroke="black" points="3426.75,-258.27 3433.98,-250.52 3423.5,-252.08 3426.75,-258.27"/>
</g>
<!-- root_det_var&#45;&gt;simp_det_var -->
<g id="edge85" class="edge">
<title>root_det_var-&gt;simp_det_var</title>
<path fill="none" stroke="black" d="M696.72,-432.5C716.53,-412.91 752,-380.33 787.69,-360 816.46,-343.61 851.19,-330.9 879.88,-322.04"/>
<polygon fill="black" stroke="black" points="880.54,-325.5 889.11,-319.27 878.52,-318.8 880.54,-325.5"/>
</g>
<!-- n_uverb&#45;&gt;n_adp -->
<g id="edge92" class="edge">
<title>n_uverb-&gt;n_adp</title>
<path fill="none" stroke="black" d="M1368.56,-509.28C1336.46,-497.2 1286.36,-478.35 1251.89,-465.37"/>
<polygon fill="black" stroke="black" points="1253.29,-462.16 1242.7,-461.92 1250.83,-468.71 1253.29,-462.16"/>
</g>
<!-- n_uverb&#45;&gt;simp_det_var -->
<g id="edge91" class="edge">
<title>n_uverb-&gt;simp_det_var</title>
<path fill="none" stroke="black" d="M1380,-505.55C1338.58,-473.8 1238.48,-400.75 1143.69,-360 1097.96,-340.34 1043.29,-326.73 1001.62,-318.22"/>
<polygon fill="black" stroke="black" points="1002.48,-314.83 991.99,-316.31 1001.12,-321.69 1002.48,-314.83"/>
</g>
<!-- n_uverb&#45;&gt;t_bry -->
<g id="edge94" class="edge">
<title>n_uverb-&gt;t_bry</title>
<path fill="none" stroke="black" d="M1361.93,-513.48C1306.2,-502.17 1204.73,-480.77 1169.69,-468 1117.26,-448.88 1060.37,-417.59 1026.4,-397.66"/>
<polygon fill="black" stroke="black" points="1028.32,-394.72 1017.93,-392.64 1024.75,-400.75 1028.32,-394.72"/>
</g>
<!-- n_uverb&#45;&gt;t_stopword -->
<g id="edge96" class="edge">
<title>n_uverb-&gt;t_stopword</title>
<path fill="none" stroke="black" d="M1416.69,-505.05C1441.07,-481.87 1486.97,-437.16 1522.69,-396 1540.5,-375.49 1559.11,-350.87 1572.36,-332.73"/>
<polygon fill="black" stroke="black" points="1574.84,-335.27 1577.87,-325.12 1569.17,-331.16 1574.84,-335.27"/>
</g>
<!-- n_uverb&#45;&gt;t_uword -->
<g id="edge98" class="edge">
<title>n_uverb-&gt;t_uword</title>
<path fill="none" stroke="black" d="M1407.5,-503.97C1416.49,-485.31 1432.38,-454.98 1450.69,-432 1465.4,-413.55 1476.73,-415.71 1489.69,-396 1517.66,-353.49 1487.87,-319.67 1527.69,-288 1560.1,-262.23 1830.74,-244.42 1948.41,-237.83"/>
<polygon fill="black" stroke="black" points="1948.34,-241.34 1958.13,-237.29 1947.95,-234.35 1948.34,-241.34"/>
</g>
<!-- n_uverb&#45;&gt;n_upunct -->
<g id="edge93" class="edge">
<title>n_uverb-&gt;n_upunct</title>
<path fill="none" stroke="black" d="M1437.92,-513.52C1526.7,-496.42 1753.93,-454.23 1945.69,-432 2082.46,-416.14 2497.96,-391.26 2651.7,-382.33"/>
<polygon fill="black" stroke="black" points="2651.88,-385.82 2661.66,-381.75 2651.47,-378.83 2651.88,-385.82"/>
</g>
<!-- n_uverb&#45;&gt;WTopc15_S -->
<g id="edge95" class="edge">
<title>n_uverb-&gt;WTopc15_S</title>
<path fill="none" stroke="black" d="M1431.88,-509.83C1516.09,-481.01 1750.27,-403.33 1950.69,-360 2056.07,-337.22 2180.43,-321.76 2255.34,-313.67"/>
<polygon fill="black" stroke="black" points="2255.4,-317.18 2264.97,-312.64 2254.66,-310.22 2255.4,-317.18"/>
</g>
<!-- n_uverb&#45;&gt;root_det_var -->
<g id="edge97" class="edge">
<title>n_uverb-&gt;root_det_var</title>
<path fill="none" stroke="black" d="M1358.19,-516.96C1239.13,-505.37 895.58,-471.92 748.66,-457.62"/>
<polygon fill="black" stroke="black" points="749.38,-454.17 739.09,-456.69 748.7,-461.14 749.38,-454.17"/>
</g>
<!-- n_uverb&#45;&gt;bilog_ttr -->
<g id="edge99" class="edge">
<title>n_uverb-&gt;bilog_ttr</title>
<path fill="none" stroke="black" d="M1442.03,-518.98C1544.6,-513.75 1814.36,-498.06 2037.69,-468 2051.13,-466.19 2065.6,-463.73 2078.96,-461.24"/>
<polygon fill="black" stroke="black" points="2079.21,-464.75 2088.38,-459.44 2077.9,-457.88 2079.21,-464.75"/>
</g>
<!-- bilog_ttr&#45;&gt;simp_det_var -->
<g id="edge154" class="edge">
<title>bilog_ttr-&gt;simp_det_var</title>
<path fill="none" stroke="black" d="M2094.16,-438.39C2086.47,-436.17 2078.33,-433.91 2070.69,-432 1919.18,-394 1881.44,-381.28 1726.69,-360 1465.59,-324.09 1152.45,-312.24 1011.69,-308.55"/>
<polygon fill="black" stroke="black" points="1011.83,-305.06 1001.75,-308.3 1011.65,-312.06 1011.83,-305.06"/>
</g>
<!-- bilog_ttr&#45;&gt;simp_adp_var -->
<g id="edge157" class="edge">
<title>bilog_ttr-&gt;simp_adp_var</title>
<path fill="none" stroke="black" d="M2094.93,-437.84C2087.05,-435.59 2078.64,-433.47 2070.69,-432 1863.68,-393.72 1614.85,-383.09 1491.62,-380.13"/>
<polygon fill="black" stroke="black" points="1492.04,-376.64 1481.97,-379.91 1491.88,-383.64 1492.04,-376.64"/>
</g>
<!-- bilog_ttr&#45;&gt;t_uword -->
<g id="edge159" class="edge">
<title>bilog_ttr-&gt;t_uword</title>
<path fill="none" stroke="black" d="M2155.65,-435.53C2170.41,-426.54 2187.36,-413.22 2195.69,-396 2202.66,-381.6 2203.34,-374.06 2195.69,-360 2164.36,-302.37 2093.73,-267.22 2047.16,-249.44"/>
<polygon fill="black" stroke="black" points="2048.47,-246.19 2037.88,-246.02 2046.05,-252.76 2048.47,-246.19"/>
</g>
<!-- bilog_ttr&#45;&gt;n_upunct -->
<g id="edge156" class="edge">
<title>bilog_ttr-&gt;n_upunct</title>
<path fill="none" stroke="black" d="M2162.48,-437.96C2170.36,-435.71 2178.76,-433.55 2186.69,-432 2353.67,-399.36 2554.8,-386.15 2651.8,-381.38"/>
<polygon fill="black" stroke="black" points="2651.77,-384.89 2661.59,-380.92 2651.43,-377.9 2651.77,-384.89"/>
</g>
<!-- bilog_ttr&#45;&gt;a_n_ent_pw -->
<g id="edge158" class="edge">
<title>bilog_ttr-&gt;a_n_ent_pw</title>
<path fill="none" stroke="black" d="M2162.13,-438.06C2197.16,-426.6 2252.58,-408.48 2292.78,-395.33"/>
<polygon fill="black" stroke="black" points="2293.84,-398.66 2302.25,-392.23 2291.66,-392.01 2293.84,-398.66"/>
</g>
<!-- bilog_ttr&#45;&gt;BClar10_S -->
<g id="edge155" class="edge">
<title>bilog_ttr-&gt;BClar10_S</title>
<path fill="none" stroke="black" d="M2173.07,-449.5C2294.36,-450.12 2641.22,-446.94 2923.69,-396 3111.41,-362.15 3326.43,-286.24 3417.83,-252.15"/>
<polygon fill="black" stroke="black" points="3418.8,-255.52 3426.94,-248.73 3416.34,-248.97 3418.8,-255.52"/>
</g>
<!-- bilog_ttr_no_lem -->
<g id="node40" class="node">
<title>bilog_ttr_no_lem</title>
<ellipse fill="none" stroke="black" cx="2108.69" cy="-378" rx="78.09" ry="18"/>
<text text-anchor="middle" x="2108.69" y="-373.8" font-family="Times,serif" font-size="14.00">bilog_ttr_no_lem</text>
</g>
<!-- bilog_ttr&#45;&gt;bilog_ttr_no_lem -->
<g id="edge160" class="edge">
<title>bilog_ttr-&gt;bilog_ttr_no_lem</title>
<path fill="none" stroke="black" d="M2123.75,-431.7C2121.62,-424.24 2119.07,-415.32 2116.68,-406.97"/>
<polygon fill="black" stroke="black" points="2120.11,-406.21 2114,-397.56 2113.38,-408.14 2120.11,-406.21"/>
</g>
<!-- a_n_ent_pw&#45;&gt;t_stopword -->
<g id="edge71" class="edge">
<title>a_n_ent_pw-&gt;t_stopword</title>
<path fill="none" stroke="black" d="M2289.32,-370.47C2261.44,-367.14 2226.75,-363.16 2195.69,-360 1998.64,-339.98 1765.02,-320.8 1654.6,-312.01"/>
<polygon fill="black" stroke="black" points="1655.1,-308.54 1644.85,-311.24 1654.54,-315.52 1655.1,-308.54"/>
</g>
<!-- a_n_ent_pw&#45;&gt;WTopc15_S -->
<g id="edge70" class="edge">
<title>a_n_ent_pw-&gt;WTopc15_S</title>
<path fill="none" stroke="black" d="M2337.75,-359.7C2335.62,-352.24 2333.07,-343.32 2330.68,-334.97"/>
<polygon fill="black" stroke="black" points="2334.11,-334.21 2328,-325.56 2327.38,-336.14 2334.11,-334.21"/>
</g>
<!-- root_punct_var -->
<g id="node17" class="node">
<title>root_punct_var</title>
<ellipse fill="none" stroke="black" cx="2844.69" cy="-378" rx="70.03" ry="18"/>
<text text-anchor="middle" x="2844.69" y="-373.8" font-family="Times,serif" font-size="14.00">root_punct_var</text>
</g>
<!-- root_punct_var&#45;&gt;t_uword -->
<g id="edge29" class="edge">
<title>root_punct_var-&gt;t_uword</title>
<path fill="none" stroke="black" d="M2809.28,-362.22C2758.98,-341.9 2663.52,-305.84 2578.69,-288 2390.15,-248.34 2160.7,-238.36 2057.55,-235.85"/>
<polygon fill="black" stroke="black" points="2057.79,-232.35 2047.71,-235.62 2057.63,-239.35 2057.79,-232.35"/>
</g>
<!-- sta_Bleu -->
<g id="node26" class="node">
<title>sta_Bleu</title>
<ellipse fill="none" stroke="black" cx="477.69" cy="-306" rx="44.83" ry="18"/>
<text text-anchor="middle" x="477.69" y="-301.8" font-family="Times,serif" font-size="14.00">sta_Bleu</text>
</g>
<!-- root_punct_var&#45;&gt;sta_Bleu -->
<g id="edge168" class="edge">
<title>root_punct_var-&gt;sta_Bleu</title>
<path fill="none" stroke="black" d="M2795.21,-364.82C2785.48,-362.86 2775.31,-361.12 2765.69,-360 2345.77,-311.31 1286.23,-337.3 863.69,-324 746.04,-320.3 608.3,-313.68 533.3,-309.89"/>
<polygon fill="black" stroke="black" points="533.93,-306.42 523.77,-309.4 533.58,-313.41 533.93,-306.42"/>
</g>
<!-- a_cconj_pw -->
<g id="node18" class="node">
<title>a_cconj_pw</title>
<ellipse fill="none" stroke="black" cx="57.69" cy="-738" rx="57.69" ry="18"/>
<text text-anchor="middle" x="57.69" y="-733.8" font-family="Times,serif" font-size="14.00">a_cconj_pw</text>
</g>
<!-- a_cconj_pw&#45;&gt;t_uword -->
<g id="edge33" class="edge">
<title>a_cconj_pw-&gt;t_uword</title>
<path fill="none" stroke="black" d="M58.71,-719.52C60.17,-692.73 62.69,-639.9 62.69,-595 62.69,-595 62.69,-595 62.69,-449 62.69,-404.87 70.23,-384.85 106.69,-360 185.02,-306.63 446.62,-365.8 531.69,-324 551.18,-314.43 544.99,-297.1 564.69,-288 628.56,-258.49 1693.68,-239.87 1948.33,-235.83"/>
<polygon fill="black" stroke="black" points="1948.03,-239.34 1957.97,-235.68 1947.92,-232.34 1948.03,-239.34"/>
</g>
<!-- simp_ttr -->
<g id="node19" class="node">
<title>simp_ttr</title>
<ellipse fill="none" stroke="black" cx="2249.69" cy="-666" rx="43.23" ry="18"/>
<text text-anchor="middle" x="2249.69" y="-661.8" font-family="Times,serif" font-size="14.00">simp_ttr</text>
</g>
<!-- a_cconj_pw&#45;&gt;simp_ttr -->
<g id="edge34" class="edge">
<title>a_cconj_pw-&gt;simp_ttr</title>
<path fill="none" stroke="black" d="M98.6,-724.93C106.84,-722.93 115.49,-721.14 123.69,-720 229.18,-705.3 1872.13,-674.03 2194.9,-668.01"/>
<polygon fill="black" stroke="black" points="2194.81,-671.52 2204.74,-667.83 2194.68,-664.52 2194.81,-671.52"/>
</g>
<!-- syntaxError_rate -->
<g id="node20" class="node">
<title>syntaxError_rate</title>
<ellipse fill="none" stroke="black" cx="392.69" cy="-18" rx="75.92" ry="18"/>
<text text-anchor="middle" x="392.69" y="-13.8" font-family="Times,serif" font-size="14.00">syntaxError_rate</text>
</g>
<!-- a_cconj_pw&#45;&gt;syntaxError_rate -->
<g id="edge35" class="edge">
<title>a_cconj_pw-&gt;syntaxError_rate</title>
<path fill="none" stroke="black" d="M51.02,-719.81C41.37,-693.4 24.69,-641.06 24.69,-595 24.69,-595 24.69,-595 24.69,-161 24.69,-98 214.78,-52.21 321.72,-31.43"/>
<polygon fill="black" stroke="black" points="322.1,-34.92 331.26,-29.61 320.78,-28.05 322.1,-34.92"/>
</g>
<!-- simp_ttr&#45;&gt;simp_det_var -->
<g id="edge124" class="edge">
<title>simp_ttr-&gt;simp_det_var</title>
<path fill="none" stroke="black" d="M2206.41,-664.24C2015.65,-660.71 1255.06,-644.68 1153.69,-612 1056.19,-580.56 1031.77,-552.4 973.69,-468 953.64,-438.85 948.02,-430.4 939.69,-396 934.91,-376.22 934.25,-353.25 934.74,-335.6"/>
<polygon fill="black" stroke="black" points="938.23,-335.99 935.16,-325.85 931.23,-335.69 938.23,-335.99"/>
</g>
<!-- simp_ttr&#45;&gt;t_bry -->
<g id="edge127" class="edge">
<title>simp_ttr-&gt;t_bry</title>
<path fill="none" stroke="black" d="M2206.21,-664.05C2047.66,-660.34 1500.86,-645.36 1329.69,-612 1182.56,-583.33 1111,-590.57 1024.69,-468 1012.03,-450.02 1004.65,-426.17 1000.51,-407.69"/>
<polygon fill="black" stroke="black" points="1003.95,-407.02 998.53,-397.91 997.08,-408.41 1003.95,-407.02"/>
</g>
<!-- simp_ttr&#45;&gt;simp_adp_var -->
<g id="edge131" class="edge">
<title>simp_ttr-&gt;simp_adp_var</title>
<path fill="none" stroke="black" d="M2207.06,-662.05C2073.89,-652.73 1673.04,-623.83 1647.69,-612 1547.54,-565.27 1465.86,-456.37 1431.8,-405.76"/>
<polygon fill="black" stroke="black" points="1434.73,-403.83 1426.29,-397.42 1428.89,-407.69 1434.73,-403.83"/>
</g>
<!-- simp_ttr&#45;&gt;t_stopword -->
<g id="edge132" class="edge">
<title>simp_ttr-&gt;t_stopword</title>
<path fill="none" stroke="black" d="M2224.26,-651.19C2123.02,-596.18 1748.27,-392.6 1628.06,-327.3"/>
<polygon fill="black" stroke="black" points="1630,-324.37 1619.54,-322.67 1626.66,-330.52 1630,-324.37"/>
</g>
<!-- simp_ttr&#45;&gt;t_uword -->
<g id="edge138" class="edge">
<title>simp_ttr-&gt;t_uword</title>
<path fill="none" stroke="black" d="M2293,-663.82C2432.46,-659.71 2868.72,-644.54 3005.69,-612 3124.31,-583.82 3240.04,-550.81 3212.69,-432 3188.61,-327.36 3123.03,-313.38 3018.69,-288 2833.97,-243.06 2241.47,-236.22 2057.63,-235.18"/>
<polygon fill="black" stroke="black" points="2057.65,-231.69 2047.63,-235.13 2057.61,-238.68 2057.65,-231.69"/>
</g>
<!-- simp_ttr&#45;&gt;n_upunct -->
<g id="edge126" class="edge">
<title>simp_ttr-&gt;n_upunct</title>
<path fill="none" stroke="black" d="M2292.72,-663.22C2438.24,-657 2904.13,-635.32 2925.69,-612 2983.65,-549.33 2926.26,-484.17 2858.69,-432 2850.18,-425.43 2796.31,-407.06 2755.76,-393.79"/>
<polygon fill="black" stroke="black" points="2757.02,-390.52 2746.43,-390.75 2754.86,-397.17 2757.02,-390.52"/>
</g>
<!-- simp_ttr&#45;&gt;t_syll3 -->
<g id="edge128" class="edge">
<title>simp_ttr-&gt;t_syll3</title>
<path fill="none" stroke="black" d="M2241.36,-647.87C2224.72,-615.35 2184.31,-544.32 2130.69,-504 2093.94,-476.36 2076.57,-484.63 2033.69,-468 2032.56,-467.56 2031.4,-467.11 2030.24,-466.65"/>
<polygon fill="black" stroke="black" points="2031.66,-463.45 2021.07,-463.01 2029.07,-469.96 2031.66,-463.45"/>
</g>
<!-- simp_ttr&#45;&gt;WTopc15_S -->
<g id="edge129" class="edge">
<title>simp_ttr-&gt;WTopc15_S</title>
<path fill="none" stroke="black" d="M2264.05,-648.6C2297.81,-608.77 2381.53,-502.37 2409.69,-396 2413.79,-380.53 2417.53,-373.95 2409.69,-360 2401.1,-344.69 2386.09,-333.29 2370.93,-325.06"/>
<polygon fill="black" stroke="black" points="2372.88,-322.12 2362.37,-320.78 2369.75,-328.38 2372.88,-322.12"/>
</g>
<!-- simp_ttr&#45;&gt;corr_det_var -->
<g id="edge130" class="edge">
<title>simp_ttr-&gt;corr_det_var</title>
<path fill="none" stroke="black" d="M2279.31,-652.71C2301.77,-642.9 2333.05,-628.15 2358.69,-612 2375.5,-601.42 2415.02,-569.32 2442.31,-546.73"/>
<polygon fill="black" stroke="black" points="2444.43,-549.52 2449.88,-540.44 2439.95,-544.13 2444.43,-549.52"/>
</g>
<!-- simp_ttr&#45;&gt;root_det_var -->
<g id="edge137" class="edge">
<title>simp_ttr-&gt;root_det_var</title>
<path fill="none" stroke="black" d="M2206.53,-664.2C1987.65,-660.03 1005.72,-639.89 872.69,-612 787.15,-594.07 742.48,-609.67 689.69,-540 676.79,-522.96 675.16,-498.52 676.41,-479.55"/>
<polygon fill="black" stroke="black" points="679.87,-480.1 677.37,-469.8 672.91,-479.41 679.87,-480.1"/>
</g>
<!-- simp_ttr&#45;&gt;n_uverb -->
<g id="edge139" class="edge">
<title>simp_ttr-&gt;n_uverb</title>
<path fill="none" stroke="black" d="M2206.23,-665.25C2070.44,-665.48 1655.88,-661.97 1532.69,-612 1509.6,-602.63 1510.06,-590.37 1489.69,-576 1472.52,-563.88 1452.44,-551.86 1435.61,-542.35"/>
<polygon fill="black" stroke="black" points="1437.37,-539.32 1426.93,-537.5 1433.96,-545.43 1437.37,-539.32"/>
</g>
<!-- simp_ttr&#45;&gt;bilog_ttr -->
<g id="edge141" class="edge">
<title>simp_ttr-&gt;bilog_ttr</title>
<path fill="none" stroke="black" d="M2250.88,-647.58C2251.62,-629.38 2251.4,-600.16 2244.69,-576 2235.01,-541.14 2230.82,-530.97 2206.69,-504 2194.9,-490.81 2179.16,-479.32 2164.92,-470.43"/>
<polygon fill="black" stroke="black" points="2167.03,-467.62 2156.65,-465.49 2163.44,-473.63 2167.03,-467.62"/>
</g>
<!-- simp_ttr&#45;&gt;a_n_ent_pw -->
<g id="edge135" class="edge">
<title>simp_ttr-&gt;a_n_ent_pw</title>
<path fill="none" stroke="black" d="M2255.23,-647.97C2270.7,-600.39 2314.49,-465.75 2333.59,-407"/>
<polygon fill="black" stroke="black" points="2336.83,-408.34 2336.6,-397.75 2330.18,-406.17 2336.83,-408.34"/>
</g>
<!-- simp_ttr&#45;&gt;BClar10_S -->
<g id="edge125" class="edge">
<title>simp_ttr-&gt;BClar10_S</title>
<path fill="none" stroke="black" d="M2293.12,-664.68C2441.74,-663.18 2929.01,-655.05 3078.69,-612 3267.35,-557.75 3405.01,-338.58 3448.29,-261.76"/>
<polygon fill="black" stroke="black" points="3451.24,-263.66 3453.03,-253.22 3445.12,-260.27 3451.24,-263.66"/>
</g>
<!-- simp_ttr_no_lem -->
<g id="node22" class="node">
<title>simp_ttr_no_lem</title>
<ellipse fill="none" stroke="black" cx="3091.69" cy="-522" rx="77.02" ry="18"/>
<text text-anchor="middle" x="3091.69" y="-517.8" font-family="Times,serif" font-size="14.00">simp_ttr_no_lem</text>
</g>
<!-- simp_ttr&#45;&gt;simp_ttr_no_lem -->
<g id="edge133" class="edge">
<title>simp_ttr-&gt;simp_ttr_no_lem</title>
<path fill="none" stroke="black" d="M2292.94,-664.64C2427.08,-663.07 2834.57,-654.82 2958.69,-612 2999.4,-597.96 3039.56,-568.3 3064.92,-547.08"/>
<polygon fill="black" stroke="black" points="3067.09,-549.83 3072.41,-540.68 3062.54,-544.51 3067.09,-549.83"/>
</g>
<!-- simp_space_var -->
<g id="node23" class="node">
<title>simp_space_var</title>
<ellipse fill="none" stroke="black" cx="771.69" cy="-522" rx="73.25" ry="18"/>
<text text-anchor="middle" x="771.69" y="-517.8" font-family="Times,serif" font-size="14.00">simp_space_var</text>
</g>
<!-- simp_ttr&#45;&gt;simp_space_var -->
<g id="edge134" class="edge">
<title>simp_ttr-&gt;simp_space_var</title>
<path fill="none" stroke="black" d="M2206.17,-665.37C2010.9,-666.69 1214.72,-668.45 972.69,-612 912.48,-597.95 847.97,-566.04 808.72,-544.5"/>
<polygon fill="black" stroke="black" points="810.59,-541.53 800.15,-539.73 807.19,-547.65 810.59,-541.53"/>
</g>
<!-- BTopc10_S -->
<g id="node25" class="node">
<title>BTopc10_S</title>
<ellipse fill="none" stroke="black" cx="2543.69" cy="-594" rx="57.18" ry="18"/>
<text text-anchor="middle" x="2543.69" y="-589.8" font-family="Times,serif" font-size="14.00">BTopc10_S</text>
</g>
<!-- simp_ttr&#45;&gt;BTopc10_S -->
<g id="edge136" class="edge">
<title>simp_ttr-&gt;BTopc10_S</title>
<path fill="none" stroke="black" d="M2286.63,-656.21C2337.34,-644.13 2428.94,-622.32 2487.99,-608.26"/>
<polygon fill="black" stroke="black" points="2488.6,-611.72 2497.51,-606 2486.97,-604.91 2488.6,-611.72"/>
</g>
<!-- simp_noun_var -->
<g id="node28" class="node">
<title>simp_noun_var</title>
<ellipse fill="none" stroke="black" cx="1409.69" cy="-594" rx="71.12" ry="18"/>
<text text-anchor="middle" x="1409.69" y="-589.8" font-family="Times,serif" font-size="14.00">simp_noun_var</text>
</g>
<!-- simp_ttr&#45;&gt;simp_noun_var -->
<g id="edge140" class="edge">
<title>simp_ttr-&gt;simp_noun_var</title>
<path fill="none" stroke="black" d="M2206.51,-663.89C2090.73,-660.51 1763.94,-648.22 1494.69,-612 1487.75,-611.07 1480.51,-609.91 1473.32,-608.64"/>
<polygon fill="black" stroke="black" points="1474.07,-605.22 1463.6,-606.85 1472.8,-612.1 1474.07,-605.22"/>
</g>
<!-- a_n_ent_ordinal_pw -->
<g id="node21" class="node">
<title>a_n_ent_ordinal_pw</title>
<ellipse fill="none" stroke="black" cx="3078.69" cy="-450" rx="90.42" ry="18"/>
<text text-anchor="middle" x="3078.69" y="-445.8" font-family="Times,serif" font-size="14.00">a_n_ent_ordinal_pw</text>
</g>
<!-- a_n_ent_ordinal_pw&#45;&gt;t_uword -->
<g id="edge38" class="edge">
<title>a_n_ent_ordinal_pw-&gt;t_uword</title>
<path fill="none" stroke="black" d="M3054.21,-432.26C3024.49,-412.59 2972.3,-380.09 2923.69,-360 2809.71,-312.9 2777.22,-309.08 2655.69,-288 2435.97,-249.89 2169.79,-239.07 2057.19,-236.09"/>
<polygon fill="black" stroke="black" points="2057.42,-232.59 2047.33,-235.84 2057.24,-239.59 2057.42,-232.59"/>
</g>
<!-- a_n_ent_ordinal_pw&#45;&gt;n_upunct -->
<g id="edge36" class="edge">
<title>a_n_ent_ordinal_pw-&gt;n_upunct</title>
<path fill="none" stroke="black" d="M3011.06,-437.77C2922.65,-423.06 2777.56,-398.79 2765.69,-396 2762.39,-395.22 2758.99,-394.36 2755.58,-393.44"/>
<polygon fill="black" stroke="black" points="2756.79,-390.15 2746.22,-390.8 2754.89,-396.88 2756.79,-390.15"/>
</g>
<!-- a_n_ent_ordinal_pw&#45;&gt;a_n_ent_pw -->
<g id="edge37" class="edge">
<title>a_n_ent_ordinal_pw-&gt;a_n_ent_pw</title>
<path fill="none" stroke="black" d="M2998.53,-441.38C2852.27,-427.47 2544.76,-398.22 2409.24,-385.33"/>
<polygon fill="black" stroke="black" points="2409.63,-381.85 2399.34,-384.39 2408.97,-388.82 2409.63,-381.85"/>
</g>
<!-- simp_ttr_no_lem&#45;&gt;t_uword -->
<g id="edge42" class="edge">
<title>simp_ttr_no_lem-&gt;t_uword</title>
<path fill="none" stroke="black" d="M3141.87,-508.03C3162.26,-500.03 3183.78,-487.44 3195.69,-468 3204.05,-454.36 3201.77,-446.8 3195.69,-432 3142.89,-303.26 3054.17,-315.14 2917.69,-288 2751.49,-254.95 2228.44,-240.21 2057.41,-236.19"/>
<polygon fill="black" stroke="black" points="2057.54,-232.69 2047.46,-235.96 2057.38,-239.69 2057.54,-232.69"/>
</g>
<!-- simp_space_var&#45;&gt;simp_det_var -->
<g id="edge43" class="edge">
<title>simp_space_var-&gt;simp_det_var</title>
<path fill="none" stroke="black" d="M774.08,-503.61C779.31,-471.57 794.49,-402.62 832.69,-360 846.67,-344.41 866.3,-332.77 884.74,-324.44"/>
<polygon fill="black" stroke="black" points="885.9,-327.75 893.73,-320.62 883.16,-321.31 885.9,-327.75"/>
</g>
<!-- BClar20_S -->
<g id="node24" class="node">
<title>BClar20_S</title>
<ellipse fill="none" stroke="black" cx="1310.69" cy="-738" rx="53.96" ry="18"/>
<text text-anchor="middle" x="1310.69" y="-733.8" font-family="Times,serif" font-size="14.00">BClar20_S</text>
</g>
<!-- BClar20_S&#45;&gt;n_adp -->
<g id="edge46" class="edge">
<title>BClar20_S-&gt;n_adp</title>
<path fill="none" stroke="black" d="M1256.42,-736.98C1100.84,-736.36 661.73,-730.46 618.69,-684 563.13,-624.02 588.75,-549.49 656.69,-504 698.77,-475.83 1041.86,-458.39 1167.67,-452.89"/>
<polygon fill="black" stroke="black" points="1167.8,-456.38 1177.64,-452.46 1167.5,-449.39 1167.8,-456.38"/>
</g>
<!-- BClar20_S&#45;&gt;simp_det_var -->
<g id="edge44" class="edge">
<title>BClar20_S-&gt;simp_det_var</title>
<path fill="none" stroke="black" d="M1256.63,-736.44C1094.86,-734.34 616.51,-724.73 466.69,-684 382.11,-661 290.69,-682.65 290.69,-595 290.69,-595 290.69,-595 290.69,-521 290.69,-400.53 700.67,-336.19 867.41,-315"/>
<polygon fill="black" stroke="black" points="867.52,-318.52 877.01,-313.8 866.65,-311.57 867.52,-318.52"/>
</g>
<!-- BClar20_S&#45;&gt;t_bry -->
<g id="edge48" class="edge">
<title>BClar20_S-&gt;t_bry</title>
<path fill="none" stroke="black" d="M1256.96,-735.5C1090.61,-730.56 591.27,-713.42 524.69,-684 482.43,-665.32 468.98,-653.99 449.69,-612 429.64,-568.35 419,-543.93 445.69,-504 468.95,-469.21 494.32,-484.68 532.69,-468 568.08,-452.62 574.64,-442.75 611.69,-432 732.31,-397.01 881.12,-384.87 952.94,-380.86"/>
<polygon fill="black" stroke="black" points="952.88,-384.37 962.68,-380.34 952.51,-377.38 952.88,-384.37"/>
</g>
<!-- BClar20_S&#45;&gt;t_stopword -->
<g id="edge52" class="edge">
<title>BClar20_S-&gt;t_stopword</title>
<path fill="none" stroke="black" d="M1257.17,-734.98C1077.95,-726.5 519.57,-685.25 689.69,-504 776.25,-411.78 1150.3,-534.8 1257.69,-468 1304.69,-438.77 1274.69,-392.22 1319.69,-360 1352.33,-336.64 1458.19,-321.16 1527.54,-313.25"/>
<polygon fill="black" stroke="black" points="1527.71,-316.76 1537.26,-312.17 1526.93,-309.8 1527.71,-316.76"/>
</g>
<!-- BClar20_S&#45;&gt;t_uword -->
<g id="edge56" class="edge">
<title>BClar20_S-&gt;t_uword</title>
<path fill="none" stroke="black" d="M1256.65,-735.85C1053.65,-731.3 346.28,-713.39 308.69,-684 244.68,-633.95 256.73,-582.76 276.69,-504 285.64,-468.72 288.27,-455.92 315.69,-432 418.41,-342.43 479.98,-383.3 602.69,-324 630.69,-310.47 632.89,-296.89 662.69,-288 787.07,-250.89 1711.44,-238.22 1947.79,-235.57"/>
<polygon fill="black" stroke="black" points="1947.69,-239.07 1957.65,-235.46 1947.61,-232.07 1947.69,-239.07"/>
</g>
<!-- BClar20_S&#45;&gt;n_upunct -->
<g id="edge47" class="edge">
<title>BClar20_S-&gt;n_upunct</title>
<path fill="none" stroke="black" d="M1364.8,-736.84C1533.93,-735.87 2067.61,-729.18 2506.69,-684 2512.91,-683.36 2946.55,-616.67 2950.69,-612 3006.48,-549.13 2963.36,-477.5 2892.69,-432 2843.37,-400.24 2821.99,-412.52 2765.69,-396 2762.63,-395.1 2759.48,-394.17 2756.3,-393.22"/>
<polygon fill="black" stroke="black" points="2757.55,-389.94 2746.96,-390.42 2755.54,-396.64 2757.55,-389.94"/>
</g>
<!-- BClar20_S&#45;&gt;t_syll3 -->
<g id="edge49" class="edge">
<title>BClar20_S-&gt;t_syll3</title>
<path fill="none" stroke="black" d="M1363.38,-733.56C1465.64,-725.13 1696.01,-697.44 1867.69,-612 1912.02,-589.94 1923.11,-579.7 1952.69,-540 1966.47,-521.52 1976.65,-497.41 1983.15,-478.95"/>
<polygon fill="black" stroke="black" points="1986.38,-480.31 1986.24,-469.72 1979.75,-478.09 1986.38,-480.31"/>
</g>
<!-- BClar20_S&#45;&gt;WTopc15_S -->
<g id="edge50" class="edge">
<title>BClar20_S-&gt;WTopc15_S</title>
<path fill="none" stroke="black" d="M1364.86,-736.19C1564.58,-732.92 2253.03,-719.2 2344.69,-684 2415.78,-656.7 2415.02,-619.25 2477.69,-576 2503.92,-557.9 2523.8,-567.61 2539.69,-540 2547.68,-526.13 2544.95,-519.11 2539.69,-504 2512.87,-426.9 2488.74,-411.85 2425.69,-360 2408.74,-346.05 2387.51,-334.36 2368.74,-325.54"/>
<polygon fill="black" stroke="black" points="2370.24,-322.38 2359.69,-321.44 2367.35,-328.76 2370.24,-322.38"/>
</g>
<!-- BClar20_S&#45;&gt;corr_det_var -->
<g id="edge51" class="edge">
<title>BClar20_S-&gt;corr_det_var</title>
<path fill="none" stroke="black" d="M1364.57,-735.99C1558.44,-732.12 2213.79,-716.7 2301.69,-684 2370.85,-658.28 2427.12,-587.71 2453.85,-549.09"/>
<polygon fill="black" stroke="black" points="2456.45,-551.5 2459.16,-541.26 2450.65,-547.58 2456.45,-551.5"/>
</g>
<!-- BClar20_S&#45;&gt;root_det_var -->
<g id="edge55" class="edge">
<title>BClar20_S-&gt;root_det_var</title>
<path fill="none" stroke="black" d="M1257.05,-735.4C1100.35,-730.39 650.68,-713.57 591.69,-684 504.63,-640.35 406.67,-580.7 466.69,-504 476.22,-491.82 558.98,-473.9 618.73,-462.34"/>
<polygon fill="black" stroke="black" points="619.32,-465.79 628.48,-460.47 618,-458.92 619.32,-465.79"/>
</g>
<!-- BClar20_S&#45;&gt;n_uverb -->
<g id="edge57" class="edge">
<title>BClar20_S-&gt;n_uverb</title>
<path fill="none" stroke="black" d="M1308.53,-719.67C1305.53,-688.61 1303.12,-622.4 1329.69,-576 1337.54,-562.3 1350.5,-551.01 1363.15,-542.42"/>
<polygon fill="black" stroke="black" points="1364.82,-545.5 1371.39,-537.19 1361.07,-539.59 1364.82,-545.5"/>
</g>
<!-- BClar20_S&#45;&gt;bilog_ttr -->
<g id="edge59" class="edge">
<title>BClar20_S-&gt;bilog_ttr</title>
<path fill="none" stroke="black" d="M1364.61,-736.03C1520.36,-732.79 1963.27,-720.46 2016.69,-684 2087.4,-635.75 2114.91,-530.08 2124.35,-479.32"/>
<polygon fill="black" stroke="black" points="2127.76,-480.17 2126.03,-469.72 2120.86,-478.97 2127.76,-480.17"/>
</g>
<!-- BClar20_S&#45;&gt;BClar10_S -->
<g id="edge45" class="edge">
<title>BClar20_S-&gt;BClar10_S</title>
<path fill="none" stroke="black" d="M1364.74,-736.84C1545.16,-735.86 2143.03,-729.19 2634.69,-684 2857.83,-663.49 2912.88,-650.08 3133.69,-612 3331.6,-577.87 3576.69,-723.82 3576.69,-523 3576.69,-523 3576.69,-523 3576.69,-377 3576.69,-325.27 3530.13,-281.66 3496.52,-256.92"/>
<polygon fill="black" stroke="black" points="3498.84,-254.28 3488.66,-251.33 3494.78,-259.98 3498.84,-254.28"/>
</g>
<!-- BClar20_S&#45;&gt;simp_ttr -->
<g id="edge58" class="edge">
<title>BClar20_S-&gt;simp_ttr</title>
<path fill="none" stroke="black" d="M1363.85,-734.14C1490.29,-727.16 1818.88,-708.09 2092.69,-684 2127.57,-680.93 2166.71,-676.69 2197.19,-673.22"/>
<polygon fill="black" stroke="black" points="2197.38,-676.72 2206.92,-672.1 2196.58,-669.77 2197.38,-676.72"/>
</g>
<!-- BClar20_S&#45;&gt;simp_space_var -->
<g id="edge53" class="edge">
<title>BClar20_S-&gt;simp_space_var</title>
<path fill="none" stroke="black" d="M1264.78,-728.26C1186.42,-712.23 1023.09,-673.99 896.69,-612 860.64,-594.32 823.7,-566.6 799.43,-546.8"/>
<polygon fill="black" stroke="black" points="801.87,-544.28 791.94,-540.6 797.41,-549.67 801.87,-544.28"/>
</g>
<!-- BClar20_S&#45;&gt;BTopc10_S -->
<g id="edge54" class="edge">
<title>BClar20_S-&gt;BTopc10_S</title>
<path fill="none" stroke="black" d="M1365.07,-737.14C1581.32,-737.35 2373.41,-734.62 2472.69,-684 2498.76,-670.71 2518.41,-643.04 2530.36,-622.06"/>
<polygon fill="black" stroke="black" points="2533.35,-623.89 2535.03,-613.43 2527.19,-620.56 2533.35,-623.89"/>
</g>
<!-- BClar20_S&#45;&gt;sta_Bleu -->
<g id="edge60" class="edge">
<title>BClar20_S-&gt;sta_Bleu</title>
<path fill="none" stroke="black" d="M1256.44,-737.43C1050.56,-738.63 324.88,-738.91 238.69,-684 143.97,-623.65 150.27,-520.29 219.69,-432 271.86,-365.65 368.12,-332.36 427.17,-317.44"/>
<polygon fill="black" stroke="black" points="427.74,-320.9 436.63,-315.13 426.08,-314.1 427.74,-320.9"/>
</g>
<!-- sta_Bleu&#45;&gt;syntaxError_rate -->
<g id="edge170" class="edge">
<title>sta_Bleu-&gt;syntaxError_rate</title>
<path fill="none" stroke="black" d="M432.63,-304.54C351.99,-302.65 188.1,-293.65 152.69,-252 79.77,-166.22 254.94,-76.74 344.26,-38.35"/>
<polygon fill="black" stroke="black" points="345.47,-41.64 353.31,-34.52 342.74,-35.2 345.47,-41.64"/>
</g>
<!-- sta_Bleu&#45;&gt;error_rate -->
<g id="edge174" class="edge">
<title>sta_Bleu-&gt;error_rate</title>
<path fill="none" stroke="black" d="M475.49,-287.59C472.45,-263.61 466.94,-220.14 463.3,-191.42"/>
<polygon fill="black" stroke="black" points="466.78,-191.09 462.05,-181.61 459.84,-191.97 466.78,-191.09"/>
</g>
<!-- sta_Bleu&#45;&gt;pass_rate -->
<g id="edge173" class="edge">
<title>sta_Bleu-&gt;pass_rate</title>
<path fill="none" stroke="black" d="M457.51,-289.81C444.81,-280.25 428.19,-267.74 414.03,-257.08"/>
<polygon fill="black" stroke="black" points="416.46,-254.53 406.37,-251.31 412.25,-260.12 416.46,-254.53"/>
</g>
<!-- black -->
<g id="node41" class="node">
<title>black</title>
<ellipse fill="none" stroke="black" cx="557.69" cy="-234" rx="31.95" ry="18"/>
<text text-anchor="middle" x="557.69" y="-229.8" font-family="Times,serif" font-size="14.00">black</text>
</g>
<!-- sta_Bleu&#45;&gt;black -->
<g id="edge169" class="edge">
<title>sta_Bleu-&gt;black</title>
<path fill="none" stroke="black" d="M495.85,-289.12C506.65,-279.67 520.51,-267.53 532.38,-257.15"/>
<polygon fill="black" stroke="black" points="534.62,-259.84 539.84,-250.62 530.01,-254.58 534.62,-259.84"/>
</g>
<!-- sta_Bleu&#45;&gt;sim_codeBleu -->
<g id="edge171" class="edge">
<title>sta_Bleu-&gt;sim_codeBleu</title>
<path fill="none" stroke="black" d="M512.35,-294.21C541.6,-284.6 584.26,-269.39 619.69,-252 728.63,-198.52 792.7,-214.05 851.69,-108 859.47,-94.02 860.39,-85.43 851.69,-72 839.38,-52.97 818.44,-40.71 797.59,-32.84"/>
<polygon fill="black" stroke="black" points="798.76,-29.54 788.17,-29.6 796.49,-36.16 798.76,-29.54"/>
</g>
<!-- sim_Bleu -->
<g id="node43" class="node">
<title>sim_Bleu</title>
<ellipse fill="none" stroke="black" cx="612.69" cy="-162" rx="48.06" ry="18"/>
<text text-anchor="middle" x="612.69" y="-157.8" font-family="Times,serif" font-size="14.00">sim_Bleu</text>
</g>
<!-- sta_Bleu&#45;&gt;sim_Bleu -->
<g id="edge172" class="edge">
<title>sta_Bleu-&gt;sim_Bleu</title>
<path fill="none" stroke="black" d="M512.15,-294.06C543.86,-283.28 587.59,-266.39 598.69,-252 611.84,-234.95 614.9,-210.51 614.92,-191.55"/>
<polygon fill="black" stroke="black" points="618.42,-191.7 614.62,-181.8 611.42,-191.9 618.42,-191.7"/>
</g>
<!-- a_n_ent_ordinal_ps -->
<g id="node27" class="node">
<title>a_n_ent_ordinal_ps</title>
<ellipse fill="none" stroke="black" cx="2894.69" cy="-738" rx="87.2" ry="18"/>
<text text-anchor="middle" x="2894.69" y="-733.8" font-family="Times,serif" font-size="14.00">a_n_ent_ordinal_ps</text>
</g>
<!-- a_n_ent_ordinal_ps&#45;&gt;t_uword -->
<g id="edge67" class="edge">
<title>a_n_ent_ordinal_ps-&gt;t_uword</title>
<path fill="none" stroke="black" d="M2979.28,-733.29C3040,-727.93 3122.46,-715 3188.69,-684 3233.84,-662.87 3253.6,-657.17 3274.69,-612 3323.88,-506.68 3276.57,-451.36 3204.69,-360 3167.41,-312.61 3147.23,-306.05 3089.69,-288 2990.88,-257 2264.05,-240.22 2057.37,-236.05"/>
<polygon fill="black" stroke="black" points="2057.52,-232.55 2047.45,-235.85 2057.37,-239.55 2057.52,-232.55"/>
</g>
<!-- a_n_ent_ordinal_ps&#45;&gt;n_upunct -->
<g id="edge61" class="edge">
<title>a_n_ent_ordinal_ps-&gt;n_upunct</title>
<path fill="none" stroke="black" d="M2971.37,-729.11C3021.53,-721.91 3087.55,-708.5 3141.69,-684 3230.2,-643.95 3300.91,-594.54 3265.69,-504 3249.96,-463.54 3238.67,-451.11 3199.69,-432 3112.8,-389.4 2860.75,-414.16 2765.69,-396 2762.15,-395.32 2758.51,-394.51 2754.88,-393.6"/>
<polygon fill="black" stroke="black" points="2756.09,-390.31 2745.52,-391.08 2754.26,-397.06 2756.09,-390.31"/>
</g>
<!-- a_n_ent_ordinal_ps&#45;&gt;t_syll3 -->
<g id="edge62" class="edge">
<title>a_n_ent_ordinal_ps-&gt;t_syll3</title>
<path fill="none" stroke="black" d="M2879.44,-720.01C2837.24,-674.42 2713.22,-549.76 2579.69,-504 2349.64,-425.16 2270.75,-522.31 2033.69,-468 2032.07,-467.63 2030.42,-467.2 2028.76,-466.73"/>
<polygon fill="black" stroke="black" points="2029.97,-463.44 2019.38,-463.59 2027.75,-470.08 2029.97,-463.44"/>
</g>
<!-- a_n_ent_ordinal_ps&#45;&gt;corr_det_var -->
<g id="edge63" class="edge">
<title>a_n_ent_ordinal_ps-&gt;corr_det_var</title>
<path fill="none" stroke="black" d="M2868.68,-720.54C2819.38,-689.76 2708.45,-622.4 2609.69,-576 2580.73,-562.39 2547.23,-549.54 2520.38,-539.9"/>
<polygon fill="black" stroke="black" points="2521.71,-536.65 2511.12,-536.61 2519.37,-543.25 2521.71,-536.65"/>
</g>
<!-- a_n_ent_ordinal_ps&#45;&gt;root_det_var -->
<g id="edge66" class="edge">
<title>a_n_ent_ordinal_ps-&gt;root_det_var</title>
<path fill="none" stroke="black" d="M2829.71,-725.6C2814.65,-723.36 2798.65,-721.31 2783.69,-720 2068.46,-657.52 1884.1,-744.51 1168.69,-684 950.24,-665.52 885.8,-689.43 680.69,-612 616.3,-587.69 532.98,-562.22 569.69,-504 581.47,-485.32 601.85,-473.08 621.96,-465.13"/>
<polygon fill="black" stroke="black" points="623.08,-468.45 631.29,-461.76 620.7,-461.87 623.08,-468.45"/>
</g>
<!-- a_n_ent_ordinal_ps&#45;&gt;a_n_ent_pw -->
<g id="edge65" class="edge">
<title>a_n_ent_ordinal_ps-&gt;a_n_ent_pw</title>
<path fill="none" stroke="black" d="M2886.2,-719.87C2876.44,-701.12 2859.25,-670.71 2839.69,-648 2831.62,-638.62 2764.66,-583.34 2754.69,-576 2706.75,-540.67 2697.15,-525.71 2641.69,-504 2558,-471.24 2523.5,-507.35 2442.69,-468 2411.39,-452.76 2382.47,-424.87 2363.87,-404.36"/>
<polygon fill="black" stroke="black" points="2366.56,-402.12 2357.32,-396.94 2361.32,-406.75 2366.56,-402.12"/>
</g>
<!-- a_n_ent_ordinal_ps&#45;&gt;simp_ttr -->
<g id="edge69" class="edge">
<title>a_n_ent_ordinal_ps-&gt;simp_ttr</title>
<path fill="none" stroke="black" d="M2827.57,-726.13C2813.11,-723.96 2797.91,-721.79 2783.69,-720 2608.45,-697.9 2399.89,-679.46 2303.48,-671.39"/>
<polygon fill="black" stroke="black" points="2303.77,-667.9 2293.52,-670.56 2303.19,-674.88 2303.77,-667.9"/>
</g>
<!-- a_n_ent_ordinal_ps&#45;&gt;a_n_ent_ordinal_pw -->
<g id="edge64" class="edge">
<title>a_n_ent_ordinal_ps-&gt;a_n_ent_ordinal_pw</title>
<path fill="none" stroke="black" d="M2958.93,-725.41C3028.23,-710.03 3138.33,-676.89 3210.69,-612 3237.63,-587.85 3239.99,-575.12 3248.69,-540 3252.54,-524.47 3258.18,-516.89 3248.69,-504 3231.07,-480.04 3202.68,-466.61 3174.11,-459.17"/>
<polygon fill="black" stroke="black" points="3175.18,-455.82 3164.64,-456.95 3173.58,-462.64 3175.18,-455.82"/>
</g>
<!-- a_n_ent_ordinal_ps&#45;&gt;simp_noun_var -->
<g id="edge68" class="edge">
<title>a_n_ent_ordinal_ps-&gt;simp_noun_var</title>
<path fill="none" stroke="black" d="M2828.79,-725.9C2813.99,-723.69 2798.33,-721.57 2783.69,-720 2524.24,-692.22 2457.77,-705.13 2197.69,-684 1880.68,-658.24 1799.67,-662.8 1485.69,-612 1480.83,-611.21 1475.82,-610.31 1470.79,-609.33"/>
<polygon fill="black" stroke="black" points="1471.79,-605.96 1461.3,-607.4 1470.4,-612.82 1471.79,-605.96"/>
</g>
<!-- simp_noun_var&#45;&gt;simp_det_var -->
<g id="edge107" class="edge">
<title>simp_noun_var-&gt;simp_det_var</title>
<path fill="none" stroke="black" d="M1340.29,-589.7C1279.35,-584.67 1189.46,-571.98 1117.69,-540 1029.7,-500.79 1000.8,-481.12 955.69,-396 945.79,-377.31 941.05,-353.82 938.78,-335.67"/>
<polygon fill="black" stroke="black" points="942.27,-335.44 937.75,-325.86 935.31,-336.17 942.27,-335.44"/>
</g>
<!-- simp_noun_var&#45;&gt;t_bry -->
<g id="edge109" class="edge">
<title>simp_noun_var-&gt;t_bry</title>
<path fill="none" stroke="black" d="M1354.08,-582.49C1311.35,-573.56 1251.29,-559.14 1200.69,-540 1167.97,-527.62 1087.28,-490.74 1060.69,-468 1039.86,-450.19 1021.99,-424.44 1010.29,-405.22"/>
<polygon fill="black" stroke="black" points="1013.46,-403.71 1005.37,-396.87 1007.43,-407.26 1013.46,-403.71"/>
</g>
<!-- simp_noun_var&#45;&gt;simp_adp_var -->
<g id="edge111" class="edge">
<title>simp_noun_var-&gt;simp_adp_var</title>
<path fill="none" stroke="black" d="M1381.81,-577.09C1368.87,-568.04 1354.81,-555.43 1347.69,-540 1341,-525.47 1343.8,-519.52 1347.69,-504 1356.92,-467.27 1379.24,-429.55 1395.6,-405.29"/>
<polygon fill="black" stroke="black" points="1398.3,-407.53 1401.11,-397.32 1392.54,-403.56 1398.3,-407.53"/>
</g>
<!-- simp_noun_var&#45;&gt;t_stopword -->
<g id="edge112" class="edge">
<title>simp_noun_var-&gt;t_stopword</title>
<path fill="none" stroke="black" d="M1423.59,-576.03C1431.91,-565.73 1442.6,-552.26 1451.69,-540 1498.14,-477.43 1513.66,-464 1551.69,-396 1562.76,-376.22 1572.95,-352.69 1580.14,-334.79"/>
<polygon fill="black" stroke="black" points="1583.35,-336.2 1583.75,-325.61 1576.83,-333.63 1583.35,-336.2"/>
</g>
<!-- simp_noun_var&#45;&gt;t_uword -->
<g id="edge116" class="edge">
<title>simp_noun_var-&gt;t_uword</title>
<path fill="none" stroke="black" d="M1436.33,-576.92C1532.61,-518.8 1862.54,-319.61 1969.17,-255.24"/>
<polygon fill="black" stroke="black" points="1970.73,-258.39 1977.48,-250.22 1967.11,-252.39 1970.73,-258.39"/>
</g>
<!-- simp_noun_var&#45;&gt;n_upunct -->
<g id="edge108" class="edge">
<title>simp_noun_var-&gt;n_upunct</title>
<path fill="none" stroke="black" d="M1469.8,-583.96C1537.96,-573.64 1652.4,-556.1 1750.69,-540 1843.71,-524.76 1866.73,-519.54 1959.69,-504 2058.28,-487.52 2093.73,-515.46 2181.69,-468 2200.8,-457.69 2195.32,-441.79 2214.69,-432 2253.04,-412.63 2530.44,-391.38 2652.41,-382.85"/>
<polygon fill="black" stroke="black" points="2652.47,-386.35 2662.2,-382.17 2651.99,-379.37 2652.47,-386.35"/>
</g>
<!-- simp_noun_var&#45;&gt;t_syll3 -->
<g id="edge110" class="edge">
<title>simp_noun_var-&gt;t_syll3</title>
<path fill="none" stroke="black" d="M1467.13,-582.97C1521.01,-573.22 1603.71,-557.37 1674.69,-540 1730.44,-526.36 1743.47,-519.6 1798.69,-504 1850.13,-489.47 1909.43,-473.27 1948.58,-462.65"/>
<polygon fill="black" stroke="black" points="1949.36,-466.06 1958.09,-460.07 1947.53,-459.31 1949.36,-466.06"/>
</g>
<!-- simp_noun_var&#45;&gt;root_det_var -->
<g id="edge115" class="edge">
<title>simp_noun_var-&gt;root_det_var</title>
<path fill="none" stroke="black" d="M1338.82,-591.84C1244.87,-588.77 1074.65,-577.93 934.69,-540 896.67,-529.69 890.6,-517.8 853.69,-504 814.53,-489.36 769.33,-475.62 734.95,-465.8"/>
<polygon fill="black" stroke="black" points="736.22,-462.52 725.65,-463.16 734.32,-469.25 736.22,-462.52"/>
</g>
<!-- simp_noun_var&#45;&gt;n_uverb -->
<g id="edge117" class="edge">
<title>simp_noun_var-&gt;n_uverb</title>
<path fill="none" stroke="black" d="M1407.22,-575.7C1406.17,-568.32 1404.91,-559.52 1403.73,-551.25"/>
<polygon fill="black" stroke="black" points="1407.23,-551.01 1402.35,-541.6 1400.3,-552 1407.23,-551.01"/>
</g>
<!-- simp_noun_var&#45;&gt;a_n_ent_pw -->
<g id="edge114" class="edge">
<title>simp_noun_var-&gt;a_n_ent_pw</title>
<path fill="none" stroke="black" d="M1475.55,-586.9C1522.69,-580.38 1586.45,-567.05 1636.69,-540 1657.18,-528.97 1654.38,-515.34 1674.69,-504 1783.52,-443.27 1823.46,-456.29 1945.69,-432 2007.71,-419.67 2181.96,-398.11 2277.69,-386.66"/>
<polygon fill="black" stroke="black" points="2277.94,-390.15 2287.46,-385.49 2277.11,-383.2 2277.94,-390.15"/>
</g>
<!-- simp_noun_var&#45;&gt;simp_space_var -->
<g id="edge113" class="edge">
<title>simp_noun_var-&gt;simp_space_var</title>
<path fill="none" stroke="black" d="M1344.03,-586.9C1246.38,-577.67 1057.16,-559.2 896.69,-540 879.93,-537.99 861.92,-535.65 844.94,-533.36"/>
<polygon fill="black" stroke="black" points="845.83,-529.95 835.45,-532.07 844.89,-536.89 845.83,-529.95"/>
</g>
<!-- a_num_pw -->
<g id="node29" class="node">
<title>a_num_pw</title>
<ellipse fill="none" stroke="black" cx="2862.69" cy="-594" rx="53.95" ry="18"/>
<text text-anchor="middle" x="2862.69" y="-589.8" font-family="Times,serif" font-size="14.00">a_num_pw</text>
</g>
<!-- a_num_pw&#45;&gt;n_upunct -->
<g id="edge72" class="edge">
<title>a_num_pw-&gt;n_upunct</title>
<path fill="none" stroke="black" d="M2875.82,-576.25C2888.53,-557.84 2904.18,-527.73 2891.69,-504 2862.83,-449.16 2797.84,-413.73 2753.86,-395.07"/>
<polygon fill="black" stroke="black" points="2755.42,-391.93 2744.84,-391.37 2752.76,-398.4 2755.42,-391.93"/>
</g>
<!-- a_num_pw&#45;&gt;a_n_ent_pw -->
<g id="edge73" class="edge">
<title>a_num_pw-&gt;a_n_ent_pw</title>
<path fill="none" stroke="black" d="M2833.59,-578.58C2814.34,-568.61 2788.85,-554.57 2767.69,-540 2747.16,-525.87 2747.22,-514.66 2724.69,-504 2647.01,-467.23 2616.53,-494.27 2534.69,-468 2478.9,-450.09 2418.09,-419.94 2380.18,-399.77"/>
<polygon fill="black" stroke="black" points="2381.92,-396.73 2371.46,-395.08 2378.61,-402.89 2381.92,-396.73"/>
</g>
<!-- a_char_pw -->
<g id="node30" class="node">
<title>a_char_pw</title>
<ellipse fill="none" stroke="black" cx="2829.69" cy="-522" rx="53.4" ry="18"/>
<text text-anchor="middle" x="2829.69" y="-517.8" font-family="Times,serif" font-size="14.00">a_char_pw</text>
</g>
<!-- a_num_pw&#45;&gt;a_char_pw -->
<g id="edge74" class="edge">
<title>a_num_pw-&gt;a_char_pw</title>
<path fill="none" stroke="black" d="M2854.71,-576.05C2851.11,-568.43 2846.78,-559.23 2842.73,-550.65"/>
<polygon fill="black" stroke="black" points="2845.91,-549.2 2838.48,-541.64 2839.58,-552.18 2845.91,-549.2"/>
</g>
<!-- a_num_pw&#45;&gt;error_rate -->
<g id="edge75" class="edge">
<title>a_num_pw-&gt;error_rate</title>
<path fill="none" stroke="black" d="M2810.4,-588.89C2759.26,-585.02 2679.17,-579.32 2609.69,-576 2049.22,-549.19 1904.55,-608.99 1347.69,-540 1237.58,-526.36 462.99,-388.48 372.69,-324 330.51,-293.88 299.72,-258.98 328.69,-216 345.27,-191.42 375.39,-178.23 402.57,-171.16"/>
<polygon fill="black" stroke="black" points="403.19,-174.61 412.12,-168.92 401.59,-167.8 403.19,-174.61"/>
</g>
<!-- a_char_pw&#45;&gt;t_bry -->
<g id="edge119" class="edge">
<title>a_char_pw-&gt;t_bry</title>
<path fill="none" stroke="black" d="M2779.02,-515.82C2742.75,-512.21 2692.75,-507.45 2648.69,-504 2521.5,-494.03 2192.68,-518.92 2075.69,-468 2054.36,-458.71 2059.08,-441.16 2037.69,-432 2034.77,-430.75 1234.41,-390.87 1038.56,-381.13"/>
<polygon fill="black" stroke="black" points="1038.74,-377.64 1028.58,-380.63 1038.39,-384.63 1038.74,-377.64"/>
</g>
<!-- a_char_pw&#45;&gt;t_uword -->
<g id="edge123" class="edge">
<title>a_char_pw-&gt;t_uword</title>
<path fill="none" stroke="black" d="M2879.71,-515.11C2973.67,-503.82 3168.05,-479.23 3177.69,-468 3188.12,-455.86 3186.94,-445.06 3177.69,-432 3046.16,-246.1 2271.57,-234.25 2057.49,-234.57"/>
<polygon fill="black" stroke="black" points="2057.76,-231.07 2047.76,-234.6 2057.77,-238.07 2057.76,-231.07"/>
</g>
<!-- a_char_pw&#45;&gt;n_upunct -->
<g id="edge118" class="edge">
<title>a_char_pw-&gt;n_upunct</title>
<path fill="none" stroke="black" d="M2815.69,-504.43C2794.83,-479.74 2755.42,-433.11 2730.97,-404.18"/>
<polygon fill="black" stroke="black" points="2733.71,-402 2724.58,-396.62 2728.36,-406.51 2733.71,-402"/>
</g>
<!-- a_char_pw&#45;&gt;t_syll3 -->
<g id="edge120" class="edge">
<title>a_char_pw-&gt;t_syll3</title>
<path fill="none" stroke="black" d="M2779.02,-515.77C2742.75,-512.14 2692.75,-507.38 2648.69,-504 2379.68,-483.38 2307.62,-519.1 2042.69,-468 2038.87,-467.26 2034.93,-466.31 2031.02,-465.24"/>
<polygon fill="black" stroke="black" points="2032.24,-461.95 2021.65,-462.4 2030.21,-468.65 2032.24,-461.95"/>
</g>
<!-- a_char_pw&#45;&gt;a_n_ent_pw -->
<g id="edge122" class="edge">
<title>a_char_pw-&gt;a_n_ent_pw</title>
<path fill="none" stroke="black" d="M2791.59,-509.19C2735.47,-491.86 2627.2,-458.72 2534.69,-432 2488.13,-418.55 2435,-403.94 2396.45,-393.47"/>
<polygon fill="black" stroke="black" points="2397.51,-390.13 2386.94,-390.9 2395.68,-396.89 2397.51,-390.13"/>
</g>
<!-- a_char_pw&#45;&gt;a_n_ent_ordinal_pw -->
<g id="edge121" class="edge">
<title>a_char_pw-&gt;a_n_ent_ordinal_pw</title>
<path fill="none" stroke="black" d="M2869.7,-509.75C2909.45,-498.58 2970.96,-481.29 3016.98,-468.35"/>
<polygon fill="black" stroke="black" points="3017.89,-471.73 3026.56,-465.65 3015.99,-464.99 3017.89,-471.73"/>
</g>
<!-- error_rate&#45;&gt;syntaxError_rate -->
<g id="edge188" class="edge">
<title>error_rate-&gt;syntaxError_rate</title>
<path fill="none" stroke="black" d="M451.61,-143.87C440.19,-119.67 419.22,-75.21 405.62,-46.39"/>
<polygon fill="black" stroke="black" points="408.88,-45.11 401.45,-37.56 402.55,-48.1 408.88,-45.11"/>
</g>
<!-- BClar05_S -->
<g id="node32" class="node">
<title>BClar05_S</title>
<ellipse fill="none" stroke="black" cx="3519.69" cy="-738" rx="53.96" ry="18"/>
<text text-anchor="middle" x="3519.69" y="-733.8" font-family="Times,serif" font-size="14.00">BClar05_S</text>
</g>
<!-- BClar05_S&#45;&gt;t_uword -->
<g id="edge80" class="edge">
<title>BClar05_S-&gt;t_uword</title>
<path fill="none" stroke="black" d="M3539.84,-721C3567.73,-696.9 3614.69,-648.39 3614.69,-595 3614.69,-595 3614.69,-595 3614.69,-377 3614.69,-163.96 3355.29,-312.78 3143.69,-288 2728,-239.31 2222.18,-234.88 2057.4,-234.83"/>
<polygon fill="black" stroke="black" points="2057.65,-231.33 2047.65,-234.83 2057.65,-238.33 2057.65,-231.33"/>
</g>
<!-- BClar05_S&#45;&gt;n_upunct -->
<g id="edge77" class="edge">
<title>BClar05_S-&gt;n_upunct</title>
<path fill="none" stroke="black" d="M3510.42,-720.11C3479.86,-666.39 3376.31,-499.02 3237.69,-432 3142.99,-386.21 2869.08,-415.39 2765.69,-396 2762.15,-395.34 2758.51,-394.53 2754.87,-393.63"/>
<polygon fill="black" stroke="black" points="2756.08,-390.33 2745.51,-391.11 2754.26,-397.09 2756.08,-390.33"/>
</g>
<!-- BClar05_S&#45;&gt;WTopc15_S -->
<g id="edge78" class="edge">
<title>BClar05_S-&gt;WTopc15_S</title>
<path fill="none" stroke="black" d="M3516.02,-719.62C3511.73,-701.19 3503.64,-671.54 3491.69,-648 3422.45,-511.58 3363.82,-493.38 3223.69,-432 3098.1,-376.99 3059.02,-382.08 2923.69,-360 2733.3,-328.93 2505.79,-315.13 2393.11,-309.84"/>
<polygon fill="black" stroke="black" points="2393.58,-306.36 2383.43,-309.39 2393.26,-313.35 2393.58,-306.36"/>
</g>
<!-- BClar05_S&#45;&gt;BClar10_S -->
<g id="edge76" class="edge">
<title>BClar05_S-&gt;BClar10_S</title>
<path fill="none" stroke="black" d="M3561.05,-726.16C3584.07,-718.11 3611.47,-704.84 3628.69,-684 3654.8,-652.42 3652.69,-635.97 3652.69,-595 3652.69,-595 3652.69,-595 3652.69,-377 3652.69,-336.03 3656.99,-317.62 3628.69,-288 3624.51,-283.62 3560.59,-263.98 3513.31,-249.88"/>
<polygon fill="black" stroke="black" points="3514.34,-246.53 3503.75,-247.04 3512.34,-253.24 3514.34,-246.53"/>
</g>
<!-- BClar05_S&#45;&gt;simp_ttr -->
<g id="edge81" class="edge">
<title>BClar05_S-&gt;simp_ttr</title>
<path fill="none" stroke="black" d="M3466.74,-734.08C3260.45,-722.71 2511.73,-681.44 2303.66,-669.97"/>
<polygon fill="black" stroke="black" points="2304.14,-666.5 2293.96,-669.44 2303.75,-673.49 2304.14,-666.5"/>
</g>
<!-- BClar05_S&#45;&gt;BTopc10_S -->
<g id="edge79" class="edge">
<title>BClar05_S-&gt;BTopc10_S</title>
<path fill="none" stroke="black" d="M3470.96,-729.91C3308.73,-706.31 2786.99,-630.4 2606.12,-604.08"/>
<polygon fill="black" stroke="black" points="2606.86,-600.65 2596.46,-602.68 2605.86,-607.58 2606.86,-600.65"/>
</g>
<!-- a_n_ent_percent_ps -->
<g id="node33" class="node">
<title>a_n_ent_percent_ps</title>
<ellipse fill="none" stroke="black" cx="3768.69" cy="-306" rx="88.26" ry="18"/>
<text text-anchor="middle" x="3768.69" y="-301.8" font-family="Times,serif" font-size="14.00">a_n_ent_percent_ps</text>
</g>
<!-- a_n_ent_percent_ps&#45;&gt;BClar10_S -->
<g id="edge82" class="edge">
<title>a_n_ent_percent_ps-&gt;BClar10_S</title>
<path fill="none" stroke="black" d="M3709.42,-292.25C3661.21,-281.77 3591.46,-266.36 3530.69,-252 3525.83,-250.85 3520.78,-249.63 3515.73,-248.4"/>
<polygon fill="black" stroke="black" points="3516.75,-245.05 3506.2,-246.05 3515.07,-251.84 3516.75,-245.05"/>
</g>
<!-- a_n_ent_money_ps -->
<g id="node34" class="node">
<title>a_n_ent_money_ps</title>
<ellipse fill="none" stroke="black" cx="3768.69" cy="-234" rx="86.13" ry="18"/>
<text text-anchor="middle" x="3768.69" y="-229.8" font-family="Times,serif" font-size="14.00">a_n_ent_money_ps</text>
</g>
<!-- a_n_ent_percent_ps&#45;&gt;a_n_ent_money_ps -->
<g id="edge83" class="edge">
<title>a_n_ent_percent_ps-&gt;a_n_ent_money_ps</title>
<path fill="none" stroke="black" d="M3768.69,-287.7C3768.69,-280.41 3768.69,-271.73 3768.69,-263.54"/>
<polygon fill="black" stroke="black" points="3772.19,-263.62 3768.69,-253.62 3765.19,-263.62 3772.19,-263.62"/>
</g>
<!-- a_n_ent_percent_ps&#45;&gt;sta_codeBleu -->
<g id="edge84" class="edge">
<title>a_n_ent_percent_ps-&gt;sta_codeBleu</title>
<path fill="none" stroke="black" d="M3735.05,-288.92C3689,-267.8 3603.22,-231.58 3525.69,-216 2993.44,-109.06 1238.3,-93.47 854.34,-91.33"/>
<polygon fill="black" stroke="black" points="854.38,-87.83 844.36,-91.27 854.34,-94.83 854.38,-87.83"/>
</g>
<!-- sta_codeBleu&#45;&gt;syntaxError_rate -->
<g id="edge166" class="edge">
<title>sta_codeBleu-&gt;syntaxError_rate</title>
<path fill="none" stroke="black" d="M727.5,-79.56C659.07,-67.18 538.79,-45.43 462.56,-31.64"/>
<polygon fill="black" stroke="black" points="463.6,-28.27 453.13,-29.93 462.35,-35.16 463.6,-28.27"/>
</g>
<!-- sta_codeBleu&#45;&gt;sim_codeBleu -->
<g id="edge167" class="edge">
<title>sta_codeBleu-&gt;sim_codeBleu</title>
<path fill="none" stroke="black" d="M768.56,-72.05C763.3,-64.06 756.91,-54.33 751.04,-45.4"/>
<polygon fill="black" stroke="black" points="753.98,-43.49 745.56,-37.05 748.13,-47.33 753.98,-43.49"/>
</g>
<!-- a_adj_pw -->
<g id="node36" class="node">
<title>a_adj_pw</title>
<ellipse fill="none" stroke="black" cx="181.69" cy="-738" rx="48.58" ry="18"/>
<text text-anchor="middle" x="181.69" y="-733.8" font-family="Times,serif" font-size="14.00">a_adj_pw</text>
</g>
<!-- a_adj_pw&#45;&gt;n_adp -->
<g id="edge86" class="edge">
<title>a_adj_pw-&gt;n_adp</title>
<path fill="none" stroke="black" d="M196.07,-720.38C213.55,-700.98 244.71,-668.88 276.69,-648 413.09,-558.97 455.72,-543.66 613.69,-504 815.16,-453.42 1065.21,-449.42 1167.16,-450.17"/>
<polygon fill="black" stroke="black" points="1167.02,-453.67 1177.05,-450.27 1167.08,-446.67 1167.02,-453.67"/>
</g>
<!-- a_adj_pw&#45;&gt;t_bry -->
<g id="edge87" class="edge">
<title>a_adj_pw-&gt;t_bry</title>
<path fill="none" stroke="black" d="M187.73,-719.81C195.03,-700.74 208.75,-669.79 227.69,-648 336.7,-522.66 377.54,-491.31 532.69,-432 609.04,-402.82 853.26,-386.69 952.83,-381.18"/>
<polygon fill="black" stroke="black" points="952.92,-384.68 962.72,-380.65 952.54,-377.69 952.92,-384.68"/>
</g>
<!-- a_adj_pw&#45;&gt;t_uword -->
<g id="edge88" class="edge">
<title>a_adj_pw-&gt;t_uword</title>
<path fill="none" stroke="black" d="M164.91,-720.81C141.19,-696.08 100.69,-646.37 100.69,-595 100.69,-595 100.69,-595 100.69,-449 100.69,-235.43 373.98,-420.14 564.69,-324 585.47,-313.53 581.25,-297.02 602.69,-288 728.16,-235.23 1704.51,-234.22 1947.88,-234.8"/>
<polygon fill="black" stroke="black" points="1947.72,-238.3 1957.73,-234.83 1947.74,-231.3 1947.72,-238.3"/>
</g>
<!-- a_adj_pw&#45;&gt;bilog_ttr -->
<g id="edge90" class="edge">
<title>a_adj_pw-&gt;bilog_ttr</title>
<path fill="none" stroke="black" d="M230.39,-736.76C473.13,-735.03 1553.36,-721.23 1867.69,-612 1960.66,-579.7 2055.45,-510.1 2100.96,-473.91"/>
<polygon fill="black" stroke="black" points="2103.13,-476.66 2108.73,-467.67 2098.74,-471.2 2103.13,-476.66"/>
</g>
<!-- a_adj_pw&#45;&gt;simp_ttr -->
<g id="edge89" class="edge">
<title>a_adj_pw-&gt;simp_ttr</title>
<path fill="none" stroke="black" d="M230.28,-736.38C442.26,-733.52 1307.29,-720.11 2016.69,-684 2078.44,-680.86 2149.26,-675.43 2196.46,-671.55"/>
<polygon fill="black" stroke="black" points="2196.45,-675.07 2206.13,-670.75 2195.87,-668.09 2196.45,-675.07"/>
</g>
<!-- corr_punct_var -->
<g id="node37" class="node">
<title>corr_punct_var</title>
<ellipse fill="none" stroke="black" cx="2704.69" cy="-738" rx="70.02" ry="18"/>
<text text-anchor="middle" x="2704.69" y="-733.8" font-family="Times,serif" font-size="14.00">corr_punct_var</text>
</g>
<!-- corr_punct_var&#45;&gt;n_upunct -->
<g id="edge100" class="edge">
<title>corr_punct_var-&gt;n_upunct</title>
<path fill="none" stroke="black" d="M2757.58,-725.8C2858.18,-703.82 3072.7,-653.57 3135.69,-612 3170.23,-589.21 3180.77,-578.96 3194.69,-540 3200.08,-524.93 3196.55,-519.89 3194.69,-504 3190.89,-471.34 3202.56,-453.51 3177.69,-432 3108.18,-371.88 2855.93,-413.44 2765.69,-396 2762.15,-395.32 2758.52,-394.49 2754.88,-393.59"/>
<polygon fill="black" stroke="black" points="2756.09,-390.29 2745.53,-391.05 2754.26,-397.05 2756.09,-390.29"/>
</g>
<!-- corr_punct_var&#45;&gt;t_syll3 -->
<g id="edge101" class="edge">
<title>corr_punct_var-&gt;t_syll3</title>
<path fill="none" stroke="black" d="M2699.21,-719.75C2683.43,-673.51 2632.96,-547.37 2539.69,-504 2437.48,-456.47 2143.51,-493.46 2033.69,-468 2032.07,-467.62 2030.42,-467.19 2028.77,-466.72"/>
<polygon fill="black" stroke="black" points="2029.98,-463.43 2019.38,-463.57 2027.75,-470.07 2029.98,-463.43"/>
</g>
<!-- corr_punct_var&#45;&gt;bilog_ttr -->
<g id="edge105" class="edge">
<title>corr_punct_var-&gt;bilog_ttr</title>
<path fill="none" stroke="black" d="M2703.61,-719.55C2699.82,-675.01 2683.07,-556.89 2610.69,-504 2593.59,-491.5 2305.48,-465.9 2183.04,-455.52"/>
<polygon fill="black" stroke="black" points="2183.49,-452.05 2173.23,-454.69 2182.9,-459.02 2183.49,-452.05"/>
</g>
<!-- corr_punct_var&#45;&gt;root_punct_var -->
<g id="edge102" class="edge">
<title>corr_punct_var-&gt;root_punct_var</title>
<path fill="none" stroke="black" d="M2760.35,-726.86C2772.96,-724.58 2786.28,-722.19 2798.69,-720 2995.07,-685.33 3160.7,-733.31 3209.69,-540 3221.54,-493.27 3233.61,-466.26 3199.69,-432 3180.43,-412.54 3020.23,-394.81 2921.73,-385.62"/>
<polygon fill="black" stroke="black" points="2922.12,-382.14 2911.84,-384.7 2921.48,-389.11 2922.12,-382.14"/>
</g>
<!-- corr_punct_var&#45;&gt;simp_ttr -->
<g id="edge104" class="edge">
<title>corr_punct_var-&gt;simp_ttr</title>
<path fill="none" stroke="black" d="M2645.68,-727.92C2555.79,-714.09 2386.08,-687.98 2301.01,-674.9"/>
<polygon fill="black" stroke="black" points="2301.75,-671.47 2291.33,-673.41 2300.68,-678.39 2301.75,-671.47"/>
</g>
<!-- corr_punct_var&#45;&gt;a_n_ent_ordinal_pw -->
<g id="edge103" class="edge">
<title>corr_punct_var-&gt;a_n_ent_ordinal_pw</title>
<path fill="none" stroke="black" d="M2718.25,-720.06C2735.83,-699.38 2768.55,-665.07 2804.69,-648 2960.75,-574.29 3087.17,-686.94 3177.69,-540 3186.09,-526.38 3185.92,-517.73 3177.69,-504 3168.78,-489.11 3154.1,-478.17 3138.73,-470.23"/>
<polygon fill="black" stroke="black" points="3140.5,-467.2 3129.96,-466.08 3137.51,-473.52 3140.5,-467.2"/>
</g>
<!-- corr_punct_var&#45;&gt;pass_rate -->
<g id="edge106" class="edge">
<title>corr_punct_var-&gt;pass_rate</title>
<path fill="none" stroke="black" d="M2634.57,-736.38C2311.48,-733.35 974.25,-718.81 790.69,-684 564.75,-641.15 328.69,-680.97 328.69,-451 328.69,-451 328.69,-451 328.69,-377 328.69,-334.23 350.95,-288.95 367.4,-261.33"/>
<polygon fill="black" stroke="black" points="370.31,-263.28 372.57,-252.93 364.34,-259.61 370.31,-263.28"/>
</g>
<!-- pass_rate&#45;&gt;syntaxError_rate -->
<g id="edge182" class="edge">
<title>pass_rate-&gt;syntaxError_rate</title>
<path fill="none" stroke="black" d="M378.21,-216.1C374.62,-205.84 370.52,-192.36 368.69,-180 361.68,-132.51 358.57,-118.92 368.69,-72 370.57,-63.31 373.99,-54.33 377.68,-46.29"/>
<polygon fill="black" stroke="black" points="380.79,-47.9 382.07,-37.38 374.51,-44.8 380.79,-47.9"/>
</g>
<!-- pass_rate&#45;&gt;error_rate -->
<g id="edge185" class="edge">
<title>pass_rate-&gt;error_rate</title>
<path fill="none" stroke="black" d="M401.71,-217.12C411.26,-208.2 423.37,-196.91 434.04,-186.94"/>
<polygon fill="black" stroke="black" points="436.19,-189.72 441.12,-180.34 431.42,-184.6 436.19,-189.72"/>
</g>
<!-- pass_rate&#45;&gt;sim_codeBleu -->
<g id="edge183" class="edge">
<title>pass_rate-&gt;sim_codeBleu</title>
<path fill="none" stroke="black" d="M383.31,-215.85C382.67,-196.23 384.67,-164.22 401.69,-144 466.53,-66.98 583.93,-37.36 660.33,-26"/>
<polygon fill="black" stroke="black" points="660.38,-29.53 669.79,-24.67 659.4,-22.6 660.38,-29.53"/>
</g>
<!-- pass_rate&#45;&gt;sim_Bleu -->
<g id="edge184" class="edge">
<title>pass_rate-&gt;sim_Bleu</title>
<path fill="none" stroke="black" d="M420.57,-221.99C459.68,-209.98 522.42,-190.72 565.5,-177.49"/>
<polygon fill="black" stroke="black" points="566.29,-180.91 574.83,-174.63 564.24,-174.22 566.29,-180.91"/>
</g>
<!-- n_det -->
<g id="node39" class="node">
<title>n_det</title>
<ellipse fill="none" stroke="black" cx="1209.69" cy="-666" rx="32.49" ry="18"/>
<text text-anchor="middle" x="1209.69" y="-661.8" font-family="Times,serif" font-size="14.00">n_det</text>
</g>
<!-- n_det&#45;&gt;n_adp -->
<g id="edge143" class="edge">
<title>n_det-&gt;n_adp</title>
<path fill="none" stroke="black" d="M1191.83,-650.86C1181.15,-641.21 1168.54,-627.41 1162.69,-612 1145.66,-567.12 1144.75,-548.52 1162.69,-504 1167.47,-492.15 1176.3,-481.47 1185.29,-472.85"/>
<polygon fill="black" stroke="black" points="1187.55,-475.52 1192.69,-466.26 1182.9,-470.3 1187.55,-475.52"/>
</g>
<!-- n_det&#45;&gt;simp_det_var -->
<g id="edge142" class="edge">
<title>n_det-&gt;simp_det_var</title>
<path fill="none" stroke="black" d="M1177.73,-662.18C1067.42,-652.39 708.15,-620.03 684.69,-612 656.17,-602.23 584.3,-566.38 569.69,-540 498.34,-411.15 749.06,-343.34 872.27,-318.39"/>
<polygon fill="black" stroke="black" points="872.81,-321.85 881.93,-316.47 871.45,-314.99 872.81,-321.85"/>
</g>
<!-- n_det&#45;&gt;t_bry -->
<g id="edge145" class="edge">
<title>n_det-&gt;t_bry</title>
<path fill="none" stroke="black" d="M1186.05,-653.29C1137.31,-627.64 1026.74,-561.24 984.69,-468 975.99,-448.7 979.64,-424.79 984.97,-406.61"/>
<polygon fill="black" stroke="black" points="988.23,-407.9 988.04,-397.3 981.58,-405.71 988.23,-407.9"/>
</g>
<!-- n_det&#45;&gt;t_stopword -->
<g id="edge149" class="edge">
<title>n_det-&gt;t_stopword</title>
<path fill="none" stroke="black" d="M1216.67,-648.04C1242.8,-584.65 1333.61,-365 1339.69,-360 1367.93,-336.79 1463.15,-321.55 1527.85,-313.61"/>
<polygon fill="black" stroke="black" points="1528.13,-317.1 1537.64,-312.44 1527.3,-310.15 1528.13,-317.1"/>
</g>
<!-- n_det&#45;&gt;t_uword -->
<g id="edge151" class="edge">
<title>n_det-&gt;t_uword</title>
<path fill="none" stroke="black" d="M1176.75,-665.53C1065.86,-666.78 707.57,-666.43 608.69,-612 536.06,-572.02 524.04,-506.86 559.69,-432 623.98,-297.02 716.49,-314.11 863.69,-288 1075.82,-250.37 1750.64,-238.42 1947.99,-235.68"/>
<polygon fill="black" stroke="black" points="1947.74,-239.18 1957.69,-235.55 1947.65,-232.18 1947.74,-239.18"/>
</g>
<!-- n_det&#45;&gt;n_upunct -->
<g id="edge144" class="edge">
<title>n_det-&gt;n_upunct</title>
<path fill="none" stroke="black" d="M1242.45,-664.17C1377.95,-660.52 1895.04,-644.73 2054.69,-612 2086.38,-605.5 2524.47,-446.44 2665.97,-394.93"/>
<polygon fill="black" stroke="black" points="2666.79,-398.36 2674.99,-391.65 2664.39,-391.78 2666.79,-398.36"/>
</g>
<!-- n_det&#45;&gt;t_syll3 -->
<g id="edge146" class="edge">
<title>n_det-&gt;t_syll3</title>
<path fill="none" stroke="black" d="M1242.36,-664.98C1354.06,-664.47 1719.79,-659.15 1825.69,-612 1892.02,-582.47 1947.48,-514.32 1974.32,-476.85"/>
<polygon fill="black" stroke="black" points="1977.07,-479.02 1979.95,-468.83 1971.34,-475 1977.07,-479.02"/>
</g>
<!-- n_det&#45;&gt;WTopc15_S -->
<g id="edge147" class="edge">
<title>n_det-&gt;WTopc15_S</title>
<path fill="none" stroke="black" d="M1242.08,-663.88C1357.35,-659.68 1747.23,-643.42 1867.69,-612 2016.25,-573.25 2058.76,-559.97 2181.69,-468 2232.65,-429.88 2233.69,-407.81 2275.69,-360 2283.73,-350.85 2292.58,-340.85 2300.41,-332.03"/>
<polygon fill="black" stroke="black" points="2302.81,-334.61 2306.83,-324.81 2297.57,-329.96 2302.81,-334.61"/>
</g>
<!-- n_det&#45;&gt;corr_det_var -->
<g id="edge148" class="edge">
<title>n_det-&gt;corr_det_var</title>
<path fill="none" stroke="black" d="M1242.27,-664.21C1388.45,-660.52 1984.66,-643.76 2168.69,-612 2260.79,-596.11 2364.58,-561.74 2423.36,-540.67"/>
<polygon fill="black" stroke="black" points="2424.52,-543.98 2432.73,-537.28 2422.14,-537.39 2424.52,-543.98"/>
</g>
<!-- n_det&#45;&gt;root_det_var -->
<g id="edge150" class="edge">
<title>n_det-&gt;root_det_var</title>
<path fill="none" stroke="black" d="M1177.24,-663.62C1083.55,-659.28 814.13,-644.25 732.69,-612 707.9,-602.18 708.24,-588.51 684.69,-576 641.5,-553.05 609.07,-579.84 580.69,-540 571.41,-526.97 572.44,-517.71 580.69,-504 590.94,-486.97 608.7,-475.12 626.44,-467.02"/>
<polygon fill="black" stroke="black" points="627.56,-470.35 635.43,-463.26 624.85,-463.89 627.56,-470.35"/>
</g>
<!-- n_det&#45;&gt;n_uverb -->
<g id="edge152" class="edge">
<title>n_det-&gt;n_uverb</title>
<path fill="none" stroke="black" d="M1222.55,-649C1238.47,-629.91 1267.14,-597.82 1296.69,-576 1316.03,-561.72 1339.76,-549.22 1359.57,-539.96"/>
<polygon fill="black" stroke="black" points="1360.8,-543.24 1368.45,-535.91 1357.9,-536.87 1360.8,-543.24"/>
</g>
<!-- n_det&#45;&gt;simp_noun_var -->
<g id="edge153" class="edge">
<title>n_det-&gt;simp_noun_var</title>
<path fill="none" stroke="black" d="M1236.67,-655.56C1267.85,-644.64 1319.88,-626.44 1358.75,-612.83"/>
<polygon fill="black" stroke="black" points="1359.63,-616.23 1367.91,-609.62 1357.32,-609.62 1359.63,-616.23"/>
</g>
<!-- black&#45;&gt;syntaxError_rate -->
<g id="edge161" class="edge">
<title>black-&gt;syntaxError_rate</title>
<path fill="none" stroke="black" d="M552.14,-215.98C545.6,-197.33 533.57,-167.01 517.69,-144 490.45,-104.51 449.87,-66.64 422.4,-43.13"/>
<polygon fill="black" stroke="black" points="424.68,-40.48 414.78,-36.71 420.16,-45.83 424.68,-40.48"/>
</g>
<!-- black&#45;&gt;error_rate -->
<g id="edge164" class="edge">
<title>black-&gt;error_rate</title>
<path fill="none" stroke="black" d="M538.33,-219.17C524.75,-209.47 506.3,-196.29 490.69,-185.14"/>
<polygon fill="black" stroke="black" points="492.81,-182.35 482.64,-179.39 488.74,-188.05 492.81,-182.35"/>
</g>
<!-- black&#45;&gt;sim_codeBleu -->
<g id="edge162" class="edge">
<title>black-&gt;sim_codeBleu</title>
<path fill="none" stroke="black" d="M586.8,-226.04C611.96,-218.6 647.66,-204.45 669.69,-180 703.76,-142.2 688.01,-118.92 707.69,-72 711.28,-63.46 715.57,-54.34 719.63,-46.12"/>
<polygon fill="black" stroke="black" points="722.7,-47.81 724.06,-37.3 716.44,-44.66 722.7,-47.81"/>
</g>
<!-- black&#45;&gt;sim_Bleu -->
<g id="edge163" class="edge">
<title>black-&gt;sim_Bleu</title>
<path fill="none" stroke="black" d="M570.17,-217.12C576.74,-208.77 584.94,-198.32 592.39,-188.84"/>
<polygon fill="black" stroke="black" points="595.14,-191.01 598.56,-180.99 589.63,-186.69 595.14,-191.01"/>
</g>
<!-- sim_Bleu&#45;&gt;syntaxError_rate -->
<g id="edge176" class="edge">
<title>sim_Bleu-&gt;syntaxError_rate</title>
<path fill="none" stroke="black" d="M604.9,-143.76C595.03,-123.76 576.16,-91.08 550.69,-72 525.13,-52.85 492.23,-40.36 463.08,-32.35"/>
<polygon fill="black" stroke="black" points="464.14,-29 453.58,-29.87 462.37,-35.78 464.14,-29"/>
</g>
<!-- sim_Bleu&#45;&gt;sta_codeBleu -->
<g id="edge177" class="edge">
<title>sim_Bleu-&gt;sta_codeBleu</title>
<path fill="none" stroke="black" d="M643.71,-148C669.23,-137.3 705.73,-122 734.49,-109.95"/>
<polygon fill="black" stroke="black" points="735.83,-113.18 743.7,-106.09 733.12,-106.73 735.83,-113.18"/>
</g>
<!-- sim_Bleu&#45;&gt;sim_codeBleu -->
<g id="edge178" class="edge">
<title>sim_Bleu-&gt;sim_codeBleu</title>
<path fill="none" stroke="black" d="M622.83,-144.08C634.31,-125.53 654.12,-95.28 674.69,-72 683.79,-61.71 694.76,-51.38 704.76,-42.62"/>
<polygon fill="black" stroke="black" points="706.76,-45.51 712.07,-36.35 702.21,-40.2 706.76,-45.51"/>
</g>
<!-- timeout_rate -->
<g id="node44" class="node">
<title>timeout_rate</title>
<ellipse fill="none" stroke="black" cx="221.69" cy="-234" rx="59.84" ry="18"/>
<text text-anchor="middle" x="221.69" y="-229.8" font-family="Times,serif" font-size="14.00">timeout_rate</text>
</g>
<!-- timeout_rate&#45;&gt;syntaxError_rate -->
<g id="edge189" class="edge">
<title>timeout_rate-&gt;syntaxError_rate</title>
<path fill="none" stroke="black" d="M235.11,-216.21C264.88,-178.95 336.62,-89.17 372.11,-44.76"/>
<polygon fill="black" stroke="black" points="374.65,-47.19 378.16,-37.19 369.18,-42.82 374.65,-47.19"/>
</g>
<!-- timeout_rate&#45;&gt;error_rate -->
<g id="edge190" class="edge">
<title>timeout_rate-&gt;error_rate</title>
<path fill="none" stroke="black" d="M263.42,-220.73C304.75,-208.57 367.99,-189.97 411.45,-177.19"/>
<polygon fill="black" stroke="black" points="412.27,-180.6 420.87,-174.42 410.29,-173.88 412.27,-180.6"/>
</g>
</g>
</svg>