<?xml version="1.0" encoding="UTF-8" standalone="no"?><!DOCTYPE svg PUBLIC "-//W3C//DTD SVG 1.1//EN" "http://www.w3.org/Graphics/SVG/1.1/DTD/svg11.dtd"><!-- Generated by graphviz version 2.40.1 (20161225.0304)
 --><!-- Title: G Pages: 1 --><svg xmlns="http://www.w3.org/2000/svg" xmlns:xlink="http://www.w3.org/1999/xlink" width="3581pt" height="980pt" viewBox="0.00 0.00 3581.00 980.00">
<g id="graph0" class="graph" transform="scale(1 1) rotate(0) translate(4 976)">
<title>G</title>
<polygon fill="#ffffff" stroke="transparent" points="-4,4 -4,-976 3577,-976 3577,4 -4,4"/>
<!-- BClar10_S -->
<g id="node1" class="node">
<title>BClar10_S</title>
<ellipse fill="none" stroke="#000000" cx="3111" cy="-594" rx="53.9117" ry="18"/>
<text text-anchor="middle" x="3111" y="-589.8" font-family="Times,serif" font-size="14.00" fill="#000000">BClar10_S</text>
</g>
<!-- simp_det_var -->
<g id="node2" class="node">
<title>simp_det_var</title>
<ellipse fill="none" stroke="#000000" cx="2244" cy="-378" rx="63.7045" ry="18"/>
<text text-anchor="middle" x="2244" y="-373.8" font-family="Times,serif" font-size="14.00" fill="#000000">simp_det_var</text>
</g>
<!-- BClar10_S&#45;&gt;simp_det_var -->
<g id="edge1" class="edge">
<title>BClar10_S-&gt;simp_det_var</title>
<path fill="none" stroke="#000000" d="M3112.3615,-575.7213C3112.9267,-556.497 3111.2904,-526.0353 3098,-504 3069.9009,-457.412 3050.1056,-450.6607 2999,-432 2936.0716,-409.0223 2494.3545,-388.3879 2317.2234,-380.9428"/>
<polygon fill="#000000" stroke="#000000" points="2317.349,-377.445 2307.2115,-380.5242 2317.0565,-384.4389 2317.349,-377.445"/>
</g>
<!-- BTopc10_S -->
<g id="node3" class="node">
<title>BTopc10_S</title>
<ellipse fill="none" stroke="#000000" cx="3184" cy="-450" rx="57.3476" ry="18"/>
<text text-anchor="middle" x="3184" y="-445.8" font-family="Times,serif" font-size="14.00" fill="#000000">BTopc10_S</text>
</g>
<!-- BClar10_S&#45;&gt;BTopc10_S -->
<g id="edge2" class="edge">
<title>BClar10_S-&gt;BTopc10_S</title>
<path fill="none" stroke="#000000" d="M3120.0979,-576.0535C3132.6659,-551.2618 3155.4485,-506.3207 3170.1413,-477.3378"/>
<polygon fill="#000000" stroke="#000000" points="3173.3876,-478.6747 3174.7874,-468.1727 3167.144,-475.5095 3173.3876,-478.6747"/>
</g>
<!-- BClar05_S -->
<g id="node4" class="node">
<title>BClar05_S</title>
<ellipse fill="none" stroke="#000000" cx="3035" cy="-522" rx="53.9117" ry="18"/>
<text text-anchor="middle" x="3035" y="-517.8" font-family="Times,serif" font-size="14.00" fill="#000000">BClar05_S</text>
</g>
<!-- BClar10_S&#45;&gt;BClar05_S -->
<g id="edge3" class="edge">
<title>BClar10_S-&gt;BClar05_S</title>
<path fill="none" stroke="#000000" d="M3092.9891,-576.937C3083.3109,-567.7682 3071.2144,-556.3084 3060.5772,-546.2311"/>
<polygon fill="#000000" stroke="#000000" points="3062.8117,-543.5267 3053.145,-539.19 3057.9975,-548.6084 3062.8117,-543.5267"/>
</g>
<!-- BTopc10_S&#45;&gt;simp_det_var -->
<g id="edge101" class="edge">
<title>BTopc10_S-&gt;simp_det_var</title>
<path fill="none" stroke="#000000" d="M3141.465,-437.8478C3132.1518,-435.5719 3122.297,-433.4544 3113,-432 2960.4581,-408.1374 2498.006,-387.9727 2317.3872,-380.7993"/>
<polygon fill="#000000" stroke="#000000" points="2317.3218,-377.2941 2307.1913,-380.3963 2317.0453,-384.2887 2317.3218,-377.2941"/>
</g>
<!-- BClar05_S&#45;&gt;simp_det_var -->
<g id="edge102" class="edge">
<title>BClar05_S-&gt;simp_det_var</title>
<path fill="none" stroke="#000000" d="M3027.2125,-504.1244C3016.8651,-482.8012 2996.4019,-448.0299 2967,-432 2910.9604,-401.4473 2489.8427,-385.4099 2317.3461,-380.0665"/>
<polygon fill="#000000" stroke="#000000" points="2317.4409,-376.5678 2307.3384,-379.7598 2317.2265,-383.5645 2317.4409,-376.5678"/>
</g>
<!-- BClar05_S&#45;&gt;BTopc10_S -->
<g id="edge104" class="edge">
<title>BClar05_S-&gt;BTopc10_S</title>
<path fill="none" stroke="#000000" d="M3065.8729,-507.0816C3088.397,-496.1974 3119.1358,-481.3438 3143.6107,-469.517"/>
<polygon fill="#000000" stroke="#000000" points="3145.173,-472.6493 3152.654,-465.147 3142.1273,-466.3466 3145.173,-472.6493"/>
</g>
<!-- n_upunct -->
<g id="node7" class="node">
<title>n_upunct</title>
<ellipse fill="none" stroke="#000000" cx="1292" cy="-450" rx="46.9555" ry="18"/>
<text text-anchor="middle" x="1292" y="-445.8" font-family="Times,serif" font-size="14.00" fill="#000000">n_upunct</text>
</g>
<!-- BClar05_S&#45;&gt;n_upunct -->
<g id="edge103" class="edge">
<title>BClar05_S-&gt;n_upunct</title>
<path fill="none" stroke="#000000" d="M2989.1963,-512.3643C2971.9696,-509.1295 2952.1601,-505.8711 2934,-504 2384.6763,-447.4009 2243.8544,-488.4133 1692,-468 1569.6726,-463.4751 1426.371,-456.6583 1348.8305,-452.8437"/>
<polygon fill="#000000" stroke="#000000" points="1348.9521,-449.3456 1338.7918,-452.3486 1348.6072,-456.3371 1348.9521,-449.3456"/>
</g>
<!-- a_n_ent_money_ps -->
<g id="node5" class="node">
<title>a_n_ent_money_ps</title>
<ellipse fill="none" stroke="#000000" cx="3383" cy="-594" rx="86.2657" ry="18"/>
<text text-anchor="middle" x="3383" y="-589.8" font-family="Times,serif" font-size="14.00" fill="#000000">a_n_ent_money_ps</text>
</g>
<!-- a_n_ent_money_ps&#45;&gt;BClar05_S -->
<g id="edge4" class="edge">
<title>a_n_ent_money_ps-&gt;BClar05_S</title>
<path fill="none" stroke="#000000" d="M3321.5857,-581.2936C3256.4313,-567.8134 3154.3681,-546.6968 3091.2496,-533.6378"/>
<polygon fill="#000000" stroke="#000000" points="3091.585,-530.1332 3081.0833,-531.5345 3090.1668,-536.988 3091.585,-530.1332"/>
</g>
<!-- black -->
<g id="node41" class="node">
<title>black</title>
<ellipse fill="none" stroke="#000000" cx="3367" cy="-234" rx="31.9012" ry="18"/>
<text text-anchor="middle" x="3367" y="-229.8" font-family="Times,serif" font-size="14.00" fill="#000000">black</text>
</g>
<!-- a_n_ent_money_ps&#45;&gt;black -->
<g id="edge161" class="edge">
<title>a_n_ent_money_ps-&gt;black</title>
<path fill="none" stroke="#000000" d="M3381.3424,-575.8326C3378.9991,-548.5392 3375,-495.3198 3375,-450 3375,-450 3375,-450 3375,-378 3375,-337.8141 3371.8556,-291.417 3369.5095,-262.3918"/>
<polygon fill="#000000" stroke="#000000" points="3372.9759,-261.8422 3368.6576,-252.1674 3366.0001,-262.4235 3372.9759,-261.8422"/>
</g>
<!-- syntaxError_rate -->
<g id="node42" class="node">
<title>syntaxError_rate</title>
<ellipse fill="none" stroke="#000000" cx="3153" cy="-162" rx="75.8412" ry="18"/>
<text text-anchor="middle" x="3153" y="-157.8" font-family="Times,serif" font-size="14.00" fill="#000000">syntaxError_rate</text>
</g>
<!-- a_n_ent_money_ps&#45;&gt;syntaxError_rate -->
<g id="edge165" class="edge">
<title>a_n_ent_money_ps-&gt;syntaxError_rate</title>
<path fill="none" stroke="#000000" d="M3366.1331,-576.0553C3343.7429,-550.2804 3307,-500.3175 3307,-450 3307,-450 3307,-450 3307,-306 3307,-263.5468 3303.871,-247.1245 3275,-216 3259.086,-198.8439 3236.7324,-186.8188 3215.5002,-178.5467"/>
<polygon fill="#000000" stroke="#000000" points="3216.4446,-175.1651 3205.8509,-175.0052 3214.0327,-181.7365 3216.4446,-175.1651"/>
</g>
<!-- n_adp -->
<g id="node6" class="node">
<title>n_adp</title>
<ellipse fill="none" stroke="#000000" cx="1267" cy="-738" rx="34.7748" ry="18"/>
<text text-anchor="middle" x="1267" y="-733.8" font-family="Times,serif" font-size="14.00" fill="#000000">n_adp</text>
</g>
<!-- n_adp&#45;&gt;simp_det_var -->
<g id="edge5" class="edge">
<title>n_adp-&gt;simp_det_var</title>
<path fill="none" stroke="#000000" d="M1234.951,-730.992C1195.1664,-721.5674 1130.8461,-703.7006 1117,-684 1085.6003,-639.3237 1104.096,-514.7673 1236,-432 1275.4511,-407.2452 1944.618,-386.3628 2170.3355,-379.9948"/>
<polygon fill="#000000" stroke="#000000" points="2170.5269,-383.4909 2180.4247,-379.7115 2170.3304,-376.4936 2170.5269,-383.4909"/>
</g>
<!-- n_adp&#45;&gt;n_upunct -->
<g id="edge6" class="edge">
<title>n_adp-&gt;n_upunct</title>
<path fill="none" stroke="#000000" d="M1268.5639,-719.9843C1272.7905,-671.2939 1284.4656,-536.7961 1289.5645,-478.0573"/>
<polygon fill="#000000" stroke="#000000" points="1293.0587,-478.2741 1290.4367,-468.0089 1286.0849,-477.6687 1293.0587,-478.2741"/>
</g>
<!-- t_bry -->
<g id="node8" class="node">
<title>t_bry</title>
<ellipse fill="none" stroke="#000000" cx="958" cy="-666" rx="31.341" ry="18"/>
<text text-anchor="middle" x="958" y="-661.8" font-family="Times,serif" font-size="14.00" fill="#000000">t_bry</text>
</g>
<!-- n_adp&#45;&gt;t_bry -->
<g id="edge7" class="edge">
<title>n_adp-&gt;t_bry</title>
<path fill="none" stroke="#000000" d="M1235.3837,-730.6331C1178.559,-717.3924 1059.3225,-689.6091 997.3256,-675.1632"/>
<polygon fill="#000000" stroke="#000000" points="998.0577,-671.7401 987.5243,-672.8795 996.4691,-678.5575 998.0577,-671.7401"/>
</g>
<!-- t_syll3 -->
<g id="node9" class="node">
<title>t_syll3</title>
<ellipse fill="none" stroke="#000000" cx="1538" cy="-666" rx="37.1578" ry="18"/>
<text text-anchor="middle" x="1538" y="-661.8" font-family="Times,serif" font-size="14.00" fill="#000000">t_syll3</text>
</g>
<!-- n_adp&#45;&gt;t_syll3 -->
<g id="edge8" class="edge">
<title>n_adp-&gt;t_syll3</title>
<path fill="none" stroke="#000000" d="M1298.0871,-729.7407C1346.6447,-716.8398 1440.5939,-691.8791 1495.4114,-677.315"/>
<polygon fill="#000000" stroke="#000000" points="1496.406,-680.6723 1505.1719,-674.7218 1494.6085,-673.907 1496.406,-680.6723"/>
</g>
<!-- simp_adp_var -->
<g id="node10" class="node">
<title>simp_adp_var</title>
<ellipse fill="none" stroke="#000000" cx="1659" cy="-666" rx="65.9949" ry="18"/>
<text text-anchor="middle" x="1659" y="-661.8" font-family="Times,serif" font-size="14.00" fill="#000000">simp_adp_var</text>
</g>
<!-- n_adp&#45;&gt;simp_adp_var -->
<g id="edge9" class="edge">
<title>n_adp-&gt;simp_adp_var</title>
<path fill="none" stroke="#000000" d="M1300.4535,-733.0541C1358.4173,-724.3166 1481.1812,-705.0712 1584,-684 1589.3292,-682.9079 1594.8557,-681.7091 1600.3827,-680.465"/>
<polygon fill="#000000" stroke="#000000" points="1601.3264,-683.8394 1610.2893,-678.1899 1599.7596,-677.017 1601.3264,-683.8394"/>
</g>
<!-- t_uword -->
<g id="node11" class="node">
<title>t_uword</title>
<ellipse fill="none" stroke="#000000" cx="1051" cy="-378" rx="43.4415" ry="18"/>
<text text-anchor="middle" x="1051" y="-373.8" font-family="Times,serif" font-size="14.00" fill="#000000">t_uword</text>
</g>
<!-- n_adp&#45;&gt;t_uword -->
<g id="edge10" class="edge">
<title>n_adp-&gt;t_uword</title>
<path fill="none" stroke="#000000" d="M1235.2483,-730.4832C1197.4756,-721.1755 1132.7659,-704.071 1079,-684 1061.2096,-677.3588 940.6367,-621.1557 924,-612 872.1561,-583.4686 848.3102,-586.7268 812,-540 781.829,-501.1736 756.9235,-470.1055 788,-432 813.9544,-400.1751 928.7778,-386.5775 997.8372,-381.1928"/>
<polygon fill="#000000" stroke="#000000" points="998.381,-384.662 1008.0926,-380.4271 997.8598,-377.6814 998.381,-384.662"/>
</g>
<!-- n_upunct&#45;&gt;simp_det_var -->
<g id="edge24" class="edge">
<title>n_upunct-&gt;simp_det_var</title>
<path fill="none" stroke="#000000" d="M1338.2387,-446.503C1491.8207,-434.8875 1985.7493,-397.5316 2172.0115,-383.4445"/>
<polygon fill="#000000" stroke="#000000" points="2172.5338,-386.9151 2182.2414,-382.6708 2172.0059,-379.935 2172.5338,-386.9151"/>
</g>
<!-- n_upunct&#45;&gt;t_uword -->
<g id="edge25" class="edge">
<title>n_upunct-&gt;t_uword</title>
<path fill="none" stroke="#000000" d="M1254.8719,-438.9078C1212.0644,-426.1188 1141.7232,-405.104 1095.883,-391.409"/>
<polygon fill="#000000" stroke="#000000" points="1096.7922,-388.0279 1086.2087,-388.5188 1094.7884,-394.7349 1096.7922,-388.0279"/>
</g>
<!-- t_bry&#45;&gt;simp_det_var -->
<g id="edge26" class="edge">
<title>t_bry-&gt;simp_det_var</title>
<path fill="none" stroke="#000000" d="M944.052,-649.7905C930.1498,-631.5541 912.4142,-601.19 924,-576 945.3323,-529.6189 1055.007,-449.4054 1103,-432 1202.7718,-395.8162 1933.51,-382.3877 2170.2206,-378.9594"/>
<polygon fill="#000000" stroke="#000000" points="2170.4974,-382.4559 2180.4463,-378.8131 2170.3972,-375.4566 2170.4974,-382.4559"/>
</g>
<!-- t_bry&#45;&gt;n_upunct -->
<g id="edge27" class="edge">
<title>t_bry-&gt;n_upunct</title>
<path fill="none" stroke="#000000" d="M985.0459,-656.7644C1011.2553,-647.2785 1051.6751,-631.2114 1084,-612 1150.6508,-572.3878 1159.697,-551.4699 1221,-504 1234.5599,-493.4999 1249.6745,-481.9791 1262.4612,-472.2856"/>
<polygon fill="#000000" stroke="#000000" points="1264.6278,-475.0352 1270.4879,-466.2086 1260.4025,-469.4543 1264.6278,-475.0352"/>
</g>
<!-- t_bry&#45;&gt;t_uword -->
<g id="edge28" class="edge">
<title>t_bry-&gt;t_uword</title>
<path fill="none" stroke="#000000" d="M927.8075,-660.5621C882.0873,-651.7553 798.3449,-633.2042 777,-612 718.5738,-553.9587 679.8637,-494.9202 733,-432 749.9474,-411.9321 912.8657,-392.274 998.6868,-383.2043"/>
<polygon fill="#000000" stroke="#000000" points="999.1738,-386.6726 1008.7556,-382.1514 998.4458,-379.7105 999.1738,-386.6726"/>
</g>
<!-- simp_noun_var -->
<g id="node19" class="node">
<title>simp_noun_var</title>
<ellipse fill="none" stroke="#000000" cx="1004" cy="-594" rx="71.2346" ry="18"/>
<text text-anchor="middle" x="1004" y="-589.8" font-family="Times,serif" font-size="14.00" fill="#000000">simp_noun_var</text>
</g>
<!-- t_bry&#45;&gt;simp_noun_var -->
<g id="edge29" class="edge">
<title>t_bry-&gt;simp_noun_var</title>
<path fill="none" stroke="#000000" d="M968.9014,-648.937C974.2972,-640.4914 980.9349,-630.1019 986.9803,-620.6396"/>
<polygon fill="#000000" stroke="#000000" points="990.1005,-622.2566 992.535,-611.9453 984.2016,-618.4879 990.1005,-622.2566"/>
</g>
<!-- t_syll3&#45;&gt;simp_det_var -->
<g id="edge30" class="edge">
<title>t_syll3-&gt;simp_det_var</title>
<path fill="none" stroke="#000000" d="M1555.9204,-650.174C1591.9434,-618.9653 1676.578,-548.6477 1757,-504 1892.6912,-428.6686 2074.6739,-397.2066 2173.2903,-385.0087"/>
<polygon fill="#000000" stroke="#000000" points="2173.932,-388.4567 2183.4412,-383.7849 2173.0941,-381.5071 2173.932,-388.4567"/>
</g>
<!-- t_syll3&#45;&gt;n_upunct -->
<g id="edge31" class="edge">
<title>t_syll3-&gt;n_upunct</title>
<path fill="none" stroke="#000000" d="M1525.7892,-648.6613C1511.9824,-629.6913 1488.2515,-598.9323 1464,-576 1419.8658,-534.2665 1361.6413,-494.265 1325.5234,-470.9222"/>
<polygon fill="#000000" stroke="#000000" points="1327.1469,-467.8055 1316.8392,-465.3556 1323.3693,-473.6988 1327.1469,-467.8055"/>
</g>
<!-- t_syll3&#45;&gt;t_uword -->
<g id="edge34" class="edge">
<title>t_syll3-&gt;t_uword</title>
<path fill="none" stroke="#000000" d="M1531.3522,-648.1092C1523.8648,-629.2089 1510.5529,-599.0151 1494,-576 1440.7844,-502.009 1428.8756,-474.0202 1348,-432 1306.1377,-410.2498 1176.2699,-392.3849 1102.88,-383.6975"/>
<polygon fill="#000000" stroke="#000000" points="1103.2529,-380.2174 1092.9143,-382.5331 1102.4405,-387.1701 1103.2529,-380.2174"/>
</g>
<!-- a_n_ent_ordinal_pw -->
<g id="node13" class="node">
<title>a_n_ent_ordinal_pw</title>
<ellipse fill="none" stroke="#000000" cx="483" cy="-594" rx="90.3371" ry="18"/>
<text text-anchor="middle" x="483" y="-589.8" font-family="Times,serif" font-size="14.00" fill="#000000">a_n_ent_ordinal_pw</text>
</g>
<!-- t_syll3&#45;&gt;a_n_ent_ordinal_pw -->
<g id="edge32" class="edge">
<title>t_syll3-&gt;a_n_ent_ordinal_pw</title>
<path fill="none" stroke="#000000" d="M1500.7619,-663.4586C1352.6594,-653.3512 802.6077,-615.8121 578.7231,-600.5328"/>
<polygon fill="#000000" stroke="#000000" points="578.8491,-597.0333 568.634,-599.8442 578.3724,-604.0171 578.8491,-597.0333"/>
</g>
<!-- a_n_ent_pw -->
<g id="node16" class="node">
<title>a_n_ent_pw</title>
<ellipse fill="none" stroke="#000000" cx="1397" cy="-594" rx="58.4725" ry="18"/>
<text text-anchor="middle" x="1397" y="-589.8" font-family="Times,serif" font-size="14.00" fill="#000000">a_n_ent_pw</text>
</g>
<!-- t_syll3&#45;&gt;a_n_ent_pw -->
<g id="edge33" class="edge">
<title>t_syll3-&gt;a_n_ent_pw</title>
<path fill="none" stroke="#000000" d="M1512.1384,-652.7941C1490.9189,-641.9586 1460.5341,-626.4429 1436.3059,-614.0711"/>
<polygon fill="#000000" stroke="#000000" points="1437.8514,-610.9304 1427.3536,-609.4997 1434.6679,-617.1647 1437.8514,-610.9304"/>
</g>
<!-- t_syll3&#45;&gt;simp_noun_var -->
<g id="edge35" class="edge">
<title>t_syll3-&gt;simp_noun_var</title>
<path fill="none" stroke="#000000" d="M1501.7158,-661.1078C1414.7845,-649.3867 1193.2284,-619.5139 1077.27,-603.8791"/>
<polygon fill="#000000" stroke="#000000" points="1077.444,-600.371 1067.0659,-602.5033 1076.5085,-607.3082 1077.444,-600.371"/>
</g>
<!-- simp_adp_var&#45;&gt;simp_det_var -->
<g id="edge50" class="edge">
<title>simp_adp_var-&gt;simp_det_var</title>
<path fill="none" stroke="#000000" d="M1670.1362,-648.0858C1691.9451,-614.5301 1743.6404,-542.1578 1806,-504 1858.2352,-472.0373 1880.0734,-484.6668 1939,-468 2027.4428,-442.9848 2129.8428,-412.4429 2190.6428,-394.1419"/>
<polygon fill="#000000" stroke="#000000" points="2191.8353,-397.4381 2200.4006,-391.2023 2189.8161,-390.7356 2191.8353,-397.4381"/>
</g>
<!-- simp_adp_var&#45;&gt;n_upunct -->
<g id="edge51" class="edge">
<title>simp_adp_var-&gt;n_upunct</title>
<path fill="none" stroke="#000000" d="M1634.3711,-649.1321C1581.1756,-612.8177 1456.7385,-528.538 1412,-504 1386.825,-490.1921 1357.4454,-476.9264 1334.0577,-466.9987"/>
<polygon fill="#000000" stroke="#000000" points="1335.3338,-463.7385 1324.7587,-463.0927 1332.6229,-470.1923 1335.3338,-463.7385"/>
</g>
<!-- simp_adp_var&#45;&gt;t_uword -->
<g id="edge53" class="edge">
<title>simp_adp_var-&gt;t_uword</title>
<path fill="none" stroke="#000000" d="M1645.2743,-648.3552C1609.1242,-603.3335 1506.05,-484.0821 1390,-432 1339.7486,-409.4477 1185.3263,-391.31 1103.3646,-382.9695"/>
<polygon fill="#000000" stroke="#000000" points="1103.5596,-379.4716 1093.2596,-381.9535 1102.8593,-386.4365 1103.5596,-379.4716"/>
</g>
<!-- simp_adp_var&#45;&gt;a_n_ent_pw -->
<g id="edge52" class="edge">
<title>simp_adp_var-&gt;a_n_ent_pw</title>
<path fill="none" stroke="#000000" d="M1612.4616,-653.2108C1567.1583,-640.7611 1498.3615,-621.8551 1450.7481,-608.7705"/>
<polygon fill="#000000" stroke="#000000" points="1451.4956,-605.3462 1440.9256,-606.0712 1449.6406,-612.096 1451.4956,-605.3462"/>
</g>
<!-- simp_adp_var&#45;&gt;simp_noun_var -->
<g id="edge54" class="edge">
<title>simp_adp_var-&gt;simp_noun_var</title>
<path fill="none" stroke="#000000" d="M1611.1957,-653.4514C1602.2064,-651.3983 1592.851,-649.4665 1584,-648 1406.9485,-618.6658 1196.6546,-604.052 1084.2845,-597.8462"/>
<polygon fill="#000000" stroke="#000000" points="1084.2261,-594.338 1074.0507,-597.2894 1083.8457,-601.3276 1084.2261,-594.338"/>
</g>
<!-- bilog_ttr -->
<g id="node21" class="node">
<title>bilog_ttr</title>
<ellipse fill="none" stroke="#000000" cx="2192" cy="-594" rx="44.1006" ry="18"/>
<text text-anchor="middle" x="2192" y="-589.8" font-family="Times,serif" font-size="14.00" fill="#000000">bilog_ttr</text>
</g>
<!-- simp_adp_var&#45;&gt;bilog_ttr -->
<g id="edge55" class="edge">
<title>simp_adp_var-&gt;bilog_ttr</title>
<path fill="none" stroke="#000000" d="M1706.8348,-653.6287C1715.8212,-651.5584 1725.1676,-649.5749 1734,-648 1879.2362,-622.1032 2052.6727,-605.5103 2138.473,-598.2442"/>
<polygon fill="#000000" stroke="#000000" points="2138.8215,-601.7273 2148.4943,-597.4043 2138.2369,-594.7518 2138.8215,-601.7273"/>
</g>
<!-- sta_Bleu -->
<g id="node43" class="node">
<title>sta_Bleu</title>
<ellipse fill="none" stroke="#000000" cx="2918" cy="-306" rx="44.6607" ry="18"/>
<text text-anchor="middle" x="2918" y="-301.8" font-family="Times,serif" font-size="14.00" fill="#000000">sta_Bleu</text>
</g>
<!-- t_uword&#45;&gt;sta_Bleu -->
<g id="edge169" class="edge">
<title>t_uword-&gt;sta_Bleu</title>
<path fill="none" stroke="#000000" d="M1094.4017,-376.3262C1343.0559,-366.737 2585.4346,-318.8252 2862.9604,-308.1226"/>
<polygon fill="#000000" stroke="#000000" points="2863.3258,-311.6112 2873.1834,-307.7283 2863.0559,-304.6164 2863.3258,-311.6112"/>
</g>
<!-- sim_codeBleu -->
<g id="node44" class="node">
<title>sim_codeBleu</title>
<ellipse fill="none" stroke="#000000" cx="2858" cy="-234" rx="66.0723" ry="18"/>
<text text-anchor="middle" x="2858" y="-229.8" font-family="Times,serif" font-size="14.00" fill="#000000">sim_codeBleu</text>
</g>
<!-- t_uword&#45;&gt;sim_codeBleu -->
<g id="edge177" class="edge">
<title>t_uword-&gt;sim_codeBleu</title>
<path fill="none" stroke="#000000" d="M1093.8854,-374.5825C1330.897,-355.695 2480.7715,-264.0614 2784.3714,-239.8675"/>
<polygon fill="#000000" stroke="#000000" points="2784.6959,-243.3528 2794.3862,-239.0694 2784.1397,-236.3749 2784.6959,-243.3528"/>
</g>
<!-- t_subtlex_us_zipf -->
<g id="node12" class="node">
<title>t_subtlex_us_zipf</title>
<ellipse fill="none" stroke="#000000" cx="754" cy="-954" rx="79.8972" ry="18"/>
<text text-anchor="middle" x="754" y="-949.8" font-family="Times,serif" font-size="14.00" fill="#000000">t_subtlex_us_zipf</text>
</g>
<!-- t_subtlex_us_zipf&#45;&gt;n_adp -->
<g id="edge11" class="edge">
<title>t_subtlex_us_zipf-&gt;n_adp</title>
<path fill="none" stroke="#000000" d="M832.4627,-950.6726C964.1355,-944.3245 1218.0931,-928.5125 1247,-900 1282.3485,-865.1337 1278.6803,-802.1119 1272.8439,-765.8047"/>
<polygon fill="#000000" stroke="#000000" points="1276.2777,-765.123 1271.0876,-755.8865 1269.385,-766.3436 1276.2777,-765.123"/>
</g>
<!-- t_subtlex_us_zipf&#45;&gt;n_upunct -->
<g id="edge12" class="edge">
<title>t_subtlex_us_zipf-&gt;n_upunct</title>
<path fill="none" stroke="#000000" d="M675.2329,-950.9804C529.2346,-944.7299 227.9354,-928.5209 190,-900 122.9267,-849.5724 97.6028,-796.0843 133,-720 206.628,-561.7405 291.7677,-546.7502 461,-504 498.4909,-494.5293 1053.8499,-463.1657 1235.1912,-453.1227"/>
<polygon fill="#000000" stroke="#000000" points="1235.5314,-456.6094 1245.3228,-452.5623 1235.1447,-449.6201 1235.5314,-456.6094"/>
</g>
<!-- t_subtlex_us_zipf&#45;&gt;t_bry -->
<g id="edge13" class="edge">
<title>t_subtlex_us_zipf-&gt;t_bry</title>
<path fill="none" stroke="#000000" d="M760.3884,-935.8114C775.762,-893.9599 818.1814,-789.1336 880,-720 893.0318,-705.4261 910.7486,-692.7574 926.0037,-683.3605"/>
<polygon fill="#000000" stroke="#000000" points="927.8441,-686.3383 934.6473,-678.2162 924.264,-680.323 927.8441,-686.3383"/>
</g>
<!-- t_subtlex_us_zipf&#45;&gt;t_uword -->
<g id="edge18" class="edge">
<title>t_subtlex_us_zipf-&gt;t_uword</title>
<path fill="none" stroke="#000000" d="M674.8916,-951.4062C533.6157,-946.0378 243.764,-931.4821 148,-900 74.8655,-875.9572 0,-886.9852 0,-810 0,-810 0,-810 0,-522 0,-470.775 26.4596,-455.4535 72,-432 154.3798,-389.574 804.8839,-380.2533 997.4648,-378.415"/>
<polygon fill="#000000" stroke="#000000" points="997.656,-381.9135 1007.6231,-378.321 997.5911,-374.9138 997.656,-381.9135"/>
</g>
<!-- t_subtlex_us_zipf&#45;&gt;a_n_ent_ordinal_pw -->
<g id="edge14" class="edge">
<title>t_subtlex_us_zipf-&gt;a_n_ent_ordinal_pw</title>
<path fill="none" stroke="#000000" d="M677.0829,-949.2628C562.1443,-937.56 348.851,-896.9463 253,-756 244.0026,-742.7695 244.8451,-733.7658 253,-720 287.7523,-661.3363 360.5548,-628.189 414.9965,-610.7799"/>
<polygon fill="#000000" stroke="#000000" points="416.0726,-614.1108 424.592,-607.8122 414.0043,-607.4233 416.0726,-614.1108"/>
</g>
<!-- t_stopword -->
<g id="node14" class="node">
<title>t_stopword</title>
<ellipse fill="none" stroke="#000000" cx="961" cy="-810" rx="54.4759" ry="18"/>
<text text-anchor="middle" x="961" y="-805.8" font-family="Times,serif" font-size="14.00" fill="#000000">t_stopword</text>
</g>
<!-- t_subtlex_us_zipf&#45;&gt;t_stopword -->
<g id="edge15" class="edge">
<title>t_subtlex_us_zipf-&gt;t_stopword</title>
<path fill="none" stroke="#000000" d="M817.1038,-942.9105C864.457,-933.3232 923.9367,-918.1637 941,-900 956.4422,-883.562 960.9443,-857.9533 961.8711,-838.2494"/>
<polygon fill="#000000" stroke="#000000" points="965.3751,-838.0704 962.065,-828.0059 958.3763,-837.9379 965.3751,-838.0704"/>
</g>
<!-- simp_ttr_no_lem -->
<g id="node15" class="node">
<title>simp_ttr_no_lem</title>
<ellipse fill="none" stroke="#000000" cx="2151" cy="-882" rx="77.0468" ry="18"/>
<text text-anchor="middle" x="2151" y="-877.8" font-family="Times,serif" font-size="14.00" fill="#000000">simp_ttr_no_lem</text>
</g>
<!-- t_subtlex_us_zipf&#45;&gt;simp_ttr_no_lem -->
<g id="edge16" class="edge">
<title>t_subtlex_us_zipf-&gt;simp_ttr_no_lem</title>
<path fill="none" stroke="#000000" d="M831.8508,-949.9876C1074.0055,-937.5072 1812.8056,-899.4302 2065.3246,-886.4156"/>
<polygon fill="#000000" stroke="#000000" points="2065.7359,-889.8992 2075.5425,-885.889 2065.3756,-882.9084 2065.7359,-889.8992"/>
</g>
<!-- t_subtlex_us_zipf&#45;&gt;a_n_ent_pw -->
<g id="edge17" class="edge">
<title>t_subtlex_us_zipf-&gt;a_n_ent_pw</title>
<path fill="none" stroke="#000000" d="M833.5678,-952.5858C1137.9102,-946.9913 2212.4457,-925.4647 2237,-900 2283.678,-851.5914 2306.0088,-776.0506 2068,-648 2015.8203,-619.9269 1625.2292,-602.4441 1465.1354,-596.39"/>
<polygon fill="#000000" stroke="#000000" points="1465.0537,-592.8846 1454.9297,-596.0077 1464.7917,-599.8796 1465.0537,-592.8846"/>
</g>
<!-- a_adj_pw -->
<g id="node17" class="node">
<title>a_adj_pw</title>
<ellipse fill="none" stroke="#000000" cx="632" cy="-666" rx="48.6578" ry="18"/>
<text text-anchor="middle" x="632" y="-661.8" font-family="Times,serif" font-size="14.00" fill="#000000">a_adj_pw</text>
</g>
<!-- t_subtlex_us_zipf&#45;&gt;a_adj_pw -->
<g id="edge19" class="edge">
<title>t_subtlex_us_zipf-&gt;a_adj_pw</title>
<path fill="none" stroke="#000000" d="M711.1299,-938.7507C693.4749,-930.1838 674.6869,-917.6 664,-900 622.4008,-831.4915 670.1751,-798.2874 653,-720 651.0479,-711.102 647.8489,-701.7416 644.5295,-693.3595"/>
<polygon fill="#000000" stroke="#000000" points="647.7276,-691.935 640.645,-684.0554 641.268,-694.6319 647.7276,-691.935"/>
</g>
<!-- n_uverb -->
<g id="node18" class="node">
<title>n_uverb</title>
<ellipse fill="none" stroke="#000000" cx="1195" cy="-882" rx="42.8615" ry="18"/>
<text text-anchor="middle" x="1195" y="-877.8" font-family="Times,serif" font-size="14.00" fill="#000000">n_uverb</text>
</g>
<!-- t_subtlex_us_zipf&#45;&gt;n_uverb -->
<g id="edge20" class="edge">
<title>t_subtlex_us_zipf-&gt;n_uverb</title>
<path fill="none" stroke="#000000" d="M818.5975,-943.4535C907.0914,-929.0055 1064.1764,-903.359 1144.5582,-890.2354"/>
<polygon fill="#000000" stroke="#000000" points="1145.6028,-893.6113 1154.9081,-888.5456 1144.4748,-886.7027 1145.6028,-893.6113"/>
</g>
<!-- t_subtlex_us_zipf&#45;&gt;simp_noun_var -->
<g id="edge21" class="edge">
<title>t_subtlex_us_zipf-&gt;simp_noun_var</title>
<path fill="none" stroke="#000000" d="M756.0644,-935.7322C758.4669,-917.3052 763.1434,-888.1986 771,-864 805.8864,-756.5486 818.9256,-721.1715 905,-648 920.878,-634.5022 940.668,-622.893 958.3717,-613.9356"/>
<polygon fill="#000000" stroke="#000000" points="959.975,-617.0476 967.4076,-609.4973 956.8888,-610.7646 959.975,-617.0476"/>
</g>
<!-- n_det -->
<g id="node20" class="node">
<title>n_det</title>
<ellipse fill="none" stroke="#000000" cx="174" cy="-738" rx="32.4846" ry="18"/>
<text text-anchor="middle" x="174" y="-733.8" font-family="Times,serif" font-size="14.00" fill="#000000">n_det</text>
</g>
<!-- t_subtlex_us_zipf&#45;&gt;n_det -->
<g id="edge22" class="edge">
<title>t_subtlex_us_zipf-&gt;n_det</title>
<path fill="none" stroke="#000000" d="M675.3494,-950.8755C535.3072,-944.6131 254.1484,-928.6145 220,-900 180.6355,-867.0147 173.6344,-803.0217 173.117,-766.1048"/>
<polygon fill="#000000" stroke="#000000" points="176.617,-766.0237 173.1284,-756.0197 169.617,-766.0157 176.617,-766.0237"/>
</g>
<!-- t_subtlex_us_zipf&#45;&gt;bilog_ttr -->
<g id="edge23" class="edge">
<title>t_subtlex_us_zipf-&gt;bilog_ttr</title>
<path fill="none" stroke="#000000" d="M833.6736,-953.092C1136.1614,-949.3944 2199.6509,-934.0203 2263,-900 2344.2029,-856.3917 2386.6752,-809.8228 2366,-720 2358.0188,-685.3261 2357.1685,-672.1078 2331,-648 2306.3881,-625.3262 2271.1929,-611.7824 2242.3766,-603.9292"/>
<polygon fill="#000000" stroke="#000000" points="2243.0345,-600.4845 2232.4778,-601.3831 2241.2907,-607.2639 2243.0345,-600.4845"/>
</g>
<!-- a_n_ent_ordinal_pw&#45;&gt;n_upunct -->
<g id="edge48" class="edge">
<title>a_n_ent_ordinal_pw-&gt;n_upunct</title>
<path fill="none" stroke="#000000" d="M550.5834,-581.9703C708.0392,-553.9436 1096.694,-484.764 1238.8331,-459.4636"/>
<polygon fill="#000000" stroke="#000000" points="1239.8017,-462.8463 1249.0336,-457.6479 1238.5749,-455.9546 1239.8017,-462.8463"/>
</g>
<!-- a_n_ent_ordinal_pw&#45;&gt;t_uword -->
<g id="edge49" class="edge">
<title>a_n_ent_ordinal_pw-&gt;t_uword</title>
<path fill="none" stroke="#000000" d="M488.7596,-575.8698C500.794,-541.2737 532.1374,-466.2412 587,-432 621.2755,-410.6078 883.353,-389.7987 997.8059,-381.6276"/>
<polygon fill="#000000" stroke="#000000" points="998.3544,-385.0976 1008.082,-380.8997 997.8597,-378.1151 998.3544,-385.0976"/>
</g>
<!-- t_stopword&#45;&gt;n_adp -->
<g id="edge56" class="edge">
<title>t_stopword-&gt;n_adp</title>
<path fill="none" stroke="#000000" d="M1005.495,-799.5306C1064.4465,-785.6597 1167.6761,-761.3703 1225.2266,-747.829"/>
<polygon fill="#000000" stroke="#000000" points="1226.1468,-751.2082 1235.0793,-745.5107 1224.5435,-744.3943 1226.1468,-751.2082"/>
</g>
<!-- t_stopword&#45;&gt;n_upunct -->
<g id="edge57" class="edge">
<title>t_stopword-&gt;n_upunct</title>
<path fill="none" stroke="#000000" d="M939.4249,-793.4158C928.5852,-783.7722 916.419,-770.6451 910,-756 877.7882,-682.5077 865.8787,-631.3229 924,-576 979.9407,-522.7527 1020.6327,-564.1223 1094,-540 1098.0585,-538.6656 1195.3859,-494.2144 1252.0448,-468.2928"/>
<polygon fill="#000000" stroke="#000000" points="1253.807,-471.3355 1261.4439,-463.9919 1250.8943,-464.9702 1253.807,-471.3355"/>
</g>
<!-- t_stopword&#45;&gt;t_bry -->
<g id="edge58" class="edge">
<title>t_stopword-&gt;t_bry</title>
<path fill="none" stroke="#000000" d="M960.62,-791.7623C960.1084,-767.201 959.1927,-723.2474 958.5907,-694.3541"/>
<polygon fill="#000000" stroke="#000000" points="962.0845,-694.0145 958.3769,-684.0896 955.086,-694.1604 962.0845,-694.0145"/>
</g>
<!-- t_stopword&#45;&gt;t_uword -->
<g id="edge60" class="edge">
<title>t_stopword-&gt;t_uword</title>
<path fill="none" stroke="#000000" d="M906.6521,-808.2509C727.0433,-802.2382 162.2624,-781.383 133,-756 77.4258,-707.7936 99,-667.5686 99,-594 99,-594 99,-594 99,-522 99,-456.3951 154.6038,-455.1194 216,-432 288.8587,-404.5643 825.21,-385.2115 997.7203,-379.6429"/>
<polygon fill="#000000" stroke="#000000" points="997.9473,-383.1376 1007.8301,-379.319 997.7231,-376.1412 997.9473,-383.1376"/>
</g>
<!-- t_stopword&#45;&gt;a_n_ent_pw -->
<g id="edge59" class="edge">
<title>t_stopword-&gt;a_n_ent_pw</title>
<path fill="none" stroke="#000000" d="M998.3328,-796.758C1027.3622,-786.2559 1068.5277,-770.9124 1104,-756 1174.0224,-726.5629 1192.574,-720.841 1259,-684 1296.6934,-663.0946 1337.8276,-635.6161 1365.2912,-616.5464"/>
<polygon fill="#000000" stroke="#000000" points="1367.5116,-619.2649 1373.7059,-610.6695 1363.5034,-613.526 1367.5116,-619.2649"/>
</g>
<!-- t_stopword&#45;&gt;simp_noun_var -->
<g id="edge61" class="edge">
<title>t_stopword-&gt;simp_noun_var</title>
<path fill="none" stroke="#000000" d="M948.2374,-792.4092C927.5086,-761.4929 891.3894,-696.1304 918,-648 926.1238,-633.3065 940.1049,-622.0722 954.4612,-613.7567"/>
<polygon fill="#000000" stroke="#000000" points="956.2489,-616.7694 963.3995,-608.9515 952.9343,-610.6039 956.2489,-616.7694"/>
</g>
<!-- t_stopword&#45;&gt;bilog_ttr -->
<g id="edge62" class="edge">
<title>t_stopword-&gt;bilog_ttr</title>
<path fill="none" stroke="#000000" d="M1013.1274,-804.5673C1229.168,-781.9893 2044.0852,-696.1808 2068,-684 2087.3408,-674.1489 2084.1528,-661.6852 2101,-648 2117.3624,-634.7086 2137.34,-622.483 2154.4042,-613.0383"/>
<polygon fill="#000000" stroke="#000000" points="2156.4172,-615.9285 2163.5432,-608.0882 2153.0832,-609.7734 2156.4172,-615.9285"/>
</g>
<!-- simp_ttr_no_lem&#45;&gt;BTopc10_S -->
<g id="edge72" class="edge">
<title>simp_ttr_no_lem-&gt;BTopc10_S</title>
<path fill="none" stroke="#000000" d="M2227.8051,-879.8436C2474.5408,-871.9085 3231,-839.3185 3231,-738 3231,-738 3231,-738 3231,-594 3231,-551.6562 3212.4068,-505.6118 3198.6094,-477.273"/>
<polygon fill="#000000" stroke="#000000" points="3201.5809,-475.3907 3193.9675,-468.0228 3195.3245,-478.5304 3201.5809,-475.3907"/>
</g>
<!-- simp_ttr_no_lem&#45;&gt;BClar05_S -->
<g id="edge73" class="edge">
<title>simp_ttr_no_lem-&gt;BClar05_S</title>
<path fill="none" stroke="#000000" d="M2225.8578,-877.5777C2438.1827,-864.043 3029,-819.0952 3029,-738 3029,-738 3029,-738 3029,-666 3029,-625.8412 3031.3583,-579.4372 3033.1179,-550.4031"/>
<polygon fill="#000000" stroke="#000000" points="3036.6264,-550.3741 3033.7568,-540.1753 3029.6401,-549.9376 3036.6264,-550.3741"/>
</g>
<!-- simp_ttr_no_lem&#45;&gt;n_adp -->
<g id="edge63" class="edge">
<title>simp_ttr_no_lem-&gt;n_adp</title>
<path fill="none" stroke="#000000" d="M2074.5839,-879.5936C1889.9516,-873.3748 1430.0421,-855.3221 1366,-828 1357.0064,-824.1631 1317.0152,-786.4387 1290.6933,-761.0643"/>
<polygon fill="#000000" stroke="#000000" points="1292.963,-758.3903 1283.3409,-753.9555 1288.0972,-763.4227 1292.963,-758.3903"/>
</g>
<!-- simp_ttr_no_lem&#45;&gt;n_upunct -->
<g id="edge64" class="edge">
<title>simp_ttr_no_lem-&gt;n_upunct</title>
<path fill="none" stroke="#000000" d="M2159.1113,-863.8106C2176.6729,-825.2875 2218.819,-737.5597 2246,-720 2374.2822,-637.1259 2669.818,-772.9498 2582,-648 2554.8383,-609.3535 2525.6334,-630.0951 2482,-612 2378.0551,-568.8934 2362.0747,-531.6664 2253,-504 2209.0442,-492.8508 1548.5045,-461.7757 1348.7787,-452.5893"/>
<polygon fill="#000000" stroke="#000000" points="1348.9346,-449.0928 1338.7844,-452.1302 1348.6133,-456.0855 1348.9346,-449.0928"/>
</g>
<!-- simp_ttr_no_lem&#45;&gt;t_bry -->
<g id="edge65" class="edge">
<title>simp_ttr_no_lem-&gt;t_bry</title>
<path fill="none" stroke="#000000" d="M2074.0285,-880.4626C1896.4287,-876.355 1462.4081,-862.9593 1321,-828 1191.0037,-795.862 1049.5252,-719.3722 988.655,-684.2284"/>
<polygon fill="#000000" stroke="#000000" points="990.3345,-681.1563 979.9305,-679.1546 986.8154,-687.2075 990.3345,-681.1563"/>
</g>
<!-- simp_ttr_no_lem&#45;&gt;t_syll3 -->
<g id="edge66" class="edge">
<title>simp_ttr_no_lem-&gt;t_syll3</title>
<path fill="none" stroke="#000000" d="M2122.43,-865.2257C2054.8578,-825.67 1888.788,-729.1882 1861,-720 1743.13,-681.0256 1704.2528,-714.8483 1584,-684 1581.1965,-683.2808 1578.3326,-682.4384 1575.4731,-681.5178"/>
<polygon fill="#000000" stroke="#000000" points="1576.4564,-678.1537 1565.8615,-678.1516 1574.1426,-684.7603 1576.4564,-678.1537"/>
</g>
<!-- simp_ttr_no_lem&#45;&gt;t_stopword -->
<g id="edge70" class="edge">
<title>simp_ttr_no_lem-&gt;t_stopword</title>
<path fill="none" stroke="#000000" d="M2073.8648,-881.2895C1895.8999,-878.967 1443.0243,-869.1462 1067,-828 1051.0938,-826.2595 1033.9546,-823.6663 1018.1917,-820.9867"/>
<polygon fill="#000000" stroke="#000000" points="1018.5111,-817.4897 1008.0587,-819.2214 1017.3096,-824.3858 1018.5111,-817.4897"/>
</g>
<!-- simp_ttr_no_lem&#45;&gt;a_adj_pw -->
<g id="edge75" class="edge">
<title>simp_ttr_no_lem-&gt;a_adj_pw</title>
<path fill="none" stroke="#000000" d="M2074.274,-879.7728C1880.0231,-873.7876 1372.4247,-855.8964 1206,-828 1004.0542,-794.1494 771.5922,-715.9294 676.2619,-682.0867"/>
<polygon fill="#000000" stroke="#000000" points="677.2582,-678.7262 666.6635,-678.6643 674.9072,-685.3196 677.2582,-678.7262"/>
</g>
<!-- simp_ttr_no_lem&#45;&gt;bilog_ttr -->
<g id="edge77" class="edge">
<title>simp_ttr_no_lem-&gt;bilog_ttr</title>
<path fill="none" stroke="#000000" d="M2200.2792,-868.079C2249.7985,-850.9872 2322.5944,-816.5341 2350,-756 2379.2554,-691.3798 2288.6487,-637.3271 2232.7026,-611.08"/>
<polygon fill="#000000" stroke="#000000" points="2233.9203,-607.7881 2223.3709,-606.8072 2231.006,-614.1527 2233.9203,-607.7881"/>
</g>
<!-- WTopc15_S -->
<g id="node22" class="node">
<title>WTopc15_S</title>
<ellipse fill="none" stroke="#000000" cx="2473" cy="-522" rx="59.6974" ry="18"/>
<text text-anchor="middle" x="2473" y="-517.8" font-family="Times,serif" font-size="14.00" fill="#000000">WTopc15_S</text>
</g>
<!-- simp_ttr_no_lem&#45;&gt;WTopc15_S -->
<g id="edge67" class="edge">
<title>simp_ttr_no_lem-&gt;WTopc15_S</title>
<path fill="none" stroke="#000000" d="M2221.0042,-874.4747C2394.2321,-854.9122 2829,-799.6711 2829,-738 2829,-738 2829,-738 2829,-666 2829,-603.0913 2635.542,-554.6789 2533.8493,-533.5762"/>
<polygon fill="#000000" stroke="#000000" points="2534.5052,-530.1379 2524.0061,-531.5594 2533.1,-536.9955 2534.5052,-530.1379"/>
</g>
<!-- corr_det_var -->
<g id="node24" class="node">
<title>corr_det_var</title>
<ellipse fill="none" stroke="#000000" cx="1803" cy="-666" rx="60.2344" ry="18"/>
<text text-anchor="middle" x="1803" y="-661.8" font-family="Times,serif" font-size="14.00" fill="#000000">corr_det_var</text>
</g>
<!-- simp_ttr_no_lem&#45;&gt;corr_det_var -->
<g id="edge68" class="edge">
<title>simp_ttr_no_lem-&gt;corr_det_var</title>
<path fill="none" stroke="#000000" d="M2133.7522,-864.2748C2096.847,-826.6653 2010.685,-740.6268 1975,-720 1954.9939,-708.436 1900.842,-692.2463 1858.5912,-680.6146"/>
<polygon fill="#000000" stroke="#000000" points="1859.2516,-677.1668 1848.6829,-677.9097 1857.4081,-683.9197 1859.2516,-677.1668"/>
</g>
<!-- a_cconj_pw -->
<g id="node27" class="node">
<title>a_cconj_pw</title>
<ellipse fill="none" stroke="#000000" cx="2515" cy="-666" rx="57.8887" ry="18"/>
<text text-anchor="middle" x="2515" y="-661.8" font-family="Times,serif" font-size="14.00" fill="#000000">a_cconj_pw</text>
</g>
<!-- simp_ttr_no_lem&#45;&gt;a_cconj_pw -->
<g id="edge69" class="edge">
<title>simp_ttr_no_lem-&gt;a_cconj_pw</title>
<path fill="none" stroke="#000000" d="M2152.3067,-863.8628C2155.7834,-829.9308 2168.3316,-756.9497 2213,-720 2247.9567,-691.0838 2370.1175,-676.7399 2447.946,-670.3787"/>
<polygon fill="#000000" stroke="#000000" points="2448.4571,-673.8492 2458.1491,-669.5695 2447.9036,-666.8711 2448.4571,-673.8492"/>
</g>
<!-- BClar20_S -->
<g id="node28" class="node">
<title>BClar20_S</title>
<ellipse fill="none" stroke="#000000" cx="2644" cy="-738" rx="53.9117" ry="18"/>
<text text-anchor="middle" x="2644" y="-733.8" font-family="Times,serif" font-size="14.00" fill="#000000">BClar20_S</text>
</g>
<!-- simp_ttr_no_lem&#45;&gt;BClar20_S -->
<g id="edge71" class="edge">
<title>simp_ttr_no_lem-&gt;BClar20_S</title>
<path fill="none" stroke="#000000" d="M2199.1685,-867.9305C2292.7713,-840.5901 2498.3796,-780.5341 2593.6746,-752.6995"/>
<polygon fill="#000000" stroke="#000000" points="2594.75,-756.0317 2603.3676,-749.8683 2592.7873,-749.3125 2594.75,-756.0317"/>
</g>
<!-- bilog_ttr_no_lem -->
<g id="node29" class="node">
<title>bilog_ttr_no_lem</title>
<ellipse fill="none" stroke="#000000" cx="2127" cy="-522" rx="78.1926" ry="18"/>
<text text-anchor="middle" x="2127" y="-517.8" font-family="Times,serif" font-size="14.00" fill="#000000">bilog_ttr_no_lem</text>
</g>
<!-- simp_ttr_no_lem&#45;&gt;bilog_ttr_no_lem -->
<g id="edge74" class="edge">
<title>simp_ttr_no_lem-&gt;bilog_ttr_no_lem</title>
<path fill="none" stroke="#000000" d="M2141.4298,-864.0839C2130.8861,-845.1624 2112.7812,-814.9512 2093,-792 2061.3368,-755.2626 2052.8095,-744.5798 2011,-720 1969.9184,-695.8481 1937.4639,-722.9454 1910,-684 1861.6714,-615.4672 1986.0385,-563.7892 2065.9081,-538.7495"/>
<polygon fill="#000000" stroke="#000000" points="2067.3624,-541.9643 2075.8949,-535.6836 2065.3081,-535.2725 2067.3624,-541.9643"/>
</g>
<!-- simp_ttr -->
<g id="node30" class="node">
<title>simp_ttr</title>
<ellipse fill="none" stroke="#000000" cx="2298" cy="-738" rx="43.4551" ry="18"/>
<text text-anchor="middle" x="2298" y="-733.8" font-family="Times,serif" font-size="14.00" fill="#000000">simp_ttr</text>
</g>
<!-- simp_ttr_no_lem&#45;&gt;simp_ttr -->
<g id="edge76" class="edge">
<title>simp_ttr_no_lem-&gt;simp_ttr</title>
<path fill="none" stroke="#000000" d="M2186.086,-865.8667C2203.9062,-856.5203 2225.092,-843.5284 2241,-828 2259.6815,-809.7643 2275.0908,-784.2767 2285.1569,-765.0781"/>
<polygon fill="#000000" stroke="#000000" points="2288.3845,-766.4522 2289.7913,-755.9512 2282.143,-763.2829 2288.3845,-766.4522"/>
</g>
<!-- sta_codeBleu -->
<g id="node31" class="node">
<title>sta_codeBleu</title>
<ellipse fill="none" stroke="#000000" cx="3288" cy="-90" rx="63.1209" ry="18"/>
<text text-anchor="middle" x="3288" y="-85.8" font-family="Times,serif" font-size="14.00" fill="#000000">sta_codeBleu</text>
</g>
<!-- simp_ttr_no_lem&#45;&gt;sta_codeBleu -->
<g id="edge78" class="edge">
<title>simp_ttr_no_lem-&gt;sta_codeBleu</title>
<path fill="none" stroke="#000000" d="M2227.954,-880.5207C2385.9141,-876.8127 2757.9793,-864.6252 3068,-828 3294.4065,-801.2528 3573,-965.9809 3573,-738 3573,-738 3573,-738 3573,-306 3573,-192.5328 3427.7405,-130.9873 3344.6289,-105.0598"/>
<polygon fill="#000000" stroke="#000000" points="3345.6479,-101.7115 3335.062,-102.1466 3343.6087,-108.4079 3345.6479,-101.7115"/>
</g>
<!-- a_adj_pw&#45;&gt;n_upunct -->
<g id="edge112" class="edge">
<title>a_adj_pw-&gt;n_upunct</title>
<path fill="none" stroke="#000000" d="M657.3803,-650.6103C691.8401,-630.4061 755.922,-595.2531 815,-576 903.3688,-547.2012 930.8738,-562.7086 1021,-540 1103.1397,-519.3037 1196.3573,-486.1414 1249.2735,-466.3736"/>
<polygon fill="#000000" stroke="#000000" points="1250.5417,-469.6361 1258.6733,-462.8444 1248.0812,-463.0828 1250.5417,-469.6361"/>
</g>
<!-- a_adj_pw&#45;&gt;t_uword -->
<g id="edge113" class="edge">
<title>a_adj_pw-&gt;t_uword</title>
<path fill="none" stroke="#000000" d="M632.0137,-647.9542C633.104,-603.5544 642.5378,-488.5221 709,-432 751.5286,-395.8319 912.3993,-383.7203 997.4842,-379.7966"/>
<polygon fill="#000000" stroke="#000000" points="997.8842,-383.2825 1007.721,-379.3472 997.5771,-376.2893 997.8842,-383.2825"/>
</g>
<!-- a_adj_pw&#45;&gt;simp_noun_var -->
<g id="edge114" class="edge">
<title>a_adj_pw-&gt;simp_noun_var</title>
<path fill="none" stroke="#000000" d="M675.4012,-657.5998C739.8747,-645.121 861.4767,-621.5852 937.3056,-606.9086"/>
<polygon fill="#000000" stroke="#000000" points="938.0805,-610.3236 947.2332,-604.9871 936.7503,-603.4512 938.0805,-610.3236"/>
</g>
<!-- n_uverb&#45;&gt;n_adp -->
<g id="edge116" class="edge">
<title>n_uverb-&gt;n_adp</title>
<path fill="none" stroke="#000000" d="M1203.8286,-864.3428C1216.2439,-839.5122 1238.967,-794.066 1253.5082,-764.9836"/>
<polygon fill="#000000" stroke="#000000" points="1256.7575,-766.3112 1258.0992,-755.8017 1250.4965,-763.1807 1256.7575,-766.3112"/>
</g>
<!-- n_uverb&#45;&gt;n_upunct -->
<g id="edge117" class="edge">
<title>n_uverb-&gt;n_upunct</title>
<path fill="none" stroke="#000000" d="M1197.6455,-863.9313C1202.1477,-833.9093 1211.8982,-771.9144 1223,-720 1242.0874,-630.743 1270.515,-526.4078 1284.1503,-477.692"/>
<polygon fill="#000000" stroke="#000000" points="1287.5676,-478.4687 1286.9034,-467.8947 1280.8286,-476.575 1287.5676,-478.4687"/>
</g>
<!-- n_uverb&#45;&gt;t_bry -->
<g id="edge118" class="edge">
<title>n_uverb-&gt;t_bry</title>
<path fill="none" stroke="#000000" d="M1167.3123,-868.0296C1148.8086,-858.0745 1124.3972,-843.7142 1105,-828 1052.7682,-785.6855 1002.4909,-724.4411 976.4345,-690.6715"/>
<polygon fill="#000000" stroke="#000000" points="979.1992,-688.5251 970.3453,-682.7062 973.638,-692.7764 979.1992,-688.5251"/>
</g>
<!-- n_uverb&#45;&gt;t_stopword -->
<g id="edge120" class="edge">
<title>n_uverb-&gt;t_stopword</title>
<path fill="none" stroke="#000000" d="M1160.4725,-871.3762C1120.9134,-859.2041 1055.7612,-839.1573 1010.7359,-825.3034"/>
<polygon fill="#000000" stroke="#000000" points="1011.7549,-821.955 1001.1678,-822.3593 1009.6963,-828.6455 1011.7549,-821.955"/>
</g>
<!-- n_uverb&#45;&gt;a_n_ent_pw -->
<g id="edge121" class="edge">
<title>n_uverb-&gt;a_n_ent_pw</title>
<path fill="none" stroke="#000000" d="M1237.6824,-880.705C1311.9508,-877.4549 1460.0988,-866.2244 1492,-828 1545.9115,-763.4025 1465.6176,-664.1642 1422.0267,-618.5165"/>
<polygon fill="#000000" stroke="#000000" points="1424.3436,-615.8787 1414.8629,-611.1493 1419.3251,-620.7587 1424.3436,-615.8787"/>
</g>
<!-- n_uverb&#45;&gt;simp_noun_var -->
<g id="edge122" class="edge">
<title>n_uverb-&gt;simp_noun_var</title>
<path fill="none" stroke="#000000" d="M1183.3396,-864.4178C1151.0496,-815.7292 1060.3107,-678.9082 1021.7236,-620.7246"/>
<polygon fill="#000000" stroke="#000000" points="1024.4392,-618.4867 1015.9954,-612.0873 1018.6055,-622.3556 1024.4392,-618.4867"/>
</g>
<!-- n_uverb&#45;&gt;bilog_ttr -->
<g id="edge123" class="edge">
<title>n_uverb-&gt;bilog_ttr</title>
<path fill="none" stroke="#000000" d="M1237.6781,-880.469C1385.8347,-874.9381 1872.4271,-854.8905 1937,-828 1970.7337,-813.9521 2028.4717,-736.65 2061,-720 2123.5693,-687.9731 2171.3193,-739.0694 2215,-684 2229.4486,-665.7843 2220.3292,-639.5422 2209.6045,-620.0908"/>
<polygon fill="#000000" stroke="#000000" points="2212.5788,-618.2445 2204.4755,-611.4191 2206.5538,-621.8081 2212.5788,-618.2445"/>
</g>
<!-- n_uverb&#45;&gt;WTopc15_S -->
<g id="edge119" class="edge">
<title>n_uverb-&gt;WTopc15_S</title>
<path fill="none" stroke="#000000" d="M1237.7375,-881.4734C1379.5512,-879.3465 1833.4606,-869.3915 1973,-828 2075.7765,-797.5134 2348.0114,-609.9709 2441.1923,-544.5147"/>
<polygon fill="#000000" stroke="#000000" points="2443.221,-547.3669 2449.3851,-538.7498 2439.1927,-541.6421 2443.221,-547.3669"/>
</g>
<!-- simp_noun_var&#45;&gt;simp_det_var -->
<g id="edge129" class="edge">
<title>simp_noun_var-&gt;simp_det_var</title>
<path fill="none" stroke="#000000" d="M1005.2418,-575.7768C1007.4662,-556.0324 1013.6743,-524.5989 1031,-504 1054.0291,-476.6201 1072.5662,-486.8091 1103,-468 1125.684,-453.9805 1125.9176,-441.0545 1151,-432 1246.1479,-397.6524 1939.4731,-383.0804 2169.826,-379.1525"/>
<polygon fill="#000000" stroke="#000000" points="2170.1757,-382.6472 2180.1152,-378.979 2170.0575,-375.6482 2170.1757,-382.6472"/>
</g>
<!-- simp_noun_var&#45;&gt;t_uword -->
<g id="edge130" class="edge">
<title>simp_noun_var-&gt;t_uword</title>
<path fill="none" stroke="#000000" d="M958.897,-579.9366C884.9372,-554.5836 751.1128,-497.6987 804,-432 827.9063,-402.3025 933.0936,-388.0444 998.2496,-381.9464"/>
<polygon fill="#000000" stroke="#000000" points="998.699,-385.4202 1008.3445,-381.0366 998.0707,-378.4484 998.699,-385.4202"/>
</g>
<!-- n_det&#45;&gt;simp_det_var -->
<g id="edge150" class="edge">
<title>n_det-&gt;simp_det_var</title>
<path fill="none" stroke="#000000" d="M184.0749,-720.6702C203.5748,-688.4122 249.3996,-618.5743 304,-576 364.5373,-528.7965 386.6455,-523.0881 461,-504 567.8266,-476.5758 856.724,-516.0445 956,-468 975.5374,-458.5449 969.3248,-441.165 989,-432 1042.6781,-406.9961 1908.8595,-385.5453 2170.0338,-379.6205"/>
<polygon fill="#000000" stroke="#000000" points="2170.2558,-383.1165 2180.1741,-379.3914 2170.0976,-376.1183 2170.2558,-383.1165"/>
</g>
<!-- n_det&#45;&gt;n_upunct -->
<g id="edge151" class="edge">
<title>n_det-&gt;n_upunct</title>
<path fill="none" stroke="#000000" d="M190.2933,-722.1227C230.3825,-683.1984 331.9388,-585.4992 351,-576 508.2846,-497.6167 1056.4216,-462.3925 1235.1637,-452.8116"/>
<polygon fill="#000000" stroke="#000000" points="1235.3493,-456.3067 1245.15,-452.2824 1234.9788,-449.3165 1235.3493,-456.3067"/>
</g>
<!-- n_det&#45;&gt;t_bry -->
<g id="edge152" class="edge">
<title>n_det-&gt;t_bry</title>
<path fill="none" stroke="#000000" d="M203.439,-730.2049C218.215,-726.571 236.4491,-722.5054 253,-720 318.5031,-710.0844 774.8564,-678.4926 916.2999,-668.8331"/>
<polygon fill="#000000" stroke="#000000" points="916.9623,-672.2961 926.7009,-668.1235 916.4858,-665.3123 916.9623,-672.2961"/>
</g>
<!-- n_det&#45;&gt;t_uword -->
<g id="edge153" class="edge">
<title>n_det-&gt;t_uword</title>
<path fill="none" stroke="#000000" d="M172.0064,-719.8902C168.3231,-679.0757 163.7587,-577.7222 199,-504 218.5177,-463.1704 229.8134,-450.7526 271,-432 336.693,-402.0894 831.7,-384.6036 997.2539,-379.5446"/>
<polygon fill="#000000" stroke="#000000" points="997.7846,-383.0302 1007.6742,-379.2294 997.5729,-376.0334 997.7846,-383.0302"/>
</g>
<!-- n_det&#45;&gt;simp_noun_var -->
<g id="edge154" class="edge">
<title>n_det-&gt;simp_noun_var</title>
<path fill="none" stroke="#000000" d="M204.3812,-731.0525C219.0661,-727.7008 236.947,-723.6292 253,-720 395.6124,-687.7592 429.9658,-673.138 574,-648 696.9854,-626.5356 841.1918,-610.2098 927.4414,-601.3788"/>
<polygon fill="#000000" stroke="#000000" points="927.8142,-604.8591 937.4088,-600.3653 927.106,-597.895 927.8142,-604.8591"/>
</g>
<!-- bilog_ttr&#45;&gt;simp_det_var -->
<g id="edge155" class="edge">
<title>bilog_ttr-&gt;simp_det_var</title>
<path fill="none" stroke="#000000" d="M2199.9806,-576.2373C2204.4741,-565.8164 2209.9741,-552.3164 2214,-540 2224.2483,-508.6476 2225.8105,-500.3989 2232,-468 2235.9377,-447.3879 2239.0251,-423.8754 2241.0817,-406.0529"/>
<polygon fill="#000000" stroke="#000000" points="2244.57,-406.3516 2242.1997,-396.0254 2237.6131,-405.5759 2244.57,-406.3516"/>
</g>
<!-- bilog_ttr&#45;&gt;BTopc10_S -->
<g id="edge158" class="edge">
<title>bilog_ttr-&gt;BTopc10_S</title>
<path fill="none" stroke="#000000" d="M2233.4931,-587.6466C2299.0328,-577.6003 2430.5287,-557.3995 2542,-540 2643.3614,-524.1785 2668.4606,-518.6357 2770,-504 2803.9249,-499.1101 3013.7273,-471.9667 3120.989,-458.1237"/>
<polygon fill="#000000" stroke="#000000" points="3121.5699,-461.5779 3131.0397,-456.8268 3120.674,-454.6354 3121.5699,-461.5779"/>
</g>
<!-- bilog_ttr&#45;&gt;BClar05_S -->
<g id="edge159" class="edge">
<title>bilog_ttr-&gt;BClar05_S</title>
<path fill="none" stroke="#000000" d="M2236.4842,-592.373C2351.9607,-587.8011 2670.6306,-572.9619 2934,-540 2948.5748,-538.1759 2964.2407,-535.6591 2978.7821,-533.0851"/>
<polygon fill="#000000" stroke="#000000" points="2979.425,-536.5257 2988.6424,-531.3018 2978.1792,-529.6375 2979.425,-536.5257"/>
</g>
<!-- bilog_ttr&#45;&gt;n_upunct -->
<g id="edge156" class="edge">
<title>bilog_ttr-&gt;n_upunct</title>
<path fill="none" stroke="#000000" d="M2157.2136,-582.7566C2126.1584,-572.4562 2079.5993,-556.3639 2040,-540 2005.4575,-525.7258 2000.1071,-513.6548 1964,-504 1848.5883,-473.1398 1489.9233,-457.1591 1349.3478,-451.9509"/>
<polygon fill="#000000" stroke="#000000" points="1349.3323,-448.4481 1339.211,-451.5801 1349.0763,-455.4434 1349.3323,-448.4481"/>
</g>
<!-- bilog_ttr&#45;&gt;WTopc15_S -->
<g id="edge157" class="edge">
<title>bilog_ttr-&gt;WTopc15_S</title>
<path fill="none" stroke="#000000" d="M2229.6053,-584.3645C2277.8547,-572.0016 2361.9415,-550.4563 2417.5426,-536.2097"/>
<polygon fill="#000000" stroke="#000000" points="2418.4174,-539.5987 2427.2357,-533.7261 2416.6798,-532.8178 2418.4174,-539.5987"/>
</g>
<!-- bilog_ttr&#45;&gt;bilog_ttr_no_lem -->
<g id="edge160" class="edge">
<title>bilog_ttr-&gt;bilog_ttr_no_lem</title>
<path fill="none" stroke="#000000" d="M2176.5959,-576.937C2168.5978,-568.0775 2158.6685,-557.0789 2149.8,-547.2554"/>
<polygon fill="#000000" stroke="#000000" points="2152.2713,-544.7698 2142.9723,-539.6924 2147.0754,-549.4605 2152.2713,-544.7698"/>
</g>
<!-- WTopc15_S&#45;&gt;simp_det_var -->
<g id="edge36" class="edge">
<title>WTopc15_S-&gt;simp_det_var</title>
<path fill="none" stroke="#000000" d="M2447.1759,-505.7613C2405.9675,-479.8486 2325.2748,-429.1073 2278.9442,-399.9737"/>
<polygon fill="#000000" stroke="#000000" points="2280.7629,-396.9828 2270.4343,-394.6224 2277.0366,-402.9086 2280.7629,-396.9828"/>
</g>
<!-- WTopc15_S&#45;&gt;t_uword -->
<g id="edge37" class="edge">
<title>WTopc15_S-&gt;t_uword</title>
<path fill="none" stroke="#000000" d="M2427.803,-510.0009C2418.3353,-507.7708 2408.3787,-505.6327 2399,-504 2250.1666,-478.0901 2209.9661,-493.1358 2061,-468 1991.2632,-456.233 1975.9738,-442.2639 1906,-432 1750.0333,-409.1225 1266.1604,-387.1081 1104.3328,-380.2124"/>
<polygon fill="#000000" stroke="#000000" points="1104.2855,-376.7073 1094.1461,-379.7802 1103.9887,-383.701 1104.2855,-376.7073"/>
</g>
<!-- root_punct_var -->
<g id="node23" class="node">
<title>root_punct_var</title>
<ellipse fill="none" stroke="#000000" cx="1885" cy="-522" rx="70.0693" ry="18"/>
<text text-anchor="middle" x="1885" y="-517.8" font-family="Times,serif" font-size="14.00" fill="#000000">root_punct_var</text>
</g>
<!-- root_punct_var&#45;&gt;t_uword -->
<g id="edge38" class="edge">
<title>root_punct_var-&gt;t_uword</title>
<path fill="none" stroke="#000000" d="M1825.9985,-512.2465C1786.4805,-504.1224 1734.172,-490.2195 1692,-468 1669.9489,-456.3817 1672.0193,-441.5576 1649,-432 1551.2623,-391.4195 1232.3849,-381.2412 1104.6369,-378.7667"/>
<polygon fill="#000000" stroke="#000000" points="1104.3884,-375.2616 1094.3253,-378.5758 1104.2588,-382.2604 1104.3884,-375.2616"/>
</g>
<!-- corr_det_var&#45;&gt;simp_det_var -->
<g id="edge39" class="edge">
<title>corr_det_var-&gt;simp_det_var</title>
<path fill="none" stroke="#000000" d="M1818.9593,-648.5679C1837.2599,-629.2357 1868.776,-597.8927 1900,-576 1928.6448,-555.9157 2008.2543,-518.7007 2040,-504 2077.9725,-486.4158 2090.7688,-488.9383 2127,-468 2160.1462,-448.8445 2194.449,-421.3982 2217.2715,-401.86"/>
<polygon fill="#000000" stroke="#000000" points="2219.5739,-404.4962 2224.8447,-395.3054 2214.9929,-399.2033 2219.5739,-404.4962"/>
</g>
<!-- corr_det_var&#45;&gt;t_uword -->
<g id="edge41" class="edge">
<title>corr_det_var-&gt;t_uword</title>
<path fill="none" stroke="#000000" d="M1783.0529,-648.8837C1730.2218,-604.6008 1580.6526,-485.9664 1434,-432 1374.3813,-410.061 1193.6728,-391.0539 1103.4352,-382.6293"/>
<polygon fill="#000000" stroke="#000000" points="1103.6971,-379.1386 1093.4173,-381.7028 1103.0525,-386.1089 1103.6971,-379.1386"/>
</g>
<!-- corr_det_var&#45;&gt;bilog_ttr -->
<g id="edge42" class="edge">
<title>corr_det_var-&gt;bilog_ttr</title>
<path fill="none" stroke="#000000" d="M1854.6562,-656.439C1929.5646,-642.5742 2067.4729,-617.0487 2141.6443,-603.3203"/>
<polygon fill="#000000" stroke="#000000" points="2142.478,-606.7256 2151.674,-601.4639 2141.204,-599.8425 2142.478,-606.7256"/>
</g>
<!-- root_det_var -->
<g id="node25" class="node">
<title>root_det_var</title>
<ellipse fill="none" stroke="#000000" cx="1761" cy="-450" rx="60.2556" ry="18"/>
<text text-anchor="middle" x="1761" y="-445.8" font-family="Times,serif" font-size="14.00" fill="#000000">root_det_var</text>
</g>
<!-- corr_det_var&#45;&gt;root_det_var -->
<g id="edge40" class="edge">
<title>corr_det_var-&gt;root_det_var</title>
<path fill="none" stroke="#000000" d="M1790.3355,-647.8973C1783.967,-637.8089 1776.8094,-624.7413 1773,-612 1759.5001,-566.8466 1758.5116,-511.6131 1759.4527,-478.6997"/>
<polygon fill="#000000" stroke="#000000" points="1762.9601,-478.5624 1759.8306,-468.4403 1755.9648,-478.3047 1762.9601,-478.5624"/>
</g>
<!-- pass_rate -->
<g id="node26" class="node">
<title>pass_rate</title>
<ellipse fill="none" stroke="#000000" cx="3219" cy="-234" rx="46.9265" ry="18"/>
<text text-anchor="middle" x="3219" y="-229.8" font-family="Times,serif" font-size="14.00" fill="#000000">pass_rate</text>
</g>
<!-- corr_det_var&#45;&gt;pass_rate -->
<g id="edge43" class="edge">
<title>corr_det_var-&gt;pass_rate</title>
<path fill="none" stroke="#000000" d="M1797.4184,-648.004C1788.6332,-615.8756 1775.5238,-547.9061 1806,-504 1905.4404,-360.7392 2000.4532,-396.412 2171,-360 2345.2525,-322.7968 2810.5557,-399.3906 2972,-324 2991.6665,-314.8162 2986.2724,-298.9721 3005,-288 3065.2742,-252.6868 3090.4732,-269.8924 3158,-252 3162.6263,-250.7742 3167.4346,-249.4475 3172.2308,-248.0892"/>
<polygon fill="#000000" stroke="#000000" points="3173.3542,-251.408 3181.9962,-245.2789 3171.4182,-244.681 3173.3542,-251.408"/>
</g>
<!-- root_det_var&#45;&gt;simp_det_var -->
<g id="edge109" class="edge">
<title>root_det_var-&gt;simp_det_var</title>
<path fill="none" stroke="#000000" d="M1815.4674,-441.8806C1904.584,-428.5962 2081.2514,-402.2607 2177.5789,-387.9013"/>
<polygon fill="#000000" stroke="#000000" points="2178.1218,-391.3591 2187.4965,-386.4229 2177.0897,-384.4356 2178.1218,-391.3591"/>
</g>
<!-- root_det_var&#45;&gt;t_uword -->
<g id="edge110" class="edge">
<title>root_det_var-&gt;t_uword</title>
<path fill="none" stroke="#000000" d="M1715.8293,-437.8452C1706.3597,-435.6264 1696.3956,-433.5322 1687,-432 1472.9782,-397.0975 1214.5311,-384.0013 1104.6324,-379.7678"/>
<polygon fill="#000000" stroke="#000000" points="1104.5918,-376.2638 1094.4673,-379.3853 1104.3286,-383.2589 1104.5918,-376.2638"/>
</g>
<!-- sim_Bleu -->
<g id="node36" class="node">
<title>sim_Bleu</title>
<ellipse fill="none" stroke="#000000" cx="3153" cy="-18" rx="48.1109" ry="18"/>
<text text-anchor="middle" x="3153" y="-13.8" font-family="Times,serif" font-size="14.00" fill="#000000">sim_Bleu</text>
</g>
<!-- pass_rate&#45;&gt;sim_Bleu -->
<g id="edge179" class="edge">
<title>pass_rate-&gt;sim_Bleu</title>
<path fill="none" stroke="#000000" d="M3178.1274,-224.962C3138.0054,-215.1637 3080.9868,-198.4366 3068,-180 3035.5213,-133.892 3088.9951,-73.8054 3124.8087,-41.3161"/>
<polygon fill="#000000" stroke="#000000" points="3127.4154,-43.6832 3132.5867,-34.4361 3122.7775,-38.4401 3127.4154,-43.6832"/>
</g>
<!-- a_cconj_pw&#45;&gt;simp_det_var -->
<g id="edge44" class="edge">
<title>a_cconj_pw-&gt;simp_det_var</title>
<path fill="none" stroke="#000000" d="M2541.3904,-649.9407C2554.0914,-640.6145 2568.0442,-627.6184 2575,-612 2594.5283,-568.152 2602.2427,-543.5201 2575,-504 2543.2775,-457.9812 2389.6775,-413.7783 2303.3045,-392.0209"/>
<polygon fill="#000000" stroke="#000000" points="2303.9227,-388.5679 2293.3729,-389.5434 2302.2284,-395.3598 2303.9227,-388.5679"/>
</g>
<!-- a_cconj_pw&#45;&gt;n_upunct -->
<g id="edge45" class="edge">
<title>a_cconj_pw-&gt;n_upunct</title>
<path fill="none" stroke="#000000" d="M2470.789,-654.3526C2427.2971,-642.512 2364.276,-624.2188 2342,-612 2276.7394,-576.2034 2283.1326,-531.5866 2214,-504 2193.8257,-495.9496 1546.8817,-462.8216 1348.9606,-452.8516"/>
<polygon fill="#000000" stroke="#000000" points="1348.9374,-449.3461 1338.7741,-452.339 1348.5855,-456.3373 1348.9374,-449.3461"/>
</g>
<!-- a_cconj_pw&#45;&gt;t_uword -->
<g id="edge46" class="edge">
<title>a_cconj_pw-&gt;t_uword</title>
<path fill="none" stroke="#000000" d="M2526.1224,-648.2837C2545.2223,-615.3816 2578.8196,-544.5132 2542,-504 2513.7732,-472.9415 2207.4807,-474.3824 2166,-468 2090.0969,-456.3212 2073.1135,-442.2181 1997,-432 1822.344,-408.5527 1277.4385,-386.5295 1104.3438,-379.9695"/>
<polygon fill="#000000" stroke="#000000" points="1104.3323,-376.4667 1094.2074,-379.587 1104.0683,-383.4617 1104.3323,-376.4667"/>
</g>
<!-- a_cconj_pw&#45;&gt;simp_noun_var -->
<g id="edge47" class="edge">
<title>a_cconj_pw-&gt;simp_noun_var</title>
<path fill="none" stroke="#000000" d="M2457.6478,-663.5824C2286.3472,-656.3192 1763.4742,-633.8432 1330,-612 1246.0363,-607.769 1149.9391,-602.3987 1083.9505,-598.6294"/>
<polygon fill="#000000" stroke="#000000" points="1083.8083,-595.1157 1073.6247,-598.0387 1083.4084,-602.1042 1083.8083,-595.1157"/>
</g>
<!-- BClar20_S&#45;&gt;simp_det_var -->
<g id="edge80" class="edge">
<title>BClar20_S-&gt;simp_det_var</title>
<path fill="none" stroke="#000000" d="M2691.7026,-729.2648C2730.7828,-720.958 2786.8047,-706.3702 2832,-684 2892.0674,-654.2686 2953,-661.0228 2953,-594 2953,-594 2953,-594 2953,-522 2953,-482.0703 3041.7967,-505.5419 2801,-432 2712.4545,-404.9573 2447.0278,-388.2504 2317.1686,-381.4783"/>
<polygon fill="#000000" stroke="#000000" points="2317.0898,-377.9696 2306.9228,-380.9499 2316.7292,-384.9603 2317.0898,-377.9696"/>
</g>
<!-- BClar20_S&#45;&gt;BTopc10_S -->
<g id="edge85" class="edge">
<title>BClar20_S-&gt;BTopc10_S</title>
<path fill="none" stroke="#000000" d="M2696.8232,-733.8846C2819.5119,-723.0813 3117.6028,-689.2452 3174,-612 3202.6106,-572.8131 3197.2578,-513.0521 3190.6862,-478.1217"/>
<polygon fill="#000000" stroke="#000000" points="3194.0755,-477.2253 3188.6439,-468.1287 3187.2172,-478.6271 3194.0755,-477.2253"/>
</g>
<!-- BClar20_S&#45;&gt;BClar05_S -->
<g id="edge86" class="edge">
<title>BClar20_S-&gt;BClar05_S</title>
<path fill="none" stroke="#000000" d="M2697.5327,-735.2283C2778.2792,-730.0442 2926.1526,-716.3292 2967,-684 2972.6145,-679.5563 3006.5853,-594.4532 3024.2876,-549.4226"/>
<polygon fill="#000000" stroke="#000000" points="3027.6117,-550.5329 3028.0057,-539.9454 3021.0952,-547.9764 3027.6117,-550.5329"/>
</g>
<!-- BClar20_S&#45;&gt;n_upunct -->
<g id="edge81" class="edge">
<title>BClar20_S-&gt;n_upunct</title>
<path fill="none" stroke="#000000" d="M2655.317,-720.3402C2665.5244,-702.143 2677.8255,-672.9882 2670,-648 2644.4092,-566.2843 2621.0724,-536.8617 2542,-504 2454.709,-467.7227 1786.4391,-472.1248 1692,-468 1569.7055,-462.6586 1426.3915,-456.1487 1348.8401,-452.6051"/>
<polygon fill="#000000" stroke="#000000" points="1348.9494,-449.1066 1338.8,-452.1461 1348.6297,-456.0992 1348.9494,-449.1066"/>
</g>
<!-- BClar20_S&#45;&gt;t_bry -->
<g id="edge82" class="edge">
<title>BClar20_S-&gt;t_bry</title>
<path fill="none" stroke="#000000" d="M2590.9104,-734.3436C2532.0495,-730.3844 2434.2773,-724.0887 2350,-720 1903.5719,-698.3416 1791.5749,-702.3833 1345,-684 1219.2338,-678.8228 1070.5314,-671.5957 999.6364,-668.0825"/>
<polygon fill="#000000" stroke="#000000" points="999.5084,-664.5719 989.3471,-667.5716 999.1612,-671.5633 999.5084,-664.5719"/>
</g>
<!-- BClar20_S&#45;&gt;t_syll3 -->
<g id="edge83" class="edge">
<title>BClar20_S-&gt;t_syll3</title>
<path fill="none" stroke="#000000" d="M2590.9012,-734.5218C2532.0324,-730.7186 2434.2532,-724.5588 2350,-720 2179.8388,-710.7929 1750.6672,-719.5196 1584,-684 1580.9936,-683.3593 1577.9274,-682.5451 1574.8769,-681.6186"/>
<polygon fill="#000000" stroke="#000000" points="1575.8745,-678.2611 1565.2801,-678.3518 1573.6187,-684.8876 1575.8745,-678.2611"/>
</g>
<!-- BClar20_S&#45;&gt;simp_noun_var -->
<g id="edge87" class="edge">
<title>BClar20_S-&gt;simp_noun_var</title>
<path fill="none" stroke="#000000" d="M2590.9055,-734.4415C2532.0404,-730.5679 2434.2644,-724.3469 2350,-720 1968.838,-700.3372 1871.2709,-726.7165 1492,-684 1410.9759,-674.8744 1182.9731,-630.0393 1069.6417,-607.2912"/>
<polygon fill="#000000" stroke="#000000" points="1070.1944,-603.8324 1059.7008,-605.2935 1068.8152,-610.6952 1070.1944,-603.8324"/>
</g>
<!-- BClar20_S&#45;&gt;bilog_ttr -->
<g id="edge88" class="edge">
<title>BClar20_S-&gt;bilog_ttr</title>
<path fill="none" stroke="#000000" d="M2594.723,-730.4613C2553.7262,-722.8039 2494.7324,-708.5037 2448,-684 2425.9259,-672.4256 2427.3047,-659.1236 2405,-648 2341.7113,-616.4371 2318.2618,-630.4933 2250,-612 2245.6464,-610.8205 2241.1282,-609.5326 2236.6218,-608.2054"/>
<polygon fill="#000000" stroke="#000000" points="2237.4287,-604.7932 2226.8443,-605.264 2235.4121,-611.4965 2237.4287,-604.7932"/>
</g>
<!-- BClar20_S&#45;&gt;WTopc15_S -->
<g id="edge84" class="edge">
<title>BClar20_S-&gt;WTopc15_S</title>
<path fill="none" stroke="#000000" d="M2651.3802,-719.9856C2657.9396,-700.9821 2664.8204,-670.7029 2653,-648 2625.2641,-594.7289 2563.5582,-559.3235 2520.1586,-539.9584"/>
<polygon fill="#000000" stroke="#000000" points="2521.4887,-536.7203 2510.9216,-535.9539 2518.7044,-543.1427 2521.4887,-536.7203"/>
</g>
<!-- bilog_ttr_no_lem&#45;&gt;t_uword -->
<g id="edge111" class="edge">
<title>bilog_ttr_no_lem-&gt;t_uword</title>
<path fill="none" stroke="#000000" d="M2082.4475,-507.1501C2012.2917,-483.9968 1879.0165,-441.0067 1830,-432 1690.2098,-406.3137 1256.8026,-386.4778 1104.5466,-380.1409"/>
<polygon fill="#000000" stroke="#000000" points="1104.6398,-376.6419 1094.5037,-379.7256 1104.3505,-383.6359 1104.6398,-376.6419"/>
</g>
<!-- simp_ttr&#45;&gt;simp_det_var -->
<g id="edge142" class="edge">
<title>simp_ttr-&gt;simp_det_var</title>
<path fill="none" stroke="#000000" d="M2340.751,-735.2552C2437.812,-728.5887 2668.1988,-710.1484 2691,-684 2701.5155,-671.9408 2695.5624,-663.3357 2691,-648 2654.2054,-524.3213 2614.9706,-484.2801 2497,-432 2438.4874,-406.0694 2366.724,-392.275 2314.5918,-385.1404"/>
<polygon fill="#000000" stroke="#000000" points="2314.8087,-381.6388 2304.4368,-383.8006 2313.8931,-388.5786 2314.8087,-381.6388"/>
</g>
<!-- simp_ttr&#45;&gt;n_upunct -->
<g id="edge143" class="edge">
<title>simp_ttr-&gt;n_upunct</title>
<path fill="none" stroke="#000000" d="M2340.1122,-733.8385C2422.2576,-725.2955 2597.423,-704.8244 2615,-684 2625.3201,-671.7732 2623.3474,-661.6499 2615,-648 2587.5192,-603.0626 2447.9136,-569.0889 2404,-540 2383.2208,-526.2356 2384.2039,-513.1001 2361,-504 2349.1059,-499.3354 1568.1158,-462.8052 1348.7451,-452.6255"/>
<polygon fill="#000000" stroke="#000000" points="1348.8802,-449.1281 1338.7287,-452.1609 1348.5558,-456.1205 1348.8802,-449.1281"/>
</g>
<!-- simp_ttr&#45;&gt;t_bry -->
<g id="edge144" class="edge">
<title>simp_ttr-&gt;t_bry</title>
<path fill="none" stroke="#000000" d="M2254.8837,-736.6459C2103.6944,-731.7522 1583.5726,-713.6888 1155,-684 1101.0612,-680.2635 1038.9612,-674.3153 999.1365,-670.2888"/>
<polygon fill="#000000" stroke="#000000" points="999.3186,-666.7893 989.0155,-669.2583 998.6095,-673.7533 999.3186,-666.7893"/>
</g>
<!-- simp_ttr&#45;&gt;simp_adp_var -->
<g id="edge145" class="edge">
<title>simp_ttr-&gt;simp_adp_var</title>
<path fill="none" stroke="#000000" d="M2254.9271,-735.9383C2160.1941,-730.9536 1926.8281,-716.2075 1734,-684 1728.331,-683.0531 1722.4547,-681.9178 1716.5999,-680.6837"/>
<polygon fill="#000000" stroke="#000000" points="1717.3259,-677.2598 1706.8074,-678.5297 1715.822,-684.0964 1717.3259,-677.2598"/>
</g>
<!-- simp_ttr&#45;&gt;t_uword -->
<g id="edge147" class="edge">
<title>simp_ttr-&gt;t_uword</title>
<path fill="none" stroke="#000000" d="M2340.3826,-734.1965C2426.0447,-726.0801 2613.2712,-706 2632,-684 2678.4228,-629.4689 2669.9943,-583.3799 2563,-504 2520.747,-472.6522 2147.3375,-437.3657 2095,-432 1716.8686,-393.2337 1258.6841,-381.7551 1104.5207,-378.862"/>
<polygon fill="#000000" stroke="#000000" points="1104.4428,-375.3601 1094.3802,-378.676 1104.3143,-382.3589 1104.4428,-375.3601"/>
</g>
<!-- simp_ttr&#45;&gt;simp_noun_var -->
<g id="edge148" class="edge">
<title>simp_ttr-&gt;simp_noun_var</title>
<path fill="none" stroke="#000000" d="M2254.7103,-736.7065C2092.9355,-731.6927 1524.0143,-712.3979 1345,-684 1241.1769,-667.53 1123.2396,-632.6718 1056.8161,-611.4972"/>
<polygon fill="#000000" stroke="#000000" points="1057.594,-608.0711 1047.0028,-608.3487 1055.4555,-614.7364 1057.594,-608.0711"/>
</g>
<!-- simp_ttr&#45;&gt;bilog_ttr -->
<g id="edge149" class="edge">
<title>simp_ttr-&gt;bilog_ttr</title>
<path fill="none" stroke="#000000" d="M2291.3653,-719.9382C2283.845,-700.8952 2270.344,-670.5834 2253,-648 2244.0755,-636.3795 2232.385,-625.3212 2221.6284,-616.2729"/>
<polygon fill="#000000" stroke="#000000" points="2223.6095,-613.3724 2213.6461,-609.7695 2219.188,-618.7993 2223.6095,-613.3724"/>
</g>
<!-- simp_space_var -->
<g id="node32" class="node">
<title>simp_space_var</title>
<ellipse fill="none" stroke="#000000" cx="2852" cy="-522" rx="73.4959" ry="18"/>
<text text-anchor="middle" x="2852" y="-517.8" font-family="Times,serif" font-size="14.00" fill="#000000">simp_space_var</text>
</g>
<!-- simp_ttr&#45;&gt;simp_space_var -->
<g id="edge146" class="edge">
<title>simp_ttr-&gt;simp_space_var</title>
<path fill="none" stroke="#000000" d="M2340.7728,-734.7426C2459.7832,-725.5082 2787.2508,-698.8672 2805,-684 2844.4352,-650.968 2851.8808,-586.9924 2852.6702,-550.0911"/>
<polygon fill="#000000" stroke="#000000" points="2856.1706,-550.0323 2852.7338,-540.0104 2849.1707,-549.9881 2856.1706,-550.0323"/>
</g>
<!-- sta_codeBleu&#45;&gt;sim_Bleu -->
<g id="edge168" class="edge">
<title>sta_codeBleu-&gt;sim_Bleu</title>
<path fill="none" stroke="#000000" d="M3258.0391,-74.0209C3237.92,-63.2907 3211.277,-49.081 3189.8587,-37.658"/>
<polygon fill="#000000" stroke="#000000" points="3191.5042,-34.5689 3181.0336,-32.9512 3188.21,-40.7454 3191.5042,-34.5689"/>
</g>
<!-- simp_space_var&#45;&gt;simp_det_var -->
<g id="edge79" class="edge">
<title>simp_space_var-&gt;simp_det_var</title>
<path fill="none" stroke="#000000" d="M2840.6473,-504.1999C2826.0085,-482.9528 2798.4165,-448.258 2765,-432 2688.0494,-394.5614 2442.6418,-382.9845 2318.0658,-379.4785"/>
<polygon fill="#000000" stroke="#000000" points="2317.9435,-375.974 2307.8523,-379.2016 2317.7537,-382.9715 2317.9435,-375.974"/>
</g>
<!-- a_n_ent_ordinal_ps -->
<g id="node33" class="node">
<title>a_n_ent_ordinal_ps</title>
<ellipse fill="none" stroke="#000000" cx="557" cy="-738" rx="87.406" ry="18"/>
<text text-anchor="middle" x="557" y="-733.8" font-family="Times,serif" font-size="14.00" fill="#000000">a_n_ent_ordinal_ps</text>
</g>
<!-- a_n_ent_ordinal_ps&#45;&gt;simp_det_var -->
<g id="edge89" class="edge">
<title>a_n_ent_ordinal_ps-&gt;simp_det_var</title>
<path fill="none" stroke="#000000" d="M552.7762,-719.9676C549.2864,-701.2156 546.3127,-671.3871 556,-648 564.6591,-627.095 608.5696,-587.5956 628,-576 771.809,-490.1781 839.853,-544.1683 989,-468 1012.4335,-456.0327 1011.2752,-441.0016 1036,-432 1142.1693,-393.3469 1924.0633,-381.5158 2170.1006,-378.7302"/>
<polygon fill="#000000" stroke="#000000" points="2170.4069,-382.2271 2180.3672,-378.6157 2170.3288,-375.2275 2170.4069,-382.2271"/>
</g>
<!-- a_n_ent_ordinal_ps&#45;&gt;n_upunct -->
<g id="edge90" class="edge">
<title>a_n_ent_ordinal_ps-&gt;n_upunct</title>
<path fill="none" stroke="#000000" d="M555.8284,-719.8326C555.5188,-700.137 557.938,-668.7461 574,-648 597.0038,-618.2877 691.3471,-587.869 727,-576 802.3413,-550.9187 825.0293,-559.5166 902,-540 955.5611,-526.4191 967.3971,-517.4149 1021,-504 1095.9176,-485.2508 1183.7751,-468.7287 1238.674,-459.0466"/>
<polygon fill="#000000" stroke="#000000" points="1239.285,-462.493 1248.5308,-457.3194 1238.0767,-455.5981 1239.285,-462.493"/>
</g>
<!-- a_n_ent_ordinal_ps&#45;&gt;t_uword -->
<g id="edge94" class="edge">
<title>a_n_ent_ordinal_ps-&gt;t_uword</title>
<path fill="none" stroke="#000000" d="M491.399,-726.0428C423.4173,-709.4227 327,-672.0865 327,-594 327,-594 327,-594 327,-522 327,-417.1789 443.4097,-457.8238 545,-432 629.7954,-410.4454 886.2746,-389.9195 998.0156,-381.7332"/>
<polygon fill="#000000" stroke="#000000" points="998.3285,-385.2198 1008.0479,-381.0029 997.8202,-378.2382 998.3285,-385.2198"/>
</g>
<!-- a_n_ent_ordinal_ps&#45;&gt;a_n_ent_ordinal_pw -->
<g id="edge92" class="edge">
<title>a_n_ent_ordinal_ps-&gt;a_n_ent_ordinal_pw</title>
<path fill="none" stroke="#000000" d="M534.2278,-720.5197C523.2058,-710.8958 510.7198,-698.0629 503,-684 492.5694,-664.9988 487.5775,-640.9157 485.1892,-622.4444"/>
<polygon fill="#000000" stroke="#000000" points="488.6448,-621.8506 484.0623,-612.298 481.6876,-622.6233 488.6448,-621.8506"/>
</g>
<!-- a_n_ent_ordinal_ps&#45;&gt;a_n_ent_pw -->
<g id="edge93" class="edge">
<title>a_n_ent_ordinal_ps-&gt;a_n_ent_pw</title>
<path fill="none" stroke="#000000" d="M607.3599,-723.2019C676.715,-703.3389 805.8024,-668.2188 918,-648 1063.6696,-621.7493 1236.699,-605.9953 1329.7489,-598.7643"/>
<polygon fill="#000000" stroke="#000000" points="1330.1681,-602.2425 1339.8707,-597.9869 1329.632,-595.2631 1330.1681,-602.2425"/>
</g>
<!-- a_n_ent_ordinal_ps&#45;&gt;simp_noun_var -->
<g id="edge95" class="edge">
<title>a_n_ent_ordinal_ps-&gt;simp_noun_var</title>
<path fill="none" stroke="#000000" d="M597.2994,-722.0338C623.7452,-711.4589 659.0382,-697.1618 690,-684 726.2556,-668.5879 733.6416,-660.5039 771,-648 825.2934,-629.8279 888.6936,-615.5658 935.6404,-606.2735"/>
<polygon fill="#000000" stroke="#000000" points="936.5553,-609.661 945.6988,-604.3087 935.2132,-602.7909 936.5553,-609.661"/>
</g>
<!-- a_n_ent_ordinal_ps&#45;&gt;corr_det_var -->
<g id="edge91" class="edge">
<title>a_n_ent_ordinal_ps-&gt;corr_det_var</title>
<path fill="none" stroke="#000000" d="M643.8597,-736.3724C878.8972,-731.5918 1523.7942,-715.8802 1734,-684 1739.1466,-683.2195 1744.4639,-682.2097 1749.7571,-681.0672"/>
<polygon fill="#000000" stroke="#000000" points="1750.9012,-684.3951 1759.8553,-678.7316 1749.3237,-677.5751 1750.9012,-684.3951"/>
</g>
<!-- a_num_pw -->
<g id="node34" class="node">
<title>a_num_pw</title>
<ellipse fill="none" stroke="#000000" cx="1429" cy="-810" rx="53.8982" ry="18"/>
<text text-anchor="middle" x="1429" y="-805.8" font-family="Times,serif" font-size="14.00" fill="#000000">a_num_pw</text>
</g>
<!-- a_num_pw&#45;&gt;n_adp -->
<g id="edge96" class="edge">
<title>a_num_pw-&gt;n_adp</title>
<path fill="none" stroke="#000000" d="M1396.6062,-795.6028C1369.5145,-783.562 1330.9108,-766.4048 1302.8861,-753.9494"/>
<polygon fill="#000000" stroke="#000000" points="1304.0104,-750.619 1293.4508,-749.7559 1301.1674,-757.0157 1304.0104,-750.619"/>
</g>
<!-- a_num_pw&#45;&gt;n_upunct -->
<g id="edge97" class="edge">
<title>a_num_pw-&gt;n_upunct</title>
<path fill="none" stroke="#000000" d="M1418.3926,-792.3382C1398.4604,-758.4702 1355.1615,-681.5722 1330,-612 1313.5815,-566.6025 1302.4059,-511.4436 1296.6244,-478.6114"/>
<polygon fill="#000000" stroke="#000000" points="1300.0098,-477.6444 1294.8707,-468.3794 1293.1104,-478.8269 1300.0098,-477.6444"/>
</g>
<!-- a_num_pw&#45;&gt;t_uword -->
<g id="edge99" class="edge">
<title>a_num_pw-&gt;t_uword</title>
<path fill="none" stroke="#000000" d="M1411.1435,-792.8234C1400.453,-782.3738 1386.7108,-768.6462 1375,-756 1255.8111,-627.2906 1121.9667,-465.0814 1071.6163,-403.3848"/>
<polygon fill="#000000" stroke="#000000" points="1074.1068,-400.9005 1065.076,-395.3601 1068.6807,-405.3229 1074.1068,-400.9005"/>
</g>
<!-- a_num_pw&#45;&gt;a_n_ent_pw -->
<g id="edge98" class="edge">
<title>a_num_pw-&gt;a_n_ent_pw</title>
<path fill="none" stroke="#000000" d="M1427.8373,-791.8975C1425.7167,-761.8269 1420.5352,-699.7635 1411,-648 1409.4456,-639.5617 1407.2904,-630.4966 1405.1363,-622.2492"/>
<polygon fill="#000000" stroke="#000000" points="1408.4472,-621.0851 1402.4538,-612.3484 1401.6908,-622.9158 1408.4472,-621.0851"/>
</g>
<!-- a_num_pw&#45;&gt;bilog_ttr -->
<g id="edge100" class="edge">
<title>a_num_pw-&gt;bilog_ttr</title>
<path fill="none" stroke="#000000" d="M1482.4535,-807.0891C1559.0526,-801.9299 1703.9379,-788.4807 1823,-756 1862.9751,-745.0946 1869.3049,-731.8842 1909,-720 1992.1729,-695.0991 2024.0957,-724.2927 2101,-684 2130.5812,-668.5014 2156.7937,-640.1809 2173.3974,-619.4352"/>
<polygon fill="#000000" stroke="#000000" points="2176.3146,-621.3856 2179.6967,-611.3451 2170.7914,-617.085 2176.3146,-621.3856"/>
</g>
<!-- a_n_ent_percent_ps -->
<g id="node35" class="node">
<title>a_n_ent_percent_ps</title>
<ellipse fill="none" stroke="#000000" cx="3420" cy="-666" rx="88.0287" ry="18"/>
<text text-anchor="middle" x="3420" y="-661.8" font-family="Times,serif" font-size="14.00" fill="#000000">a_n_ent_percent_ps</text>
</g>
<!-- a_n_ent_percent_ps&#45;&gt;simp_det_var -->
<g id="edge105" class="edge">
<title>a_n_ent_percent_ps-&gt;simp_det_var</title>
<path fill="none" stroke="#000000" d="M3356.1738,-653.4227C3331.5422,-645.4717 3305.2093,-632.629 3288,-612 3235.6232,-549.2154 3312.1029,-485.1833 3250,-432 3214.6945,-401.7653 2544.1668,-384.5051 2317.8689,-379.5224"/>
<polygon fill="#000000" stroke="#000000" points="2317.8276,-376.0208 2307.7535,-379.3014 2317.6746,-383.0191 2317.8276,-376.0208"/>
</g>
<!-- a_n_ent_percent_ps&#45;&gt;a_n_ent_money_ps -->
<g id="edge106" class="edge">
<title>a_n_ent_percent_ps-&gt;a_n_ent_money_ps</title>
<path fill="none" stroke="#000000" d="M3410.6633,-647.8314C3406.4687,-639.6688 3401.4332,-629.87 3396.8147,-620.8827"/>
<polygon fill="#000000" stroke="#000000" points="3399.8893,-619.208 3392.2055,-611.9134 3393.6632,-622.4075 3399.8893,-619.208"/>
</g>
<!-- a_n_ent_percent_ps&#45;&gt;sta_codeBleu -->
<g id="edge107" class="edge">
<title>a_n_ent_percent_ps-&gt;sta_codeBleu</title>
<path fill="none" stroke="#000000" d="M3446.743,-648.819C3458.6915,-639.5214 3471.5206,-626.8855 3478,-612 3484.3858,-597.3296 3479.534,-591.9263 3478,-576 3462.3725,-413.7543 3481.9272,-361.2676 3408,-216 3386.5515,-173.8535 3346.4615,-136.1359 3318.5495,-113.1911"/>
<polygon fill="#000000" stroke="#000000" points="3320.6512,-110.3897 3310.6694,-106.8381 3316.2577,-115.8393 3320.6512,-110.3897"/>
</g>
<!-- a_n_ent_percent_ps&#45;&gt;sim_Bleu -->
<g id="edge108" class="edge">
<title>a_n_ent_percent_ps-&gt;sim_Bleu</title>
<path fill="none" stroke="#000000" d="M3449.7808,-648.873C3464.2395,-639.4272 3481.0278,-626.6466 3493,-612 3520.936,-577.8236 3535,-566.1412 3535,-522 3535,-522 3535,-522 3535,-162 3535,-92.8946 3313.3433,-45.5139 3207.721,-26.8593"/>
<polygon fill="#000000" stroke="#000000" points="3208.02,-23.3588 3197.5679,-25.0915 3206.8193,-30.255 3208.02,-23.3588"/>
</g>
<!-- simp_part_var -->
<g id="node37" class="node">
<title>simp_part_var</title>
<ellipse fill="none" stroke="#000000" cx="880" cy="-450" rx="66.6344" ry="18"/>
<text text-anchor="middle" x="880" y="-445.8" font-family="Times,serif" font-size="14.00" fill="#000000">simp_part_var</text>
</g>
<!-- simp_part_var&#45;&gt;t_uword -->
<g id="edge115" class="edge">
<title>simp_part_var-&gt;t_uword</title>
<path fill="none" stroke="#000000" d="M916.2647,-434.7307C944.0983,-423.0112 982.492,-406.8455 1011.1763,-394.7679"/>
<polygon fill="#000000" stroke="#000000" points="1012.6444,-397.9474 1020.5026,-390.841 1009.928,-391.4959 1012.6444,-397.9474"/>
</g>
<!-- corr_punct_var -->
<g id="node38" class="node">
<title>corr_punct_var</title>
<ellipse fill="none" stroke="#000000" cx="1989" cy="-666" rx="70.0481" ry="18"/>
<text text-anchor="middle" x="1989" y="-661.8" font-family="Times,serif" font-size="14.00" fill="#000000">corr_punct_var</text>
</g>
<!-- corr_punct_var&#45;&gt;n_upunct -->
<g id="edge124" class="edge">
<title>corr_punct_var-&gt;n_upunct</title>
<path fill="none" stroke="#000000" d="M1944.0724,-652.077C1818.7619,-613.2433 1466.2508,-504.0003 1338.7578,-464.4902"/>
<polygon fill="#000000" stroke="#000000" points="1339.4917,-461.0535 1328.9038,-461.4365 1337.4196,-467.7398 1339.4917,-461.0535"/>
</g>
<!-- corr_punct_var&#45;&gt;bilog_ttr -->
<g id="edge127" class="edge">
<title>corr_punct_var-&gt;bilog_ttr</title>
<path fill="none" stroke="#000000" d="M2030.5699,-651.256C2065.1351,-638.9964 2114.1468,-621.613 2149.0811,-609.2225"/>
<polygon fill="#000000" stroke="#000000" points="2150.2826,-612.51 2158.5373,-605.8685 2147.9426,-605.9127 2150.2826,-612.51"/>
</g>
<!-- corr_punct_var&#45;&gt;WTopc15_S -->
<g id="edge125" class="edge">
<title>corr_punct_var-&gt;WTopc15_S</title>
<path fill="none" stroke="#000000" d="M2024.8261,-650.4424C2046.1666,-640.5668 2073.406,-626.874 2096,-612 2116.8184,-598.2949 2116.3305,-586.3599 2139,-576 2162.9849,-565.039 2317.6731,-542.8838 2407.8905,-530.6331"/>
<polygon fill="#000000" stroke="#000000" points="2408.5825,-534.0714 2418.0228,-529.262 2407.6438,-527.1346 2408.5825,-534.0714"/>
</g>
<!-- corr_punct_var&#45;&gt;root_punct_var -->
<g id="edge126" class="edge">
<title>corr_punct_var-&gt;root_punct_var</title>
<path fill="none" stroke="#000000" d="M1976.0386,-648.0535C1957.8791,-622.9096 1924.7508,-577.0396 1903.8588,-548.1122"/>
<polygon fill="#000000" stroke="#000000" points="1906.4904,-545.7779 1897.798,-539.7204 1900.8156,-549.8764 1906.4904,-545.7779"/>
</g>
<!-- corr_punct_var&#45;&gt;pass_rate -->
<g id="edge128" class="edge">
<title>corr_punct_var-&gt;pass_rate</title>
<path fill="none" stroke="#000000" d="M2005.4483,-648.1452C2025.1143,-627.8275 2059.9205,-595.0076 2096,-576 2119.1821,-563.7871 2980.248,-332.5965 3005,-324 3067.2983,-302.3636 3137.3839,-271.6181 3179.8517,-252.2469"/>
<polygon fill="#000000" stroke="#000000" points="3181.3651,-255.4035 3188.998,-248.0558 3178.449,-249.0398 3181.3651,-255.4035"/>
</g>
<!-- a_char_pw -->
<g id="node39" class="node">
<title>a_char_pw</title>
<ellipse fill="none" stroke="#000000" cx="879" cy="-882" rx="53.2936" ry="18"/>
<text text-anchor="middle" x="879" y="-877.8" font-family="Times,serif" font-size="14.00" fill="#000000">a_char_pw</text>
</g>
<!-- a_char_pw&#45;&gt;BClar05_S -->
<g id="edge137" class="edge">
<title>a_char_pw-&gt;BClar05_S</title>
<path fill="none" stroke="#000000" d="M870.0618,-864.0042C865.4607,-853.733 860.3369,-840.457 858,-828 855.0498,-812.2743 855.6363,-807.8244 858,-792 872.8294,-692.7199 843.8504,-636.4358 924,-576 968.5873,-542.3796 2878.421,-545.4158 2934,-540 2948.8353,-538.5544 2964.7647,-536.1303 2979.4874,-533.522"/>
<polygon fill="#000000" stroke="#000000" points="2980.2527,-536.9402 2989.459,-531.6966 2978.9922,-530.0546 2980.2527,-536.9402"/>
</g>
<!-- a_char_pw&#45;&gt;n_adp -->
<g id="edge131" class="edge">
<title>a_char_pw-&gt;n_adp</title>
<path fill="none" stroke="#000000" d="M915.1537,-868.5821C988.5214,-841.3529 1154.2572,-779.8427 1229.0807,-752.0731"/>
<polygon fill="#000000" stroke="#000000" points="1230.4352,-755.3038 1238.5926,-748.543 1227.9996,-748.7412 1230.4352,-755.3038"/>
</g>
<!-- a_char_pw&#45;&gt;n_upunct -->
<g id="edge132" class="edge">
<title>a_char_pw-&gt;n_upunct</title>
<path fill="none" stroke="#000000" d="M826.1044,-878.8657C740.383,-871.2271 569.77,-845.0911 461,-756 427.3428,-728.4322 356.0653,-609.3533 384,-576 387.6596,-571.6306 782.3575,-504.8041 788,-504 950.0674,-480.9048 1142.7308,-462.8602 1235.9455,-454.7213"/>
<polygon fill="#000000" stroke="#000000" points="1236.3428,-458.2001 1246.0025,-453.848 1235.7372,-451.2264 1236.3428,-458.2001"/>
</g>
<!-- a_char_pw&#45;&gt;t_bry -->
<g id="edge133" class="edge">
<title>a_char_pw-&gt;t_bry</title>
<path fill="none" stroke="#000000" d="M871.3593,-864.0075C864.6309,-845.5454 857.0418,-816.183 865,-792 878.5151,-750.9309 911.1255,-712.265 933.8926,-688.8641"/>
<polygon fill="#000000" stroke="#000000" points="936.618,-691.0874 941.1945,-681.532 931.658,-686.1479 936.618,-691.0874"/>
</g>
<!-- a_char_pw&#45;&gt;t_syll3 -->
<g id="edge134" class="edge">
<title>a_char_pw-&gt;t_syll3</title>
<path fill="none" stroke="#000000" d="M931.2604,-878.1847C1077.5504,-867.4032 1481.2201,-836.9151 1492,-828 1531.5767,-795.2696 1538.4988,-731.1817 1538.9457,-694.1802"/>
<polygon fill="#000000" stroke="#000000" points="1542.4454,-694.0596 1538.9139,-684.0706 1535.4455,-694.0816 1542.4454,-694.0596"/>
</g>
<!-- a_char_pw&#45;&gt;t_uword -->
<g id="edge138" class="edge">
<title>a_char_pw-&gt;t_uword</title>
<path fill="none" stroke="#000000" d="M825.68,-880.8329C667.7247,-876.2654 206.6828,-854.5845 101,-756 46.7697,-705.4122 61,-668.1623 61,-594 61,-594 61,-594 61,-522 61,-473.926 79.2899,-455.9036 121,-432 197.0457,-388.4191 811.1531,-379.9251 997.55,-378.3453"/>
<polygon fill="#000000" stroke="#000000" points="997.6855,-381.8444 1007.6566,-378.2629 997.6284,-374.8447 997.6855,-381.8444"/>
</g>
<!-- a_char_pw&#45;&gt;t_stopword -->
<g id="edge135" class="edge">
<title>a_char_pw-&gt;t_stopword</title>
<path fill="none" stroke="#000000" d="M898.4329,-864.937C909.0534,-855.6116 922.3731,-843.9163 933.9902,-833.716"/>
<polygon fill="#000000" stroke="#000000" points="936.5015,-836.1686 941.7066,-826.9405 931.8829,-830.9085 936.5015,-836.1686"/>
</g>
<!-- a_char_pw&#45;&gt;a_n_ent_pw -->
<g id="edge136" class="edge">
<title>a_char_pw-&gt;a_n_ent_pw</title>
<path fill="none" stroke="#000000" d="M878.0642,-863.9704C878.0083,-844.1027 880.9294,-812.2813 898,-792 1009.7787,-659.1976 1223.0225,-614.8298 1330.9371,-600.5108"/>
<polygon fill="#000000" stroke="#000000" points="1331.57,-603.9585 1341.0446,-599.217 1330.6811,-597.0151 1331.57,-603.9585"/>
</g>
<!-- a_char_pw&#45;&gt;bilog_ttr -->
<g id="edge139" class="edge">
<title>a_char_pw-&gt;bilog_ttr</title>
<path fill="none" stroke="#000000" d="M931.6065,-878.3304C1063.5096,-869.0056 1405.833,-844.0076 1519,-828 1680.9919,-805.086 1720.8926,-794.0954 1880,-756 1887.21,-754.2737 2131.0877,-688.4731 2137,-684 2158.0832,-668.0489 2172.8791,-641.4644 2181.7737,-621.3136"/>
<polygon fill="#000000" stroke="#000000" points="2185.0341,-622.5889 2185.6678,-612.0131 2178.5772,-619.8854 2185.0341,-622.5889"/>
</g>
<!-- t_n_ent_quantity -->
<g id="node40" class="node">
<title>t_n_ent_quantity</title>
<ellipse fill="none" stroke="#000000" cx="338" cy="-738" rx="76.469" ry="18"/>
<text text-anchor="middle" x="338" y="-733.8" font-family="Times,serif" font-size="14.00" fill="#000000">t_n_ent_quantity</text>
</g>
<!-- t_n_ent_quantity&#45;&gt;t_bry -->
<g id="edge140" class="edge">
<title>t_n_ent_quantity-&gt;t_bry</title>
<path fill="none" stroke="#000000" d="M402.0951,-728.1609C421.0424,-725.3767 441.8395,-722.4421 461,-720 629.8103,-698.4848 831.5813,-678.2498 916.7971,-669.955"/>
<polygon fill="#000000" stroke="#000000" points="917.2257,-673.43 926.8408,-668.9802 916.5494,-666.4627 917.2257,-673.43"/>
</g>
<!-- t_n_ent_quantity&#45;&gt;t_uword -->
<g id="edge141" class="edge">
<title>t_n_ent_quantity-&gt;t_uword</title>
<path fill="none" stroke="#000000" d="M318.6919,-720.5214C293.061,-695.3002 251,-645.9911 251,-594 251,-594 251,-594 251,-522 251,-464.1607 292.1876,-455.5846 345,-432 404.0787,-405.617 843.4946,-386.1059 997.7013,-380.008"/>
<polygon fill="#000000" stroke="#000000" points="998.0161,-383.4985 1007.8712,-379.609 997.7416,-376.5039 998.0161,-383.4985"/>
</g>
<!-- black&#45;&gt;sta_codeBleu -->
<g id="edge163" class="edge">
<title>black-&gt;sta_codeBleu</title>
<path fill="none" stroke="#000000" d="M3357.4708,-216.6302C3343.8435,-191.7907 3318.671,-145.9066 3302.6608,-116.7234"/>
<polygon fill="#000000" stroke="#000000" points="3305.6893,-114.9669 3297.8109,-107.8831 3299.5522,-118.3339 3305.6893,-114.9669"/>
</g>
<!-- black&#45;&gt;sim_Bleu -->
<g id="edge164" class="edge">
<title>black-&gt;sim_Bleu</title>
<path fill="none" stroke="#000000" d="M3372.4094,-216.0619C3381.0527,-183.4198 3393.7843,-113.8295 3360,-72 3341.1069,-48.6078 3263.3003,-33.2035 3208.6651,-25.0407"/>
<polygon fill="#000000" stroke="#000000" points="3209.1519,-21.5748 3198.7526,-23.6006 3208.1454,-28.5021 3209.1519,-21.5748"/>
</g>
<!-- black&#45;&gt;syntaxError_rate -->
<g id="edge162" class="edge">
<title>black-&gt;syntaxError_rate</title>
<path fill="none" stroke="#000000" d="M3340.8337,-223.4373C3334.3792,-220.9214 3327.4633,-218.3008 3321,-216 3284.2504,-202.9178 3242.4973,-189.4905 3209.8091,-179.2977"/>
<polygon fill="#000000" stroke="#000000" points="3210.5592,-175.8658 3199.971,-176.2422 3208.4829,-182.5508 3210.5592,-175.8658"/>
</g>
<!-- syntaxError_rate&#45;&gt;sta_codeBleu -->
<g id="edge166" class="edge">
<title>syntaxError_rate-&gt;sta_codeBleu</title>
<path fill="none" stroke="#000000" d="M3183.9717,-145.4817C3203.3655,-135.1384 3228.5162,-121.7247 3249.2296,-110.6776"/>
<polygon fill="#000000" stroke="#000000" points="3250.9242,-113.7405 3258.1006,-105.9463 3247.63,-107.564 3250.9242,-113.7405"/>
</g>
<!-- syntaxError_rate&#45;&gt;sim_Bleu -->
<g id="edge167" class="edge">
<title>syntaxError_rate-&gt;sim_Bleu</title>
<path fill="none" stroke="#000000" d="M3153,-143.7623C3153,-119.201 3153,-75.2474 3153,-46.3541"/>
<polygon fill="#000000" stroke="#000000" points="3156.5001,-46.0896 3153,-36.0896 3149.5001,-46.0897 3156.5001,-46.0896"/>
</g>
<!-- sta_Bleu&#45;&gt;pass_rate -->
<g id="edge175" class="edge">
<title>sta_Bleu-&gt;pass_rate</title>
<path fill="none" stroke="#000000" d="M2953.0932,-294.6656C2960.921,-292.3133 2969.2104,-289.9577 2977,-288 3056.5464,-268.0081 3078.3627,-271.6267 3158,-252 3162.7105,-250.8391 3167.601,-249.5464 3172.4708,-248.2015"/>
<polygon fill="#000000" stroke="#000000" points="3173.7083,-251.4886 3182.3738,-245.3927 3171.7982,-244.7543 3173.7083,-251.4886"/>
</g>
<!-- sta_Bleu&#45;&gt;sta_codeBleu -->
<g id="edge172" class="edge">
<title>sta_Bleu-&gt;sta_codeBleu</title>
<path fill="none" stroke="#000000" d="M2953.4711,-294.8171C2961.2024,-292.4809 2969.3568,-290.0936 2977,-288 3042.2906,-270.1156 3065.5426,-284.3655 3125,-252 3145.4333,-240.8772 3143.8378,-229.1927 3163,-216 3193.4546,-195.0327 3211.088,-205.3546 3238,-180 3256.4751,-162.5941 3269.8389,-136.8048 3278.077,-117.289"/>
<polygon fill="#000000" stroke="#000000" points="3281.3266,-118.589 3281.8135,-108.0053 3274.8328,-115.9753 3281.3266,-118.589"/>
</g>
<!-- sta_Bleu&#45;&gt;sim_Bleu -->
<g id="edge174" class="edge">
<title>sta_Bleu-&gt;sim_Bleu</title>
<path fill="none" stroke="#000000" d="M2925.5797,-288.0831C2944.1506,-245.9033 2995.5961,-138.8688 3066,-72 3080.2231,-58.4911 3098.3485,-46.5952 3114.3697,-37.4316"/>
<polygon fill="#000000" stroke="#000000" points="3116.4664,-40.271 3123.5142,-32.3603 3113.0715,-34.1494 3116.4664,-40.271"/>
</g>
<!-- sta_Bleu&#45;&gt;black -->
<g id="edge170" class="edge">
<title>sta_Bleu-&gt;black</title>
<path fill="none" stroke="#000000" d="M2960.6851,-300.1498C3027.7465,-290.8221 3161.8196,-271.6225 3275,-252 3291.9692,-249.058 3310.6293,-245.4726 3326.683,-242.2784"/>
<polygon fill="#000000" stroke="#000000" points="3327.696,-245.645 3336.8123,-240.2466 3326.3192,-238.7818 3327.696,-245.645"/>
</g>
<!-- sta_Bleu&#45;&gt;syntaxError_rate -->
<g id="edge171" class="edge">
<title>sta_Bleu-&gt;syntaxError_rate</title>
<path fill="none" stroke="#000000" d="M2933.5569,-288.9951C2954.855,-266.0076 2992.3434,-226.6605 3009,-216 3034.4366,-199.7202 3065.507,-187.2847 3092.2671,-178.4744"/>
<polygon fill="#000000" stroke="#000000" points="3093.4525,-181.77 3101.9126,-175.3921 3091.3217,-175.1021 3093.4525,-181.77"/>
</g>
<!-- sta_Bleu&#45;&gt;sim_codeBleu -->
<g id="edge173" class="edge">
<title>sta_Bleu-&gt;sim_codeBleu</title>
<path fill="none" stroke="#000000" d="M2903.4757,-288.5708C2896.2141,-279.857 2887.2868,-269.1441 2879.2704,-259.5244"/>
<polygon fill="#000000" stroke="#000000" points="2881.8981,-257.2105 2872.8074,-251.7689 2876.5205,-261.6918 2881.8981,-257.2105"/>
</g>
<!-- error_rate -->
<g id="node45" class="node">
<title>error_rate</title>
<ellipse fill="none" stroke="#000000" cx="3067" cy="-234" rx="49.1931" ry="18"/>
<text text-anchor="middle" x="3067" y="-229.8" font-family="Times,serif" font-size="14.00" fill="#000000">error_rate</text>
</g>
<!-- sta_Bleu&#45;&gt;error_rate -->
<g id="edge176" class="edge">
<title>sta_Bleu-&gt;error_rate</title>
<path fill="none" stroke="#000000" d="M2946.7287,-292.1177C2969.8508,-280.9446 3002.5768,-265.1307 3028.0552,-252.819"/>
<polygon fill="#000000" stroke="#000000" points="3029.6017,-255.9589 3037.0828,-248.4566 3026.5561,-249.6562 3029.6017,-255.9589"/>
</g>
<!-- sim_codeBleu&#45;&gt;sim_Bleu -->
<g id="edge178" class="edge">
<title>sim_codeBleu-&gt;sim_Bleu</title>
<path fill="none" stroke="#000000" d="M2861.7129,-215.78C2869.5678,-182.0383 2891.1357,-109.8266 2938,-72 2962.3868,-52.3162 3042.7617,-35.822 3098.0171,-26.4257"/>
<polygon fill="#000000" stroke="#000000" points="3098.7362,-29.8541 3108.023,-24.7546 3097.5831,-22.9498 3098.7362,-29.8541"/>
</g>
<!-- error_rate&#45;&gt;syntaxError_rate -->
<g id="edge180" class="edge">
<title>error_rate-&gt;syntaxError_rate</title>
<path fill="none" stroke="#000000" d="M3086.9463,-217.3008C3098.0991,-207.9636 3112.1895,-196.1669 3124.489,-185.8697"/>
<polygon fill="#000000" stroke="#000000" points="3126.8432,-188.4634 3132.264,-179.3603 3122.3496,-183.0961 3126.8432,-188.4634"/>
</g>
</g>
</svg>