<?xml version="1.0" encoding="UTF-8" standalone="no"?><!DOCTYPE svg PUBLIC "-//W3C//DTD SVG 1.1//EN" "http://www.w3.org/Graphics/SVG/1.1/DTD/svg11.dtd"><!-- Generated by graphviz version 2.40.1 (20161225.0304)
 --><!-- Title: G Pages: 1 --><svg xmlns="http://www.w3.org/2000/svg" xmlns:xlink="http://www.w3.org/1999/xlink" width="3358pt" height="1052pt" viewBox="0.00 0.00 3358.00 1052.00">
<g id="graph0" class="graph" transform="scale(1 1) rotate(0) translate(4 1048)">
<title>G</title>
<polygon fill="#ffffff" stroke="transparent" points="-4,4 -4,-1048 3354,-1048 3354,4 -4,4"/>
<!-- a_noun_pw -->
<g id="node1" class="node">
<title>a_noun_pw</title>
<ellipse fill="none" stroke="#000000" cx="1898" cy="-738" rx="56.1879" ry="18"/>
<text text-anchor="middle" x="1898" y="-733.8" font-family="Times,serif" font-size="14.00" fill="#000000">a_noun_pw</text>
</g>
<!-- simp_noun_var -->
<g id="node2" class="node">
<title>simp_noun_var</title>
<ellipse fill="none" stroke="#000000" cx="1661" cy="-306" rx="71.2346" ry="18"/>
<text text-anchor="middle" x="1661" y="-301.8" font-family="Times,serif" font-size="14.00" fill="#000000">simp_noun_var</text>
</g>
<!-- a_noun_pw&#45;&gt;simp_noun_var -->
<g id="edge1" class="edge">
<title>a_noun_pw-&gt;simp_noun_var</title>
<path fill="none" stroke="#000000" d="M1888.2675,-720.2597C1851.4388,-653.129 1720.4506,-414.3657 1675.9333,-333.2202"/>
<polygon fill="#000000" stroke="#000000" points="1678.8236,-331.2117 1670.9452,-324.1279 1672.6865,-334.5787 1678.8236,-331.2117"/>
</g>
<!-- simp_det_var -->
<g id="node3" class="node">
<title>simp_det_var</title>
<ellipse fill="none" stroke="#000000" cx="1919" cy="-522" rx="63.7045" ry="18"/>
<text text-anchor="middle" x="1919" y="-517.8" font-family="Times,serif" font-size="14.00" fill="#000000">simp_det_var</text>
</g>
<!-- a_noun_pw&#45;&gt;simp_det_var -->
<g id="edge2" class="edge">
<title>a_noun_pw-&gt;simp_det_var</title>
<path fill="none" stroke="#000000" d="M1899.7543,-719.9555C1903.4139,-682.3144 1911.8846,-595.1867 1916.2657,-550.1246"/>
<polygon fill="#000000" stroke="#000000" points="1919.7517,-550.4369 1917.2359,-540.1451 1912.7846,-549.7594 1919.7517,-550.4369"/>
</g>
<!-- a_syll_pw -->
<g id="node4" class="node">
<title>a_syll_pw</title>
<ellipse fill="none" stroke="#000000" cx="1043" cy="-594" rx="50.9638" ry="18"/>
<text text-anchor="middle" x="1043" y="-589.8" font-family="Times,serif" font-size="14.00" fill="#000000">a_syll_pw</text>
</g>
<!-- a_noun_pw&#45;&gt;a_syll_pw -->
<g id="edge3" class="edge">
<title>a_noun_pw-&gt;a_syll_pw</title>
<path fill="none" stroke="#000000" d="M1847.8115,-729.7887C1792.7626,-720.3848 1701.9946,-703.7075 1625,-684 1573.5265,-670.8248 1562.9615,-659.0957 1511,-648 1366.592,-617.1635 1193.1017,-602.9636 1103.3729,-597.2717"/>
<polygon fill="#000000" stroke="#000000" points="1103.576,-593.7777 1093.3783,-596.651 1103.1421,-600.7642 1103.576,-593.7777"/>
</g>
<!-- sim_Bleu -->
<g id="node12" class="node">
<title>sim_Bleu</title>
<ellipse fill="none" stroke="#000000" cx="2171" cy="-162" rx="48.1109" ry="18"/>
<text text-anchor="middle" x="2171" y="-157.8" font-family="Times,serif" font-size="14.00" fill="#000000">sim_Bleu</text>
</g>
<!-- simp_noun_var&#45;&gt;sim_Bleu -->
<g id="edge185" class="edge">
<title>simp_noun_var-&gt;sim_Bleu</title>
<path fill="none" stroke="#000000" d="M1708.5216,-292.5821C1805.3665,-265.2377 2024.6526,-203.3216 2122.3994,-175.7225"/>
<polygon fill="#000000" stroke="#000000" points="2123.6369,-179.01 2132.3095,-172.9244 2121.7347,-172.2734 2123.6369,-179.01"/>
</g>
<!-- black -->
<g id="node40" class="node">
<title>black</title>
<ellipse fill="none" stroke="#000000" cx="524" cy="-234" rx="31.9012" ry="18"/>
<text text-anchor="middle" x="524" y="-229.8" font-family="Times,serif" font-size="14.00" fill="#000000">black</text>
</g>
<!-- simp_noun_var&#45;&gt;black -->
<g id="edge177" class="edge">
<title>simp_noun_var-&gt;black</title>
<path fill="none" stroke="#000000" d="M1591.5871,-301.6045C1378.2438,-288.0946 736.2825,-247.4427 565.8965,-236.6531"/>
<polygon fill="#000000" stroke="#000000" points="566.024,-233.1542 555.8228,-236.0152 565.5816,-240.1402 566.024,-233.1542"/>
</g>
<!-- simp_det_var&#45;&gt;simp_noun_var -->
<g id="edge133" class="edge">
<title>simp_det_var-&gt;simp_noun_var</title>
<path fill="none" stroke="#000000" d="M1966.8217,-510.0592C1988.5501,-501.9862 2012.2116,-488.867 2025,-468 2050.0814,-427.0742 2056.352,-396.3463 2025,-360 2006.5936,-338.6616 1840.6503,-321.0856 1739.2845,-312.222"/>
<polygon fill="#000000" stroke="#000000" points="1739.3421,-308.714 1729.0778,-311.3398 1738.7393,-315.688 1739.3421,-308.714"/>
</g>
<!-- n_upunct -->
<g id="node7" class="node">
<title>n_upunct</title>
<ellipse fill="none" stroke="#000000" cx="1498" cy="-450" rx="46.9555" ry="18"/>
<text text-anchor="middle" x="1498" y="-445.8" font-family="Times,serif" font-size="14.00" fill="#000000">n_upunct</text>
</g>
<!-- simp_det_var&#45;&gt;n_upunct -->
<g id="edge131" class="edge">
<title>simp_det_var-&gt;n_upunct</title>
<path fill="none" stroke="#000000" d="M1864.3932,-512.6611C1783.1032,-498.7587 1631.2468,-472.7881 1550.9362,-459.0532"/>
<polygon fill="#000000" stroke="#000000" points="1551.4823,-455.5959 1541.0353,-457.36 1550.3022,-462.4957 1551.4823,-455.5959"/>
</g>
<!-- t_char -->
<g id="node10" class="node">
<title>t_char</title>
<ellipse fill="none" stroke="#000000" cx="1139" cy="-378" rx="35.3315" ry="18"/>
<text text-anchor="middle" x="1139" y="-373.8" font-family="Times,serif" font-size="14.00" fill="#000000">t_char</text>
</g>
<!-- simp_det_var&#45;&gt;t_char -->
<g id="edge132" class="edge">
<title>simp_det_var-&gt;t_char</title>
<path fill="none" stroke="#000000" d="M1874.119,-509.2022C1805.6043,-490.06 1670.5843,-453.8867 1554,-432 1420.3266,-406.9051 1260.2452,-389.6368 1183.8517,-382.1672"/>
<polygon fill="#000000" stroke="#000000" points="1183.9299,-378.6585 1173.6392,-381.1784 1183.2553,-385.6259 1183.9299,-378.6585"/>
</g>
<!-- a_syll_pw&#45;&gt;simp_noun_var -->
<g id="edge168" class="edge">
<title>a_syll_pw-&gt;simp_noun_var</title>
<path fill="none" stroke="#000000" d="M1040.5766,-575.7854C1035.7614,-531.0004 1030.4632,-415.1584 1095,-360 1131.0669,-329.1743 1432.2003,-314.1924 1579.9177,-308.6429"/>
<polygon fill="#000000" stroke="#000000" points="1580.4187,-312.1268 1590.2825,-308.2595 1580.1599,-305.1316 1580.4187,-312.1268"/>
</g>
<!-- a_syll_pw&#45;&gt;simp_det_var -->
<g id="edge169" class="edge">
<title>a_syll_pw-&gt;simp_det_var</title>
<path fill="none" stroke="#000000" d="M1092.6075,-589.9227C1239.9668,-577.8109 1675.5239,-542.0117 1847.7518,-527.856"/>
<polygon fill="#000000" stroke="#000000" points="1848.0468,-531.3437 1857.7265,-527.0362 1847.4733,-524.3672 1848.0468,-531.3437"/>
</g>
<!-- a_syll_pw&#45;&gt;n_upunct -->
<g id="edge164" class="edge">
<title>a_syll_pw-&gt;n_upunct</title>
<path fill="none" stroke="#000000" d="M1086.098,-584.4151C1127.7411,-574.7279 1192.3664,-558.5673 1247,-540 1286.2322,-526.6668 1294.1674,-518.4557 1333,-504 1372.4225,-489.3247 1417.9004,-474.6012 1451.1147,-464.2437"/>
<polygon fill="#000000" stroke="#000000" points="1452.4946,-467.4802 1461.0085,-461.1743 1450.4205,-460.7945 1452.4946,-467.4802"/>
</g>
<!-- n_punct -->
<g id="node9" class="node">
<title>n_punct</title>
<ellipse fill="none" stroke="#000000" cx="720" cy="-522" rx="42.299" ry="18"/>
<text text-anchor="middle" x="720" y="-517.8" font-family="Times,serif" font-size="14.00" fill="#000000">n_punct</text>
</g>
<!-- a_syll_pw&#45;&gt;n_punct -->
<g id="edge165" class="edge">
<title>a_syll_pw-&gt;n_punct</title>
<path fill="none" stroke="#000000" d="M999.7739,-584.3645C939.361,-570.8978 830.0695,-546.5356 767.4627,-532.5799"/>
<polygon fill="#000000" stroke="#000000" points="767.9793,-529.1092 757.4573,-530.3496 766.4562,-535.9416 767.9793,-529.1092"/>
</g>
<!-- a_syll_pw&#45;&gt;t_char -->
<g id="edge167" class="edge">
<title>a_syll_pw-&gt;t_char</title>
<path fill="none" stroke="#000000" d="M1048.5949,-576.0147C1058.3399,-545.5916 1079.812,-482.3669 1105,-432 1109.781,-422.4398 1115.7877,-412.4153 1121.4172,-403.6346"/>
<polygon fill="#000000" stroke="#000000" points="1124.5193,-405.2867 1127.0799,-395.0059 1118.667,-401.446 1124.5193,-405.2867"/>
</g>
<!-- n_num -->
<g id="node30" class="node">
<title>n_num</title>
<ellipse fill="none" stroke="#000000" cx="410" cy="-522" rx="37.7256" ry="18"/>
<text text-anchor="middle" x="410" y="-517.8" font-family="Times,serif" font-size="14.00" fill="#000000">n_num</text>
</g>
<!-- a_syll_pw&#45;&gt;n_num -->
<g id="edge166" class="edge">
<title>a_syll_pw-&gt;n_num</title>
<path fill="none" stroke="#000000" d="M994.6419,-588.4996C876.3933,-575.0495 573.7836,-540.6294 456.9809,-527.3438"/>
<polygon fill="#000000" stroke="#000000" points="457.2547,-523.8525 446.9231,-526.1998 456.4635,-530.8076 457.2547,-523.8525"/>
</g>
<!-- corr_pron_var -->
<g id="node5" class="node">
<title>corr_pron_var</title>
<ellipse fill="none" stroke="#000000" cx="858" cy="-738" rx="66.0377" ry="18"/>
<text text-anchor="middle" x="858" y="-733.8" font-family="Times,serif" font-size="14.00" fill="#000000">corr_pron_var</text>
</g>
<!-- corr_pron_var&#45;&gt;simp_noun_var -->
<g id="edge9" class="edge">
<title>corr_pron_var-&gt;simp_noun_var</title>
<path fill="none" stroke="#000000" d="M847.3002,-720.0004C841.5463,-709.7281 834.69,-696.4521 830,-684 803.8598,-614.5973 790,-596.1623 790,-522 790,-522 790,-522 790,-450 790,-408.6022 781.9914,-386.2531 814,-360 843.3396,-335.9359 1374.0239,-315.6305 1580.1131,-308.6193"/>
<polygon fill="#000000" stroke="#000000" points="1580.3932,-312.1119 1590.2691,-308.2756 1580.1564,-305.1159 1580.3932,-312.1119"/>
</g>
<!-- corr_pron_var&#45;&gt;a_syll_pw -->
<g id="edge10" class="edge">
<title>corr_pron_var-&gt;a_syll_pw</title>
<path fill="none" stroke="#000000" d="M902.1477,-724.4404C926.273,-715.5569 955.6914,-702.1913 978,-684 999.4059,-666.5449 1017.2147,-640.4297 1028.7459,-620.8197"/>
<polygon fill="#000000" stroke="#000000" points="1031.8317,-622.4738 1033.7415,-612.0525 1025.7497,-619.0082 1031.8317,-622.4738"/>
</g>
<!-- corr_noun_var -->
<g id="node6" class="node">
<title>corr_noun_var</title>
<ellipse fill="none" stroke="#000000" cx="1702" cy="-666" rx="67.7644" ry="18"/>
<text text-anchor="middle" x="1702" y="-661.8" font-family="Times,serif" font-size="14.00" fill="#000000">corr_noun_var</text>
</g>
<!-- corr_pron_var&#45;&gt;corr_noun_var -->
<g id="edge4" class="edge">
<title>corr_pron_var-&gt;corr_noun_var</title>
<path fill="none" stroke="#000000" d="M921.9758,-732.9541C1038.9446,-723.6741 1295.1397,-703.0961 1511,-684 1549.5003,-680.5941 1592.3431,-676.5773 1627.6805,-673.2033"/>
<polygon fill="#000000" stroke="#000000" points="1628.2932,-676.6608 1637.9144,-672.2242 1627.6264,-669.6926 1628.2932,-676.6608"/>
</g>
<!-- corr_pron_var&#45;&gt;n_upunct -->
<g id="edge5" class="edge">
<title>corr_pron_var-&gt;n_upunct</title>
<path fill="none" stroke="#000000" d="M866.4155,-719.9881C883.321,-685.9355 924.8267,-612.2845 983,-576 1050.7443,-533.7457 1082.6081,-563.2163 1159,-540 1199.4314,-527.7125 1206.6315,-516.4925 1247,-504 1313.8657,-483.3077 1393.1423,-467.6826 1444.4449,-458.694"/>
<polygon fill="#000000" stroke="#000000" points="1445.0636,-462.139 1454.3204,-456.9852 1443.8701,-455.2415 1445.0636,-462.139"/>
</g>
<!-- n_upron -->
<g id="node8" class="node">
<title>n_upron</title>
<ellipse fill="none" stroke="#000000" cx="1187" cy="-666" rx="43.4454" ry="18"/>
<text text-anchor="middle" x="1187" y="-661.8" font-family="Times,serif" font-size="14.00" fill="#000000">n_upron</text>
</g>
<!-- corr_pron_var&#45;&gt;n_upron -->
<g id="edge6" class="edge">
<title>corr_pron_var-&gt;n_upron</title>
<path fill="none" stroke="#000000" d="M909.7682,-726.6708C972.5065,-712.9408 1077.3972,-689.986 1138.5864,-676.5951"/>
<polygon fill="#000000" stroke="#000000" points="1139.3639,-680.0078 1148.3844,-674.4508 1137.8674,-673.1697 1139.3639,-680.0078"/>
</g>
<!-- corr_pron_var&#45;&gt;n_punct -->
<g id="edge7" class="edge">
<title>corr_pron_var-&gt;n_punct</title>
<path fill="none" stroke="#000000" d="M815.9333,-723.9126C796.2403,-715.2957 774.0748,-702.338 760,-684 744.0514,-663.2206 730.6748,-590.9591 724.1949,-550.3191"/>
<polygon fill="#000000" stroke="#000000" points="727.6227,-549.5836 722.6261,-540.241 720.706,-550.6604 727.6227,-549.5836"/>
</g>
<!-- corr_pron_var&#45;&gt;t_char -->
<g id="edge8" class="edge">
<title>corr_pron_var-&gt;t_char</title>
<path fill="none" stroke="#000000" d="M848.6391,-720.0509C843.8198,-709.7943 838.452,-696.5173 836,-684 832.9243,-668.2984 833.1452,-663.7433 836,-648 848.1957,-580.7448 852.2222,-560.9635 890,-504 902.8581,-484.6118 945.9328,-443.7703 966,-432 1006.8083,-408.0641 1059.3615,-393.6167 1095.7842,-385.7691"/>
<polygon fill="#000000" stroke="#000000" points="1096.5276,-389.1895 1105.6064,-383.7283 1095.1035,-382.3359 1096.5276,-389.1895"/>
</g>
<!-- corr_noun_var&#45;&gt;simp_det_var -->
<g id="edge14" class="edge">
<title>corr_noun_var-&gt;simp_det_var</title>
<path fill="none" stroke="#000000" d="M1727.3174,-649.1995C1766.436,-623.2406 1841.6076,-573.3571 1885.2868,-544.3719"/>
<polygon fill="#000000" stroke="#000000" points="1887.4468,-547.1391 1893.8439,-538.6934 1883.5763,-541.3064 1887.4468,-547.1391"/>
</g>
<!-- corr_noun_var&#45;&gt;a_syll_pw -->
<g id="edge15" class="edge">
<title>corr_noun_var-&gt;a_syll_pw</title>
<path fill="none" stroke="#000000" d="M1643.7903,-656.6816C1624.1875,-653.7001 1602.1721,-650.5218 1582,-648 1408.2767,-626.2817 1202.1849,-607.5944 1102.6681,-599.0148"/>
<polygon fill="#000000" stroke="#000000" points="1102.7721,-595.5109 1092.5092,-598.1422 1102.1729,-602.4852 1102.7721,-595.5109"/>
</g>
<!-- corr_noun_var&#45;&gt;n_upunct -->
<g id="edge11" class="edge">
<title>corr_noun_var-&gt;n_upunct</title>
<path fill="none" stroke="#000000" d="M1652.1511,-653.5509C1603.1844,-640.8754 1534.5824,-621.7435 1526,-612 1493.3447,-574.9267 1492.0481,-513.925 1494.6332,-478.3022"/>
<polygon fill="#000000" stroke="#000000" points="1498.1394,-478.3846 1495.5296,-468.1162 1491.1663,-477.7708 1498.1394,-478.3846"/>
</g>
<!-- corr_noun_var&#45;&gt;t_char -->
<g id="edge13" class="edge">
<title>corr_noun_var-&gt;t_char</title>
<path fill="none" stroke="#000000" d="M1646.1058,-655.7496C1605.1019,-647.0849 1548.6709,-632.7385 1502,-612 1431.8768,-580.8403 1241.8377,-449.9227 1168.4615,-398.6849"/>
<polygon fill="#000000" stroke="#000000" points="1170.3084,-395.7056 1160.1075,-392.8435 1166.2971,-401.4423 1170.3084,-395.7056"/>
</g>
<!-- root_noun_var -->
<g id="node11" class="node">
<title>root_noun_var</title>
<ellipse fill="none" stroke="#000000" cx="1594" cy="-378" rx="67.7856" ry="18"/>
<text text-anchor="middle" x="1594" y="-373.8" font-family="Times,serif" font-size="14.00" fill="#000000">root_noun_var</text>
</g>
<!-- corr_noun_var&#45;&gt;root_noun_var -->
<g id="edge12" class="edge">
<title>corr_noun_var-&gt;root_noun_var</title>
<path fill="none" stroke="#000000" d="M1653.3682,-653.3542C1632.248,-645.2008 1609.5158,-632.218 1597,-612 1557.0389,-547.4468 1573.8185,-452.4533 1585.7955,-405.855"/>
<polygon fill="#000000" stroke="#000000" points="1589.1891,-406.7125 1588.4039,-396.1468 1582.4289,-404.8961 1589.1891,-406.7125"/>
</g>
<!-- corr_noun_var&#45;&gt;sim_Bleu -->
<g id="edge16" class="edge">
<title>corr_noun_var-&gt;sim_Bleu</title>
<path fill="none" stroke="#000000" d="M1717.1011,-648.2832C1732.7095,-630.0406 1757.8497,-600.8502 1780,-576 1915.0015,-424.5437 2084.8288,-249.8629 2146.8876,-186.5259"/>
<polygon fill="#000000" stroke="#000000" points="2149.7449,-188.6111 2154.2478,-179.0208 2144.7471,-183.7099 2149.7449,-188.6111"/>
</g>
<!-- n_upunct&#45;&gt;simp_noun_var -->
<g id="edge32" class="edge">
<title>n_upunct-&gt;simp_noun_var</title>
<path fill="none" stroke="#000000" d="M1496.9864,-431.9043C1496.8608,-411.9772 1499.7196,-380.1029 1517,-360 1535.3655,-338.6349 1563.0561,-325.7081 1589.2643,-317.8932"/>
<polygon fill="#000000" stroke="#000000" points="1590.5086,-321.1806 1599.2138,-315.1415 1588.6426,-314.4338 1590.5086,-321.1806"/>
</g>
<!-- n_upunct&#45;&gt;t_char -->
<g id="edge31" class="edge">
<title>n_upunct-&gt;t_char</title>
<path fill="none" stroke="#000000" d="M1456.1155,-441.5998C1387.4148,-427.8214 1251.4997,-400.5626 1182.0483,-386.6336"/>
<polygon fill="#000000" stroke="#000000" points="1182.389,-383.1324 1171.896,-384.5975 1181.0125,-389.9957 1182.389,-383.1324"/>
</g>
<!-- n_upunct&#45;&gt;black -->
<g id="edge173" class="edge">
<title>n_upunct-&gt;black</title>
<path fill="none" stroke="#000000" d="M1475.6734,-433.9507C1427.0847,-400.0025 1306.9465,-321.3091 1193,-288 1074.5607,-253.3775 694.1864,-239.0819 566.3576,-235.1772"/>
<polygon fill="#000000" stroke="#000000" points="566.2875,-231.6737 556.187,-234.8724 566.0776,-238.6705 566.2875,-231.6737"/>
</g>
<!-- sta_codeBleu -->
<g id="node43" class="node">
<title>sta_codeBleu</title>
<ellipse fill="none" stroke="#000000" cx="1399" cy="-234" rx="63.1209" ry="18"/>
<text text-anchor="middle" x="1399" y="-229.8" font-family="Times,serif" font-size="14.00" fill="#000000">sta_codeBleu</text>
</g>
<!-- n_upunct&#45;&gt;sta_codeBleu -->
<g id="edge182" class="edge">
<title>n_upunct-&gt;sta_codeBleu</title>
<path fill="none" stroke="#000000" d="M1489.7296,-431.9555C1472.3682,-394.0762 1432.0375,-306.0818 1411.5006,-261.274"/>
<polygon fill="#000000" stroke="#000000" points="1414.6648,-259.7774 1407.3165,-252.1451 1408.3014,-262.694 1414.6648,-259.7774"/>
</g>
<!-- n_upron&#45;&gt;simp_noun_var -->
<g id="edge36" class="edge">
<title>n_upron-&gt;simp_noun_var</title>
<path fill="none" stroke="#000000" d="M1194.4091,-647.963C1217.3864,-594.4414 1292.9441,-435.561 1409,-360 1438.0521,-341.0849 1524.2665,-325.2832 1587.7965,-315.7562"/>
<polygon fill="#000000" stroke="#000000" points="1588.404,-319.2045 1597.7856,-314.2815 1587.3816,-312.2796 1588.404,-319.2045"/>
</g>
<!-- n_upron&#45;&gt;a_syll_pw -->
<g id="edge37" class="edge">
<title>n_upron-&gt;a_syll_pw</title>
<path fill="none" stroke="#000000" d="M1159.2354,-652.1177C1137.2046,-641.1023 1106.1523,-625.5762 1081.6848,-613.3424"/>
<polygon fill="#000000" stroke="#000000" points="1083.1718,-610.1728 1072.6623,-608.8311 1080.0413,-616.4338 1083.1718,-610.1728"/>
</g>
<!-- n_upron&#45;&gt;n_upunct -->
<g id="edge34" class="edge">
<title>n_upron-&gt;n_upunct</title>
<path fill="none" stroke="#000000" d="M1209.3664,-650.4658C1263.9045,-612.5873 1403.8513,-515.3895 1466.6631,-471.7646"/>
<polygon fill="#000000" stroke="#000000" points="1468.7804,-474.5554 1474.9972,-465.9762 1464.7873,-468.806 1468.7804,-474.5554"/>
</g>
<!-- n_upron&#45;&gt;t_char -->
<g id="edge35" class="edge">
<title>n_upron-&gt;t_char</title>
<path fill="none" stroke="#000000" d="M1169.9057,-649.1631C1161.0339,-639.2544 1151.0232,-625.9549 1146,-612 1120.5763,-541.3712 1128.1934,-450.8564 1134.4092,-405.9118"/>
<polygon fill="#000000" stroke="#000000" points="1137.8726,-406.4166 1135.8594,-396.0148 1130.9465,-405.4016 1137.8726,-406.4166"/>
</g>
<!-- WRich15_S -->
<g id="node13" class="node">
<title>WRich15_S</title>
<ellipse fill="none" stroke="#000000" cx="2634" cy="-450" rx="58.49" ry="18"/>
<text text-anchor="middle" x="2634" y="-445.8" font-family="Times,serif" font-size="14.00" fill="#000000">WRich15_S</text>
</g>
<!-- n_upron&#45;&gt;WRich15_S -->
<g id="edge33" class="edge">
<title>n_upron-&gt;WRich15_S</title>
<path fill="none" stroke="#000000" d="M1221.9267,-655.1408C1319.4765,-625.3086 1603.5796,-541.813 1846,-504 1984.0179,-482.4718 2401.4416,-461.0082 2566.1334,-453.1414"/>
<polygon fill="#000000" stroke="#000000" points="2566.3183,-456.6367 2576.1406,-452.6653 2565.9856,-449.6446 2566.3183,-456.6367"/>
</g>
<!-- n_punct&#45;&gt;simp_noun_var -->
<g id="edge50" class="edge">
<title>n_punct-&gt;simp_noun_var</title>
<path fill="none" stroke="#000000" d="M720.1836,-503.9738C721.6139,-469.5577 730.1413,-394.8228 776,-360 791.9253,-347.9071 1365.365,-319.8549 1580.531,-309.7295"/>
<polygon fill="#000000" stroke="#000000" points="1580.9855,-313.2121 1590.8102,-309.2466 1580.6569,-306.2198 1580.9855,-313.2121"/>
</g>
<!-- n_punct&#45;&gt;n_upunct -->
<g id="edge48" class="edge">
<title>n_punct-&gt;n_upunct</title>
<path fill="none" stroke="#000000" d="M761.2794,-518.1798C891.3543,-506.142 1292.8729,-468.9835 1441.7218,-455.2083"/>
<polygon fill="#000000" stroke="#000000" points="1442.3602,-458.6642 1451.9951,-454.2575 1441.7151,-451.694 1442.3602,-458.6642"/>
</g>
<!-- n_punct&#45;&gt;t_char -->
<g id="edge49" class="edge">
<title>n_punct-&gt;t_char</title>
<path fill="none" stroke="#000000" d="M756.9327,-513.1284C790.2627,-504.2985 840.0478,-489.0285 880,-468 903.5976,-455.5796 903.9537,-443.5276 928,-432 982.2942,-405.9719 1050.6803,-391.4309 1094.6216,-384.157"/>
<polygon fill="#000000" stroke="#000000" points="1095.3768,-387.5808 1104.6986,-382.5455 1094.2714,-380.6686 1095.3768,-387.5808"/>
</g>
<!-- n_punct&#45;&gt;black -->
<g id="edge174" class="edge">
<title>n_punct-&gt;black</title>
<path fill="none" stroke="#000000" d="M708.0344,-504.4178C674.6624,-455.3814 580.4515,-316.9492 541.3473,-259.4899"/>
<polygon fill="#000000" stroke="#000000" points="544.082,-257.2874 535.5622,-250.9894 538.295,-261.2258 544.082,-257.2874"/>
</g>
<!-- t_char&#45;&gt;simp_noun_var -->
<g id="edge83" class="edge">
<title>t_char-&gt;simp_noun_var</title>
<path fill="none" stroke="#000000" d="M1173.2499,-373.2759C1257.1359,-361.7054 1474.3291,-331.7477 1588.4738,-316.0036"/>
<polygon fill="#000000" stroke="#000000" points="1589.0928,-319.4515 1598.5207,-314.6178 1588.1363,-312.5171 1589.0928,-319.4515"/>
</g>
<!-- t_char&#45;&gt;black -->
<g id="edge176" class="edge">
<title>t_char-&gt;black</title>
<path fill="none" stroke="#000000" d="M1106.8008,-370.4607C1003.0246,-346.1619 677.4907,-269.9393 563.7227,-243.3009"/>
<polygon fill="#000000" stroke="#000000" points="564.2346,-239.8262 553.7,-240.9542 562.6387,-246.6419 564.2346,-239.8262"/>
</g>
<!-- sta_Bleu -->
<g id="node44" class="node">
<title>sta_Bleu</title>
<ellipse fill="none" stroke="#000000" cx="1139" cy="-306" rx="44.6607" ry="18"/>
<text text-anchor="middle" x="1139" y="-301.8" font-family="Times,serif" font-size="14.00" fill="#000000">sta_Bleu</text>
</g>
<!-- t_char&#45;&gt;sta_Bleu -->
<g id="edge184" class="edge">
<title>t_char-&gt;sta_Bleu</title>
<path fill="none" stroke="#000000" d="M1139,-359.8314C1139,-352.131 1139,-342.9743 1139,-334.4166"/>
<polygon fill="#000000" stroke="#000000" points="1142.5001,-334.4132 1139,-324.4133 1135.5001,-334.4133 1142.5001,-334.4132"/>
</g>
<!-- root_noun_var&#45;&gt;simp_noun_var -->
<g id="edge72" class="edge">
<title>root_noun_var-&gt;simp_noun_var</title>
<path fill="none" stroke="#000000" d="M1610.5618,-360.2022C1618.7565,-351.396 1628.7862,-340.6179 1637.7371,-330.9989"/>
<polygon fill="#000000" stroke="#000000" points="1640.3786,-333.2981 1644.6287,-323.593 1635.2541,-328.5294 1640.3786,-333.2981"/>
</g>
<!-- error_rate -->
<g id="node42" class="node">
<title>error_rate</title>
<ellipse fill="none" stroke="#000000" cx="511" cy="-162" rx="49.1931" ry="18"/>
<text text-anchor="middle" x="511" y="-157.8" font-family="Times,serif" font-size="14.00" fill="#000000">error_rate</text>
</g>
<!-- root_noun_var&#45;&gt;error_rate -->
<g id="edge189" class="edge">
<title>root_noun_var-&gt;error_rate</title>
<path fill="none" stroke="#000000" d="M1586.614,-360.0277C1571.1372,-325.0092 1531.6411,-248.2513 1471,-216 1391.7264,-173.8392 767.6292,-164.4034 570.4748,-162.4656"/>
<polygon fill="#000000" stroke="#000000" points="570.3405,-158.9642 560.3076,-162.3686 570.2737,-165.9639 570.3405,-158.9642"/>
</g>
<!-- sim_codeBleu -->
<g id="node17" class="node">
<title>sim_codeBleu</title>
<ellipse fill="none" stroke="#000000" cx="2171" cy="-90" rx="66.0723" ry="18"/>
<text text-anchor="middle" x="2171" y="-85.8" font-family="Times,serif" font-size="14.00" fill="#000000">sim_codeBleu</text>
</g>
<!-- sim_Bleu&#45;&gt;sim_codeBleu -->
<g id="edge186" class="edge">
<title>sim_Bleu-&gt;sim_codeBleu</title>
<path fill="none" stroke="#000000" d="M2171,-143.8314C2171,-136.131 2171,-126.9743 2171,-118.4166"/>
<polygon fill="#000000" stroke="#000000" points="2174.5001,-118.4132 2171,-108.4133 2167.5001,-118.4133 2174.5001,-118.4132"/>
</g>
<!-- WRich15_S&#45;&gt;simp_noun_var -->
<g id="edge18" class="edge">
<title>WRich15_S-&gt;simp_noun_var</title>
<path fill="none" stroke="#000000" d="M2614.3595,-432.8156C2585.6392,-407.8609 2534.4505,-364.1029 2524,-360 2452.4502,-331.9096 1942.9929,-314.2022 1742.1257,-308.2442"/>
<polygon fill="#000000" stroke="#000000" points="1742.0308,-304.74 1731.9321,-307.9441 1741.8247,-311.7369 1742.0308,-304.74"/>
</g>
<!-- WRich15_S&#45;&gt;t_char -->
<g id="edge17" class="edge">
<title>WRich15_S-&gt;t_char</title>
<path fill="none" stroke="#000000" d="M2576.3103,-447.2216C2333.9731,-435.5505 1400.9204,-390.6142 1184.165,-380.1752"/>
<polygon fill="#000000" stroke="#000000" points="1184.2548,-376.6755 1174.098,-379.6903 1183.918,-383.6674 1184.2548,-376.6755"/>
</g>
<!-- root_ttr -->
<g id="node14" class="node">
<title>root_ttr</title>
<ellipse fill="none" stroke="#000000" cx="2094" cy="-666" rx="40.005" ry="18"/>
<text text-anchor="middle" x="2094" y="-661.8" font-family="Times,serif" font-size="14.00" fill="#000000">root_ttr</text>
</g>
<!-- root_ttr&#45;&gt;n_upunct -->
<g id="edge20" class="edge">
<title>root_ttr-&gt;n_upunct</title>
<path fill="none" stroke="#000000" d="M2062.7956,-654.691C1963.7684,-618.802 1656.3781,-507.3988 1541.7133,-465.8424"/>
<polygon fill="#000000" stroke="#000000" points="1542.7826,-462.5072 1532.1884,-462.3904 1540.3975,-469.0884 1542.7826,-462.5072"/>
</g>
<!-- root_ttr&#45;&gt;t_char -->
<g id="edge23" class="edge">
<title>root_ttr-&gt;t_char</title>
<path fill="none" stroke="#000000" d="M2088.0748,-648.0518C2075.8895,-614.1082 2044.6533,-540.6354 1992,-504 1928.0691,-459.5178 1725.9352,-444.1159 1649,-432 1478.3137,-405.12 1273.3295,-387.9616 1184.1365,-381.2327"/>
<polygon fill="#000000" stroke="#000000" points="1184.3289,-377.7374 1174.0959,-380.4825 1183.8073,-384.7179 1184.3289,-377.7374"/>
</g>
<!-- root_ttr&#45;&gt;WRich15_S -->
<g id="edge19" class="edge">
<title>root_ttr-&gt;WRich15_S</title>
<path fill="none" stroke="#000000" d="M2099.8587,-647.9071C2107.4499,-627.3658 2122.6728,-594.336 2147,-576 2151.403,-572.6813 2452.1588,-496.1282 2578.7767,-463.9971"/>
<polygon fill="#000000" stroke="#000000" points="2579.839,-467.3386 2588.6712,-461.4867 2578.1175,-460.5536 2579.839,-467.3386"/>
</g>
<!-- corr_ttr_no_lem -->
<g id="node15" class="node">
<title>corr_ttr_no_lem</title>
<ellipse fill="none" stroke="#000000" cx="2230" cy="-594" rx="73.5772" ry="18"/>
<text text-anchor="middle" x="2230" y="-589.8" font-family="Times,serif" font-size="14.00" fill="#000000">corr_ttr_no_lem</text>
</g>
<!-- root_ttr&#45;&gt;corr_ttr_no_lem -->
<g id="edge21" class="edge">
<title>root_ttr-&gt;corr_ttr_no_lem</title>
<path fill="none" stroke="#000000" d="M2120.2222,-652.1177C2140.0316,-641.6303 2167.564,-627.0543 2190.0999,-615.1236"/>
<polygon fill="#000000" stroke="#000000" points="2191.8967,-618.1326 2199.097,-610.3604 2188.6215,-611.9461 2191.8967,-618.1326"/>
</g>
<!-- t_n_ent_date -->
<g id="node16" class="node">
<title>t_n_ent_date</title>
<ellipse fill="none" stroke="#000000" cx="283" cy="-594" rx="60.8371" ry="18"/>
<text text-anchor="middle" x="283" y="-589.8" font-family="Times,serif" font-size="14.00" fill="#000000">t_n_ent_date</text>
</g>
<!-- root_ttr&#45;&gt;t_n_ent_date -->
<g id="edge22" class="edge">
<title>root_ttr-&gt;t_n_ent_date</title>
<path fill="none" stroke="#000000" d="M2054.2334,-663.4591C1994.4966,-659.7031 1878.0383,-652.6166 1779,-648 1230.7913,-622.4456 569.0905,-602.3071 354.1368,-596.0372"/>
<polygon fill="#000000" stroke="#000000" points="354.0354,-592.5329 343.9378,-595.7404 353.8317,-599.5299 354.0354,-592.5329"/>
</g>
<!-- root_ttr&#45;&gt;sim_codeBleu -->
<g id="edge24" class="edge">
<title>root_ttr-&gt;sim_codeBleu</title>
<path fill="none" stroke="#000000" d="M2093.4795,-647.9417C2093.8242,-628.3417 2097.1297,-597.034 2113,-576 2267.71,-370.953 2624,-562.8647 2624,-306 2624,-306 2624,-306 2624,-234 2624,-155.0583 2370.9923,-113.6827 2243.142,-97.8142"/>
<polygon fill="#000000" stroke="#000000" points="2243.3883,-94.3184 2233.0379,-96.5809 2242.5401,-101.2668 2243.3883,-94.3184"/>
</g>
<!-- t_n_ent_date&#45;&gt;n_punct -->
<g id="edge68" class="edge">
<title>t_n_ent_date-&gt;n_punct</title>
<path fill="none" stroke="#000000" d="M336.5848,-585.1714C422.0214,-571.0949 587.8835,-543.7675 670.6041,-530.1385"/>
<polygon fill="#000000" stroke="#000000" points="671.2109,-533.5858 680.5089,-528.5065 670.0729,-526.6789 671.2109,-533.5858"/>
</g>
<!-- t_n_ent_date&#45;&gt;n_num -->
<g id="edge69" class="edge">
<title>t_n_ent_date-&gt;n_num</title>
<path fill="none" stroke="#000000" d="M311.1854,-578.0209C330.4502,-567.0991 356.0736,-552.5724 376.4002,-541.0487"/>
<polygon fill="#000000" stroke="#000000" points="378.3518,-543.9657 385.3248,-535.9891 374.8994,-537.8762 378.3518,-543.9657"/>
</g>
<!-- syntaxError_rate -->
<g id="node31" class="node">
<title>syntaxError_rate</title>
<ellipse fill="none" stroke="#000000" cx="255" cy="-90" rx="75.8412" ry="18"/>
<text text-anchor="middle" x="255" y="-85.8" font-family="Times,serif" font-size="14.00" fill="#000000">syntaxError_rate</text>
</g>
<!-- t_n_ent_date&#45;&gt;syntaxError_rate -->
<g id="edge70" class="edge">
<title>t_n_ent_date-&gt;syntaxError_rate</title>
<path fill="none" stroke="#000000" d="M271.3359,-576.1978C255.1912,-549.7927 228,-498.1706 228,-450 228,-450 228,-450 228,-234 228,-192.9969 238.7061,-146.534 246.635,-117.7459"/>
<polygon fill="#000000" stroke="#000000" points="250.0427,-118.558 249.4056,-107.9823 243.3086,-116.647 250.0427,-118.558"/>
</g>
<!-- pass_rate -->
<g id="node32" class="node">
<title>pass_rate</title>
<ellipse fill="none" stroke="#000000" cx="255" cy="-18" rx="46.9265" ry="18"/>
<text text-anchor="middle" x="255" y="-13.8" font-family="Times,serif" font-size="14.00" fill="#000000">pass_rate</text>
</g>
<!-- t_n_ent_date&#45;&gt;pass_rate -->
<g id="edge71" class="edge">
<title>t_n_ent_date-&gt;pass_rate</title>
<path fill="none" stroke="#000000" d="M259.951,-577.0236C198.9616,-529.9546 38,-390.8713 38,-234 38,-234 38,-234 38,-162 38,-83.1383 138.7319,-44.8922 202.9336,-28.5247"/>
<polygon fill="#000000" stroke="#000000" points="204.0227,-31.8615 212.9029,-26.0828 202.3573,-25.0625 204.0227,-31.8615"/>
</g>
<!-- corr_det_var -->
<g id="node18" class="node">
<title>corr_det_var</title>
<ellipse fill="none" stroke="#000000" cx="2572" cy="-594" rx="60.2344" ry="18"/>
<text text-anchor="middle" x="2572" y="-589.8" font-family="Times,serif" font-size="14.00" fill="#000000">corr_det_var</text>
</g>
<!-- corr_det_var&#45;&gt;simp_noun_var -->
<g id="edge28" class="edge">
<title>corr_det_var-&gt;simp_noun_var</title>
<path fill="none" stroke="#000000" d="M2548.5778,-577.0609C2485.8484,-532.6809 2307.3618,-412.8145 2139,-360 2066.6771,-337.3126 1856.5901,-319.649 1740.4697,-311.2915"/>
<polygon fill="#000000" stroke="#000000" points="1740.4427,-307.7808 1730.219,-310.5604 1739.9446,-314.7631 1740.4427,-307.7808"/>
</g>
<!-- corr_det_var&#45;&gt;simp_det_var -->
<g id="edge29" class="edge">
<title>corr_det_var-&gt;simp_det_var</title>
<path fill="none" stroke="#000000" d="M2527.2387,-581.843C2517.6507,-579.5963 2507.536,-577.4917 2498,-576 2277.4414,-541.4983 2217.7585,-573.1986 1997,-540 1990.2595,-538.9863 1983.2387,-537.7004 1976.2924,-536.2836"/>
<polygon fill="#000000" stroke="#000000" points="1976.7204,-532.7962 1966.21,-534.1309 1975.2587,-539.6419 1976.7204,-532.7962"/>
</g>
<!-- corr_det_var&#45;&gt;n_upunct -->
<g id="edge26" class="edge">
<title>corr_det_var-&gt;n_upunct</title>
<path fill="none" stroke="#000000" d="M2526.8295,-581.8438C2517.3599,-579.6251 2507.3958,-577.5313 2498,-576 2310.9032,-545.5075 2256.608,-587.1497 2073,-540 2034.8426,-530.2013 2030.0351,-514.263 1992,-504 1910.6201,-482.0414 1665.6684,-462.1437 1554.2591,-453.9538"/>
<polygon fill="#000000" stroke="#000000" points="1554.4528,-450.4587 1544.2245,-453.2213 1553.9431,-457.4402 1554.4528,-450.4587"/>
</g>
<!-- corr_det_var&#45;&gt;t_char -->
<g id="edge27" class="edge">
<title>corr_det_var-&gt;t_char</title>
<path fill="none" stroke="#000000" d="M2525.9515,-582.146C2516.7262,-579.9559 2507.0793,-577.7962 2498,-576 2394.346,-555.494 2366.7155,-560.1922 2263,-540 2194.855,-526.7329 2021.87,-497.4468 1959,-468 1934.8509,-456.6892 1935.9884,-441.3108 1911,-432 1876.8134,-419.262 1344.7682,-389.2592 1184.4026,-380.4639"/>
<polygon fill="#000000" stroke="#000000" points="1184.5628,-376.9675 1174.3864,-379.9157 1184.1801,-383.9571 1184.5628,-376.9675"/>
</g>
<!-- root_det_var -->
<g id="node19" class="node">
<title>root_det_var</title>
<ellipse fill="none" stroke="#000000" cx="2625" cy="-522" rx="60.2556" ry="18"/>
<text text-anchor="middle" x="2625" y="-517.8" font-family="Times,serif" font-size="14.00" fill="#000000">root_det_var</text>
</g>
<!-- corr_det_var&#45;&gt;root_det_var -->
<g id="edge25" class="edge">
<title>corr_det_var-&gt;root_det_var</title>
<path fill="none" stroke="#000000" d="M2585.1011,-576.2022C2591.3909,-567.6576 2599.0474,-557.2564 2605.9649,-547.859"/>
<polygon fill="#000000" stroke="#000000" points="2608.94,-549.7213 2612.0496,-539.593 2603.3027,-545.5715 2608.94,-549.7213"/>
</g>
<!-- root_det_var&#45;&gt;WRich15_S -->
<g id="edge30" class="edge">
<title>root_det_var-&gt;WRich15_S</title>
<path fill="none" stroke="#000000" d="M2627.2711,-503.8314C2628.2336,-496.131 2629.3782,-486.9743 2630.4479,-478.4166"/>
<polygon fill="#000000" stroke="#000000" points="2633.9309,-478.7702 2631.6983,-468.4133 2626.9849,-477.9019 2633.9309,-478.7702"/>
</g>
<!-- BRich20_S -->
<g id="node20" class="node">
<title>BRich20_S</title>
<ellipse fill="none" stroke="#000000" cx="2262" cy="-738" rx="55.6391" ry="18"/>
<text text-anchor="middle" x="2262" y="-733.8" font-family="Times,serif" font-size="14.00" fill="#000000">BRich20_S</text>
</g>
<!-- BRich20_S&#45;&gt;simp_noun_var -->
<g id="edge41" class="edge">
<title>BRich20_S-&gt;simp_noun_var</title>
<path fill="none" stroke="#000000" d="M2313.428,-731.0517C2390.8368,-718.4959 2539.0649,-686.1042 2641,-612 2709.2083,-562.4143 2745.0292,-503.9204 2701,-432 2664.2613,-371.9885 2627.8884,-378.5009 2560,-360 2482.3471,-338.8381 1948.0538,-316.785 1741.8982,-308.9637"/>
<polygon fill="#000000" stroke="#000000" points="1741.8668,-305.4601 1731.7417,-308.5798 1741.6023,-312.4551 1741.8668,-305.4601"/>
</g>
<!-- BRich20_S&#45;&gt;simp_det_var -->
<g id="edge42" class="edge">
<title>BRich20_S-&gt;simp_det_var</title>
<path fill="none" stroke="#000000" d="M2277.0494,-720.5958C2303.1942,-688.2137 2350.7634,-618.1773 2313,-576 2264.5297,-521.8642 2059.4539,-553.2056 1988,-540 1983.3739,-539.145 1978.6009,-538.1473 1973.8264,-537.068"/>
<polygon fill="#000000" stroke="#000000" points="1974.6084,-533.6564 1964.0709,-534.7576 1972.9952,-540.468 1974.6084,-533.6564"/>
</g>
<!-- BRich20_S&#45;&gt;a_syll_pw -->
<g id="edge44" class="edge">
<title>BRich20_S-&gt;a_syll_pw</title>
<path fill="none" stroke="#000000" d="M2216.3174,-727.7327C2130.9037,-708.9283 1940.9931,-668.9694 1779,-648 1529.6637,-615.7243 1230.1204,-601.2004 1103.8458,-596.178"/>
<polygon fill="#000000" stroke="#000000" points="1103.7414,-592.6713 1093.612,-595.7767 1103.4671,-599.6659 1103.7414,-592.6713"/>
</g>
<!-- BRich20_S&#45;&gt;n_upron -->
<g id="edge38" class="edge">
<title>BRich20_S-&gt;n_upron</title>
<path fill="none" stroke="#000000" d="M2207.167,-734.6796C2147.2016,-731.0529 2048.2647,-725.0825 1963,-720 1691.8984,-703.84 1623.6371,-706.6454 1353,-684 1314.6824,-680.7938 1271.5064,-676.0776 1238.794,-672.2771"/>
<polygon fill="#000000" stroke="#000000" points="1238.8994,-668.7656 1228.5601,-671.0783 1238.085,-675.718 1238.8994,-668.7656"/>
</g>
<!-- BTopc10_S -->
<g id="node21" class="node">
<title>BTopc10_S</title>
<ellipse fill="none" stroke="#000000" cx="2861" cy="-666" rx="57.3476" ry="18"/>
<text text-anchor="middle" x="2861" y="-661.8" font-family="Times,serif" font-size="14.00" fill="#000000">BTopc10_S</text>
</g>
<!-- BRich20_S&#45;&gt;BTopc10_S -->
<g id="edge39" class="edge">
<title>BRich20_S-&gt;BTopc10_S</title>
<path fill="none" stroke="#000000" d="M2314.4493,-731.9488C2399.4331,-722.1111 2572.4935,-701.941 2719,-684 2744.9063,-680.8275 2773.4571,-677.2284 2798.122,-674.0867"/>
<polygon fill="#000000" stroke="#000000" points="2798.6017,-677.554 2808.0784,-672.8165 2797.7158,-670.6103 2798.6017,-677.554"/>
</g>
<!-- WRich10_S -->
<g id="node22" class="node">
<title>WRich10_S</title>
<ellipse fill="none" stroke="#000000" cx="2652" cy="-666" rx="58.49" ry="18"/>
<text text-anchor="middle" x="2652" y="-661.8" font-family="Times,serif" font-size="14.00" fill="#000000">WRich10_S</text>
</g>
<!-- BRich20_S&#45;&gt;WRich10_S -->
<g id="edge40" class="edge">
<title>BRich20_S-&gt;WRich10_S</title>
<path fill="none" stroke="#000000" d="M2310.6052,-729.0267C2381.8352,-715.8766 2514.48,-691.3883 2591.7878,-677.1161"/>
<polygon fill="#000000" stroke="#000000" points="2592.6571,-680.5148 2601.8555,-675.2575 2591.3862,-673.6312 2592.6571,-680.5148"/>
</g>
<!-- t_n_ent -->
<g id="node23" class="node">
<title>t_n_ent</title>
<ellipse fill="none" stroke="#000000" cx="592" cy="-666" rx="40.0089" ry="18"/>
<text text-anchor="middle" x="592" y="-661.8" font-family="Times,serif" font-size="14.00" fill="#000000">t_n_ent</text>
</g>
<!-- BRich20_S&#45;&gt;t_n_ent -->
<g id="edge43" class="edge">
<title>BRich20_S-&gt;t_n_ent</title>
<path fill="none" stroke="#000000" d="M2207.4581,-734.3756C2147.5355,-730.4732 2048.4403,-724.254 1963,-720 1447.195,-694.3188 821.7262,-673.4055 642.2969,-667.6038"/>
<polygon fill="#000000" stroke="#000000" points="642.2171,-664.0995 632.1094,-667.2751 641.9914,-671.0959 642.2171,-664.0995"/>
</g>
<!-- BTopc10_S&#45;&gt;WRich15_S -->
<g id="edge51" class="edge">
<title>BTopc10_S-&gt;WRich15_S</title>
<path fill="none" stroke="#000000" d="M2860.2964,-647.7831C2858.9135,-628.8806 2854.8542,-598.931 2843,-576 2822.7872,-536.8998 2811.578,-528.4833 2775,-504 2748.8087,-486.469 2716.1171,-473.4938 2688.8086,-464.662"/>
<polygon fill="#000000" stroke="#000000" points="2689.6021,-461.243 2679.0131,-461.5949 2687.5104,-467.9232 2689.6021,-461.243"/>
</g>
<!-- BTopc10_S&#45;&gt;error_rate -->
<g id="edge187" class="edge">
<title>BTopc10_S-&gt;error_rate</title>
<path fill="none" stroke="#000000" d="M2874.7848,-648.5155C2893.865,-622.5061 2926,-571.372 2926,-522 2926,-522 2926,-522 2926,-450 2926,-205.0791 942.2519,-167.5436 570.6028,-162.6606"/>
<polygon fill="#000000" stroke="#000000" points="570.3791,-159.1575 560.3349,-162.5286 570.2891,-166.1569 570.3791,-159.1575"/>
</g>
<!-- WRich10_S&#45;&gt;simp_det_var -->
<g id="edge96" class="edge">
<title>WRich10_S-&gt;simp_det_var</title>
<path fill="none" stroke="#000000" d="M2602.7124,-656.3691C2565.0497,-647.8439 2512.5479,-633.3974 2470,-612 2446.1763,-600.0191 2446.9194,-585.4938 2422,-576 2244.8551,-508.5114 2184.2736,-569.3871 1997,-540 1990.3583,-538.9578 1983.4415,-537.6667 1976.5908,-536.2581"/>
<polygon fill="#000000" stroke="#000000" points="1977.152,-532.7989 1966.6406,-534.1254 1975.6849,-539.6435 1977.152,-532.7989"/>
</g>
<!-- WRich10_S&#45;&gt;WRich15_S -->
<g id="edge95" class="edge">
<title>WRich10_S-&gt;WRich15_S</title>
<path fill="none" stroke="#000000" d="M2702.8948,-657.0753C2748.7698,-647.8718 2811.2262,-632.0539 2826,-612 2835.49,-599.1183 2833.6008,-590.0793 2826,-576 2809.3285,-545.1185 2724.7916,-497.1256 2673.6107,-470.1588"/>
<polygon fill="#000000" stroke="#000000" points="2674.9497,-466.9093 2664.4662,-465.377 2671.706,-473.1124 2674.9497,-466.9093"/>
</g>
<!-- t_n_ent&#45;&gt;n_upunct -->
<g id="edge149" class="edge">
<title>t_n_ent-&gt;n_upunct</title>
<path fill="none" stroke="#000000" d="M626.1428,-656.3859C720.1921,-630.0755 991.1619,-555.4311 1219,-504 1297.1522,-486.3583 1388.4215,-469.3692 1444.7183,-459.3036"/>
<polygon fill="#000000" stroke="#000000" points="1445.5806,-462.7052 1454.8121,-457.5061 1444.3533,-455.8136 1445.5806,-462.7052"/>
</g>
<!-- t_n_ent&#45;&gt;n_punct -->
<g id="edge150" class="edge">
<title>t_n_ent-&gt;n_punct</title>
<path fill="none" stroke="#000000" d="M604.1326,-648.7632C617.5204,-630.1499 640.0847,-599.9497 662,-576 671.7696,-565.3235 683.3028,-554.3039 693.501,-545.0257"/>
<polygon fill="#000000" stroke="#000000" points="695.8847,-547.5893 700.9881,-538.3045 691.2086,-542.3803 695.8847,-547.5893"/>
</g>
<!-- t_n_ent&#45;&gt;t_char -->
<g id="edge153" class="edge">
<title>t_n_ent-&gt;t_char</title>
<path fill="none" stroke="#000000" d="M587.6579,-647.9995C580.7196,-614.2983 571.618,-541.6906 611,-504 681.067,-436.9423 979.7752,-396.2648 1094.1761,-382.8955"/>
<polygon fill="#000000" stroke="#000000" points="1094.8059,-386.3461 1104.3389,-381.7232 1094.0037,-379.3922 1094.8059,-386.3461"/>
</g>
<!-- t_n_ent&#45;&gt;t_n_ent_date -->
<g id="edge151" class="edge">
<title>t_n_ent-&gt;t_n_ent_date</title>
<path fill="none" stroke="#000000" d="M556.2519,-657.6703C503.4731,-645.3724 404.1371,-622.2261 340.8862,-607.4881"/>
<polygon fill="#000000" stroke="#000000" points="341.5907,-604.0585 331.0573,-605.1978 340.0022,-610.8759 341.5907,-604.0585"/>
</g>
<!-- t_n_ent&#45;&gt;corr_det_var -->
<g id="edge148" class="edge">
<title>t_n_ent-&gt;corr_det_var</title>
<path fill="none" stroke="#000000" d="M632.1896,-664.6322C722.2152,-661.576 946.9218,-653.9912 1135,-648 1658.5344,-631.323 1789.8538,-638.1627 2313,-612 2377.6775,-608.7655 2451.3347,-603.4921 2503.5214,-599.4871"/>
<polygon fill="#000000" stroke="#000000" points="2503.9626,-602.9636 2513.6634,-598.704 2503.4236,-595.9844 2503.9626,-602.9636"/>
</g>
<!-- t_n_ent&#45;&gt;n_num -->
<g id="edge152" class="edge">
<title>t_n_ent-&gt;n_num</title>
<path fill="none" stroke="#000000" d="M572.1763,-650.3154C539.543,-624.4956 474.4427,-572.9876 437.4167,-543.6923"/>
<polygon fill="#000000" stroke="#000000" points="439.5377,-540.9074 429.5237,-537.4474 435.1943,-546.397 439.5377,-540.9074"/>
</g>
<!-- WClar20_S -->
<g id="node24" class="node">
<title>WClar20_S</title>
<ellipse fill="none" stroke="#000000" cx="1663" cy="-594" rx="56.7619" ry="18"/>
<text text-anchor="middle" x="1663" y="-589.8" font-family="Times,serif" font-size="14.00" fill="#000000">WClar20_S</text>
</g>
<!-- WClar20_S&#45;&gt;simp_noun_var -->
<g id="edge46" class="edge">
<title>WClar20_S-&gt;simp_noun_var</title>
<path fill="none" stroke="#000000" d="M1665.179,-575.7506C1669.5487,-536.2969 1678.3585,-440.1474 1671,-360 1670.2277,-351.5885 1668.7923,-342.5317 1667.2453,-334.2836"/>
<polygon fill="#000000" stroke="#000000" points="1670.6578,-333.499 1665.2675,-324.3779 1663.7933,-334.8697 1670.6578,-333.499"/>
</g>
<!-- WClar20_S&#45;&gt;simp_det_var -->
<g id="edge47" class="edge">
<title>WClar20_S-&gt;simp_det_var</title>
<path fill="none" stroke="#000000" d="M1705.5606,-582.0298C1748.9651,-569.8223 1816.4921,-550.8303 1863.9437,-537.4846"/>
<polygon fill="#000000" stroke="#000000" points="1865.0698,-540.8037 1873.7487,-534.7269 1863.1745,-534.0652 1865.0698,-540.8037"/>
</g>
<!-- WClar20_S&#45;&gt;n_upunct -->
<g id="edge45" class="edge">
<title>WClar20_S-&gt;n_upunct</title>
<path fill="none" stroke="#000000" d="M1643.4244,-576.9158C1613.9922,-551.2296 1558.2539,-502.5852 1524.9852,-473.5507"/>
<polygon fill="#000000" stroke="#000000" points="1526.8765,-470.5559 1517.0409,-466.6175 1522.2738,-475.8299 1526.8765,-470.5559"/>
</g>
<!-- corr_ttr -->
<g id="node25" class="node">
<title>corr_ttr</title>
<ellipse fill="none" stroke="#000000" cx="1814" cy="-954" rx="39.9838" ry="18"/>
<text text-anchor="middle" x="1814" y="-949.8" font-family="Times,serif" font-size="14.00" fill="#000000">corr_ttr</text>
</g>
<!-- corr_ttr&#45;&gt;simp_det_var -->
<g id="edge62" class="edge">
<title>corr_ttr-&gt;simp_det_var</title>
<path fill="none" stroke="#000000" d="M1850.9276,-946.6227C1911.667,-932.0978 2026,-893.6473 2026,-810 2026,-810 2026,-810 2026,-738 2026,-662.5215 1972.8894,-586.1826 1941.5041,-547.6603"/>
<polygon fill="#000000" stroke="#000000" points="1943.8737,-545.0358 1934.7882,-539.5855 1938.4918,-549.512 1943.8737,-545.0358"/>
</g>
<!-- corr_ttr&#45;&gt;a_syll_pw -->
<g id="edge65" class="edge">
<title>corr_ttr-&gt;a_syll_pw</title>
<path fill="none" stroke="#000000" d="M1773.9137,-952.8096C1616.5126,-947.9487 1045.7057,-928.5004 970,-900 862.039,-859.3566 721.7463,-817.7519 783,-720 827.4045,-649.1368 924.2439,-617.1331 986.3893,-603.4293"/>
<polygon fill="#000000" stroke="#000000" points="987.3704,-606.7993 996.4306,-601.3072 985.923,-599.9506 987.3704,-606.7993"/>
</g>
<!-- corr_ttr&#45;&gt;corr_pron_var -->
<g id="edge52" class="edge">
<title>corr_ttr-&gt;corr_pron_var</title>
<path fill="none" stroke="#000000" d="M1773.9379,-952.5571C1624.3632,-946.9881 1103.6104,-925.9088 1034,-900 963.0794,-873.6036 903.9502,-802.7077 875.7581,-764.0348"/>
<polygon fill="#000000" stroke="#000000" points="878.5655,-761.9435 869.9008,-755.8464 872.8721,-766.0161 878.5655,-761.9435"/>
</g>
<!-- corr_ttr&#45;&gt;corr_noun_var -->
<g id="edge53" class="edge">
<title>corr_ttr-&gt;corr_noun_var</title>
<path fill="none" stroke="#000000" d="M1806.9939,-935.9843C1787.9802,-887.0919 1735.3194,-751.6785 1712.6284,-693.33"/>
<polygon fill="#000000" stroke="#000000" points="1715.89,-692.0603 1709.0035,-684.0089 1709.366,-694.5975 1715.89,-692.0603"/>
</g>
<!-- corr_ttr&#45;&gt;n_upron -->
<g id="edge56" class="edge">
<title>corr_ttr-&gt;n_upron</title>
<path fill="none" stroke="#000000" d="M1784.2119,-941.9139C1758.5169,-931.3272 1720.5236,-915.2865 1688,-900 1529.3349,-825.4253 1498.0254,-789.3313 1337,-720 1292.8449,-700.9885 1280.1754,-700.4407 1235,-684 1232.9275,-683.2457 1230.8064,-682.4688 1228.6656,-681.6807"/>
<polygon fill="#000000" stroke="#000000" points="1229.8357,-678.3818 1219.2426,-678.1893 1227.4035,-684.9457 1229.8357,-678.3818"/>
</g>
<!-- corr_ttr&#45;&gt;root_ttr -->
<g id="edge54" class="edge">
<title>corr_ttr-&gt;root_ttr</title>
<path fill="none" stroke="#000000" d="M1853.2528,-949.6043C1910.8237,-942.3582 2014.1428,-926.0581 2040,-900 2095.4231,-844.1462 2098.477,-743.4696 2096.2547,-694.4138"/>
<polygon fill="#000000" stroke="#000000" points="2099.737,-693.9984 2095.6803,-684.211 2092.748,-694.3919 2099.737,-693.9984"/>
</g>
<!-- corr_ttr&#45;&gt;corr_ttr_no_lem -->
<g id="edge57" class="edge">
<title>corr_ttr-&gt;corr_ttr_no_lem</title>
<path fill="none" stroke="#000000" d="M1853.0124,-949.6761C1915.1028,-942.1401 2032.792,-924.9813 2066,-900 2072.2807,-895.2752 2177.2496,-695.0127 2215.879,-621.0661"/>
<polygon fill="#000000" stroke="#000000" points="2219.1396,-622.3833 2220.666,-611.899 2212.9346,-619.1431 2219.1396,-622.3833"/>
</g>
<!-- corr_ttr&#45;&gt;corr_det_var -->
<g id="edge55" class="edge">
<title>corr_ttr-&gt;corr_det_var</title>
<path fill="none" stroke="#000000" d="M1853.3345,-950.2733C1920.1717,-943.3003 2052.3333,-926.5419 2090,-900 2166.0771,-846.3921 2125.0834,-779.0723 2197,-720 2287.7212,-645.4815 2424.4867,-614.3007 2505.3569,-601.8069"/>
<polygon fill="#000000" stroke="#000000" points="2506.0452,-605.243 2515.4186,-600.3044 2505.0113,-598.3198 2506.0452,-605.243"/>
</g>
<!-- corr_ttr&#45;&gt;BTopc10_S -->
<g id="edge58" class="edge">
<title>corr_ttr-&gt;BTopc10_S</title>
<path fill="none" stroke="#000000" d="M1854.0181,-951.9896C1969.6077,-945.9255 2302.4387,-926.5839 2408,-900 2487.1717,-880.0619 2503.8636,-864.287 2577,-828 2669.2899,-782.2098 2773.4707,-719.918 2826.2912,-687.5401"/>
<polygon fill="#000000" stroke="#000000" points="2828.2437,-690.4483 2834.9304,-682.2302 2824.5783,-684.4847 2828.2437,-690.4483"/>
</g>
<!-- corr_ttr&#45;&gt;WRich10_S -->
<g id="edge61" class="edge">
<title>corr_ttr-&gt;WRich10_S</title>
<path fill="none" stroke="#000000" d="M1853.9932,-951.5491C1990.6517,-942.5175 2437.0199,-907.4124 2553,-828 2553,-828 2607.7129,-738.4698 2635.7907,-692.5243"/>
<polygon fill="#000000" stroke="#000000" points="2638.799,-694.3137 2641.027,-683.9558 2632.826,-690.6635 2638.799,-694.3137"/>
</g>
<!-- corr_ttr&#45;&gt;t_n_ent -->
<g id="edge64" class="edge">
<title>corr_ttr-&gt;t_n_ent</title>
<path fill="none" stroke="#000000" d="M1773.7871,-953.4461C1612.4123,-950.9699 1011.6084,-939.2534 826,-900 737.6499,-881.3153 696.6833,-894.876 636,-828 602.1007,-790.6413 593.9276,-729.7402 592.1891,-694.2124"/>
<polygon fill="#000000" stroke="#000000" points="595.6814,-693.9272 591.8348,-684.0553 588.6857,-694.1713 595.6814,-693.9272"/>
</g>
<!-- cole -->
<g id="node26" class="node">
<title>cole</title>
<ellipse fill="none" stroke="#000000" cx="1037" cy="-810" rx="27.2447" ry="18"/>
<text text-anchor="middle" x="1037" y="-805.8" font-family="Times,serif" font-size="14.00" fill="#000000">cole</text>
</g>
<!-- corr_ttr&#45;&gt;cole -->
<g id="edge59" class="edge">
<title>corr_ttr-&gt;cole</title>
<path fill="none" stroke="#000000" d="M1774.0917,-952.4806C1621.6544,-946.5076 1083.3029,-923.7986 1056,-900 1038.7549,-884.9683 1034.8604,-858.5774 1034.775,-838.2471"/>
<polygon fill="#000000" stroke="#000000" points="1038.2809,-838.0619 1035.0427,-827.9741 1031.2833,-837.8795 1038.2809,-838.0619"/>
</g>
<!-- corr_punct_var -->
<g id="node27" class="node">
<title>corr_punct_var</title>
<ellipse fill="none" stroke="#000000" cx="1519" cy="-738" rx="70.0481" ry="18"/>
<text text-anchor="middle" x="1519" y="-733.8" font-family="Times,serif" font-size="14.00" fill="#000000">corr_punct_var</text>
</g>
<!-- corr_ttr&#45;&gt;corr_punct_var -->
<g id="edge60" class="edge">
<title>corr_ttr-&gt;corr_punct_var</title>
<path fill="none" stroke="#000000" d="M1792.7843,-938.4658C1741.6615,-901.0335 1611.4216,-805.6714 1550.8607,-761.3285"/>
<polygon fill="#000000" stroke="#000000" points="1552.5849,-758.2531 1542.4488,-755.1693 1548.4495,-763.901 1552.5849,-758.2531"/>
</g>
<!-- a_char_pw -->
<g id="node28" class="node">
<title>a_char_pw</title>
<ellipse fill="none" stroke="#000000" cx="1118" cy="-882" rx="53.2936" ry="18"/>
<text text-anchor="middle" x="1118" y="-877.8" font-family="Times,serif" font-size="14.00" fill="#000000">a_char_pw</text>
</g>
<!-- corr_ttr&#45;&gt;a_char_pw -->
<g id="edge63" class="edge">
<title>corr_ttr-&gt;a_char_pw</title>
<path fill="none" stroke="#000000" d="M1774.5858,-949.9227C1658.8604,-937.9511 1319.4236,-902.8369 1179.441,-888.356"/>
<polygon fill="#000000" stroke="#000000" points="1179.6203,-884.8559 1169.3132,-887.3083 1178.8999,-891.8188 1179.6203,-884.8559"/>
</g>
<!-- cole&#45;&gt;a_noun_pw -->
<g id="edge73" class="edge">
<title>cole-&gt;a_noun_pw</title>
<path fill="none" stroke="#000000" d="M1064.1901,-807.7263C1183.0916,-797.7833 1659.1442,-757.974 1833.5478,-743.3897"/>
<polygon fill="#000000" stroke="#000000" points="1833.9325,-746.8699 1843.606,-742.5486 1833.3491,-739.8942 1833.9325,-746.8699"/>
</g>
<!-- cole&#45;&gt;simp_noun_var -->
<g id="edge81" class="edge">
<title>cole-&gt;simp_noun_var</title>
<path fill="none" stroke="#000000" d="M1020.7864,-795.4415C1010.4983,-785.3395 997.7158,-771.0392 990,-756 974.991,-726.7456 976.8033,-716.6592 973,-684 955.7124,-535.5509 940.4877,-445.5964 1063,-360 1104.4528,-331.0379 1426.6315,-314.9565 1580.1542,-308.8688"/>
<polygon fill="#000000" stroke="#000000" points="1580.6088,-312.3537 1590.4641,-308.4649 1580.3348,-305.3591 1580.6088,-312.3537"/>
</g>
<!-- cole&#45;&gt;a_syll_pw -->
<g id="edge82" class="edge">
<title>cole-&gt;a_syll_pw</title>
<path fill="none" stroke="#000000" d="M1037.5012,-791.9555C1038.5446,-754.3938 1040.9568,-667.5541 1042.2108,-622.4103"/>
<polygon fill="#000000" stroke="#000000" points="1045.7169,-622.2384 1042.496,-612.1451 1038.7196,-622.044 1045.7169,-622.2384"/>
</g>
<!-- cole&#45;&gt;corr_pron_var -->
<g id="edge74" class="edge">
<title>cole-&gt;corr_pron_var</title>
<path fill="none" stroke="#000000" d="M1013.5989,-800.5873C986.0531,-789.5074 939.6337,-770.8359 904.6485,-756.7636"/>
<polygon fill="#000000" stroke="#000000" points="905.693,-753.4113 895.1093,-752.9266 903.0808,-759.9056 905.693,-753.4113"/>
</g>
<!-- cole&#45;&gt;corr_noun_var -->
<g id="edge75" class="edge">
<title>cole-&gt;corr_noun_var</title>
<path fill="none" stroke="#000000" d="M1064.2712,-809.5526C1162.8554,-807.6021 1500.0739,-797.9414 1598,-756 1600.3045,-755.013 1644.3674,-716.567 1674.3922,-690.2485"/>
<polygon fill="#000000" stroke="#000000" points="1676.855,-692.744 1682.0654,-683.5188 1672.2394,-687.4813 1676.855,-692.744"/>
</g>
<!-- cole&#45;&gt;n_upunct -->
<g id="edge76" class="edge">
<title>cole-&gt;n_upunct</title>
<path fill="none" stroke="#000000" d="M1044.217,-792.6153C1058.0551,-760.8727 1090.9038,-692.6906 1135,-648 1145.6215,-637.2353 1352.5369,-510.8876 1366,-504 1394.4394,-489.4508 1427.7401,-475.8509 1453.7788,-465.9389"/>
<polygon fill="#000000" stroke="#000000" points="1455.2513,-469.1245 1463.3775,-462.3263 1452.7855,-462.5731 1455.2513,-469.1245"/>
</g>
<!-- cole&#45;&gt;n_upron -->
<g id="edge77" class="edge">
<title>cole-&gt;n_upron</title>
<path fill="none" stroke="#000000" d="M1052.4877,-795.1318C1078.4336,-770.2238 1130.8999,-719.8561 1162.086,-689.9174"/>
<polygon fill="#000000" stroke="#000000" points="1164.7371,-692.2242 1169.5271,-682.774 1159.8894,-687.1744 1164.7371,-692.2242"/>
</g>
<!-- cole&#45;&gt;n_punct -->
<g id="edge78" class="edge">
<title>cole-&gt;n_punct</title>
<path fill="none" stroke="#000000" d="M1010.2163,-807.0984C952.6082,-800.4199 819.2112,-782.4751 783,-756 718.0004,-708.477 714.9773,-601.2253 717.592,-550.113"/>
<polygon fill="#000000" stroke="#000000" points="721.0871,-550.2981 718.2152,-540.1 714.1006,-549.8632 721.0871,-550.2981"/>
</g>
<!-- cole&#45;&gt;t_char -->
<g id="edge80" class="edge">
<title>cole-&gt;t_char</title>
<path fill="none" stroke="#000000" d="M1026.8855,-792.9976C1005.0513,-754.0503 957.4629,-655.5977 983,-576 1007.0887,-500.9169 1074.5495,-433.4391 1112.3949,-400.0565"/>
<polygon fill="#000000" stroke="#000000" points="1114.737,-402.6582 1119.9949,-393.46 1110.1485,-397.3717 1114.737,-402.6582"/>
</g>
<!-- cole&#45;&gt;n_num -->
<g id="edge79" class="edge">
<title>cole-&gt;n_num</title>
<path fill="none" stroke="#000000" d="M1009.6643,-809.1038C930.7542,-805.322 698.3335,-785.6714 543,-684 489.0576,-648.6927 446.0778,-584.6652 424.7227,-548.5802"/>
<polygon fill="#000000" stroke="#000000" points="427.5684,-546.5104 419.5234,-539.6162 421.5132,-550.0225 427.5684,-546.5104"/>
</g>
<!-- corr_punct_var&#45;&gt;simp_noun_var -->
<g id="edge91" class="edge">
<title>corr_punct_var-&gt;simp_noun_var</title>
<path fill="none" stroke="#000000" d="M1519.9757,-719.8591C1520.3856,-701.2787 1519.3826,-671.8237 1511,-648 1504.6175,-629.8605 1495.2852,-629.3532 1487,-612 1451.4705,-537.5846 1415.5781,-510.1145 1442,-432 1454.9025,-393.8548 1464.1863,-383.3407 1497,-360 1525.2129,-339.9319 1561.3513,-326.9801 1592.5207,-318.8082"/>
<polygon fill="#000000" stroke="#000000" points="1593.6005,-322.1459 1602.4497,-316.32 1591.8988,-315.3559 1593.6005,-322.1459"/>
</g>
<!-- corr_punct_var&#45;&gt;simp_det_var -->
<g id="edge92" class="edge">
<title>corr_punct_var-&gt;simp_det_var</title>
<path fill="none" stroke="#000000" d="M1581.4742,-729.731C1647.3815,-720.1872 1746.162,-703.3043 1779,-684 1836.0154,-650.4826 1881.4035,-585.3032 1903.786,-548.6625"/>
<polygon fill="#000000" stroke="#000000" points="1906.8393,-550.3762 1908.9738,-539.9986 1900.8336,-546.78 1906.8393,-550.3762"/>
</g>
<!-- corr_punct_var&#45;&gt;a_syll_pw -->
<g id="edge94" class="edge">
<title>corr_punct_var-&gt;a_syll_pw</title>
<path fill="none" stroke="#000000" d="M1465.318,-726.4349C1397.9833,-711.8304 1290.2696,-688.1026 1282,-684 1259.6721,-672.9231 1261.0741,-659.5744 1239,-648 1195.0541,-624.9573 1140.2653,-610.9377 1099.796,-602.9801"/>
<polygon fill="#000000" stroke="#000000" points="1100.3087,-599.5149 1089.831,-601.0857 1099.0014,-606.3918 1100.3087,-599.5149"/>
</g>
<!-- corr_punct_var&#45;&gt;corr_noun_var -->
<g id="edge84" class="edge">
<title>corr_punct_var-&gt;corr_noun_var</title>
<path fill="none" stroke="#000000" d="M1557.3628,-722.9064C1585.64,-711.781 1624.2786,-696.5789 1654.5066,-684.6859"/>
<polygon fill="#000000" stroke="#000000" points="1655.9774,-687.8685 1664.0016,-680.9502 1653.4144,-681.3545 1655.9774,-687.8685"/>
</g>
<!-- corr_punct_var&#45;&gt;n_upunct -->
<g id="edge86" class="edge">
<title>corr_punct_var-&gt;n_upunct</title>
<path fill="none" stroke="#000000" d="M1531.0768,-720.1619C1542.0503,-701.5683 1554.9775,-671.8675 1544,-648 1533.7268,-625.6638 1514.0805,-633.4128 1502,-612 1486.0593,-583.7451 1492.6758,-572.3309 1490,-540 1488.6803,-524.0545 1488.8244,-519.9568 1490,-504 1490.6169,-495.6264 1491.7649,-486.5812 1493.0026,-478.3322"/>
<polygon fill="#000000" stroke="#000000" points="1496.4648,-478.8463 1494.585,-468.4196 1489.5523,-477.7428 1496.4648,-478.8463"/>
</g>
<!-- corr_punct_var&#45;&gt;n_upron -->
<g id="edge87" class="edge">
<title>corr_punct_var-&gt;n_upron</title>
<path fill="none" stroke="#000000" d="M1465.2677,-726.2788C1455.2182,-724.1454 1444.796,-721.9724 1435,-720 1350.316,-702.9488 1327.7811,-705.044 1244,-684 1239.6359,-682.9038 1235.115,-681.6626 1230.6155,-680.357"/>
<polygon fill="#000000" stroke="#000000" points="1231.4533,-676.9541 1220.869,-677.4269 1229.4379,-683.6578 1231.4533,-676.9541"/>
</g>
<!-- corr_punct_var&#45;&gt;n_punct -->
<g id="edge88" class="edge">
<title>corr_punct_var-&gt;n_punct</title>
<path fill="none" stroke="#000000" d="M1465.8692,-726.1666C1415.9955,-714.5955 1345.3753,-696.8853 1320,-684 1297.1631,-672.4037 1297.0259,-661.0713 1275,-648 1203.7329,-605.7064 1182.908,-597.9651 1103,-576 987.2039,-544.1699 846.2818,-530.4587 771.8505,-525.085"/>
<polygon fill="#000000" stroke="#000000" points="772.0189,-521.5883 761.7988,-524.3811 771.5298,-528.5712 772.0189,-521.5883"/>
</g>
<!-- corr_punct_var&#45;&gt;t_char -->
<g id="edge90" class="edge">
<title>corr_punct_var-&gt;t_char</title>
<path fill="none" stroke="#000000" d="M1459.3792,-728.3164C1425.6723,-720.5885 1384.1723,-707.0885 1353,-684 1299.3901,-644.2924 1193.6562,-470.6389 1154.2645,-404.086"/>
<polygon fill="#000000" stroke="#000000" points="1157.2544,-402.2657 1149.1588,-395.431 1151.2253,-405.8224 1157.2544,-402.2657"/>
</g>
<!-- corr_punct_var&#45;&gt;corr_det_var -->
<g id="edge85" class="edge">
<title>corr_punct_var-&gt;corr_det_var</title>
<path fill="none" stroke="#000000" d="M1588.1059,-734.7449C1703.5315,-728.6992 1942.6462,-713.5754 2143,-684 2179.2746,-678.6453 2404.0885,-630.341 2512.9922,-606.7925"/>
<polygon fill="#000000" stroke="#000000" points="2513.8096,-610.1967 2522.8435,-604.6615 2512.3295,-603.355 2513.8096,-610.1967"/>
</g>
<!-- corr_punct_var&#45;&gt;t_n_ent -->
<g id="edge93" class="edge">
<title>corr_punct_var-&gt;t_n_ent</title>
<path fill="none" stroke="#000000" d="M1451.9595,-732.793C1274.907,-719.0413 797.7439,-681.9801 641.9499,-669.8796"/>
<polygon fill="#000000" stroke="#000000" points="641.9684,-666.3706 631.7274,-669.0856 641.4263,-673.3496 641.9684,-666.3706"/>
</g>
<!-- root_punct_var -->
<g id="node33" class="node">
<title>root_punct_var</title>
<ellipse fill="none" stroke="#000000" cx="1432" cy="-666" rx="70.0693" ry="18"/>
<text text-anchor="middle" x="1432" y="-661.8" font-family="Times,serif" font-size="14.00" fill="#000000">root_punct_var</text>
</g>
<!-- corr_punct_var&#45;&gt;root_punct_var -->
<g id="edge89" class="edge">
<title>corr_punct_var-&gt;root_punct_var</title>
<path fill="none" stroke="#000000" d="M1497.9397,-720.5708C1486.8259,-711.3732 1473.021,-699.9484 1460.9187,-689.9328"/>
<polygon fill="#000000" stroke="#000000" points="1462.8018,-686.948 1452.8663,-683.2687 1458.3388,-692.3408 1462.8018,-686.948"/>
</g>
<!-- a_char_pw&#45;&gt;a_noun_pw -->
<g id="edge134" class="edge">
<title>a_char_pw-&gt;a_noun_pw</title>
<path fill="none" stroke="#000000" d="M1171.6276,-880.62C1304.2702,-876.6983 1644.7342,-863.3913 1752,-828 1796.3328,-813.3728 1841.1241,-782.9058 1869.1846,-761.4866"/>
<polygon fill="#000000" stroke="#000000" points="1871.5844,-764.0545 1877.3369,-755.1573 1867.2916,-758.5253 1871.5844,-764.0545"/>
</g>
<!-- a_char_pw&#45;&gt;simp_noun_var -->
<g id="edge144" class="edge">
<title>a_char_pw-&gt;simp_noun_var</title>
<path fill="none" stroke="#000000" d="M1171.1283,-880.1223C1310.1091,-874.8402 1681.8901,-858.2313 1801,-828 1877.3694,-808.6167 1911.1542,-815.3297 1963,-756 2022.2245,-688.2265 2107.0817,-427.898 2048,-360 2028.1018,-337.1326 1847.3429,-319.8737 1740.0426,-311.5387"/>
<polygon fill="#000000" stroke="#000000" points="1740.1344,-308.0355 1729.8959,-310.76 1739.5987,-315.015 1740.1344,-308.0355"/>
</g>
<!-- a_char_pw&#45;&gt;a_syll_pw -->
<g id="edge146" class="edge">
<title>a_char_pw-&gt;a_syll_pw</title>
<path fill="none" stroke="#000000" d="M1113.3084,-863.9843C1100.6023,-815.1929 1065.4577,-680.2377 1050.2116,-621.6927"/>
<polygon fill="#000000" stroke="#000000" points="1053.597,-620.8041 1047.6898,-612.0089 1046.823,-622.5682 1053.597,-620.8041"/>
</g>
<!-- a_char_pw&#45;&gt;corr_pron_var -->
<g id="edge135" class="edge">
<title>a_char_pw-&gt;corr_pron_var</title>
<path fill="none" stroke="#000000" d="M1084.4055,-867.8748C1060.709,-857.5795 1028.4316,-842.8818 1001,-828 962.0941,-806.8933 919.3719,-779.4008 890.8485,-760.383"/>
<polygon fill="#000000" stroke="#000000" points="892.7278,-757.4292 882.4722,-754.7695 888.8308,-763.2441 892.7278,-757.4292"/>
</g>
<!-- a_char_pw&#45;&gt;corr_noun_var -->
<g id="edge136" class="edge">
<title>a_char_pw-&gt;corr_noun_var</title>
<path fill="none" stroke="#000000" d="M1166.6855,-874.3296C1279.5085,-855.8891 1555.1514,-806.8184 1633,-756 1657.0192,-740.3207 1676.0468,-713.3394 1687.9853,-692.9979"/>
<polygon fill="#000000" stroke="#000000" points="1691.0933,-694.6118 1692.9641,-684.1834 1684.9984,-691.1691 1691.0933,-694.6118"/>
</g>
<!-- a_char_pw&#45;&gt;n_upunct -->
<g id="edge137" class="edge">
<title>a_char_pw-&gt;n_upunct</title>
<path fill="none" stroke="#000000" d="M1170.703,-878.7244C1244.3976,-873.186 1381.9024,-859.3488 1495,-828 1574.4659,-805.9733 1592.9677,-794.2921 1666,-756 1718.7408,-728.3471 1750.3587,-736.2106 1779,-684 1840.7013,-571.5241 1656.6154,-653.5568 1597,-612 1549.2981,-578.7479 1520.3272,-514.394 1506.9244,-477.5947"/>
<polygon fill="#000000" stroke="#000000" points="1510.1692,-476.271 1503.5544,-467.9949 1503.5644,-478.5897 1510.1692,-476.271"/>
</g>
<!-- a_char_pw&#45;&gt;n_upron -->
<g id="edge138" class="edge">
<title>a_char_pw-&gt;n_upron</title>
<path fill="none" stroke="#000000" d="M1123.7642,-863.9555C1135.8138,-826.235 1163.7384,-738.8188 1178.1067,-693.8399"/>
<polygon fill="#000000" stroke="#000000" points="1181.4947,-694.7359 1181.2037,-684.1451 1174.8266,-692.6058 1181.4947,-694.7359"/>
</g>
<!-- a_char_pw&#45;&gt;n_punct -->
<g id="edge139" class="edge">
<title>a_char_pw-&gt;n_punct</title>
<path fill="none" stroke="#000000" d="M1064.853,-879.2842C966.5039,-873.5933 760.2841,-858.357 696,-828 611.5607,-788.1251 580.038,-769.7216 543,-684 512.8093,-614.1259 615.8922,-561.4663 677.3769,-537.0453"/>
<polygon fill="#000000" stroke="#000000" points="678.8013,-540.247 686.8609,-533.37 676.2718,-533.72 678.8013,-540.247"/>
</g>
<!-- a_char_pw&#45;&gt;t_char -->
<g id="edge142" class="edge">
<title>a_char_pw-&gt;t_char</title>
<path fill="none" stroke="#000000" d="M1065.4374,-878.3323C986.1278,-870.0267 835.8276,-843.0699 748,-756 664.6449,-673.364 600.708,-599.462 669,-504 683.413,-483.8528 856.1072,-438.5405 880,-432 954.8116,-411.5209 1043.6219,-394.5629 1095.4111,-385.3916"/>
<polygon fill="#000000" stroke="#000000" points="1096.3267,-388.7844 1105.5711,-383.6083 1095.1166,-381.8898 1096.3267,-388.7844"/>
</g>
<!-- a_char_pw&#45;&gt;t_n_ent -->
<g id="edge145" class="edge">
<title>a_char_pw-&gt;t_n_ent</title>
<path fill="none" stroke="#000000" d="M1065.3438,-878.4332C977.1882,-871.7781 804.0675,-855.5869 750,-828 686.9868,-795.8488 634.4489,-728.7787 608.8252,-691.8184"/>
<polygon fill="#000000" stroke="#000000" points="611.7116,-689.8388 603.19,-683.5433 605.9258,-693.7789 611.7116,-689.8388"/>
</g>
<!-- a_char_pw&#45;&gt;cole -->
<g id="edge141" class="edge">
<title>a_char_pw-&gt;cole</title>
<path fill="none" stroke="#000000" d="M1098.8041,-864.937C1087.4447,-854.8397 1072.9594,-841.9639 1060.8678,-831.2158"/>
<polygon fill="#000000" stroke="#000000" points="1063.124,-828.5384 1053.3245,-824.5107 1058.4734,-833.7703 1063.124,-828.5384"/>
</g>
<!-- a_char_pw&#45;&gt;corr_punct_var -->
<g id="edge143" class="edge">
<title>a_char_pw-&gt;corr_punct_var</title>
<path fill="none" stroke="#000000" d="M1154.6491,-868.8392C1226.6429,-842.9861 1386.6327,-785.5334 1468.5451,-756.1185"/>
<polygon fill="#000000" stroke="#000000" points="1469.9076,-759.3481 1478.1363,-752.6743 1467.5418,-752.76 1469.9076,-759.3481"/>
</g>
<!-- a_char_pw&#45;&gt;n_num -->
<g id="edge140" class="edge">
<title>a_char_pw-&gt;n_num</title>
<path fill="none" stroke="#000000" d="M1064.4598,-880.7609C953.2215,-877.445 701.1298,-865.8636 625,-828 584.7055,-807.9593 455.2616,-641.8303 439,-612 428.3097,-592.3897 420.7913,-568.2029 416.0927,-549.8431"/>
<polygon fill="#000000" stroke="#000000" points="419.4744,-548.9368 413.7099,-540.0474 412.6728,-550.5913 419.4744,-548.9368"/>
</g>
<!-- a_char_pw&#45;&gt;black -->
<g id="edge147" class="edge">
<title>a_char_pw-&gt;black</title>
<path fill="none" stroke="#000000" d="M1064.8289,-879.9084C880.7496,-871.3916 276.129,-832.348 171,-684 47.1557,-509.2428 382.6589,-309.4861 491.3233,-250.9421"/>
<polygon fill="#000000" stroke="#000000" points="493.0564,-253.9845 500.2295,-246.1872 489.7596,-247.8094 493.0564,-253.9845"/>
</g>
<!-- t_n_ent_norp -->
<g id="node29" class="node">
<title>t_n_ent_norp</title>
<ellipse fill="none" stroke="#000000" cx="243" cy="-666" rx="62.5663" ry="18"/>
<text text-anchor="middle" x="243" y="-661.8" font-family="Times,serif" font-size="14.00" fill="#000000">t_n_ent_norp</text>
</g>
<!-- t_n_ent_norp&#45;&gt;t_n_ent_date -->
<g id="edge66" class="edge">
<title>t_n_ent_norp-&gt;t_n_ent_date</title>
<path fill="none" stroke="#000000" d="M252.8876,-648.2022C257.5031,-639.8944 263.0936,-629.8316 268.1985,-620.6427"/>
<polygon fill="#000000" stroke="#000000" points="271.2905,-622.2839 273.0875,-611.8425 265.1714,-618.8844 271.2905,-622.2839"/>
</g>
<!-- t_n_ent_norp&#45;&gt;n_num -->
<g id="edge67" class="edge">
<title>t_n_ent_norp-&gt;n_num</title>
<path fill="none" stroke="#000000" d="M228.075,-648.1591C213.7452,-628.7494 196.5184,-597.6074 213,-576 231.1471,-552.2092 310.9698,-536.3192 363.2723,-528.2515"/>
<polygon fill="#000000" stroke="#000000" points="363.9689,-531.6863 373.3394,-526.7422 362.931,-524.7637 363.9689,-531.6863"/>
</g>
<!-- n_num&#45;&gt;black -->
<g id="edge175" class="edge">
<title>n_num-&gt;black</title>
<path fill="none" stroke="#000000" d="M417.1312,-503.9843C436.4905,-455.0768 490.1188,-319.5946 513.2033,-261.2758"/>
<polygon fill="#000000" stroke="#000000" points="516.5908,-262.2274 517.017,-251.6412 510.0822,-259.651 516.5908,-262.2274"/>
</g>
<!-- n_num&#45;&gt;error_rate -->
<g id="edge188" class="edge">
<title>n_num-&gt;error_rate</title>
<path fill="none" stroke="#000000" d="M395.9104,-505.0484C375.9927,-479.3058 342,-428.0415 342,-378 342,-378 342,-378 342,-306 342,-240.9979 415.3307,-199.149 465.3836,-178.1554"/>
<polygon fill="#000000" stroke="#000000" points="466.7958,-181.3596 474.7453,-174.3556 464.1631,-174.8735 466.7958,-181.3596"/>
</g>
<!-- syntaxError_rate&#45;&gt;pass_rate -->
<g id="edge181" class="edge">
<title>syntaxError_rate-&gt;pass_rate</title>
<path fill="none" stroke="#000000" d="M255,-71.8314C255,-64.131 255,-54.9743 255,-46.4166"/>
<polygon fill="#000000" stroke="#000000" points="258.5001,-46.4132 255,-36.4133 251.5001,-46.4133 258.5001,-46.4132"/>
</g>
<!-- BTopc05_S -->
<g id="node34" class="node">
<title>BTopc05_S</title>
<ellipse fill="none" stroke="#000000" cx="2870" cy="-738" rx="57.3476" ry="18"/>
<text text-anchor="middle" x="2870" y="-733.8" font-family="Times,serif" font-size="14.00" fill="#000000">BTopc05_S</text>
</g>
<!-- BTopc05_S&#45;&gt;BTopc10_S -->
<g id="edge97" class="edge">
<title>BTopc05_S-&gt;BTopc10_S</title>
<path fill="none" stroke="#000000" d="M2867.7289,-719.8314C2866.7664,-712.131 2865.6218,-702.9743 2864.5521,-694.4166"/>
<polygon fill="#000000" stroke="#000000" points="2868.0151,-693.9019 2863.3017,-684.4133 2861.0691,-694.7702 2868.0151,-693.9019"/>
</g>
<!-- BNois05_S -->
<g id="node35" class="node">
<title>BNois05_S</title>
<ellipse fill="none" stroke="#000000" cx="2992" cy="-666" rx="55.6391" ry="18"/>
<text text-anchor="middle" x="2992" y="-661.8" font-family="Times,serif" font-size="14.00" fill="#000000">BNois05_S</text>
</g>
<!-- BTopc05_S&#45;&gt;BNois05_S -->
<g id="edge98" class="edge">
<title>BTopc05_S-&gt;BNois05_S</title>
<path fill="none" stroke="#000000" d="M2897.0758,-722.0209C2914.5291,-711.7205 2937.4154,-698.2139 2956.3426,-687.0437"/>
<polygon fill="#000000" stroke="#000000" points="2958.1667,-690.0313 2964.9999,-681.9345 2954.6089,-684.0028 2958.1667,-690.0313"/>
</g>
<!-- t_word -->
<g id="node36" class="node">
<title>t_word</title>
<ellipse fill="none" stroke="#000000" cx="1994" cy="-1026" rx="38.2838" ry="18"/>
<text text-anchor="middle" x="1994" y="-1021.8" font-family="Times,serif" font-size="14.00" fill="#000000">t_word</text>
</g>
<!-- t_word&#45;&gt;a_noun_pw -->
<g id="edge99" class="edge">
<title>t_word-&gt;a_noun_pw</title>
<path fill="none" stroke="#000000" d="M1987.9948,-1007.9843C1971.731,-959.1929 1926.7459,-824.2377 1907.2309,-765.6927"/>
<polygon fill="#000000" stroke="#000000" points="1910.4857,-764.3889 1904.003,-756.0089 1903.8449,-766.6025 1910.4857,-764.3889"/>
</g>
<!-- t_word&#45;&gt;simp_noun_var -->
<g id="edge118" class="edge">
<title>t_word-&gt;simp_noun_var</title>
<path fill="none" stroke="#000000" d="M2032.5086,-1025.7418C2229.7367,-1024.2305 3121.9375,-1015.047 3237,-972 3297.1344,-949.5026 3350,-946.2049 3350,-882 3350,-882 3350,-882 3350,-738 3350,-375.7933 2981.8983,-437.1342 2628,-360 2240.7679,-275.6005 2129.6383,-377.9183 1737,-324 1731.5427,-323.2506 1725.9035,-322.2857 1720.2777,-321.1927"/>
<polygon fill="#000000" stroke="#000000" points="1720.7099,-317.7079 1710.2076,-319.1056 1719.2892,-324.5623 1720.7099,-317.7079"/>
</g>
<!-- t_word&#45;&gt;simp_det_var -->
<g id="edge120" class="edge">
<title>t_word-&gt;simp_det_var</title>
<path fill="none" stroke="#000000" d="M2032.3384,-1024.92C2169.1597,-1020.8052 2628.3091,-1004.6685 2685,-972 2727.0851,-947.7482 2747,-930.5727 2747,-882 2747,-882 2747,-882 2747,-810 2747,-736.9325 2770.8213,-699.5113 2719,-648 2649.9753,-579.3882 2591.4203,-652.6676 2503,-612 2480.3557,-601.5851 2483.0853,-585.397 2460,-576 2362.569,-536.3403 2091.7535,-557.346 1988,-540 1983.2875,-539.2121 1978.4276,-538.2527 1973.572,-537.1914"/>
<polygon fill="#000000" stroke="#000000" points="1974.1919,-533.7423 1963.6596,-534.8921 1972.6101,-540.5613 1974.1919,-533.7423"/>
</g>
<!-- t_word&#45;&gt;a_syll_pw -->
<g id="edge123" class="edge">
<title>t_word-&gt;a_syll_pw</title>
<path fill="none" stroke="#000000" d="M1955.4147,-1025.3118C1774.8076,-1021.9339 1011.8345,-1005.8867 776,-972 610.1904,-948.175 410,-1049.5125 410,-882 410,-882 410,-882 410,-810 410,-716.8436 461.0467,-692.2921 543,-648 617.4667,-607.7541 865.9671,-597.4953 982.1503,-594.8864"/>
<polygon fill="#000000" stroke="#000000" points="982.3767,-598.3825 992.2999,-594.6705 982.2277,-591.3841 982.3767,-598.3825"/>
</g>
<!-- t_word&#45;&gt;corr_pron_var -->
<g id="edge100" class="edge">
<title>t_word-&gt;corr_pron_var</title>
<path fill="none" stroke="#000000" d="M1955.3713,-1025.1789C1790.5126,-1021.4816 1150.4495,-1005.0992 1067,-972 974.3254,-935.2418 953.8906,-908.4466 895,-828 881.2757,-809.2522 871.6188,-784.6726 865.6201,-765.9382"/>
<polygon fill="#000000" stroke="#000000" points="868.9187,-764.7553 862.6613,-756.2058 862.2214,-766.7915 868.9187,-764.7553"/>
</g>
<!-- t_word&#45;&gt;corr_noun_var -->
<g id="edge101" class="edge">
<title>t_word-&gt;corr_noun_var</title>
<path fill="none" stroke="#000000" d="M1998.691,-1007.9222C2011.0708,-955.6352 2038.7162,-802.7102 1963,-720 1905.5555,-657.2492 1858.1063,-702.1898 1775,-684 1770.3816,-682.9892 1765.6089,-681.904 1760.8178,-680.7859"/>
<polygon fill="#000000" stroke="#000000" points="1761.5394,-677.36 1751.0016,-678.4576 1759.9239,-684.1711 1761.5394,-677.36"/>
</g>
<!-- t_word&#45;&gt;n_upunct -->
<g id="edge103" class="edge">
<title>t_word-&gt;n_upunct</title>
<path fill="none" stroke="#000000" d="M2032.539,-1025.0252C2113.366,-1022.2281 2306.0292,-1011.6023 2462,-972 2560.0248,-947.1107 2671,-983.1353 2671,-882 2671,-882 2671,-882 2671,-810 2671,-734.906 2744.8511,-718.5041 2719,-648 2704.562,-608.6229 2694.8185,-596.0851 2658,-576 2560.1881,-522.6418 1773.7461,-467.9355 1554.5407,-453.6074"/>
<polygon fill="#000000" stroke="#000000" points="1554.7425,-450.1132 1544.5361,-452.9558 1554.2875,-457.0984 1554.7425,-450.1132"/>
</g>
<!-- t_word&#45;&gt;n_upron -->
<g id="edge104" class="edge">
<title>t_word-&gt;n_upron</title>
<path fill="none" stroke="#000000" d="M1956.4863,-1021.9869C1815.1775,-1006.3739 1323,-947.3066 1323,-882 1323,-882 1323,-882 1323,-810 1323,-752.1354 1264.2389,-708.124 1223.9661,-684.7553"/>
<polygon fill="#000000" stroke="#000000" points="1225.6106,-681.6646 1215.1793,-679.8103 1222.1775,-687.765 1225.6106,-681.6646"/>
</g>
<!-- t_word&#45;&gt;n_punct -->
<g id="edge106" class="edge">
<title>t_word-&gt;n_punct</title>
<path fill="none" stroke="#000000" d="M1955.5592,-1025.4015C1707.0326,-1021.4581 334.9867,-998.5428 251,-972 181.5342,-950.0463 114,-954.8523 114,-882 114,-882 114,-882 114,-666 114,-606.5357 158.7515,-600.3537 213,-576 253.8521,-557.6603 546.8922,-534.5746 667.9179,-525.7042"/>
<polygon fill="#000000" stroke="#000000" points="668.3323,-529.1834 678.0512,-524.9653 667.8231,-522.202 668.3323,-529.1834"/>
</g>
<!-- t_word&#45;&gt;t_char -->
<g id="edge114" class="edge">
<title>t_word-&gt;t_char</title>
<path fill="none" stroke="#000000" d="M1955.3744,-1025.8797C1696.2337,-1024.9486 218.3903,-1017.6459 136,-972 93.9484,-948.7025 76,-930.074 76,-882 76,-882 76,-882 76,-666 76,-451.6374 891.5052,-391.8426 1093.9392,-380.3018"/>
<polygon fill="#000000" stroke="#000000" points="1094.1458,-383.7958 1103.9349,-379.743 1093.7551,-376.8067 1094.1458,-383.7958"/>
</g>
<!-- t_word&#45;&gt;t_n_ent_date -->
<g id="edge110" class="edge">
<title>t_word-&gt;t_n_ent_date</title>
<path fill="none" stroke="#000000" d="M1955.466,-1025.7075C1715.1876,-1023.7617 430.313,-1011.5312 358,-972 315.38,-948.701 296,-930.5727 296,-882 296,-882 296,-882 296,-810 296,-737.5065 334.16,-717.9157 315,-648 312.3772,-638.4294 307.5713,-628.8348 302.4673,-620.4444"/>
<polygon fill="#000000" stroke="#000000" points="305.282,-618.3522 296.9011,-611.8705 299.4108,-622.1638 305.282,-618.3522"/>
</g>
<!-- t_word&#45;&gt;corr_det_var -->
<g id="edge102" class="edge">
<title>t_word-&gt;corr_det_var</title>
<path fill="none" stroke="#000000" d="M2032.5502,-1025.193C2200.8597,-1021.4861 2866.7595,-1004.8494 2954,-972 3014.7394,-949.1293 3069,-946.9026 3069,-882 3069,-882 3069,-882 3069,-810 3069,-737.8027 3107.0995,-699.9854 3057,-648 3028.7376,-618.6737 2769.2891,-602.9362 2641.9079,-596.9197"/>
<polygon fill="#000000" stroke="#000000" points="2642.0087,-593.4206 2631.8568,-596.4522 2641.6834,-600.4131 2642.0087,-593.4206"/>
</g>
<!-- t_word&#45;&gt;BRich20_S -->
<g id="edge105" class="edge">
<title>t_word-&gt;BRich20_S</title>
<path fill="none" stroke="#000000" d="M2032.3356,-1024.2414C2100.5437,-1020.2221 2238.5944,-1007.7665 2268,-972 2316.7914,-912.6542 2290.247,-813.3456 2273.0268,-765.4633"/>
<polygon fill="#000000" stroke="#000000" points="2276.2944,-764.2086 2269.5242,-756.0591 2269.7346,-766.6519 2276.2944,-764.2086"/>
</g>
<!-- t_word&#45;&gt;BTopc10_S -->
<g id="edge107" class="edge">
<title>t_word-&gt;BTopc10_S</title>
<path fill="none" stroke="#000000" d="M2032.4593,-1025.6163C2171.5464,-1023.886 2647.8331,-1014.8916 2793,-972 2871.9893,-948.6615 2955,-964.365 2955,-882 2955,-882 2955,-882 2955,-810 2955,-769.1184 2958.3156,-754.2538 2936,-720 2927.1632,-706.4357 2913.6415,-695.1753 2900.5006,-686.5097"/>
<polygon fill="#000000" stroke="#000000" points="2902.3105,-683.5137 2891.9732,-681.1918 2898.6064,-689.4533 2902.3105,-683.5137"/>
</g>
<!-- t_word&#45;&gt;WRich10_S -->
<g id="edge116" class="edge">
<title>t_word-&gt;WRich10_S</title>
<path fill="none" stroke="#000000" d="M2031.5867,-1021.5774C2168.5602,-1004.9619 2633,-944.0482 2633,-882 2633,-882 2633,-882 2633,-810 2633,-769.5282 2640.468,-723.2037 2646.04,-694.2725"/>
<polygon fill="#000000" stroke="#000000" points="2649.5483,-694.5746 2648.0632,-684.0844 2642.6823,-693.2111 2649.5483,-694.5746"/>
</g>
<!-- t_word&#45;&gt;t_n_ent -->
<g id="edge121" class="edge">
<title>t_word-&gt;t_n_ent</title>
<path fill="none" stroke="#000000" d="M1955.3756,-1025.5025C1794.89,-1023.1921 1180.3047,-1011.8685 991,-972 813.8616,-934.6937 731.221,-962.4442 610,-828 577.1137,-791.5264 580.5435,-730.0543 586.1644,-694.2398"/>
<polygon fill="#000000" stroke="#000000" points="589.6791,-694.4561 587.9414,-684.0047 582.7823,-693.2586 589.6791,-694.4561"/>
</g>
<!-- t_word&#45;&gt;corr_ttr -->
<g id="edge108" class="edge">
<title>t_word-&gt;corr_ttr</title>
<path fill="none" stroke="#000000" d="M1964.6793,-1014.2717C1934.3958,-1002.1583 1886.9554,-983.1822 1853.407,-969.7628"/>
<polygon fill="#000000" stroke="#000000" points="1854.4927,-966.4275 1843.908,-965.9632 1851.8929,-972.9268 1854.4927,-966.4275"/>
</g>
<!-- t_word&#45;&gt;cole -->
<g id="edge113" class="edge">
<title>t_word-&gt;cole</title>
<path fill="none" stroke="#000000" d="M1955.4601,-1025.3518C1850.7973,-1023.0781 1552.7791,-1013.1866 1309,-972 1184.4236,-950.9528 1111.1989,-1000.013 1034,-900 1020.4774,-882.4811 1022.8271,-856.8177 1027.6303,-837.3737"/>
<polygon fill="#000000" stroke="#000000" points="1031.0476,-838.1499 1030.3799,-827.5761 1024.308,-836.2584 1031.0476,-838.1499"/>
</g>
<!-- t_word&#45;&gt;corr_punct_var -->
<g id="edge115" class="edge">
<title>t_word-&gt;corr_punct_var</title>
<path fill="none" stroke="#000000" d="M1956.1377,-1022.4C1909.212,-1016.7679 1827.7698,-1003.1032 1765,-972 1662.8607,-921.3888 1574.6546,-813.7076 1537.6181,-764.0626"/>
<polygon fill="#000000" stroke="#000000" points="1540.2589,-761.7463 1531.5084,-755.773 1534.624,-765.8994 1540.2589,-761.7463"/>
</g>
<!-- t_word&#45;&gt;t_n_ent_norp -->
<g id="edge109" class="edge">
<title>t_word-&gt;t_n_ent_norp</title>
<path fill="none" stroke="#000000" d="M1955.4675,-1025.3864C1704.9666,-1021.325 316.8367,-997.6841 282,-972 247.948,-946.8944 251,-924.3063 251,-882 251,-882 251,-882 251,-810 251,-769.8141 247.8556,-723.417 245.5095,-694.3918"/>
<polygon fill="#000000" stroke="#000000" points="248.9759,-693.8422 244.6576,-684.1674 242.0001,-694.4235 248.9759,-693.8422"/>
</g>
<!-- t_word&#45;&gt;n_num -->
<g id="edge112" class="edge">
<title>t_word-&gt;n_num</title>
<path fill="none" stroke="#000000" d="M1955.2958,-1025.7787C1719.5752,-1024.2939 484.8564,-1014.5024 418,-972 380.0902,-947.8998 372,-926.9219 372,-882 372,-882 372,-882 372,-666 372,-624.1368 387.2003,-577.6262 398.3737,-549.0925"/>
<polygon fill="#000000" stroke="#000000" points="401.6324,-550.3698 402.1264,-539.7865 395.1404,-547.7518 401.6324,-550.3698"/>
</g>
<!-- t_word&#45;&gt;syntaxError_rate -->
<g id="edge126" class="edge">
<title>t_word-&gt;syntaxError_rate</title>
<path fill="none" stroke="#000000" d="M1955.5227,-1025.4796C1685.6972,-1021.7646 86.8142,-998.6498 45,-972 7.287,-947.964 0,-926.7214 0,-882 0,-882 0,-882 0,-306 0,-201.7507 125.6239,-137.4326 200.5246,-108.3492"/>
<polygon fill="#000000" stroke="#000000" points="202.1821,-111.4638 210.2906,-104.6445 199.6993,-104.9189 202.1821,-111.4638"/>
</g>
<!-- t_word&#45;&gt;BTopc05_S -->
<g id="edge117" class="edge">
<title>t_word-&gt;BTopc05_S</title>
<path fill="none" stroke="#000000" d="M2032.398,-1025.5552C2179.3202,-1023.5496 2700.6148,-1013.5408 2761,-972 2831.4934,-923.5054 2857.4662,-817.1952 2866.1159,-766.2772"/>
<polygon fill="#000000" stroke="#000000" points="2869.5895,-766.7198 2867.7085,-756.2933 2862.6769,-765.6171 2869.5895,-766.7198"/>
</g>
<!-- t_word&#45;&gt;BNois05_S -->
<g id="edge111" class="edge">
<title>t_word-&gt;BNois05_S</title>
<path fill="none" stroke="#000000" d="M2032.4512,-1024.6827C2191.5213,-1019.0918 2793.6046,-996.4888 2875,-972 2951.6504,-948.9388 3031,-962.0444 3031,-882 3031,-882 3031,-882 3031,-810 3031,-768.2959 3015.5716,-722.0864 3004.1227,-693.5372"/>
<polygon fill="#000000" stroke="#000000" points="3007.3235,-692.1183 3000.2709,-684.2119 3000.8537,-694.7907 3007.3235,-692.1183"/>
</g>
<!-- rt_slow -->
<g id="node37" class="node">
<title>rt_slow</title>
<ellipse fill="none" stroke="#000000" cx="3197" cy="-810" rx="40.005" ry="18"/>
<text text-anchor="middle" x="3197" y="-805.8" font-family="Times,serif" font-size="14.00" fill="#000000">rt_slow</text>
</g>
<!-- t_word&#45;&gt;rt_slow -->
<g id="edge119" class="edge">
<title>t_word-&gt;rt_slow</title>
<path fill="none" stroke="#000000" d="M2032.4213,-1025.3363C2225.9166,-1021.8484 3086.2425,-1004.5509 3132,-972 3175.4893,-941.0627 3189.9046,-876.0214 3194.6664,-838.4417"/>
<polygon fill="#000000" stroke="#000000" points="3198.1813,-838.5016 3195.813,-828.1749 3191.2246,-837.7246 3198.1813,-838.5016"/>
</g>
<!-- rt_average -->
<g id="node38" class="node">
<title>rt_average</title>
<ellipse fill="none" stroke="#000000" cx="3270" cy="-666" rx="51.565" ry="18"/>
<text text-anchor="middle" x="3270" y="-661.8" font-family="Times,serif" font-size="14.00" fill="#000000">rt_average</text>
</g>
<!-- t_word&#45;&gt;rt_average -->
<g id="edge122" class="edge">
<title>t_word-&gt;rt_average</title>
<path fill="none" stroke="#000000" d="M2032.5384,-1025.3369C2222.1223,-1021.9249 3051.0582,-1005.2071 3161,-972 3235.4252,-949.5204 3311,-959.746 3311,-882 3311,-882 3311,-882 3311,-810 3311,-768.1463 3294.7804,-721.9754 3282.7444,-693.4754"/>
<polygon fill="#000000" stroke="#000000" points="3285.8939,-691.9412 3278.695,-684.1676 3279.475,-694.7337 3285.8939,-691.9412"/>
</g>
<!-- rt_fast -->
<g id="node39" class="node">
<title>rt_fast</title>
<ellipse fill="none" stroke="#000000" cx="3133" cy="-738" rx="35.9096" ry="18"/>
<text text-anchor="middle" x="3133" y="-733.8" font-family="Times,serif" font-size="14.00" fill="#000000">rt_fast</text>
</g>
<!-- t_word&#45;&gt;rt_fast -->
<g id="edge124" class="edge">
<title>t_word-&gt;rt_fast</title>
<path fill="none" stroke="#000000" d="M2032.4234,-1025.3975C2221.1118,-1022.2753 3042.1792,-1006.7274 3083,-972 3143.1355,-920.841 3141.5397,-816.6717 3136.727,-766.3987"/>
<polygon fill="#000000" stroke="#000000" points="3140.1846,-765.8151 3135.6388,-756.245 3133.2245,-766.5611 3140.1846,-765.8151"/>
</g>
<!-- t_word&#45;&gt;black -->
<g id="edge125" class="edge">
<title>t_word-&gt;black</title>
<path fill="none" stroke="#000000" d="M1955.5122,-1025.4397C1689.0808,-1021.4969 128.311,-997.3432 87,-972 48.1789,-948.1842 38,-927.5442 38,-882 38,-882 38,-882 38,-666 38,-442.9863 171.0571,-392.6357 368,-288 405.6826,-267.9792 452.3,-252.9809 484.7134,-243.935"/>
<polygon fill="#000000" stroke="#000000" points="485.9824,-247.2168 494.7088,-241.2083 484.1402,-240.4635 485.9824,-247.2168"/>
</g>
<!-- rt_slow&#45;&gt;WRich15_S -->
<g id="edge127" class="edge">
<title>rt_slow-&gt;WRich15_S</title>
<path fill="none" stroke="#000000" d="M3195.8739,-791.8683C3194.1015,-773.0352 3189.5649,-743.1416 3178,-720 3138.0974,-640.154 3110.5206,-628.042 3038,-576 2983.0717,-536.5825 2967.6193,-526.8791 2904,-504 2836.1386,-479.5954 2754.4949,-465.2012 2698.879,-457.4943"/>
<polygon fill="#000000" stroke="#000000" points="2699.1852,-454.004 2688.8064,-456.1322 2698.2471,-460.9408 2699.1852,-454.004"/>
</g>
<!-- rt_slow&#45;&gt;rt_average -->
<g id="edge128" class="edge">
<title>rt_slow-&gt;rt_average</title>
<path fill="none" stroke="#000000" d="M3216.7754,-794.2075C3227.8407,-784.3476 3240.982,-770.7511 3249,-756 3259.3766,-736.9098 3264.6514,-712.8318 3267.3183,-694.3851"/>
<polygon fill="#000000" stroke="#000000" points="3270.817,-694.6165 3268.6061,-684.255 3263.8729,-693.7337 3270.817,-694.6165"/>
</g>
<!-- rt_slow&#45;&gt;rt_fast -->
<g id="edge129" class="edge">
<title>rt_slow-&gt;rt_fast</title>
<path fill="none" stroke="#000000" d="M3181.8329,-792.937C3173.6661,-783.7494 3163.4545,-772.2613 3154.4835,-762.1689"/>
<polygon fill="#000000" stroke="#000000" points="3156.8773,-759.5937 3147.6177,-754.4449 3151.6454,-764.2443 3156.8773,-759.5937"/>
</g>
<!-- rt_slow&#45;&gt;black -->
<g id="edge130" class="edge">
<title>rt_slow-&gt;black</title>
<path fill="none" stroke="#000000" d="M3197.4271,-791.5068C3197.6467,-781.08 3197.8906,-767.814 3198,-756 3198.1481,-740.0007 3202.0135,-735.4885 3198,-720 3188.8175,-684.5637 3180.8933,-676.5648 3158,-648 2990.3424,-438.8079 2888.0009,-425.3448 2628,-360 2244.4103,-263.5942 2135.7424,-312.7704 1741,-288 1280.8697,-259.1265 721.9203,-240.2708 566.0868,-235.3082"/>
<polygon fill="#000000" stroke="#000000" points="566.0955,-231.8068 555.9896,-234.9882 565.8737,-238.8033 566.0955,-231.8068"/>
</g>
<!-- rt_fast&#45;&gt;WRich15_S -->
<g id="edge170" class="edge">
<title>rt_fast-&gt;WRich15_S</title>
<path fill="none" stroke="#000000" d="M3128.213,-720.1021C3122.1508,-700.3525 3110.0114,-668.6365 3090,-648 2979.1638,-533.7015 2791.2835,-481.3161 2694.9459,-460.9654"/>
<polygon fill="#000000" stroke="#000000" points="2695.5709,-457.5207 2685.0694,-458.9239 2694.1538,-464.3758 2695.5709,-457.5207"/>
</g>
<!-- rt_fast&#45;&gt;BTopc10_S -->
<g id="edge171" class="edge">
<title>rt_fast-&gt;BTopc10_S</title>
<path fill="none" stroke="#000000" d="M3101.2132,-729.7715C3060.7254,-719.2668 2988.612,-700.4766 2927,-684 2922.8695,-682.8954 2918.5955,-681.7455 2914.3001,-680.5849"/>
<polygon fill="#000000" stroke="#000000" points="2914.8633,-677.1114 2904.296,-677.8737 2913.0323,-683.8677 2914.8633,-677.1114"/>
</g>
<!-- rt_fast&#45;&gt;rt_average -->
<g id="edge172" class="edge">
<title>rt_fast-&gt;rt_average</title>
<path fill="none" stroke="#000000" d="M3157.8097,-724.9613C3178.5037,-714.0856 3208.3281,-698.4115 3232.0254,-685.9575"/>
<polygon fill="#000000" stroke="#000000" points="3233.879,-688.9373 3241.1028,-681.1869 3230.6225,-682.7409 3233.879,-688.9373"/>
</g>
<!-- black&#45;&gt;sim_Bleu -->
<g id="edge179" class="edge">
<title>black-&gt;sim_Bleu</title>
<path fill="none" stroke="#000000" d="M556.161,-232.5941C757.7893,-223.7797 1847.6742,-176.1345 2112.8292,-164.543"/>
<polygon fill="#000000" stroke="#000000" points="2113.1731,-168.0314 2123.0107,-164.0979 2112.8673,-161.0381 2113.1731,-168.0314"/>
</g>
<!-- black&#45;&gt;syntaxError_rate -->
<g id="edge178" class="edge">
<title>black-&gt;syntaxError_rate</title>
<path fill="none" stroke="#000000" d="M500.5986,-221.4729C454.5868,-196.842 351.8782,-141.8605 294.9367,-111.3787"/>
<polygon fill="#000000" stroke="#000000" points="296.3381,-108.1591 285.87,-106.5252 293.0345,-114.3304 296.3381,-108.1591"/>
</g>
<!-- black&#45;&gt;error_rate -->
<g id="edge180" class="edge">
<title>black-&gt;error_rate</title>
<path fill="none" stroke="#000000" d="M520.7196,-215.8314C519.3292,-208.131 517.6759,-198.9743 516.1308,-190.4166"/>
<polygon fill="#000000" stroke="#000000" points="519.5458,-189.6322 514.3246,-180.4133 512.6572,-190.8761 519.5458,-189.6322"/>
</g>
<!-- BNois10_S -->
<g id="node41" class="node">
<title>BNois10_S</title>
<ellipse fill="none" stroke="#000000" cx="2488" cy="-810" rx="55.6391" ry="18"/>
<text text-anchor="middle" x="2488" y="-805.8" font-family="Times,serif" font-size="14.00" fill="#000000">BNois10_S</text>
</g>
<!-- BNois10_S&#45;&gt;simp_noun_var -->
<g id="edge162" class="edge">
<title>BNois10_S-&gt;simp_noun_var</title>
<path fill="none" stroke="#000000" d="M2497.7722,-792.26C2519.8158,-752.4598 2572.4639,-658.686 2585,-648 2617.7862,-620.0525 2650.8474,-647.6742 2675,-612 2683.9701,-598.7509 2684.536,-588.8477 2675,-576 2642.0672,-531.6303 2606.9905,-561.2885 2556,-540 2391.6571,-471.387 2369.9803,-406.2505 2198,-360 2113.8658,-337.3739 1868.5969,-319.1248 1740.6933,-310.8331"/>
<polygon fill="#000000" stroke="#000000" points="1740.7698,-307.3309 1730.5657,-310.1815 1740.3203,-314.3165 1740.7698,-307.3309"/>
</g>
<!-- BNois10_S&#45;&gt;simp_det_var -->
<g id="edge163" class="edge">
<title>BNois10_S-&gt;simp_det_var</title>
<path fill="none" stroke="#000000" d="M2476.3192,-791.8962C2469.9146,-781.5912 2462.0678,-768.3173 2456,-756 2417.9236,-678.7071 2453.0862,-627.4888 2384,-576 2313.1496,-523.1964 2075.0451,-555.2038 1988,-540 1983.3657,-539.1906 1978.5869,-538.2248 1973.8086,-537.167"/>
<polygon fill="#000000" stroke="#000000" points="1974.5817,-533.7534 1964.0477,-534.887 1972.9894,-540.5699 1974.5817,-533.7534"/>
</g>
<!-- BNois10_S&#45;&gt;n_upunct -->
<g id="edge155" class="edge">
<title>BNois10_S-&gt;n_upunct</title>
<path fill="none" stroke="#000000" d="M2485.1849,-791.835C2481.1674,-758.8238 2477.8457,-688.6559 2514,-648 2552.9866,-604.1591 2605.6215,-658.801 2641,-612 2650.6484,-599.2365 2651.8931,-587.7193 2641,-576 2603.6825,-535.8522 2202.6691,-551.1388 2149,-540 2101.5185,-530.1454 2093.3536,-514.4517 2046,-504 1869.9585,-465.1449 1655.9156,-454.2318 1555.3804,-451.1786"/>
<polygon fill="#000000" stroke="#000000" points="1555.2369,-447.673 1545.14,-450.883 1555.0349,-454.6701 1555.2369,-447.673"/>
</g>
<!-- BNois10_S&#45;&gt;n_punct -->
<g id="edge157" class="edge">
<title>BNois10_S-&gt;n_punct</title>
<path fill="none" stroke="#000000" d="M2470.6836,-792.5607C2460.7448,-782.2476 2448.2448,-768.7476 2438,-756 2376.9863,-680.0807 2398.5288,-622.5966 2313,-576 2243.9091,-538.3588 1039.9726,-524.9763 772.4022,-522.4603"/>
<polygon fill="#000000" stroke="#000000" points="772.2167,-518.9585 762.1845,-522.3652 772.1515,-525.9582 772.2167,-518.9585"/>
</g>
<!-- BNois10_S&#45;&gt;t_char -->
<g id="edge160" class="edge">
<title>BNois10_S-&gt;t_char</title>
<path fill="none" stroke="#000000" d="M2490.1546,-791.9362C2495.0553,-758.7753 2510.0637,-687.9365 2552,-648 2588.0299,-613.6882 2629.0225,-652.4445 2658,-612 2667.3187,-598.9937 2668.1254,-588.3886 2658,-576 2651.6411,-568.2198 1958.9589,-433.3372 1949,-432 1799.2903,-411.8983 1332.3892,-387.5998 1184.4456,-380.2262"/>
<polygon fill="#000000" stroke="#000000" points="1184.515,-376.7254 1174.3536,-379.7249 1184.1676,-383.7168 1184.515,-376.7254"/>
</g>
<!-- BNois10_S&#45;&gt;corr_det_var -->
<g id="edge154" class="edge">
<title>BNois10_S-&gt;corr_det_var</title>
<path fill="none" stroke="#000000" d="M2479.0618,-792.0042C2474.4607,-781.733 2469.3369,-768.457 2467,-756 2458.1189,-708.6595 2449.1469,-687.9864 2476,-648 2486.8841,-631.7927 2504.3553,-619.9241 2521.4285,-611.5112"/>
<polygon fill="#000000" stroke="#000000" points="2523.2061,-614.5461 2530.8283,-607.1873 2520.2807,-608.1867 2523.2061,-614.5461"/>
</g>
<!-- BNois10_S&#45;&gt;BRich20_S -->
<g id="edge156" class="edge">
<title>BNois10_S-&gt;BRich20_S</title>
<path fill="none" stroke="#000000" d="M2448.3752,-797.3762C2410.2859,-785.2415 2352.601,-766.864 2311.5049,-753.7715"/>
<polygon fill="#000000" stroke="#000000" points="2312.5502,-750.4312 2301.9596,-750.7305 2310.4253,-757.1009 2312.5502,-750.4312"/>
</g>
<!-- BNois10_S&#45;&gt;BTopc10_S -->
<g id="edge158" class="edge">
<title>BNois10_S-&gt;BTopc10_S</title>
<path fill="none" stroke="#000000" d="M2523.7648,-796.1927C2591.8224,-769.9184 2739.8686,-712.7639 2815.1144,-683.7146"/>
<polygon fill="#000000" stroke="#000000" points="2816.727,-686.8438 2824.7954,-679.9771 2814.2059,-680.3136 2816.727,-686.8438"/>
</g>
<!-- BNois10_S&#45;&gt;BTopc05_S -->
<g id="edge161" class="edge">
<title>BNois10_S-&gt;BTopc05_S</title>
<path fill="none" stroke="#000000" d="M2536.3806,-800.8812C2606.3184,-787.6992 2735.5287,-763.3454 2810.9784,-749.1245"/>
<polygon fill="#000000" stroke="#000000" points="2811.627,-752.564 2820.8057,-747.2722 2810.3304,-745.6851 2811.627,-752.564"/>
</g>
<!-- BNois10_S&#45;&gt;BNois05_S -->
<g id="edge159" class="edge">
<title>BNois10_S-&gt;BNois05_S</title>
<path fill="none" stroke="#000000" d="M2543.6384,-809.196C2648.8309,-806.7316 2872.0691,-796.7145 2936,-756 2958.6771,-741.558 2973.7093,-714.2888 2982.4368,-693.5362"/>
<polygon fill="#000000" stroke="#000000" points="2985.802,-694.5434 2986.2206,-683.9568 2979.2915,-691.9717 2985.802,-694.5434"/>
</g>
<!-- error_rate&#45;&gt;syntaxError_rate -->
<g id="edge190" class="edge">
<title>error_rate-&gt;syntaxError_rate</title>
<path fill="none" stroke="#000000" d="M471.8404,-150.9864C429.7775,-139.1562 362.4576,-120.2225 313.9805,-106.5883"/>
<polygon fill="#000000" stroke="#000000" points="314.8181,-103.1881 304.2439,-103.8499 312.9228,-109.9267 314.8181,-103.1881"/>
</g>
<!-- error_rate&#45;&gt;pass_rate -->
<g id="edge191" class="edge">
<title>error_rate-&gt;pass_rate</title>
<path fill="none" stroke="#000000" d="M512.4904,-143.8221C513.0924,-123.516 510.7066,-91.0077 492,-72 467.0795,-46.6783 372.4151,-31.3056 310.5313,-23.7487"/>
<polygon fill="#000000" stroke="#000000" points="310.8617,-20.2634 300.5186,-22.5589 310.0357,-27.2145 310.8617,-20.2634"/>
</g>
<!-- timeout_rate -->
<g id="node45" class="node">
<title>timeout_rate</title>
<ellipse fill="none" stroke="#000000" cx="423" cy="-90" rx="59.6878" ry="18"/>
<text text-anchor="middle" x="423" y="-85.8" font-family="Times,serif" font-size="14.00" fill="#000000">timeout_rate</text>
</g>
<!-- error_rate&#45;&gt;timeout_rate -->
<g id="edge192" class="edge">
<title>error_rate-&gt;timeout_rate</title>
<path fill="none" stroke="#000000" d="M490.5898,-145.3008C479.0944,-135.8954 464.5489,-123.9946 451.8988,-113.6444"/>
<polygon fill="#000000" stroke="#000000" points="453.8665,-110.7322 443.9106,-107.1086 449.4338,-116.1499 453.8665,-110.7322"/>
</g>
<!-- sta_codeBleu&#45;&gt;sim_codeBleu -->
<g id="edge183" class="edge">
<title>sta_codeBleu-&gt;sim_codeBleu</title>
<path fill="none" stroke="#000000" d="M1452.0627,-224.1023C1589.511,-198.4643 1956.7995,-129.9545 2106.3217,-102.0643"/>
<polygon fill="#000000" stroke="#000000" points="2107.0895,-105.4816 2116.2781,-100.2072 2105.8058,-98.6003 2107.0895,-105.4816"/>
</g>
</g>
</svg>