<svg xmlns="http://www.w3.org/2000/svg" xmlns:xlink="http://www.w3.org/1999/xlink" width="4200pt" height="836pt" viewBox="0.00 0.00 4200.00 836.00">
<g id="graph0" class="graph" transform="scale(1 1) rotate(0) translate(4 832)">
<title>G</title>
<polygon fill="white" stroke="none" points="-4,4 -4,-832 4196,-832 4196,4 -4,4"/>
<!-- BClar10_S -->
<g id="node1" class="node">
<title>BClar10_S</title>
<ellipse fill="none" stroke="black" cx="3520" cy="-666" rx="53.96" ry="18"/>
<text text-anchor="middle" x="3520" y="-661.8" font-family="Times,serif" font-size="14.00">BClar10_S</text>
</g>
<!-- simp_det_var -->
<g id="node2" class="node">
<title>simp_det_var</title>
<ellipse fill="none" stroke="black" cx="3079" cy="-162" rx="63.6" ry="18"/>
<text text-anchor="middle" x="3079" y="-157.8" font-family="Times,serif" font-size="14.00">simp_det_var</text>
</g>
<!-- BClar10_S&#45;&gt;simp_det_var -->
<g id="edge1" class="edge">
<title>BClar10_S-&gt;simp_det_var</title>
<path fill="none" stroke="black" d="M3539.8,-649.09C3550.03,-639.55 3561.5,-626.49 3567,-612 3584.03,-567.12 3571.28,-551.81 3567,-504 3564.1,-471.61 3566.99,-461.81 3554,-432 3522.03,-358.66 3502.28,-344.85 3446,-288 3408.98,-250.6 3399.99,-237.59 3352,-216 3288.05,-187.23 3208.79,-174.05 3152.17,-168.02"/>
<polygon fill="black" stroke="black" points="3152.61,-164.55 3142.31,-167.03 3151.91,-171.52 3152.61,-164.55"/>
</g>
<!-- BTopc10_S -->
<g id="node3" class="node">
<title>BTopc10_S</title>
<ellipse fill="none" stroke="black" cx="3441" cy="-450" rx="57.18" ry="18"/>
<text text-anchor="middle" x="3441" y="-445.8" font-family="Times,serif" font-size="14.00">BTopc10_S</text>
</g>
<!-- BClar10_S&#45;&gt;BTopc10_S -->
<g id="edge2" class="edge">
<title>BClar10_S-&gt;BTopc10_S</title>
<path fill="none" stroke="black" d="M3513.67,-647.85C3500.06,-610.99 3467.92,-523.92 3451.32,-478.96"/>
<polygon fill="black" stroke="black" points="3454.63,-477.82 3447.89,-469.65 3448.07,-480.25 3454.63,-477.82"/>
</g>
<!-- BClar05_S -->
<g id="node4" class="node">
<title>BClar05_S</title>
<ellipse fill="none" stroke="black" cx="3359" cy="-378" rx="53.96" ry="18"/>
<text text-anchor="middle" x="3359" y="-373.8" font-family="Times,serif" font-size="14.00">BClar05_S</text>
</g>
<!-- BClar10_S&#45;&gt;BClar05_S -->
<g id="edge3" class="edge">
<title>BClar10_S-&gt;BClar05_S</title>
<path fill="none" stroke="black" d="M3524.89,-647.65C3535.55,-605.8 3556.2,-497.9 3507,-432 3487.15,-405.41 3452.78,-392.13 3422.15,-385.5"/>
<polygon fill="black" stroke="black" points="3423.04,-382.11 3412.56,-383.64 3421.71,-388.98 3423.04,-382.11"/>
</g>
<!-- simp_noun_var -->
<g id="node5" class="node">
<title>simp_noun_var</title>
<ellipse fill="none" stroke="black" cx="2314" cy="-234" rx="71.12" ry="18"/>
<text text-anchor="middle" x="2314" y="-229.8" font-family="Times,serif" font-size="14.00">simp_noun_var</text>
</g>
<!-- BClar10_S&#45;&gt;simp_noun_var -->
<g id="edge4" class="edge">
<title>BClar10_S-&gt;simp_noun_var</title>
<path fill="none" stroke="black" d="M3531.87,-648.22C3538.24,-638.21 3545.49,-624.96 3549,-612 3561.54,-565.66 3557.79,-551.53 3551,-504 3540.43,-429.98 3530.76,-393.69 3464,-360 3328.73,-291.74 3274.81,-346.64 3125,-324 3043.04,-311.61 3024.09,-299.5 2942,-288 2746.49,-260.6 2514.62,-245.5 2394.75,-238.97"/>
<polygon fill="black" stroke="black" points="2395.19,-235.49 2385.02,-238.44 2394.82,-242.48 2395.19,-235.49"/>
</g>
<!-- BTopc10_S&#45;&gt;simp_det_var -->
<g id="edge133" class="edge">
<title>BTopc10_S-&gt;simp_det_var</title>
<path fill="none" stroke="black" d="M3451.89,-432.05C3462.19,-413.72 3474.61,-383.93 3464,-360 3425.35,-272.85 3389.43,-260.29 3305,-216 3256.54,-190.57 3195.89,-177.21 3149.63,-170.26"/>
<polygon fill="black" stroke="black" points="3150.39,-166.84 3139.99,-168.89 3149.4,-173.77 3150.39,-166.84"/>
</g>
<!-- BTopc10_S&#45;&gt;BClar05_S -->
<g id="edge135" class="edge">
<title>BTopc10_S-&gt;BClar05_S</title>
<path fill="none" stroke="black" d="M3421.98,-432.76C3411.43,-423.75 3398.11,-412.39 3386.44,-402.43"/>
<polygon fill="black" stroke="black" points="3388.94,-399.96 3379.07,-396.13 3384.4,-405.28 3388.94,-399.96"/>
</g>
<!-- BTopc10_S&#45;&gt;simp_noun_var -->
<g id="edge136" class="edge">
<title>BTopc10_S-&gt;simp_noun_var</title>
<path fill="none" stroke="black" d="M3448.15,-431.87C3455.17,-411.96 3462.53,-379.39 3445,-360 3418.18,-330.35 3126.75,-328.29 3087,-324 2830.46,-296.33 2526.42,-260.41 2388.57,-243.95"/>
<polygon fill="black" stroke="black" points="2389.19,-240.5 2378.85,-242.79 2388.36,-247.45 2389.19,-240.5"/>
</g>
<!-- n_upunct -->
<g id="node12" class="node">
<title>n_upunct</title>
<ellipse fill="none" stroke="black" cx="942" cy="-306" rx="46.98" ry="18"/>
<text text-anchor="middle" x="942" y="-301.8" font-family="Times,serif" font-size="14.00">n_upunct</text>
</g>
<!-- BTopc10_S&#45;&gt;n_upunct -->
<g id="edge134" class="edge">
<title>BTopc10_S-&gt;n_upunct</title>
<path fill="none" stroke="black" d="M3443.01,-431.76C3444.34,-411.1 3442.87,-377.16 3422,-360 3373.27,-319.93 1214.02,-327.06 1151,-324 1099.32,-321.49 1040.6,-316.53 998.59,-312.61"/>
<polygon fill="black" stroke="black" points="998.99,-309.13 988.71,-311.68 998.33,-316.1 998.99,-309.13"/>
</g>
<!-- simp_noun_var&#45;&gt;simp_det_var -->
<g id="edge157" class="edge">
<title>simp_noun_var-&gt;simp_det_var</title>
<path fill="none" stroke="black" d="M2379.89,-226.97C2522.85,-213.89 2860.52,-182.99 3008,-169.5"/>
<polygon fill="black" stroke="black" points="3007.99,-173.01 3017.63,-168.62 3007.35,-166.04 3007.99,-173.01"/>
</g>
<!-- t_uword -->
<g id="node19" class="node">
<title>t_uword</title>
<ellipse fill="none" stroke="black" cx="1422" cy="-162" rx="43.22" ry="18"/>
<text text-anchor="middle" x="1422" y="-157.8" font-family="Times,serif" font-size="14.00">t_uword</text>
</g>
<!-- simp_noun_var&#45;&gt;t_uword -->
<g id="edge158" class="edge">
<title>simp_noun_var-&gt;t_uword</title>
<path fill="none" stroke="black" d="M2246.96,-227.74C2076.59,-214.37 1629.66,-179.3 1475.33,-167.18"/>
<polygon fill="black" stroke="black" points="1476.05,-163.73 1465.81,-166.44 1475.5,-170.71 1476.05,-163.73"/>
</g>
<!-- a_n_ent_money_ps -->
<g id="node6" class="node">
<title>a_n_ent_money_ps</title>
<ellipse fill="none" stroke="black" cx="3765" cy="-90" rx="86.13" ry="18"/>
<text text-anchor="middle" x="3765" y="-85.8" font-family="Times,serif" font-size="14.00">a_n_ent_money_ps</text>
</g>
<!-- sim_codeBleu -->
<g id="node7" class="node">
<title>sim_codeBleu</title>
<ellipse fill="none" stroke="black" cx="3708" cy="-18" rx="66.29" ry="18"/>
<text text-anchor="middle" x="3708" y="-13.8" font-family="Times,serif" font-size="14.00">sim_codeBleu</text>
</g>
<!-- a_n_ent_money_ps&#45;&gt;sim_codeBleu -->
<g id="edge5" class="edge">
<title>a_n_ent_money_ps-&gt;sim_codeBleu</title>
<path fill="none" stroke="black" d="M3751.2,-72.05C3744.48,-63.8 3736.26,-53.7 3728.8,-44.54"/>
<polygon fill="black" stroke="black" points="3731.66,-42.51 3722.63,-36.96 3726.23,-46.93 3731.66,-42.51"/>
</g>
<!-- n_adp -->
<g id="node8" class="node">
<title>n_adp</title>
<ellipse fill="none" stroke="black" cx="1633" cy="-450" rx="34.64" ry="18"/>
<text text-anchor="middle" x="1633" y="-445.8" font-family="Times,serif" font-size="14.00">n_adp</text>
</g>
<!-- n_adp&#45;&gt;simp_det_var -->
<g id="edge6" class="edge">
<title>n_adp-&gt;simp_det_var</title>
<path fill="none" stroke="black" d="M1658.99,-437.8C1764.91,-392.2 2159.82,-222.55 2188,-216 2342.4,-180.1 2819.09,-167.73 3004.32,-164.21"/>
<polygon fill="black" stroke="black" points="3004.12,-167.71 3014.05,-164.03 3003.99,-160.72 3004.12,-167.71"/>
</g>
<!-- a_cconj_pw -->
<g id="node9" class="node">
<title>a_cconj_pw</title>
<ellipse fill="none" stroke="black" cx="2058" cy="-378" rx="57.69" ry="18"/>
<text text-anchor="middle" x="2058" y="-373.8" font-family="Times,serif" font-size="14.00">a_cconj_pw</text>
</g>
<!-- n_adp&#45;&gt;a_cconj_pw -->
<g id="edge7" class="edge">
<title>n_adp-&gt;a_cconj_pw</title>
<path fill="none" stroke="black" d="M1665.64,-443.62C1736.48,-431.96 1905.24,-404.16 1996.65,-389.11"/>
<polygon fill="black" stroke="black" points="1997.15,-392.57 2006.45,-387.49 1996.01,-385.66 1997.15,-392.57"/>
</g>
<!-- n_uverb -->
<g id="node10" class="node">
<title>n_uverb</title>
<ellipse fill="none" stroke="black" cx="1703" cy="-378" rx="42.68" ry="18"/>
<text text-anchor="middle" x="1703" y="-373.8" font-family="Times,serif" font-size="14.00">n_uverb</text>
</g>
<!-- n_adp&#45;&gt;n_uverb -->
<g id="edge8" class="edge">
<title>n_adp-&gt;n_uverb</title>
<path fill="none" stroke="black" d="M1648.54,-433.46C1657.47,-424.53 1668.89,-413.11 1678.96,-403.04"/>
<polygon fill="black" stroke="black" points="1681.36,-405.59 1685.95,-396.05 1676.41,-400.64 1681.36,-405.59"/>
</g>
<!-- a_cconj_pw&#45;&gt;simp_noun_var -->
<g id="edge49" class="edge">
<title>a_cconj_pw-&gt;simp_noun_var</title>
<path fill="none" stroke="black" d="M2063.25,-359.83C2070.34,-339.58 2084.93,-306.36 2109,-288 2144.8,-260.69 2193.27,-247.38 2234.09,-240.93"/>
<polygon fill="black" stroke="black" points="2234.5,-244.4 2243.89,-239.5 2233.49,-237.48 2234.5,-244.4"/>
</g>
<!-- a_cconj_pw&#45;&gt;t_uword -->
<g id="edge48" class="edge">
<title>a_cconj_pw-&gt;t_uword</title>
<path fill="none" stroke="black" d="M2014.8,-365.7C2005.36,-363.54 1995.39,-361.49 1986,-360 1891.08,-344.92 1639.1,-370.53 1555,-324 1502.5,-294.96 1513.1,-261.51 1474,-216 1465.47,-206.07 1455.53,-195.68 1446.63,-186.75"/>
<polygon fill="black" stroke="black" points="1449.15,-184.32 1439.58,-179.78 1444.22,-189.3 1449.15,-184.32"/>
</g>
<!-- n_uverb&#45;&gt;t_uword -->
<g id="edge154" class="edge">
<title>n_uverb-&gt;t_uword</title>
<path fill="none" stroke="black" d="M1660.32,-375.8C1586.46,-372.72 1439.67,-361.87 1408,-324 1376.65,-286.52 1394.43,-225.53 1409.01,-190.35"/>
<polygon fill="black" stroke="black" points="1412.17,-191.86 1412.96,-181.29 1405.75,-189.06 1412.17,-191.86"/>
</g>
<!-- t_subtlex_us_zipf -->
<g id="node11" class="node">
<title>t_subtlex_us_zipf</title>
<ellipse fill="none" stroke="black" cx="1578" cy="-666" rx="79.7" ry="18"/>
<text text-anchor="middle" x="1578" y="-661.8" font-family="Times,serif" font-size="14.00">t_subtlex_us_zipf</text>
</g>
<!-- t_subtlex_us_zipf&#45;&gt;simp_noun_var -->
<g id="edge21" class="edge">
<title>t_subtlex_us_zipf-&gt;simp_noun_var</title>
<path fill="none" stroke="black" d="M1657,-663.17C1836.06,-658.49 2261.65,-644.09 2318,-612 2418.32,-554.87 2395.85,-474.49 2381,-360 2376.74,-327.18 2377.78,-317.09 2362,-288 2356.47,-277.8 2348.57,-267.97 2340.77,-259.62"/>
<polygon fill="black" stroke="black" points="2343.36,-257.25 2333.85,-252.56 2338.36,-262.15 2343.36,-257.25"/>
</g>
<!-- t_subtlex_us_zipf&#45;&gt;n_adp -->
<g id="edge9" class="edge">
<title>t_subtlex_us_zipf-&gt;n_adp</title>
<path fill="none" stroke="black" d="M1579.31,-647.67C1581.94,-617.71 1589.14,-554.6 1606,-504 1608.95,-495.14 1613.18,-485.94 1617.43,-477.73"/>
<polygon fill="black" stroke="black" points="1620.49,-479.41 1622.18,-468.95 1614.34,-476.08 1620.49,-479.41"/>
</g>
<!-- t_subtlex_us_zipf&#45;&gt;a_cconj_pw -->
<g id="edge14" class="edge">
<title>t_subtlex_us_zipf-&gt;a_cconj_pw</title>
<path fill="none" stroke="black" d="M1627.35,-651.52C1691.1,-632.73 1803.97,-594.7 1889,-540 1949.38,-501.16 2007.13,-438.97 2036.97,-404.35"/>
<polygon fill="black" stroke="black" points="2039.48,-406.8 2043.3,-396.92 2034.15,-402.26 2039.48,-406.8"/>
</g>
<!-- t_subtlex_us_zipf&#45;&gt;n_uverb -->
<g id="edge20" class="edge">
<title>t_subtlex_us_zipf-&gt;n_uverb</title>
<path fill="none" stroke="black" d="M1573.15,-647.58C1562.69,-606.03 1542.53,-499.57 1589,-432 1597.69,-419.36 1631.2,-404.63 1659.66,-393.91"/>
<polygon fill="black" stroke="black" points="1660.66,-397.27 1668.83,-390.53 1658.24,-390.7 1660.66,-397.27"/>
</g>
<!-- t_subtlex_us_zipf&#45;&gt;n_upunct -->
<g id="edge10" class="edge">
<title>t_subtlex_us_zipf-&gt;n_upunct</title>
<path fill="none" stroke="black" d="M1498.22,-664.47C1288.25,-662.52 731.53,-653.44 660,-612 563.07,-555.85 579.8,-432.74 665,-360 697.32,-332.41 813.17,-317.87 884.41,-311.36"/>
<polygon fill="black" stroke="black" points="884.71,-314.85 894.36,-310.48 884.09,-307.88 884.71,-314.85"/>
</g>
<!-- t_bry -->
<g id="node13" class="node">
<title>t_bry</title>
<ellipse fill="none" stroke="black" cx="2317" cy="-450" rx="31.42" ry="18"/>
<text text-anchor="middle" x="2317" y="-445.8" font-family="Times,serif" font-size="14.00">t_bry</text>
</g>
<!-- t_subtlex_us_zipf&#45;&gt;t_bry -->
<g id="edge11" class="edge">
<title>t_subtlex_us_zipf-&gt;t_bry</title>
<path fill="none" stroke="black" d="M1658.02,-665.58C1817.15,-665.66 2167.32,-660.15 2276,-612 2318.54,-593.15 2333.62,-582.74 2352,-540 2361.24,-518.51 2349.71,-493.71 2337.47,-475.76"/>
<polygon fill="black" stroke="black" points="2340.35,-473.77 2331.62,-467.78 2334.7,-477.91 2340.35,-473.77"/>
</g>
<!-- t_syll3 -->
<g id="node14" class="node">
<title>t_syll3</title>
<ellipse fill="none" stroke="black" cx="2155" cy="-306" rx="37.33" ry="18"/>
<text text-anchor="middle" x="2155" y="-301.8" font-family="Times,serif" font-size="14.00">t_syll3</text>
</g>
<!-- t_subtlex_us_zipf&#45;&gt;t_syll3 -->
<g id="edge12" class="edge">
<title>t_subtlex_us_zipf-&gt;t_syll3</title>
<path fill="none" stroke="black" d="M1654.93,-660.98C1804.06,-651.41 2123.76,-621.64 2191,-540 2241.87,-478.23 2226.59,-433.52 2195,-360 2190.7,-350 2184.13,-340.16 2177.55,-331.73"/>
<polygon fill="black" stroke="black" points="2180.26,-329.52 2171.2,-324.04 2174.87,-333.98 2180.26,-329.52"/>
</g>
<!-- WTopc15_S -->
<g id="node15" class="node">
<title>WTopc15_S</title>
<ellipse fill="none" stroke="black" cx="696" cy="-522" rx="59.85" ry="18"/>
<text text-anchor="middle" x="696" y="-517.8" font-family="Times,serif" font-size="14.00">WTopc15_S</text>
</g>
<!-- t_subtlex_us_zipf&#45;&gt;WTopc15_S -->
<g id="edge13" class="edge">
<title>t_subtlex_us_zipf-&gt;WTopc15_S</title>
<path fill="none" stroke="black" d="M1498.61,-663.76C1381.89,-660.67 1157.61,-649.84 971,-612 887.95,-595.16 794.81,-561.81 741.02,-541.06"/>
<polygon fill="black" stroke="black" points="742.48,-537.87 731.9,-537.51 739.95,-544.4 742.48,-537.87"/>
</g>
<!-- simp_adp_var -->
<g id="node16" class="node">
<title>simp_adp_var</title>
<ellipse fill="none" stroke="black" cx="916" cy="-522" rx="65.75" ry="18"/>
<text text-anchor="middle" x="916" y="-517.8" font-family="Times,serif" font-size="14.00">simp_adp_var</text>
</g>
<!-- t_subtlex_us_zipf&#45;&gt;simp_adp_var -->
<g id="edge15" class="edge">
<title>t_subtlex_us_zipf-&gt;simp_adp_var</title>
<path fill="none" stroke="black" d="M1499.28,-662.57C1369.51,-657.69 1116.78,-644.26 1034,-612 997.49,-597.77 962.54,-568.84 940.29,-547.82"/>
<polygon fill="black" stroke="black" points="942.83,-545.41 933.21,-540.97 937.96,-550.44 942.83,-545.41"/>
</g>
<!-- t_stopword -->
<g id="node17" class="node">
<title>t_stopword</title>
<ellipse fill="none" stroke="black" cx="2104" cy="-522" rx="54.49" ry="18"/>
<text text-anchor="middle" x="2104" y="-517.8" font-family="Times,serif" font-size="14.00">t_stopword</text>
</g>
<!-- t_subtlex_us_zipf&#45;&gt;t_stopword -->
<g id="edge16" class="edge">
<title>t_subtlex_us_zipf-&gt;t_stopword</title>
<path fill="none" stroke="black" d="M1653.07,-659.61C1752.99,-651.68 1923.87,-635.24 1982,-612 2019.56,-596.98 2056.16,-567.74 2079.32,-546.87"/>
<polygon fill="black" stroke="black" points="2081.41,-549.7 2086.39,-540.36 2076.66,-544.56 2081.41,-549.7"/>
</g>
<!-- a_n_ent_pw -->
<g id="node18" class="node">
<title>a_n_ent_pw</title>
<ellipse fill="none" stroke="black" cx="752" cy="-378" rx="58.24" ry="18"/>
<text text-anchor="middle" x="752" y="-373.8" font-family="Times,serif" font-size="14.00">a_n_ent_pw</text>
</g>
<!-- t_subtlex_us_zipf&#45;&gt;a_n_ent_pw -->
<g id="edge17" class="edge">
<title>t_subtlex_us_zipf-&gt;a_n_ent_pw</title>
<path fill="none" stroke="black" d="M1499.77,-661.97C1336.02,-655.2 961.96,-637.44 837,-612 740.32,-592.32 684.35,-620.29 627,-540 590.25,-488.55 665.7,-430.48 714.63,-400.1"/>
<polygon fill="black" stroke="black" points="716.29,-403.19 723.02,-395.01 712.66,-397.21 716.29,-403.19"/>
</g>
<!-- t_subtlex_us_zipf&#45;&gt;t_uword -->
<g id="edge18" class="edge">
<title>t_subtlex_us_zipf-&gt;t_uword</title>
<path fill="none" stroke="black" d="M1498.76,-663.15C1300.11,-658.12 784.72,-642.46 616,-612 404.34,-573.79 281.46,-641.24 154,-468 112.39,-411.45 141.64,-313.24 342,-216 434.52,-171.1 1159.9,-164.23 1366.98,-163.19"/>
<polygon fill="black" stroke="black" points="1366.95,-166.69 1376.93,-163.14 1366.91,-159.69 1366.95,-166.69"/>
</g>
<!-- a_adj_pw -->
<g id="node20" class="node">
<title>a_adj_pw</title>
<ellipse fill="none" stroke="black" cx="1467" cy="-522" rx="48.58" ry="18"/>
<text text-anchor="middle" x="1467" y="-517.8" font-family="Times,serif" font-size="14.00">a_adj_pw</text>
</g>
<!-- t_subtlex_us_zipf&#45;&gt;a_adj_pw -->
<g id="edge19" class="edge">
<title>t_subtlex_us_zipf-&gt;a_adj_pw</title>
<path fill="none" stroke="black" d="M1561.9,-648.27C1552.32,-638.06 1540.1,-624.59 1530,-612 1513.61,-591.56 1496.53,-567.22 1484.3,-549.16"/>
<polygon fill="black" stroke="black" points="1487.36,-547.44 1478.88,-541.09 1481.55,-551.35 1487.36,-547.44"/>
</g>
<!-- n_det -->
<g id="node21" class="node">
<title>n_det</title>
<ellipse fill="none" stroke="black" cx="1116" cy="-450" rx="32.49" ry="18"/>
<text text-anchor="middle" x="1116" y="-445.8" font-family="Times,serif" font-size="14.00">n_det</text>
</g>
<!-- t_subtlex_us_zipf&#45;&gt;n_det -->
<g id="edge22" class="edge">
<title>t_subtlex_us_zipf-&gt;n_det</title>
<path fill="none" stroke="black" d="M1498.01,-665.65C1387.09,-664.85 1194.4,-656.81 1143,-612 1105.6,-579.4 1106.73,-516.1 1111.17,-479.33"/>
<polygon fill="black" stroke="black" points="1114.58,-480.28 1112.48,-469.9 1107.64,-479.32 1114.58,-480.28"/>
</g>
<!-- bilog_ttr -->
<g id="node22" class="node">
<title>bilog_ttr</title>
<ellipse fill="none" stroke="black" cx="1929" cy="-594" rx="44.3" ry="18"/>
<text text-anchor="middle" x="1929" y="-589.8" font-family="Times,serif" font-size="14.00">bilog_ttr</text>
</g>
<!-- t_subtlex_us_zipf&#45;&gt;bilog_ttr -->
<g id="edge23" class="edge">
<title>t_subtlex_us_zipf-&gt;bilog_ttr</title>
<path fill="none" stroke="black" d="M1636.35,-653.36C1704.21,-639.83 1815.07,-617.72 1879.09,-604.95"/>
<polygon fill="black" stroke="black" points="1879.49,-608.44 1888.62,-603.05 1878.12,-601.58 1879.49,-608.44"/>
</g>
<!-- n_upunct&#45;&gt;t_uword -->
<g id="edge24" class="edge">
<title>n_upunct-&gt;t_uword</title>
<path fill="none" stroke="black" d="M948.69,-287.96C957.83,-267.18 976.29,-232.77 1004,-216 1063.97,-179.7 1268.44,-168.05 1367.43,-164.48"/>
<polygon fill="black" stroke="black" points="1367.29,-167.99 1377.16,-164.15 1367.05,-160.99 1367.29,-167.99"/>
</g>
<!-- t_bry&#45;&gt;simp_det_var -->
<g id="edge25" class="edge">
<title>t_bry-&gt;simp_det_var</title>
<path fill="none" stroke="black" d="M2346.99,-443.84C2391.05,-435.86 2475.56,-419 2545,-396 2735.57,-332.87 2951.61,-227.58 3039.09,-183.45"/>
<polygon fill="black" stroke="black" points="3040.66,-186.57 3048,-178.93 3037.5,-180.33 3040.66,-186.57"/>
</g>
<!-- t_bry&#45;&gt;simp_noun_var -->
<g id="edge30" class="edge">
<title>t_bry-&gt;simp_noun_var</title>
<path fill="none" stroke="black" d="M2316.76,-431.85C2316.25,-395.14 2315.03,-308.66 2314.4,-263.53"/>
<polygon fill="black" stroke="black" points="2317.9,-263.7 2314.26,-253.75 2310.9,-263.79 2317.9,-263.7"/>
</g>
<!-- t_bry&#45;&gt;a_cconj_pw -->
<g id="edge27" class="edge">
<title>t_bry-&gt;a_cconj_pw</title>
<path fill="none" stroke="black" d="M2288.79,-441.38C2246.44,-429.93 2165.66,-408.1 2111.8,-393.54"/>
<polygon fill="black" stroke="black" points="2112.77,-390.18 2102.2,-390.95 2110.95,-396.94 2112.77,-390.18"/>
</g>
<!-- t_bry&#45;&gt;n_uverb -->
<g id="edge29" class="edge">
<title>t_bry-&gt;n_uverb</title>
<path fill="none" stroke="black" d="M2286.13,-445.48C2187.54,-434.24 1879.46,-399.12 1755.47,-384.98"/>
<polygon fill="black" stroke="black" points="1755.89,-381.51 1745.56,-383.85 1755.1,-388.46 1755.89,-381.51"/>
</g>
<!-- t_bry&#45;&gt;t_syll3 -->
<g id="edge26" class="edge">
<title>t_bry-&gt;t_syll3</title>
<path fill="none" stroke="black" d="M2312.15,-431.81C2305.82,-412.16 2293,-380.12 2272,-360 2251.4,-340.27 2222.18,-327.02 2198.09,-318.71"/>
<polygon fill="black" stroke="black" points="2199.47,-315.47 2188.88,-315.7 2197.3,-322.13 2199.47,-315.47"/>
</g>
<!-- t_bry&#45;&gt;t_uword -->
<g id="edge28" class="edge">
<title>t_bry-&gt;t_uword</title>
<path fill="none" stroke="black" d="M2331.05,-433.7C2366.87,-392.85 2454.64,-280.03 2394,-216 2362.28,-182.5 1677.24,-167.58 1476.69,-163.93"/>
<polygon fill="black" stroke="black" points="1476.87,-160.43 1466.81,-163.75 1476.74,-167.43 1476.87,-160.43"/>
</g>
<!-- pass_rate -->
<g id="node45" class="node">
<title>pass_rate</title>
<ellipse fill="none" stroke="black" cx="2950" cy="-378" rx="46.97" ry="18"/>
<text text-anchor="middle" x="2950" y="-373.8" font-family="Times,serif" font-size="14.00">pass_rate</text>
</g>
<!-- t_bry&#45;&gt;pass_rate -->
<g id="edge212" class="edge">
<title>t_bry-&gt;pass_rate</title>
<path fill="none" stroke="black" d="M2347.96,-445.58C2448.19,-434.49 2764.81,-399.48 2894.14,-385.18"/>
<polygon fill="black" stroke="black" points="2894.27,-388.68 2903.83,-384.11 2893.5,-381.73 2894.27,-388.68"/>
</g>
<!-- t_syll3&#45;&gt;simp_det_var -->
<g id="edge31" class="edge">
<title>t_syll3-&gt;simp_det_var</title>
<path fill="none" stroke="black" d="M2164.18,-288.31C2176.8,-267.21 2201.69,-231.76 2234,-216 2302.22,-182.73 2810.34,-168.65 3004.18,-164.45"/>
<polygon fill="black" stroke="black" points="3004.22,-167.95 3014.14,-164.23 3004.07,-160.95 3004.22,-167.95"/>
</g>
<!-- t_syll3&#45;&gt;simp_noun_var -->
<g id="edge33" class="edge">
<title>t_syll3-&gt;simp_noun_var</title>
<path fill="none" stroke="black" d="M2181.97,-293.13C2205.86,-282.61 2241.19,-267.06 2269.29,-254.68"/>
<polygon fill="black" stroke="black" points="2270.54,-257.96 2278.29,-250.72 2267.72,-251.55 2270.54,-257.96"/>
</g>
<!-- t_syll3&#45;&gt;t_uword -->
<g id="edge32" class="edge">
<title>t_syll3-&gt;t_uword</title>
<path fill="none" stroke="black" d="M2120.63,-298.34C2002.25,-275.41 1611.08,-199.63 1471.79,-172.65"/>
<polygon fill="black" stroke="black" points="1472.62,-169.24 1462.14,-170.78 1471.29,-176.11 1472.62,-169.24"/>
</g>
<!-- WTopc15_S&#45;&gt;simp_det_var -->
<g id="edge34" class="edge">
<title>WTopc15_S-&gt;simp_det_var</title>
<path fill="none" stroke="black" d="M682.77,-504.44C675.69,-494.5 667.69,-481.25 664,-468 658.93,-449.81 656.42,-371.64 665,-360 726.27,-276.83 785.07,-310.01 886,-288 1159.62,-228.32 1232.71,-236.75 1512,-216 2084.66,-173.45 2777.6,-165.04 3003.72,-163.39"/>
<polygon fill="black" stroke="black" points="3003.6,-166.89 3013.58,-163.32 3003.55,-159.89 3003.6,-166.89"/>
</g>
<!-- WTopc15_S&#45;&gt;n_uverb -->
<g id="edge37" class="edge">
<title>WTopc15_S-&gt;n_uverb</title>
<path fill="none" stroke="black" d="M751.08,-514.5C778.16,-511.31 811.29,-507.43 841,-504 981.42,-487.77 1016.98,-487.38 1157,-468 1340.53,-442.6 1557.5,-404.94 1653.3,-387.93"/>
<polygon fill="black" stroke="black" points="1653.65,-391.42 1662.88,-386.22 1652.42,-384.53 1653.65,-391.42"/>
</g>
<!-- WTopc15_S&#45;&gt;n_upunct -->
<g id="edge35" class="edge">
<title>WTopc15_S-&gt;n_upunct</title>
<path fill="none" stroke="black" d="M688.12,-504.16C674.44,-472.14 650.84,-401.92 685,-360 709.65,-329.74 816.43,-316.25 884.36,-310.63"/>
<polygon fill="black" stroke="black" points="884.53,-314.13 894.22,-309.85 883.98,-307.15 884.53,-314.13"/>
</g>
<!-- WTopc15_S&#45;&gt;t_uword -->
<g id="edge36" class="edge">
<title>WTopc15_S-&gt;t_uword</title>
<path fill="none" stroke="black" d="M642.48,-513.53C568.58,-502.77 442.61,-482.58 427,-468 397.05,-440.05 403,-419.97 403,-379 403,-379 403,-379 403,-305 403,-206.72 1156.17,-172.47 1367.47,-164.8"/>
<polygon fill="black" stroke="black" points="1367.48,-168.3 1377.35,-164.44 1367.23,-161.3 1367.48,-168.3"/>
</g>
<!-- WTopc15_S&#45;&gt;n_det -->
<g id="edge39" class="edge">
<title>WTopc15_S-&gt;n_det</title>
<path fill="none" stroke="black" d="M751.33,-514.63C840.23,-504.15 1010.87,-482.93 1070,-468 1073.17,-467.2 1076.43,-466.25 1079.67,-465.23"/>
<polygon fill="black" stroke="black" points="1080.76,-468.56 1089.08,-462.01 1078.49,-461.94 1080.76,-468.56"/>
</g>
<!-- corr_punct_var -->
<g id="node23" class="node">
<title>corr_punct_var</title>
<ellipse fill="none" stroke="black" cx="2702" cy="-450" rx="70.02" ry="18"/>
<text text-anchor="middle" x="2702" y="-445.8" font-family="Times,serif" font-size="14.00">corr_punct_var</text>
</g>
<!-- WTopc15_S&#45;&gt;corr_punct_var -->
<g id="edge38" class="edge">
<title>WTopc15_S-&gt;corr_punct_var</title>
<path fill="none" stroke="black" d="M749.6,-513.51C776.9,-510 810.66,-506.13 841,-504 1513.31,-456.71 1683.48,-492.59 2357,-468 2448.26,-464.67 2553.01,-459.29 2622.92,-455.47"/>
<polygon fill="black" stroke="black" points="2622.96,-458.97 2632.76,-454.93 2622.58,-451.98 2622.96,-458.97"/>
</g>
<!-- simp_adp_var&#45;&gt;simp_det_var -->
<g id="edge59" class="edge">
<title>simp_adp_var-&gt;simp_det_var</title>
<path fill="none" stroke="black" d="M926.59,-503.98C955.77,-458.87 1042.37,-336.41 1151,-288 1298.28,-222.37 1352.22,-273.64 1512,-252 1605.84,-239.29 1627.82,-225.87 1722,-216 2208.74,-165 2798.32,-161.86 3003.95,-162.5"/>
<polygon fill="black" stroke="black" points="3003.68,-166 3013.69,-162.53 3003.7,-159 3003.68,-166"/>
</g>
<!-- simp_adp_var&#45;&gt;simp_noun_var -->
<g id="edge63" class="edge">
<title>simp_adp_var-&gt;simp_noun_var</title>
<path fill="none" stroke="black" d="M938.67,-504.62C968.4,-484.04 1022.92,-449.31 1075,-432 1190.72,-393.53 1230.96,-433.47 1347,-396 1379.17,-385.61 1381.56,-369.51 1414,-360 1513.03,-330.95 1784.22,-369.19 1877,-324 1896.51,-314.5 1890.74,-298.02 1910,-288 1964.61,-259.59 2131.7,-245.31 2233.08,-239.08"/>
<polygon fill="black" stroke="black" points="2233.22,-242.58 2242.99,-238.49 2232.8,-235.59 2233.22,-242.58"/>
</g>
<!-- simp_adp_var&#45;&gt;n_adp -->
<g id="edge60" class="edge">
<title>simp_adp_var-&gt;n_adp</title>
<path fill="none" stroke="black" d="M977.13,-515.03C1118.2,-501.26 1463.87,-467.51 1587.83,-455.41"/>
<polygon fill="black" stroke="black" points="1588.01,-458.91 1597.62,-454.45 1587.33,-451.94 1588.01,-458.91"/>
</g>
<!-- simp_adp_var&#45;&gt;n_upunct -->
<g id="edge61" class="edge">
<title>simp_adp_var-&gt;n_upunct</title>
<path fill="none" stroke="black" d="M918.08,-503.85C922.54,-467.14 933.05,-380.66 938.53,-335.53"/>
<polygon fill="black" stroke="black" points="941.99,-336.08 939.72,-325.73 935.04,-335.24 941.99,-336.08"/>
</g>
<!-- simp_adp_var&#45;&gt;a_n_ent_pw -->
<g id="edge62" class="edge">
<title>simp_adp_var-&gt;a_n_ent_pw</title>
<path fill="none" stroke="black" d="M895.67,-504.47C883.01,-494.11 866.45,-480.41 852,-468 826.66,-446.24 798.25,-420.86 778.21,-402.78"/>
<polygon fill="black" stroke="black" points="780.78,-400.4 771.02,-396.29 776.09,-405.59 780.78,-400.4"/>
</g>
<!-- simp_adp_var&#45;&gt;n_det -->
<g id="edge64" class="edge">
<title>simp_adp_var-&gt;n_det</title>
<path fill="none" stroke="black" d="M956.29,-507.41C987.41,-496.85 1031.52,-481.73 1070,-468 1073.01,-466.93 1076.12,-465.8 1079.24,-464.67"/>
<polygon fill="black" stroke="black" points="1080.16,-468.06 1088.34,-461.33 1077.75,-461.49 1080.16,-468.06"/>
</g>
<!-- t_stopword&#45;&gt;simp_noun_var -->
<g id="edge71" class="edge">
<title>t_stopword-&gt;simp_noun_var</title>
<path fill="none" stroke="black" d="M2116.2,-504.39C2151.2,-456.72 2252.18,-319.19 2294.73,-261.24"/>
<polygon fill="black" stroke="black" points="2297.51,-263.37 2300.61,-253.24 2291.87,-259.23 2297.51,-263.37"/>
</g>
<!-- t_stopword&#45;&gt;n_adp -->
<g id="edge65" class="edge">
<title>t_stopword-&gt;n_adp</title>
<path fill="none" stroke="black" d="M2062.83,-509.8C2054.02,-507.66 2044.74,-505.59 2036,-504 1899.54,-479.13 1863.18,-488.48 1726,-468 1709.54,-465.54 1691.53,-462.37 1675.78,-459.42"/>
<polygon fill="black" stroke="black" points="1676.73,-456.04 1666.25,-457.62 1675.43,-462.92 1676.73,-456.04"/>
</g>
<!-- t_stopword&#45;&gt;n_uverb -->
<g id="edge70" class="edge">
<title>t_stopword-&gt;n_uverb</title>
<path fill="none" stroke="black" d="M2067.71,-508.15C1993.5,-481.87 1824.76,-422.12 1745.55,-394.07"/>
<polygon fill="black" stroke="black" points="1747.01,-390.87 1736.41,-390.83 1744.67,-397.47 1747.01,-390.87"/>
</g>
<!-- t_stopword&#45;&gt;t_bry -->
<g id="edge66" class="edge">
<title>t_stopword-&gt;t_bry</title>
<path fill="none" stroke="black" d="M2141.59,-508.65C2180.4,-495.89 2240.59,-476.11 2279.4,-463.36"/>
<polygon fill="black" stroke="black" points="2280.38,-466.72 2288.79,-460.27 2278.2,-460.07 2280.38,-466.72"/>
</g>
<!-- t_stopword&#45;&gt;t_syll3 -->
<g id="edge67" class="edge">
<title>t_stopword-&gt;t_syll3</title>
<path fill="none" stroke="black" d="M2108.09,-503.85C2116.85,-467.07 2137.53,-380.29 2148.27,-335.24"/>
<polygon fill="black" stroke="black" points="2151.63,-336.24 2150.54,-325.7 2144.82,-334.62 2151.63,-336.24"/>
</g>
<!-- t_stopword&#45;&gt;a_n_ent_pw -->
<g id="edge68" class="edge">
<title>t_stopword-&gt;a_n_ent_pw</title>
<path fill="none" stroke="black" d="M2062,-510.14C2053.42,-508.02 2044.43,-505.88 2036,-504 1954.66,-485.89 1933.7,-484.4 1852,-468 1774.15,-452.38 1755.74,-442.3 1677,-432 1511.48,-410.35 1006.35,-388.97 821.07,-381.65"/>
<polygon fill="black" stroke="black" points="821.24,-378.15 811.11,-381.26 820.97,-385.15 821.24,-378.15"/>
</g>
<!-- t_stopword&#45;&gt;t_uword -->
<g id="edge69" class="edge">
<title>t_stopword-&gt;t_uword</title>
<path fill="none" stroke="black" d="M2090.33,-504.23C2061.31,-469.99 1989.61,-392.55 1910,-360 1828,-326.48 1587.42,-372.06 1513,-324 1465.33,-293.22 1440.11,-228.21 1429.06,-190.9"/>
<polygon fill="black" stroke="black" points="1432.56,-190.42 1426.49,-181.74 1425.82,-192.31 1432.56,-190.42"/>
</g>
<!-- t_stopword&#45;&gt;n_det -->
<g id="edge72" class="edge">
<title>t_stopword-&gt;n_det</title>
<path fill="none" stroke="black" d="M2051.44,-516.69C2007.92,-513.16 1944.45,-508.09 1889,-504 1611.45,-483.51 1277.63,-461.52 1159.78,-453.84"/>
<polygon fill="black" stroke="black" points="1160.13,-450.36 1149.92,-453.2 1159.67,-457.34 1160.13,-450.36"/>
</g>
<!-- a_n_ent_pw&#45;&gt;sim_codeBleu -->
<g id="edge119" class="edge">
<title>a_n_ent_pw-&gt;sim_codeBleu</title>
<path fill="none" stroke="black" d="M772.9,-360.95C798.52,-341.8 843.75,-309.66 886,-288 1134.11,-160.78 1200.6,-121.5 1475,-72 1690.24,-33.17 3260.36,-21.62 3630.15,-19.42"/>
<polygon fill="black" stroke="black" points="3630.02,-22.92 3640,-19.36 3629.98,-15.92 3630.02,-22.92"/>
</g>
<!-- a_adj_pw&#45;&gt;simp_noun_var -->
<g id="edge151" class="edge">
<title>a_adj_pw-&gt;simp_noun_var</title>
<path fill="none" stroke="black" d="M1479.78,-504.28C1506.96,-470.15 1574.35,-392.89 1651,-360 1804.05,-294.32 1867.35,-380.55 2024,-324 2050.78,-314.33 2050.87,-299.31 2077,-288 2128.94,-265.53 2191.58,-252.05 2239.41,-244.31"/>
<polygon fill="black" stroke="black" points="2239.78,-247.8 2249.12,-242.79 2238.7,-240.88 2239.78,-247.8"/>
</g>
<!-- a_adj_pw&#45;&gt;n_upunct -->
<g id="edge147" class="edge">
<title>a_adj_pw-&gt;n_upunct</title>
<path fill="none" stroke="black" d="M1435.34,-508.1C1344.97,-471.26 1085.77,-365.6 983.87,-324.07"/>
<polygon fill="black" stroke="black" points="985.35,-320.89 974.77,-320.36 982.71,-327.37 985.35,-320.89"/>
</g>
<!-- a_adj_pw&#45;&gt;t_bry -->
<g id="edge148" class="edge">
<title>a_adj_pw-&gt;t_bry</title>
<path fill="none" stroke="black" d="M1514.22,-517.11C1664.69,-504.72 2131.46,-466.28 2274.74,-454.48"/>
<polygon fill="black" stroke="black" points="2274.86,-457.98 2284.54,-453.67 2274.28,-451.01 2274.86,-457.98"/>
</g>
<!-- a_adj_pw&#45;&gt;t_uword -->
<g id="edge149" class="edge">
<title>a_adj_pw-&gt;t_uword</title>
<path fill="none" stroke="black" d="M1457.59,-504.03C1439.73,-470.74 1401.51,-394.01 1388,-324 1378.9,-276.87 1374.5,-262.06 1388,-216 1390.8,-206.45 1395.9,-197 1401.32,-188.77"/>
<polygon fill="black" stroke="black" points="1404.14,-190.84 1407.08,-180.66 1398.44,-186.79 1404.14,-190.84"/>
</g>
<!-- a_adj_pw&#45;&gt;corr_punct_var -->
<g id="edge150" class="edge">
<title>a_adj_pw-&gt;corr_punct_var</title>
<path fill="none" stroke="black" d="M1514.53,-517.53C1564.44,-513.94 1645.22,-508.27 1715,-504 2052,-483.4 2454,-463.16 2622.03,-454.89"/>
<polygon fill="black" stroke="black" points="2622.15,-458.39 2631.96,-454.4 2621.8,-451.4 2622.15,-458.39"/>
</g>
<!-- n_det&#45;&gt;simp_det_var -->
<g id="edge174" class="edge">
<title>n_det-&gt;simp_det_var</title>
<path fill="none" stroke="black" d="M1139.54,-437.14C1143.94,-435.22 1148.55,-433.41 1153,-432 1236.59,-405.49 1264.07,-424.52 1347,-396 1371.63,-387.53 1530.17,-295.84 1555,-288 1830.17,-201.11 2736.99,-171.65 3004.25,-164.74"/>
<polygon fill="black" stroke="black" points="3004.32,-168.24 3014.23,-164.49 3004.14,-161.24 3004.32,-168.24"/>
</g>
<!-- n_det&#45;&gt;simp_noun_var -->
<g id="edge179" class="edge">
<title>n_det-&gt;simp_noun_var</title>
<path fill="none" stroke="black" d="M1139.09,-437.13C1143.61,-435.17 1148.38,-433.34 1153,-432 1267.14,-398.83 1303.31,-427.21 1418,-396 1457.98,-385.12 1463.78,-369.95 1504,-360 1679.85,-316.51 1734.15,-367.49 1910,-324 1950.22,-314.05 1956.19,-299.48 1996,-288 2076.66,-264.74 2171.97,-250.54 2237.07,-242.77"/>
<polygon fill="black" stroke="black" points="2237.43,-246.25 2246.96,-241.61 2236.62,-239.3 2237.43,-246.25"/>
</g>
<!-- n_det&#45;&gt;n_upunct -->
<g id="edge175" class="edge">
<title>n_det-&gt;n_upunct</title>
<path fill="none" stroke="black" d="M1095.79,-435.38C1080.67,-424.99 1059.65,-410.11 1042,-396 1015.59,-374.89 986.91,-349.03 967.06,-330.64"/>
<polygon fill="black" stroke="black" points="969.67,-328.29 959.97,-324.04 964.9,-333.41 969.67,-328.29"/>
</g>
<!-- n_det&#45;&gt;t_syll3 -->
<g id="edge176" class="edge">
<title>n_det-&gt;t_syll3</title>
<path fill="none" stroke="black" d="M1139.06,-437.02C1143.58,-435.07 1148.36,-433.27 1153,-432 1299.96,-391.65 1344.46,-425.36 1494,-396 1550.31,-384.94 1561.65,-370.84 1618,-360 1779.38,-328.96 1822.47,-340.22 1986,-324 2026.95,-319.94 2073.47,-315.25 2107.32,-311.83"/>
<polygon fill="black" stroke="black" points="2107.64,-315.32 2117.23,-310.83 2106.93,-308.35 2107.64,-315.32"/>
</g>
<!-- n_det&#45;&gt;a_n_ent_pw -->
<g id="edge177" class="edge">
<title>n_det-&gt;a_n_ent_pw</title>
<path fill="none" stroke="black" d="M1085.59,-443.15C1025.42,-431.58 890.19,-405.57 811.63,-390.47"/>
<polygon fill="black" stroke="black" points="812.43,-387.06 801.95,-388.61 811.11,-393.93 812.43,-387.06"/>
</g>
<!-- n_det&#45;&gt;t_uword -->
<g id="edge178" class="edge">
<title>n_det-&gt;t_uword</title>
<path fill="none" stroke="black" d="M1115.02,-431.62C1114.14,-399.62 1116.71,-330.72 1151,-288 1206.72,-218.58 1309.71,-186.04 1371.42,-172.14"/>
<polygon fill="black" stroke="black" points="1371.93,-175.61 1380.97,-170.08 1370.45,-168.77 1371.93,-175.61"/>
</g>
<!-- bilog_ttr&#45;&gt;simp_det_var -->
<g id="edge180" class="edge">
<title>bilog_ttr-&gt;simp_det_var</title>
<path fill="none" stroke="black" d="M1973.47,-592.19C2173.65,-588.36 2983.4,-571 3027,-540 3134.36,-463.67 3095.17,-383.71 3097,-252 3097.22,-236 3099.61,-231.79 3097,-216 3095.62,-207.66 3093.1,-198.87 3090.37,-190.89"/>
<polygon fill="black" stroke="black" points="3093.74,-189.89 3087,-181.72 3087.17,-192.31 3093.74,-189.89"/>
</g>
<!-- bilog_ttr&#45;&gt;BTopc10_S -->
<g id="edge189" class="edge">
<title>bilog_ttr-&gt;BTopc10_S</title>
<path fill="none" stroke="black" d="M1973.42,-593.07C2198.64,-593.21 3208.6,-590.95 3338,-540 3371.48,-526.82 3401.57,-497.84 3420.46,-476.51"/>
<polygon fill="black" stroke="black" points="3423,-478.92 3426.86,-469.06 3417.69,-474.36 3423,-478.92"/>
</g>
<!-- bilog_ttr&#45;&gt;BClar05_S -->
<g id="edge190" class="edge">
<title>bilog_ttr-&gt;BClar05_S</title>
<path fill="none" stroke="black" d="M1973.33,-592.45C2198.86,-589.48 3210.52,-574.29 3267,-540 3292.32,-524.63 3328.79,-448.14 3347.29,-406.36"/>
<polygon fill="black" stroke="black" points="3350.38,-408.01 3351.19,-397.45 3343.97,-405.2 3350.38,-408.01"/>
</g>
<!-- bilog_ttr&#45;&gt;simp_noun_var -->
<g id="edge195" class="edge">
<title>bilog_ttr-&gt;simp_noun_var</title>
<path fill="none" stroke="black" d="M1973.56,-593.79C2041.36,-593.34 2173.07,-585.92 2273,-540 2317.68,-519.47 2336.45,-512.67 2357,-468 2388.92,-398.61 2351.91,-307.29 2329.17,-262.37"/>
<polygon fill="black" stroke="black" points="2332.32,-260.83 2324.59,-253.58 2326.11,-264.07 2332.32,-260.83"/>
</g>
<!-- bilog_ttr&#45;&gt;n_adp -->
<g id="edge181" class="edge">
<title>bilog_ttr-&gt;n_adp</title>
<path fill="none" stroke="black" d="M1886.53,-588.18C1824.75,-580.46 1713.94,-563.75 1682,-540 1661.79,-524.97 1648.88,-499.02 1641.42,-479.01"/>
<polygon fill="black" stroke="black" points="1644.79,-478.07 1638.22,-469.76 1638.18,-480.35 1644.79,-478.07"/>
</g>
<!-- bilog_ttr&#45;&gt;n_uverb -->
<g id="edge193" class="edge">
<title>bilog_ttr-&gt;n_uverb</title>
<path fill="none" stroke="black" d="M1886.68,-588.37C1830.79,-581.31 1736.85,-565.88 1715,-540 1683.65,-502.87 1689.26,-442.17 1696.15,-406.87"/>
<polygon fill="black" stroke="black" points="1699.5,-407.93 1698.17,-397.42 1692.65,-406.47 1699.5,-407.93"/>
</g>
<!-- bilog_ttr&#45;&gt;n_upunct -->
<g id="edge182" class="edge">
<title>bilog_ttr-&gt;n_upunct</title>
<path fill="none" stroke="black" d="M1922.83,-575.89C1905.22,-530 1849.76,-404.66 1755,-360 1694.19,-331.34 1218.06,-328.73 1151,-324 1099.55,-320.37 1041.03,-315.56 999.03,-311.97"/>
<polygon fill="black" stroke="black" points="999.41,-308.49 989.15,-311.13 998.81,-315.47 999.41,-308.49"/>
</g>
<!-- bilog_ttr&#45;&gt;t_bry -->
<g id="edge183" class="edge">
<title>bilog_ttr-&gt;t_bry</title>
<path fill="none" stroke="black" d="M1972.18,-589.14C2046.04,-581.97 2193.04,-564.99 2238,-540 2264.85,-525.08 2287.16,-497.47 2301.14,-476.94"/>
<polygon fill="black" stroke="black" points="2303.93,-479.07 2306.49,-468.79 2298.08,-475.23 2303.93,-479.07"/>
</g>
<!-- bilog_ttr&#45;&gt;t_syll3 -->
<g id="edge184" class="edge">
<title>bilog_ttr-&gt;t_syll3</title>
<path fill="none" stroke="black" d="M1960.95,-581.17C1966.59,-579.29 1972.43,-577.49 1978,-576 2060.61,-553.93 2112.48,-605.88 2167,-540 2215.77,-481.06 2186.05,-382.28 2167.11,-334.51"/>
<polygon fill="black" stroke="black" points="2170.42,-333.37 2163.38,-325.45 2163.95,-336.03 2170.42,-333.37"/>
</g>
<!-- bilog_ttr&#45;&gt;WTopc15_S -->
<g id="edge185" class="edge">
<title>bilog_ttr-&gt;WTopc15_S</title>
<path fill="none" stroke="black" d="M1884.8,-591.52C1704.32,-585.4 1022.6,-561.3 808,-540 791.7,-538.38 774.15,-536.02 757.9,-533.56"/>
<polygon fill="black" stroke="black" points="758.79,-530.16 748.37,-532.09 757.72,-537.08 758.79,-530.16"/>
</g>
<!-- bilog_ttr&#45;&gt;simp_adp_var -->
<g id="edge186" class="edge">
<title>bilog_ttr-&gt;simp_adp_var</title>
<path fill="none" stroke="black" d="M1885.47,-589.99C1728.41,-579.14 1189.67,-541.91 990.66,-528.16"/>
<polygon fill="black" stroke="black" points="990.9,-524.67 980.69,-527.47 990.42,-531.65 990.9,-524.67"/>
</g>
<!-- bilog_ttr&#45;&gt;t_stopword -->
<g id="edge187" class="edge">
<title>bilog_ttr-&gt;t_stopword</title>
<path fill="none" stroke="black" d="M1959.88,-580.65C1987.53,-569.59 2028.4,-553.24 2059.56,-540.78"/>
<polygon fill="black" stroke="black" points="2060.75,-544.07 2068.73,-537.11 2058.15,-537.57 2060.75,-544.07"/>
</g>
<!-- bilog_ttr&#45;&gt;a_n_ent_pw -->
<g id="edge188" class="edge">
<title>bilog_ttr-&gt;a_n_ent_pw</title>
<path fill="none" stroke="black" d="M1884.66,-591.43C1683.27,-584.21 863.52,-554.03 841,-540 816.17,-524.53 781.3,-448.75 763.47,-406.9"/>
<polygon fill="black" stroke="black" points="766.71,-405.57 759.61,-397.71 760.26,-408.29 766.71,-405.57"/>
</g>
<!-- bilog_ttr&#45;&gt;t_uword -->
<g id="edge191" class="edge">
<title>bilog_ttr-&gt;t_uword</title>
<path fill="none" stroke="black" d="M1927.8,-575.77C1926.09,-557.46 1922.09,-527.92 1913,-504 1883.5,-426.39 1869.18,-395.23 1794,-360 1663.6,-298.9 1590.09,-406.41 1472,-324 1429.66,-294.45 1421.93,-229.18 1421.22,-191.44"/>
<polygon fill="black" stroke="black" points="1424.72,-191.75 1421.2,-181.75 1417.72,-191.76 1424.72,-191.75"/>
</g>
<!-- bilog_ttr&#45;&gt;n_det -->
<g id="edge196" class="edge">
<title>bilog_ttr-&gt;n_det</title>
<path fill="none" stroke="black" d="M1884.74,-591.37C1794.47,-587.42 1582.93,-574.94 1409,-540 1314.89,-521.1 1207.78,-484.58 1152.82,-464.71"/>
<polygon fill="black" stroke="black" points="1154.24,-461.5 1143.65,-461.36 1151.84,-468.08 1154.24,-461.5"/>
</g>
<!-- bilog_ttr&#45;&gt;corr_punct_var -->
<g id="edge194" class="edge">
<title>bilog_ttr-&gt;corr_punct_var</title>
<path fill="none" stroke="black" d="M1972.91,-590.35C2055.31,-584.85 2238.49,-570.11 2390,-540 2483.29,-521.46 2589.26,-488.66 2650.59,-468.47"/>
<polygon fill="black" stroke="black" points="2651.31,-471.92 2659.7,-465.45 2649.11,-465.27 2651.31,-471.92"/>
</g>
<!-- bilog_ttr_no_lem -->
<g id="node40" class="node">
<title>bilog_ttr_no_lem</title>
<ellipse fill="none" stroke="black" cx="1802" cy="-522" rx="78.09" ry="18"/>
<text text-anchor="middle" x="1802" y="-517.8" font-family="Times,serif" font-size="14.00">bilog_ttr_no_lem</text>
</g>
<!-- bilog_ttr&#45;&gt;bilog_ttr_no_lem -->
<g id="edge192" class="edge">
<title>bilog_ttr-&gt;bilog_ttr_no_lem</title>
<path fill="none" stroke="black" d="M1903.6,-579C1885.65,-569.1 1861.24,-555.65 1840.84,-544.41"/>
<polygon fill="black" stroke="black" points="1842.67,-541.42 1832.23,-539.66 1839.3,-547.55 1842.67,-541.42"/>
</g>
<!-- corr_punct_var&#45;&gt;t_uword -->
<g id="edge156" class="edge">
<title>corr_punct_var-&gt;t_uword</title>
<path fill="none" stroke="black" d="M2688.94,-432.09C2652.24,-386.16 2542.59,-259.57 2417,-216 2328.11,-185.16 1671.71,-168.46 1476.56,-164.14"/>
<polygon fill="black" stroke="black" points="1476.78,-160.64 1466.7,-163.92 1476.63,-167.64 1476.78,-160.64"/>
</g>
<!-- root_punct_var -->
<g id="node24" class="node">
<title>root_punct_var</title>
<ellipse fill="none" stroke="black" cx="1268" cy="-378" rx="70.03" ry="18"/>
<text text-anchor="middle" x="1268" y="-373.8" font-family="Times,serif" font-size="14.00">root_punct_var</text>
</g>
<!-- corr_punct_var&#45;&gt;root_punct_var -->
<g id="edge155" class="edge">
<title>corr_punct_var-&gt;root_punct_var</title>
<path fill="none" stroke="black" d="M2633.6,-445.62C2563.99,-442.18 2452.98,-436.7 2357,-432 1979.37,-413.51 1528.08,-391.61 1347.96,-382.87"/>
<polygon fill="black" stroke="black" points="1348.16,-379.38 1338,-382.39 1347.82,-386.37 1348.16,-379.38"/>
</g>
<!-- corr_punct_var&#45;&gt;pass_rate -->
<g id="edge213" class="edge">
<title>corr_punct_var-&gt;pass_rate</title>
<path fill="none" stroke="black" d="M2748.07,-436C2791.97,-423.6 2857.8,-405.02 2902.25,-392.48"/>
<polygon fill="black" stroke="black" points="2902.94,-395.92 2911.61,-389.84 2901.04,-389.18 2902.94,-395.92"/>
</g>
<!-- root_punct_var&#45;&gt;n_upunct -->
<g id="edge40" class="edge">
<title>root_punct_var-&gt;n_upunct</title>
<path fill="none" stroke="black" d="M1215.62,-365.75C1154.58,-352.65 1054.35,-331.12 993.63,-318.09"/>
<polygon fill="black" stroke="black" points="994.4,-314.67 983.89,-315.99 992.93,-321.52 994.4,-314.67"/>
</g>
<!-- root_punct_var&#45;&gt;t_syll3 -->
<g id="edge41" class="edge">
<title>root_punct_var-&gt;t_syll3</title>
<path fill="none" stroke="black" d="M1334.31,-371.77C1505.24,-358.28 1957.86,-322.56 2106.76,-310.81"/>
<polygon fill="black" stroke="black" points="2106.98,-314.3 2116.67,-310.02 2106.42,-307.32 2106.98,-314.3"/>
</g>
<!-- root_punct_var&#45;&gt;t_uword -->
<g id="edge42" class="edge">
<title>root_punct_var-&gt;t_uword</title>
<path fill="none" stroke="black" d="M1274.81,-359.82C1291.23,-318.38 1331.69,-216.36 1332,-216 1345.19,-200.61 1364.02,-188.55 1381.06,-179.85"/>
<polygon fill="black" stroke="black" points="1382.52,-183.03 1390,-175.53 1379.47,-176.73 1382.52,-183.03"/>
</g>
<!-- timeout_rate -->
<g id="node46" class="node">
<title>timeout_rate</title>
<ellipse fill="none" stroke="black" cx="1220" cy="-306" rx="59.84" ry="18"/>
<text text-anchor="middle" x="1220" y="-301.8" font-family="Times,serif" font-size="14.00">timeout_rate</text>
</g>
<!-- root_punct_var&#45;&gt;timeout_rate -->
<g id="edge220" class="edge">
<title>root_punct_var-&gt;timeout_rate</title>
<path fill="none" stroke="black" d="M1256.38,-360.05C1250.84,-351.97 1244.08,-342.12 1237.91,-333.11"/>
<polygon fill="black" stroke="black" points="1240.91,-331.31 1232.37,-325.04 1235.14,-335.26 1240.91,-331.31"/>
</g>
<!-- corr_det_var -->
<g id="node25" class="node">
<title>corr_det_var</title>
<ellipse fill="none" stroke="black" cx="2958" cy="-522" rx="60.37" ry="18"/>
<text text-anchor="middle" x="2958" y="-517.8" font-family="Times,serif" font-size="14.00">corr_det_var</text>
</g>
<!-- corr_det_var&#45;&gt;simp_det_var -->
<g id="edge43" class="edge">
<title>corr_det_var-&gt;simp_det_var</title>
<path fill="none" stroke="black" d="M2989.74,-506.25C3005.28,-497.37 3022.79,-484.56 3033,-468 3087.74,-379.25 3085.82,-249.06 3081.76,-191.81"/>
<polygon fill="black" stroke="black" points="3085.26,-191.63 3080.98,-181.94 3078.28,-192.19 3085.26,-191.63"/>
</g>
<!-- corr_det_var&#45;&gt;t_uword -->
<g id="edge45" class="edge">
<title>corr_det_var-&gt;t_uword</title>
<path fill="none" stroke="black" d="M2935.7,-504.99C2854.27,-446.87 2572.22,-248.66 2468,-216 2373.26,-186.31 1678.87,-168.7 1476.94,-164.17"/>
<polygon fill="black" stroke="black" points="1477.05,-160.67 1466.98,-163.95 1476.9,-167.67 1477.05,-160.67"/>
</g>
<!-- corr_det_var&#45;&gt;n_det -->
<g id="edge47" class="edge">
<title>corr_det_var-&gt;n_det</title>
<path fill="none" stroke="black" d="M2898.28,-518.73C2614.52,-507.95 1405.97,-462.02 1159.85,-452.67"/>
<polygon fill="black" stroke="black" points="1160.18,-449.18 1150.06,-452.29 1159.92,-456.17 1160.18,-449.18"/>
</g>
<!-- corr_det_var&#45;&gt;corr_punct_var -->
<g id="edge46" class="edge">
<title>corr_det_var-&gt;corr_punct_var</title>
<path fill="none" stroke="black" d="M2914.57,-509.13C2871.92,-497.46 2806.58,-479.6 2759.6,-466.75"/>
<polygon fill="black" stroke="black" points="2760.71,-463.42 2750.14,-464.16 2758.86,-470.18 2760.71,-463.42"/>
</g>
<!-- root_det_var -->
<g id="node26" class="node">
<title>root_det_var</title>
<ellipse fill="none" stroke="black" cx="2964" cy="-450" rx="60.38" ry="18"/>
<text text-anchor="middle" x="2964" y="-445.8" font-family="Times,serif" font-size="14.00">root_det_var</text>
</g>
<!-- corr_det_var&#45;&gt;root_det_var -->
<g id="edge44" class="edge">
<title>corr_det_var-&gt;root_det_var</title>
<path fill="none" stroke="black" d="M2959.48,-503.7C2960.11,-496.41 2960.85,-487.73 2961.55,-479.54"/>
<polygon fill="black" stroke="black" points="2965.04,-479.87 2962.4,-469.61 2958.06,-479.28 2965.04,-479.87"/>
</g>
<!-- root_det_var&#45;&gt;simp_det_var -->
<g id="edge142" class="edge">
<title>root_det_var-&gt;simp_det_var</title>
<path fill="none" stroke="black" d="M2980.07,-432.64C2988.93,-422.77 2999.43,-409.52 3006,-396 3041.95,-322.02 3018.89,-292.54 3049,-216 3052.48,-207.14 3057.23,-197.97 3061.91,-189.78"/>
<polygon fill="black" stroke="black" points="3064.82,-191.74 3066.94,-181.35 3058.81,-188.15 3064.82,-191.74"/>
</g>
<!-- root_det_var&#45;&gt;BClar05_S -->
<g id="edge143" class="edge">
<title>root_det_var-&gt;BClar05_S</title>
<path fill="none" stroke="black" d="M3014.83,-439.99C3088.31,-426.97 3223.85,-402.95 3301.1,-389.26"/>
<polygon fill="black" stroke="black" points="3301.33,-392.77 3310.56,-387.58 3300.11,-385.88 3301.33,-392.77"/>
</g>
<!-- root_det_var&#45;&gt;simp_noun_var -->
<g id="edge145" class="edge">
<title>root_det_var-&gt;simp_noun_var</title>
<path fill="none" stroke="black" d="M2924.56,-436.05C2895.5,-426.11 2855.25,-411.5 2821,-396 2728.97,-354.34 2716.47,-321.03 2621,-288 2545.66,-261.94 2455.3,-248.32 2392.19,-241.45"/>
<polygon fill="black" stroke="black" points="2392.95,-238.01 2382.64,-240.44 2392.21,-244.97 2392.95,-238.01"/>
</g>
<!-- root_det_var&#45;&gt;t_uword -->
<g id="edge144" class="edge">
<title>root_det_var-&gt;t_uword</title>
<path fill="none" stroke="black" d="M2924.17,-436.06C2902.91,-427.48 2877.57,-414.39 2860,-396 2795.86,-328.88 2836.75,-258.08 2754,-216 2696.25,-186.63 1720.12,-168.09 1476.67,-163.9"/>
<polygon fill="black" stroke="black" points="1476.87,-160.41 1466.82,-163.73 1476.75,-167.4 1476.87,-160.41"/>
</g>
<!-- a_n_ent_ordinal_pw -->
<g id="node27" class="node">
<title>a_n_ent_ordinal_pw</title>
<ellipse fill="none" stroke="black" cx="1242" cy="-594" rx="90.42" ry="18"/>
<text text-anchor="middle" x="1242" y="-589.8" font-family="Times,serif" font-size="14.00">a_n_ent_ordinal_pw</text>
</g>
<!-- a_n_ent_ordinal_pw&#45;&gt;simp_noun_var -->
<g id="edge57" class="edge">
<title>a_n_ent_ordinal_pw-&gt;simp_noun_var</title>
<path fill="none" stroke="black" d="M1242.6,-575.62C1243.88,-556.93 1247.86,-526.82 1260,-504 1281.11,-464.32 1291.97,-454.28 1331,-432 1388.29,-399.3 1411.56,-414.1 1475,-396 1525.28,-381.65 1535.78,-370.53 1587,-360 1753.17,-325.84 1806.45,-378.79 1967,-324 1995.36,-314.32 1996.09,-298.89 2024,-288 2092.53,-261.26 2175.53,-247.84 2235.14,-241.21"/>
<polygon fill="black" stroke="black" points="2235.29,-244.71 2244.86,-240.17 2234.55,-237.75 2235.29,-244.71"/>
</g>
<!-- a_n_ent_ordinal_pw&#45;&gt;n_adp -->
<g id="edge50" class="edge">
<title>a_n_ent_ordinal_pw-&gt;n_adp</title>
<path fill="none" stroke="black" d="M1270.3,-576.45C1287.27,-566.3 1309.16,-552.83 1328,-540 1350.04,-524.99 1351.69,-514.96 1376,-504 1395.24,-495.33 1521.25,-471.45 1589.4,-458.91"/>
<polygon fill="black" stroke="black" points="1589.93,-462.38 1599.13,-457.13 1588.66,-455.49 1589.93,-462.38"/>
</g>
<!-- a_n_ent_ordinal_pw&#45;&gt;n_uverb -->
<g id="edge56" class="edge">
<title>a_n_ent_ordinal_pw-&gt;n_uverb</title>
<path fill="none" stroke="black" d="M1257.7,-575.9C1280.19,-551.53 1319.78,-509.19 1328,-504 1356.71,-485.86 1565.24,-421.03 1658.33,-392.57"/>
<polygon fill="black" stroke="black" points="1659.1,-395.99 1667.64,-389.72 1657.06,-389.3 1659.1,-395.99"/>
</g>
<!-- a_n_ent_ordinal_pw&#45;&gt;t_syll3 -->
<g id="edge51" class="edge">
<title>a_n_ent_ordinal_pw-&gt;t_syll3</title>
<path fill="none" stroke="black" d="M1247.88,-575.76C1255.22,-556.35 1269.35,-524.81 1290,-504 1336.79,-456.84 1359.05,-456.01 1421,-432 1484.52,-407.38 1505.5,-417.92 1570,-396 1607.3,-383.32 1612.9,-370.02 1651,-360 1812.07,-317.63 1858.51,-342.72 2024,-324 2051.94,-320.84 2083.16,-316.81 2108.11,-313.46"/>
<polygon fill="black" stroke="black" points="2108.51,-316.94 2117.95,-312.14 2107.58,-310 2108.51,-316.94"/>
</g>
<!-- a_n_ent_ordinal_pw&#45;&gt;a_n_ent_pw -->
<g id="edge53" class="edge">
<title>a_n_ent_ordinal_pw-&gt;a_n_ent_pw</title>
<path fill="none" stroke="black" d="M1157.71,-587.17C1039.43,-578.32 835.5,-560.35 808,-540 766.25,-509.11 755.42,-444.9 752.74,-407.58"/>
<polygon fill="black" stroke="black" points="756.26,-407.79 752.22,-397.99 749.27,-408.17 756.26,-407.79"/>
</g>
<!-- a_n_ent_ordinal_pw&#45;&gt;t_uword -->
<g id="edge54" class="edge">
<title>a_n_ent_ordinal_pw-&gt;t_uword</title>
<path fill="none" stroke="black" d="M1194.09,-578.35C1171.19,-569.72 1144.39,-557.1 1124,-540 1094.34,-515.13 1086.39,-504.99 1075,-468 1055.22,-403.77 1119.87,-302.49 1128,-288 1147.97,-252.4 1150.43,-237.7 1185,-216 1240.82,-180.96 1316.84,-168.95 1367.58,-164.91"/>
<polygon fill="black" stroke="black" points="1367.71,-168.41 1377.44,-164.21 1367.22,-161.43 1367.71,-168.41"/>
</g>
<!-- a_n_ent_ordinal_pw&#45;&gt;a_adj_pw -->
<g id="edge55" class="edge">
<title>a_n_ent_ordinal_pw-&gt;a_adj_pw</title>
<path fill="none" stroke="black" d="M1289.44,-578.24C1327.81,-566.3 1381.57,-549.58 1419.86,-537.66"/>
<polygon fill="black" stroke="black" points="1420.77,-541.05 1429.28,-534.74 1418.69,-534.37 1420.77,-541.05"/>
</g>
<!-- a_n_ent_ordinal_pw&#45;&gt;n_det -->
<g id="edge58" class="edge">
<title>a_n_ent_ordinal_pw-&gt;n_det</title>
<path fill="none" stroke="black" d="M1200.99,-577.68C1182.64,-569.04 1162.02,-556.6 1148,-540 1133.42,-522.73 1125.27,-498.3 1120.84,-479.41"/>
<polygon fill="black" stroke="black" points="1124.28,-478.75 1118.81,-469.68 1117.43,-480.18 1124.28,-478.75"/>
</g>
<!-- a_n_ent_ordinal_ps -->
<g id="node28" class="node">
<title>a_n_ent_ordinal_ps</title>
<ellipse fill="none" stroke="black" cx="250" cy="-450" rx="87.2" ry="18"/>
<text text-anchor="middle" x="250" y="-445.8" font-family="Times,serif" font-size="14.00">a_n_ent_ordinal_ps</text>
</g>
<!-- a_n_ent_ordinal_pw&#45;&gt;a_n_ent_ordinal_ps -->
<g id="edge52" class="edge">
<title>a_n_ent_ordinal_pw-&gt;a_n_ent_ordinal_ps</title>
<path fill="none" stroke="black" d="M1153.92,-589.45C1034.08,-583.7 813.24,-569.84 627,-540 513.94,-521.88 384.51,-488.5 310.49,-468.17"/>
<polygon fill="black" stroke="black" points="311.57,-464.83 301,-465.54 309.71,-471.58 311.57,-464.83"/>
</g>
<!-- a_n_ent_ordinal_pw&#45;&gt;timeout_rate -->
<g id="edge221" class="edge">
<title>a_n_ent_ordinal_pw-&gt;timeout_rate</title>
<path fill="none" stroke="black" d="M1216.46,-576.28C1204.84,-567.11 1192.3,-554.63 1186,-540 1175.11,-514.71 1149.78,-498.98 1189,-360 1191.61,-350.77 1196.21,-341.48 1201.09,-333.31"/>
<polygon fill="black" stroke="black" points="1204.01,-335.23 1206.46,-324.93 1198.12,-331.45 1204.01,-335.23"/>
</g>
<!-- a_n_ent_ordinal_ps&#45;&gt;n_upunct -->
<g id="edge115" class="edge">
<title>a_n_ent_ordinal_ps-&gt;n_upunct</title>
<path fill="none" stroke="black" d="M279.33,-432.61C321.43,-409.38 397.2,-368.7 427,-360 587.42,-313.13 786.5,-306.39 883.44,-306.21"/>
<polygon fill="black" stroke="black" points="883.24,-309.71 893.24,-306.21 883.24,-302.71 883.24,-309.71"/>
</g>
<!-- a_n_ent_ordinal_ps&#45;&gt;a_n_ent_pw -->
<g id="edge116" class="edge">
<title>a_n_ent_ordinal_ps-&gt;a_n_ent_pw</title>
<path fill="none" stroke="black" d="M320.86,-439.12C418.93,-425.44 594.55,-400.96 688.53,-387.85"/>
<polygon fill="black" stroke="black" points="688.94,-391.33 698.36,-386.48 687.97,-384.39 688.94,-391.33"/>
</g>
<!-- a_n_ent_ordinal_ps&#45;&gt;t_uword -->
<g id="edge117" class="edge">
<title>a_n_ent_ordinal_ps-&gt;t_uword</title>
<path fill="none" stroke="black" d="M254.32,-431.54C266.53,-386.43 305.88,-266.06 389,-216 472.99,-165.41 1165.51,-162.57 1367.13,-162.82"/>
<polygon fill="black" stroke="black" points="1367.06,-166.32 1377.07,-162.84 1367.08,-159.32 1367.06,-166.32"/>
</g>
<!-- error_rate -->
<g id="node37" class="node">
<title>error_rate</title>
<ellipse fill="none" stroke="black" cx="3574" cy="-90" rx="49.1" ry="18"/>
<text text-anchor="middle" x="3574" y="-85.8" font-family="Times,serif" font-size="14.00">error_rate</text>
</g>
<!-- a_n_ent_ordinal_ps&#45;&gt;error_rate -->
<g id="edge118" class="edge">
<title>a_n_ent_ordinal_ps-&gt;error_rate</title>
<path fill="none" stroke="black" d="M250.25,-431.61C252,-385.57 264.04,-261.01 342,-216 529.38,-107.81 1096.89,-154.54 1313,-144 2186.34,-101.41 3251.16,-92.81 3513.48,-91.3"/>
<polygon fill="black" stroke="black" points="3513.15,-94.8 3523.13,-91.24 3513.11,-87.8 3513.15,-94.8"/>
</g>
<!-- simp_ttr_no_lem -->
<g id="node29" class="node">
<title>simp_ttr_no_lem</title>
<ellipse fill="none" stroke="black" cx="2528" cy="-810" rx="77.02" ry="18"/>
<text text-anchor="middle" x="2528" y="-805.8" font-family="Times,serif" font-size="14.00">simp_ttr_no_lem</text>
</g>
<!-- simp_ttr_no_lem&#45;&gt;BClar10_S -->
<g id="edge73" class="edge">
<title>simp_ttr_no_lem-&gt;BClar10_S</title>
<path fill="none" stroke="black" d="M2605.11,-808.24C2813.66,-805.69 3378.15,-795.19 3452,-756 3477.31,-742.57 3496,-715.13 3507.32,-694.24"/>
<polygon fill="black" stroke="black" points="3510.42,-695.87 3511.87,-685.37 3504.19,-692.67 3510.42,-695.87"/>
</g>
<!-- simp_ttr_no_lem&#45;&gt;BTopc10_S -->
<g id="edge88" class="edge">
<title>simp_ttr_no_lem-&gt;BTopc10_S</title>
<path fill="none" stroke="black" d="M2605.18,-808.78C2727.52,-807.08 2972.91,-798.13 3176,-756 3296.42,-731.02 3438,-789.98 3438,-667 3438,-667 3438,-667 3438,-593 3438,-553.73 3439.16,-508.37 3440.04,-479.69"/>
<polygon fill="black" stroke="black" points="3443.53,-480.1 3440.35,-470 3436.53,-479.88 3443.53,-480.1"/>
</g>
<!-- simp_ttr_no_lem&#45;&gt;BClar05_S -->
<g id="edge89" class="edge">
<title>simp_ttr_no_lem-&gt;BClar05_S</title>
<path fill="none" stroke="black" d="M2604.65,-807.27C2817.09,-802.11 3403.16,-785.36 3485,-756 3535.87,-737.75 3558.59,-732.22 3583,-684 3634.69,-581.89 3609.72,-514.12 3530,-432 3502.04,-403.2 3458.78,-389.97 3422.76,-383.93"/>
<polygon fill="black" stroke="black" points="3423.75,-380.54 3413.34,-382.5 3422.7,-387.46 3423.75,-380.54"/>
</g>
<!-- simp_ttr_no_lem&#45;&gt;simp_noun_var -->
<g id="edge94" class="edge">
<title>simp_ttr_no_lem-&gt;simp_noun_var</title>
<path fill="none" stroke="black" d="M2604.97,-808.2C2825.86,-805.45 3451.34,-794.33 3535,-756 3575.29,-737.54 3587.48,-725.13 3604,-684 3609.97,-669.15 3605.1,-663.96 3604,-648 3594.65,-512.68 3618.23,-431.56 3503,-360 3317.69,-244.92 2635.18,-234.55 2396.82,-234.52"/>
<polygon fill="black" stroke="black" points="2396.98,-231.02 2386.98,-234.53 2396.98,-238.02 2396.98,-231.02"/>
</g>
<!-- simp_ttr_no_lem&#45;&gt;n_adp -->
<g id="edge74" class="edge">
<title>simp_ttr_no_lem-&gt;n_adp</title>
<path fill="none" stroke="black" d="M2450.89,-808.68C2357.55,-806.37 2196.54,-796.18 2065,-756 1865.76,-695.14 1772.55,-707.73 1649,-540 1636.32,-522.79 1632.6,-498.71 1631.9,-479.93"/>
<polygon fill="black" stroke="black" points="1635.4,-479.97 1631.82,-470 1628.4,-480.03 1635.4,-479.97"/>
</g>
<!-- simp_ttr_no_lem&#45;&gt;a_cconj_pw -->
<g id="edge81" class="edge">
<title>simp_ttr_no_lem-&gt;a_cconj_pw</title>
<path fill="none" stroke="black" d="M2509.58,-792.14C2436.88,-725.63 2169.76,-481.25 2084.41,-403.16"/>
<polygon fill="black" stroke="black" points="2086.9,-400.7 2077.16,-396.53 2082.18,-405.86 2086.9,-400.7"/>
</g>
<!-- simp_ttr_no_lem&#45;&gt;n_uverb -->
<g id="edge92" class="edge">
<title>simp_ttr_no_lem-&gt;n_uverb</title>
<path fill="none" stroke="black" d="M2450.84,-808.78C2145.1,-807.58 1018.18,-800.22 664,-756 484.14,-733.54 266,-848.26 266,-667 266,-667 266,-667 266,-593 266,-511.63 350.17,-533.52 426,-504 554.18,-454.1 590.88,-451.81 727,-432 772.87,-425.32 1451.58,-391.43 1649.32,-381.65"/>
<polygon fill="black" stroke="black" points="1649.23,-385.15 1659.04,-381.17 1648.88,-378.16 1649.23,-385.15"/>
</g>
<!-- simp_ttr_no_lem&#45;&gt;t_subtlex_us_zipf -->
<g id="edge75" class="edge">
<title>simp_ttr_no_lem-&gt;t_subtlex_us_zipf</title>
<path fill="none" stroke="black" d="M2451.42,-807.62C2282.73,-803.95 1883.79,-791.68 1754,-756 1701.56,-741.59 1646.45,-710.8 1612.16,-689.51"/>
<polygon fill="black" stroke="black" points="1614.25,-686.68 1603.92,-684.31 1610.51,-692.6 1614.25,-686.68"/>
</g>
<!-- simp_ttr_no_lem&#45;&gt;n_upunct -->
<g id="edge76" class="edge">
<title>simp_ttr_no_lem-&gt;n_upunct</title>
<path fill="none" stroke="black" d="M2450.96,-808.31C2042.59,-804.55 147.59,-785.52 95,-756 54.04,-733.01 38,-713.97 38,-667 38,-667 38,-667 38,-593 38,-504.81 81.24,-481.84 154,-432 229.53,-380.26 257.71,-380.24 347,-360 539.97,-316.25 775.81,-308.27 883.42,-307.05"/>
<polygon fill="black" stroke="black" points="883.19,-310.55 893.15,-306.95 883.12,-303.55 883.19,-310.55"/>
</g>
<!-- simp_ttr_no_lem&#45;&gt;t_bry -->
<g id="edge77" class="edge">
<title>simp_ttr_no_lem-&gt;t_bry</title>
<path fill="none" stroke="black" d="M2528,-791.51C2528,-764.71 2528,-711.87 2528,-667 2528,-667 2528,-667 2528,-593 2528,-571.7 2408.18,-501.86 2349.12,-468.74"/>
<polygon fill="black" stroke="black" points="2350.94,-465.75 2340.5,-463.93 2347.53,-471.86 2350.94,-465.75"/>
</g>
<!-- simp_ttr_no_lem&#45;&gt;t_syll3 -->
<g id="edge78" class="edge">
<title>simp_ttr_no_lem-&gt;t_syll3</title>
<path fill="none" stroke="black" d="M2597.54,-801.88C2676.35,-789.51 2794,-756.12 2794,-667 2794,-667 2794,-667 2794,-593 2794,-543.22 2766.3,-533.22 2726,-504 2686.74,-475.54 2667.19,-487.96 2623,-468 2533.78,-427.69 2522.94,-393.67 2431,-360 2354.01,-331.8 2259.17,-317.79 2203.09,-311.48"/>
<polygon fill="black" stroke="black" points="2203.55,-308.01 2193.23,-310.42 2202.8,-314.97 2203.55,-308.01"/>
</g>
<!-- simp_ttr_no_lem&#45;&gt;WTopc15_S -->
<g id="edge79" class="edge">
<title>simp_ttr_no_lem-&gt;WTopc15_S</title>
<path fill="none" stroke="black" d="M2450.57,-809.13C2204.01,-809.03 1439.17,-804.69 1197,-756 1028.06,-722.03 989.45,-692.35 837,-612 798.29,-591.6 756.13,-564.25 728.09,-545.28"/>
<polygon fill="black" stroke="black" points="730.28,-542.54 720.04,-539.8 726.33,-548.32 730.28,-542.54"/>
</g>
<!-- simp_ttr_no_lem&#45;&gt;simp_adp_var -->
<g id="edge82" class="edge">
<title>simp_ttr_no_lem-&gt;simp_adp_var</title>
<path fill="none" stroke="black" d="M2451.04,-808.41C2187.78,-805.46 1325.53,-787.92 1072,-684 1020.99,-663.09 1008.68,-652.24 971,-612 953.77,-593.6 939.06,-569 929.2,-550.32"/>
<polygon fill="black" stroke="black" points="932.33,-548.76 924.66,-541.45 926.1,-551.95 932.33,-548.76"/>
</g>
<!-- simp_ttr_no_lem&#45;&gt;t_stopword -->
<g id="edge83" class="edge">
<title>simp_ttr_no_lem-&gt;t_stopword</title>
<path fill="none" stroke="black" d="M2471.72,-797.37C2438.37,-788.96 2396.1,-775.6 2362,-756 2261.44,-698.19 2166.46,-595.86 2125.36,-548.44"/>
<polygon fill="black" stroke="black" points="2128.02,-546.17 2118.85,-540.86 2122.71,-550.73 2128.02,-546.17"/>
</g>
<!-- simp_ttr_no_lem&#45;&gt;a_n_ent_pw -->
<g id="edge87" class="edge">
<title>simp_ttr_no_lem-&gt;a_n_ent_pw</title>
<path fill="none" stroke="black" d="M2451.09,-808.29C2060.99,-804.54 317.82,-786.15 271,-756 234.06,-732.22 228,-710.93 228,-667 228,-667 228,-667 228,-593 228,-545.3 250.25,-533.16 288,-504 297.55,-496.62 481.37,-435.22 493,-432 559.56,-413.59 637.35,-398.52 690.17,-389.21"/>
<polygon fill="black" stroke="black" points="690.64,-392.68 699.89,-387.52 689.44,-385.79 690.64,-392.68"/>
</g>
<!-- simp_ttr_no_lem&#45;&gt;t_uword -->
<g id="edge90" class="edge">
<title>simp_ttr_no_lem-&gt;t_uword</title>
<path fill="none" stroke="black" d="M2451.09,-808.42C2038.03,-805.2 99.4,-788.35 47,-756 8.94,-732.5 0,-711.73 0,-667 0,-667 0,-667 0,-593 0,-401.42 37.32,-301.03 209,-216 313.56,-164.21 1144.63,-162.36 1367.29,-162.81"/>
<polygon fill="black" stroke="black" points="1367.12,-166.3 1377.13,-162.83 1367.14,-159.3 1367.12,-166.3"/>
</g>
<!-- simp_ttr_no_lem&#45;&gt;a_adj_pw -->
<g id="edge91" class="edge">
<title>simp_ttr_no_lem-&gt;a_adj_pw</title>
<path fill="none" stroke="black" d="M2451.44,-807.49C2269.15,-803.39 1813.53,-789.97 1665,-756 1582.61,-737.16 1540.76,-750.81 1489,-684 1459.4,-645.8 1459.56,-586.63 1462.91,-551.66"/>
<polygon fill="black" stroke="black" points="1466.37,-552.21 1464.02,-541.88 1459.42,-551.43 1466.37,-552.21"/>
</g>
<!-- simp_ttr_no_lem&#45;&gt;n_det -->
<g id="edge97" class="edge">
<title>simp_ttr_no_lem-&gt;n_det</title>
<path fill="none" stroke="black" d="M2451.36,-807.74C2080.97,-801.14 494,-767.06 494,-667 494,-667 494,-667 494,-593 494,-533.17 540.17,-527.95 595,-504 616.8,-494.48 951.15,-465.1 1072.46,-454.7"/>
<polygon fill="black" stroke="black" points="1072.67,-458.19 1082.34,-453.85 1072.08,-451.22 1072.67,-458.19"/>
</g>
<!-- simp_ttr_no_lem&#45;&gt;bilog_ttr -->
<g id="edge98" class="edge">
<title>simp_ttr_no_lem-&gt;bilog_ttr</title>
<path fill="none" stroke="black" d="M2454.92,-803.93C2356.67,-796.32 2187.77,-780.19 2131,-756 2055.95,-724.02 1985.56,-656.19 1951.1,-619.61"/>
<polygon fill="black" stroke="black" points="1953.92,-617.51 1944.56,-612.56 1948.8,-622.27 1953.92,-617.51"/>
</g>
<!-- simp_ttr_no_lem&#45;&gt;corr_punct_var -->
<g id="edge93" class="edge">
<title>simp_ttr_no_lem-&gt;corr_punct_var</title>
<path fill="none" stroke="black" d="M2602.85,-805.32C2676.77,-799.93 2782.39,-786.91 2808,-756 2879.45,-669.75 2866.88,-599.27 2808,-504 2797.56,-487.1 2779.91,-475.41 2761.99,-467.4"/>
<polygon fill="black" stroke="black" points="2763.43,-464.21 2752.85,-463.67 2760.79,-470.69 2763.43,-464.21"/>
</g>
<!-- simp_ttr_no_lem&#45;&gt;corr_det_var -->
<g id="edge80" class="edge">
<title>simp_ttr_no_lem-&gt;corr_det_var</title>
<path fill="none" stroke="black" d="M2604.22,-806.9C2696.02,-802.83 2843.03,-790.9 2884,-756 2945.06,-703.99 2956.3,-601.79 2957.99,-551.85"/>
<polygon fill="black" stroke="black" points="2961.49,-551.93 2958.21,-541.85 2954.5,-551.77 2961.49,-551.93"/>
</g>
<!-- simp_ttr_no_lem&#45;&gt;a_n_ent_ordinal_ps -->
<g id="edge86" class="edge">
<title>simp_ttr_no_lem-&gt;a_n_ent_ordinal_ps</title>
<path fill="none" stroke="black" d="M2450.81,-808.41C2060.99,-805.28 323.09,-789.49 214,-756 144.23,-734.58 76,-739.98 76,-667 76,-667 76,-667 76,-593 76,-530.93 143.27,-491.15 194.16,-469.94"/>
<polygon fill="black" stroke="black" points="195.36,-473.23 203.33,-466.26 192.75,-466.73 195.36,-473.23"/>
</g>
<!-- simp_space_var -->
<g id="node30" class="node">
<title>simp_space_var</title>
<ellipse fill="none" stroke="black" cx="3065" cy="-738" rx="73.25" ry="18"/>
<text text-anchor="middle" x="3065" y="-733.8" font-family="Times,serif" font-size="14.00">simp_space_var</text>
</g>
<!-- simp_ttr_no_lem&#45;&gt;simp_space_var -->
<g id="edge84" class="edge">
<title>simp_ttr_no_lem-&gt;simp_space_var</title>
<path fill="none" stroke="black" d="M2594.12,-800.38C2694.6,-787.28 2885.18,-762.44 2990.45,-748.72"/>
<polygon fill="black" stroke="black" points="2990.65,-752.22 3000.11,-747.46 2989.74,-745.28 2990.65,-752.22"/>
</g>
<!-- BClar20_S -->
<g id="node31" class="node">
<title>BClar20_S</title>
<ellipse fill="none" stroke="black" cx="3204" cy="-522" rx="53.96" ry="18"/>
<text text-anchor="middle" x="3204" y="-517.8" font-family="Times,serif" font-size="14.00">BClar20_S</text>
</g>
<!-- simp_ttr_no_lem&#45;&gt;BClar20_S -->
<g id="edge85" class="edge">
<title>simp_ttr_no_lem-&gt;BClar20_S</title>
<path fill="none" stroke="black" d="M2604.5,-807.06C2760.68,-802.43 3105.04,-788.63 3147,-756 3209.56,-707.35 3210.61,-602.27 3207.02,-551.54"/>
<polygon fill="black" stroke="black" points="3210.52,-551.35 3206.2,-541.67 3203.54,-551.93 3210.52,-551.35"/>
</g>
<!-- a_char_pw -->
<g id="node32" class="node">
<title>a_char_pw</title>
<ellipse fill="none" stroke="black" cx="2609" cy="-666" rx="53.4" ry="18"/>
<text text-anchor="middle" x="2609" y="-661.8" font-family="Times,serif" font-size="14.00">a_char_pw</text>
</g>
<!-- simp_ttr_no_lem&#45;&gt;a_char_pw -->
<g id="edge95" class="edge">
<title>simp_ttr_no_lem-&gt;a_char_pw</title>
<path fill="none" stroke="black" d="M2537.77,-791.87C2551.64,-767.56 2577.16,-722.82 2593.59,-694.01"/>
<polygon fill="black" stroke="black" points="2596.53,-695.92 2598.44,-685.5 2590.45,-692.46 2596.53,-695.92"/>
</g>
<!-- simp_ttr -->
<g id="node33" class="node">
<title>simp_ttr</title>
<ellipse fill="none" stroke="black" cx="3787" cy="-594" rx="43.23" ry="18"/>
<text text-anchor="middle" x="3787" y="-589.8" font-family="Times,serif" font-size="14.00">simp_ttr</text>
</g>
<!-- simp_ttr_no_lem&#45;&gt;simp_ttr -->
<g id="edge96" class="edge">
<title>simp_ttr_no_lem-&gt;simp_ttr</title>
<path fill="none" stroke="black" d="M2605.2,-809.07C2845.04,-808.78 3566.83,-803.9 3660,-756 3716.48,-726.96 3755.92,-660.22 3774.63,-622.41"/>
<polygon fill="black" stroke="black" points="3777.74,-624.02 3778.91,-613.49 3771.43,-621 3777.74,-624.02"/>
</g>
<!-- black -->
<g id="node34" class="node">
<title>black</title>
<ellipse fill="none" stroke="black" cx="4078" cy="-378" rx="31.95" ry="18"/>
<text text-anchor="middle" x="4078" y="-373.8" font-family="Times,serif" font-size="14.00">black</text>
</g>
<!-- simp_ttr_no_lem&#45;&gt;black -->
<g id="edge99" class="edge">
<title>simp_ttr_no_lem-&gt;black</title>
<path fill="none" stroke="black" d="M2605.22,-808.6C2903.36,-806.75 3965.67,-797.27 4024,-756 4058.7,-731.45 4059,-709.5 4059,-667 4059,-667 4059,-667 4059,-521 4059,-481.17 4066.43,-435.61 4072,-407.07"/>
<polygon fill="black" stroke="black" points="4075.4,-407.93 4073.95,-397.43 4068.54,-406.54 4075.4,-407.93"/>
</g>
<!-- sta_codeBleu -->
<g id="node35" class="node">
<title>sta_codeBleu</title>
<ellipse fill="none" stroke="black" cx="3873" cy="-306" rx="63.06" ry="18"/>
<text text-anchor="middle" x="3873" y="-301.8" font-family="Times,serif" font-size="14.00">sta_codeBleu</text>
</g>
<!-- simp_ttr_no_lem&#45;&gt;sta_codeBleu -->
<g id="edge100" class="edge">
<title>simp_ttr_no_lem-&gt;sta_codeBleu</title>
<path fill="none" stroke="black" d="M2604.95,-808.73C2894,-807.4 3901.08,-799.62 3953,-756 3983.97,-729.98 3972,-707.45 3972,-667 3972,-667 3972,-667 3972,-449 3972,-400.25 3932.25,-356.26 3903.12,-330.58"/>
<polygon fill="black" stroke="black" points="3905.51,-328.02 3895.63,-324.19 3900.97,-333.35 3905.51,-328.02"/>
</g>
<!-- sim_Bleu -->
<g id="node36" class="node">
<title>sim_Bleu</title>
<ellipse fill="none" stroke="black" cx="4002" cy="-306" rx="48.06" ry="18"/>
<text text-anchor="middle" x="4002" y="-301.8" font-family="Times,serif" font-size="14.00">sim_Bleu</text>
</g>
<!-- simp_ttr_no_lem&#45;&gt;sim_Bleu -->
<g id="edge101" class="edge">
<title>simp_ttr_no_lem-&gt;sim_Bleu</title>
<path fill="none" stroke="black" d="M2605.05,-808.54C2896.94,-806.49 3921.07,-796.45 3977,-756 4011.18,-731.28 4010,-709.19 4010,-667 4010,-667 4010,-667 4010,-449 4010,-409.68 4006.9,-364.33 4004.56,-335.67"/>
<polygon fill="black" stroke="black" points="4008.08,-335.65 4003.75,-325.98 4001.1,-336.24 4008.08,-335.65"/>
</g>
<!-- simp_space_var&#45;&gt;simp_det_var -->
<g id="edge102" class="edge">
<title>simp_space_var-&gt;simp_det_var</title>
<path fill="none" stroke="black" d="M3100.64,-721.9C3119.81,-712.7 3143.11,-699.7 3161,-684 3220.73,-631.58 3242.21,-615.5 3267,-540 3283.55,-489.59 3307.05,-332.25 3211,-216 3194.08,-195.52 3168.07,-182.89 3143.6,-175.14"/>
<polygon fill="black" stroke="black" points="3144.9,-171.87 3134.32,-172.43 3142.94,-178.59 3144.9,-171.87"/>
</g>
<!-- simp_space_var&#45;&gt;BClar05_S -->
<g id="edge104" class="edge">
<title>simp_space_var-&gt;BClar05_S</title>
<path fill="none" stroke="black" d="M3118.45,-725.32C3187.3,-710.22 3298.39,-685.66 3300,-684 3374.12,-607.57 3369.01,-467.66 3362.79,-407.61"/>
<polygon fill="black" stroke="black" points="3366.29,-407.43 3361.69,-397.89 3359.34,-408.22 3366.29,-407.43"/>
</g>
<!-- simp_space_var&#45;&gt;simp_noun_var -->
<g id="edge106" class="edge">
<title>simp_space_var-&gt;simp_noun_var</title>
<path fill="none" stroke="black" d="M3068.1,-719.53C3074.65,-676.47 3084.89,-564.33 3027,-504 2972.02,-446.71 2926.96,-494.19 2852,-468 2818.6,-456.33 2813.1,-446.88 2781,-432 2760.55,-422.52 2473.69,-302.02 2359.96,-254.29"/>
<polygon fill="black" stroke="black" points="2361.48,-251.13 2350.91,-250.49 2358.78,-257.58 2361.48,-251.13"/>
</g>
<!-- simp_space_var&#45;&gt;n_det -->
<g id="edge108" class="edge">
<title>simp_space_var-&gt;n_det</title>
<path fill="none" stroke="black" d="M2991.65,-736.2C2721.95,-733.02 1785.62,-719.58 1489,-684 1333.05,-665.29 1256.96,-720.09 1143,-612 1107.25,-578.09 1107.6,-515.99 1111.51,-479.62"/>
<polygon fill="black" stroke="black" points="1114.97,-480.21 1112.74,-469.86 1108.02,-479.34 1114.97,-480.21"/>
</g>
<!-- simp_space_var&#45;&gt;corr_punct_var -->
<g id="edge105" class="edge">
<title>simp_space_var-&gt;corr_punct_var</title>
<path fill="none" stroke="black" d="M3050.75,-719.91C3010.29,-671.7 2894.5,-536.09 2846,-504 2820.71,-487.27 2789.45,-474.94 2762.52,-466.4"/>
<polygon fill="black" stroke="black" points="2763.69,-463.1 2753.11,-463.53 2761.65,-469.8 2763.69,-463.1"/>
</g>
<!-- simp_space_var&#45;&gt;BClar20_S -->
<g id="edge103" class="edge">
<title>simp_space_var-&gt;BClar20_S</title>
<path fill="none" stroke="black" d="M3093.13,-721.01C3107.49,-711.71 3124.33,-698.89 3136,-684 3167.97,-643.19 3187.56,-585.14 3197.05,-551.04"/>
<polygon fill="black" stroke="black" points="3200.39,-552.07 3199.6,-541.51 3193.63,-550.26 3200.39,-552.07"/>
</g>
<!-- simp_space_var&#45;&gt;a_char_pw -->
<g id="edge107" class="edge">
<title>simp_space_var-&gt;a_char_pw</title>
<path fill="none" stroke="black" d="M3003.97,-727.63C2916.06,-714.14 2754.84,-689.39 2668.05,-676.06"/>
<polygon fill="black" stroke="black" points="2668.73,-672.63 2658.32,-674.57 2667.67,-679.55 2668.73,-672.63"/>
</g>
<!-- BClar20_S&#45;&gt;simp_det_var -->
<g id="edge109" class="edge">
<title>BClar20_S-&gt;simp_det_var</title>
<path fill="none" stroke="black" d="M3205.53,-503.69C3210.26,-446.34 3222.49,-263.48 3191,-216 3178.9,-197.77 3158.74,-185.65 3138.83,-177.68"/>
<polygon fill="black" stroke="black" points="3140.18,-174.45 3129.58,-174.29 3137.77,-181.02 3140.18,-174.45"/>
</g>
<!-- BClar20_S&#45;&gt;BTopc10_S -->
<g id="edge110" class="edge">
<title>BClar20_S-&gt;BTopc10_S</title>
<path fill="none" stroke="black" d="M3243.4,-509.36C3283.36,-497.56 3345.4,-479.24 3389.29,-466.27"/>
<polygon fill="black" stroke="black" points="3390.26,-469.64 3398.86,-463.45 3388.28,-462.92 3390.26,-469.64"/>
</g>
<!-- BClar20_S&#45;&gt;BClar05_S -->
<g id="edge111" class="edge">
<title>BClar20_S-&gt;BClar05_S</title>
<path fill="none" stroke="black" d="M3221.78,-504.71C3249.11,-479.67 3301.58,-431.6 3333.12,-402.71"/>
<polygon fill="black" stroke="black" points="3335.3,-405.46 3340.31,-396.12 3330.57,-400.3 3335.3,-405.46"/>
</g>
<!-- BClar20_S&#45;&gt;simp_noun_var -->
<g id="edge113" class="edge">
<title>BClar20_S-&gt;simp_noun_var</title>
<path fill="none" stroke="black" d="M3162.79,-510.02C3153.98,-507.86 3144.71,-505.74 3136,-504 3029.79,-482.84 2993.77,-512.42 2895,-468 2872.27,-457.78 2873.63,-444.38 2852,-432 2810.64,-408.33 2793.59,-417.38 2751,-396 2725.22,-383.06 2722.1,-374.21 2697,-360 2664.48,-341.59 2651.84,-345.12 2621,-324 2601.8,-310.86 2603.67,-298.67 2583,-288 2524.43,-257.77 2450.53,-244.74 2395.01,-239.14"/>
<polygon fill="black" stroke="black" points="2395.6,-235.68 2385.32,-238.23 2394.94,-242.65 2395.6,-235.68"/>
</g>
<!-- BClar20_S&#45;&gt;corr_punct_var -->
<g id="edge112" class="edge">
<title>BClar20_S-&gt;corr_punct_var</title>
<path fill="none" stroke="black" d="M3154.95,-514.16C3065.9,-501.74 2877.27,-475.44 2773.74,-461"/>
<polygon fill="black" stroke="black" points="2774.35,-457.56 2763.97,-459.64 2773.39,-464.49 2774.35,-457.56"/>
</g>
<!-- BClar20_S&#45;&gt;sta_codeBleu -->
<g id="edge114" class="edge">
<title>BClar20_S-&gt;sta_codeBleu</title>
<path fill="none" stroke="black" d="M3208.19,-503.72C3217.46,-469.6 3243.2,-393.96 3296,-360 3337.42,-333.36 3653.08,-316.46 3799.2,-309.99"/>
<polygon fill="black" stroke="black" points="3799.34,-313.49 3809.18,-309.56 3799.04,-306.5 3799.34,-313.49"/>
</g>
<!-- a_char_pw&#45;&gt;n_adp -->
<g id="edge159" class="edge">
<title>a_char_pw-&gt;n_adp</title>
<path fill="none" stroke="black" d="M2560.12,-658.32C2497.62,-649.43 2386.2,-632.45 2292,-612 2110.79,-572.67 2070.22,-543.29 1889,-504 1793.89,-483.38 1766.44,-495.22 1673,-468 1671.61,-467.6 1670.21,-467.16 1668.8,-466.69"/>
<polygon fill="black" stroke="black" points="1670.07,-463.43 1659.48,-463.24 1667.65,-470 1670.07,-463.43"/>
</g>
<!-- a_char_pw&#45;&gt;a_cconj_pw -->
<g id="edge164" class="edge">
<title>a_char_pw-&gt;a_cconj_pw</title>
<path fill="none" stroke="black" d="M2628.8,-649.09C2639.03,-639.55 2650.5,-626.49 2656,-612 2674.06,-564.43 2657.99,-535.47 2618,-504 2566.84,-463.74 2537.75,-488.63 2476,-468 2436.7,-454.87 2429.85,-443.35 2390,-432 2299.92,-406.35 2192.32,-392.03 2124.56,-384.92"/>
<polygon fill="black" stroke="black" points="2125.02,-381.45 2114.72,-383.91 2124.31,-388.41 2125.02,-381.45"/>
</g>
<!-- a_char_pw&#45;&gt;n_uverb -->
<g id="edge169" class="edge">
<title>a_char_pw-&gt;n_uverb</title>
<path fill="none" stroke="black" d="M2611.2,-647.64C2614.44,-613.37 2615.89,-537.48 2571,-504 2505.25,-454.97 2461.48,-508.23 2390,-468 2371.08,-457.36 2376.5,-441.54 2357,-432 2330.17,-418.88 1908.13,-391.67 1756.62,-382.28"/>
<polygon fill="black" stroke="black" points="1757.05,-378.8 1746.86,-381.67 1756.62,-385.78 1757.05,-378.8"/>
</g>
<!-- a_char_pw&#45;&gt;n_upunct -->
<g id="edge160" class="edge">
<title>a_char_pw-&gt;n_upunct</title>
<path fill="none" stroke="black" d="M2636.85,-650.27C2650.76,-641.25 2666.25,-628.31 2674,-612 2695.14,-567.49 2685.38,-537.22 2649,-504 2599.96,-459.23 2565.07,-494.06 2504,-468 2476.44,-456.24 2474.69,-443.44 2447,-432 2311.46,-376.02 2270.44,-378.79 2125,-360 1695.39,-304.5 1583.43,-349.57 1151,-324 1099.35,-320.95 1040.62,-316.04 998.6,-312.29"/>
<polygon fill="black" stroke="black" points="999,-308.81 988.72,-311.39 998.37,-315.78 999,-308.81"/>
</g>
<!-- a_char_pw&#45;&gt;t_bry -->
<g id="edge161" class="edge">
<title>a_char_pw-&gt;t_bry</title>
<path fill="none" stroke="black" d="M2607.07,-647.54C2602.4,-614.12 2587.3,-541.15 2542,-504 2478.92,-452.26 2440.42,-490.49 2362,-468 2358.91,-467.12 2355.74,-466.11 2352.58,-465.05"/>
<polygon fill="black" stroke="black" points="2354,-461.84 2343.41,-461.78 2351.65,-468.43 2354,-461.84"/>
</g>
<!-- a_char_pw&#45;&gt;t_syll3 -->
<g id="edge162" class="edge">
<title>a_char_pw-&gt;t_syll3</title>
<path fill="none" stroke="black" d="M2656.67,-657.55C2683.68,-650.63 2715.32,-637.35 2732,-612 2759.97,-569.49 2733.99,-535.47 2694,-504 2642.84,-463.74 2610.74,-496.08 2552,-468 2527.94,-456.5 2526.29,-446.64 2504,-432 2477.05,-414.29 2467.95,-413.71 2441,-396 2418.71,-381.36 2417.22,-371.15 2393,-360 2330.88,-331.41 2252.38,-317.8 2202.92,-311.64"/>
<polygon fill="black" stroke="black" points="2203.45,-308.18 2193.11,-310.48 2202.63,-315.13 2203.45,-308.18"/>
</g>
<!-- a_char_pw&#45;&gt;WTopc15_S -->
<g id="edge163" class="edge">
<title>a_char_pw-&gt;WTopc15_S</title>
<path fill="none" stroke="black" d="M2555.78,-664.1C2297.81,-659.6 1183.63,-638.77 1031,-612 979.92,-603.04 969.94,-589.98 920,-576 904.01,-571.52 814.41,-550.53 753.49,-536.35"/>
<polygon fill="black" stroke="black" points="754.48,-532.98 743.95,-534.13 752.9,-539.8 754.48,-532.98"/>
</g>
<!-- a_char_pw&#45;&gt;simp_adp_var -->
<g id="edge165" class="edge">
<title>a_char_pw-&gt;simp_adp_var</title>
<path fill="none" stroke="black" d="M2555.47,-664.13C2308.28,-659.98 1283.18,-641.13 1143,-612 1074.7,-597.81 1000.27,-565.01 955.91,-543.44"/>
<polygon fill="black" stroke="black" points="957.71,-540.42 947.19,-539.15 954.62,-546.71 957.71,-540.42"/>
</g>
<!-- a_char_pw&#45;&gt;t_stopword -->
<g id="edge166" class="edge">
<title>a_char_pw-&gt;t_stopword</title>
<path fill="none" stroke="black" d="M2568.95,-653.74C2478,-628.16 2255.95,-565.73 2155.21,-537.4"/>
<polygon fill="black" stroke="black" points="2156.43,-534.11 2145.86,-534.77 2154.54,-540.85 2156.43,-534.11"/>
</g>
<!-- a_char_pw&#45;&gt;a_n_ent_pw -->
<g id="edge167" class="edge">
<title>a_char_pw-&gt;a_n_ent_pw</title>
<path fill="none" stroke="black" d="M2577.18,-651.2C2505.36,-620.55 2324.59,-546.16 2167,-504 1997.57,-458.68 1953.18,-452.56 1779,-432 1684.55,-420.85 1035.83,-391.54 820.96,-382.03"/>
<polygon fill="black" stroke="black" points="821.2,-378.54 811.06,-381.59 820.89,-385.53 821.2,-378.54"/>
</g>
<!-- a_char_pw&#45;&gt;t_uword -->
<g id="edge168" class="edge">
<title>a_char_pw-&gt;t_uword</title>
<path fill="none" stroke="black" d="M2656.75,-657.56C2756.11,-641.05 2979.81,-598.16 3027,-540 3057.29,-502.67 3062.43,-470.02 3033,-432 2993.94,-381.53 2944.88,-434.52 2894,-396 2820.16,-340.09 2868.4,-263.68 2789,-216 2731.88,-181.7 1724.21,-166.81 1476.61,-163.65"/>
<polygon fill="black" stroke="black" points="1476.96,-160.16 1466.91,-163.53 1476.87,-167.16 1476.96,-160.16"/>
</g>
<!-- a_char_pw&#45;&gt;bilog_ttr -->
<g id="edge170" class="edge">
<title>a_char_pw-&gt;bilog_ttr</title>
<path fill="none" stroke="black" d="M2556.88,-661.76C2454.6,-655.07 2220.51,-638.13 2025,-612 2010.03,-610 1993.83,-607.33 1979.07,-604.69"/>
<polygon fill="black" stroke="black" points="1980.07,-601.32 1969.61,-602.97 1978.82,-608.21 1980.07,-601.32"/>
</g>
<!-- simp_ttr&#45;&gt;simp_det_var -->
<g id="edge173" class="edge">
<title>simp_ttr-&gt;simp_det_var</title>
<path fill="none" stroke="black" d="M3786.32,-575.64C3782.82,-513.18 3761.44,-299.28 3632,-216 3592.56,-190.63 3293.89,-173.22 3152.62,-166.31"/>
<polygon fill="black" stroke="black" points="3153.17,-162.84 3143.01,-165.85 3152.83,-169.83 3153.17,-162.84"/>
</g>
<!-- black&#45;&gt;sim_codeBleu -->
<g id="edge200" class="edge">
<title>black-&gt;sim_codeBleu</title>
<path fill="none" stroke="black" d="M4098.91,-364.14C4131.82,-342.12 4192,-293.8 4192,-235 4192,-235 4192,-235 4192,-161 4192,-76.57 3917.39,-38.77 3781.87,-25.25"/>
<polygon fill="black" stroke="black" points="3782.58,-21.8 3772.28,-24.31 3781.9,-28.77 3782.58,-21.8"/>
</g>
<!-- black&#45;&gt;sta_codeBleu -->
<g id="edge198" class="edge">
<title>black-&gt;sta_codeBleu</title>
<path fill="none" stroke="black" d="M4051.2,-367.85C4018.79,-356.78 3963.57,-337.93 3923.17,-324.13"/>
<polygon fill="black" stroke="black" points="3924.48,-320.88 3913.89,-320.96 3922.22,-327.51 3924.48,-320.88"/>
</g>
<!-- black&#45;&gt;sim_Bleu -->
<g id="edge201" class="edge">
<title>black-&gt;sim_Bleu</title>
<path fill="none" stroke="black" d="M4061.88,-362.15C4051.95,-353.01 4039,-341.08 4027.68,-330.65"/>
<polygon fill="black" stroke="black" points="4030.26,-328.27 4020.53,-324.07 4025.52,-333.42 4030.26,-328.27"/>
</g>
<!-- black&#45;&gt;error_rate -->
<g id="edge202" class="edge">
<title>black-&gt;error_rate</title>
<path fill="none" stroke="black" d="M4086.1,-360.26C4090.58,-350.05 4095.71,-336.58 4098,-324 4109.29,-262.08 4070.88,-146.57 4068,-144 4001.69,-84.92 3758.02,-119.75 3670,-108 3656.24,-106.16 3641.44,-103.76 3627.68,-101.34"/>
<polygon fill="black" stroke="black" points="3628.36,-97.9 3617.9,-99.58 3627.12,-104.79 3628.36,-97.9"/>
</g>
<!-- syntaxError_rate -->
<g id="node43" class="node">
<title>syntaxError_rate</title>
<ellipse fill="none" stroke="black" cx="3983" cy="-162" rx="75.92" ry="18"/>
<text text-anchor="middle" x="3983" y="-157.8" font-family="Times,serif" font-size="14.00">syntaxError_rate</text>
</g>
<!-- black&#45;&gt;syntaxError_rate -->
<g id="edge197" class="edge">
<title>black-&gt;syntaxError_rate</title>
<path fill="none" stroke="black" d="M4082.48,-359.72C4086.4,-341.38 4090.29,-311.81 4082,-288 4067.92,-247.54 4034.68,-210.32 4010.6,-187.2"/>
<polygon fill="black" stroke="black" points="4013.31,-184.94 4003.61,-180.67 4008.52,-190.06 4013.31,-184.94"/>
</g>
<!-- sta_Bleu -->
<g id="node44" class="node">
<title>sta_Bleu</title>
<ellipse fill="none" stroke="black" cx="3729" cy="-234" rx="44.83" ry="18"/>
<text text-anchor="middle" x="3729" y="-229.8" font-family="Times,serif" font-size="14.00">sta_Bleu</text>
</g>
<!-- black&#45;&gt;sta_Bleu -->
<g id="edge199" class="edge">
<title>black-&gt;sta_Bleu</title>
<path fill="none" stroke="black" d="M4079.6,-359.88C4080.46,-339.68 4078.47,-306.5 4059,-288 4020.58,-251.5 3868.99,-240.1 3785.28,-236.57"/>
<polygon fill="black" stroke="black" points="3785.58,-233.08 3775.45,-236.18 3785.3,-240.07 3785.58,-233.08"/>
</g>
<!-- sta_codeBleu&#45;&gt;sim_codeBleu -->
<g id="edge206" class="edge">
<title>sta_codeBleu-&gt;sim_codeBleu</title>
<path fill="none" stroke="black" d="M3877.92,-287.62C3888.66,-245.71 3909.48,-137.7 3860,-72 3841.36,-47.26 3810.37,-34 3781.22,-26.93"/>
<polygon fill="black" stroke="black" points="3782.16,-23.55 3771.64,-24.83 3780.66,-30.39 3782.16,-23.55"/>
</g>
<!-- sta_codeBleu&#45;&gt;sta_Bleu -->
<g id="edge205" class="edge">
<title>sta_codeBleu-&gt;sta_Bleu</title>
<path fill="none" stroke="black" d="M3842.11,-289.98C3820.18,-279.32 3790.6,-264.94 3767.19,-253.56"/>
<polygon fill="black" stroke="black" points="3768.8,-250.46 3758.28,-249.23 3765.74,-256.75 3768.8,-250.46"/>
</g>
<!-- sim_Bleu&#45;&gt;sim_codeBleu -->
<g id="edge211" class="edge">
<title>sim_Bleu-&gt;sim_codeBleu</title>
<path fill="none" stroke="black" d="M4018.4,-288.67C4046.49,-258.66 4097.98,-193.3 4068,-144 4010.26,-49.06 3873.32,-24.89 3785.96,-19.5"/>
<polygon fill="black" stroke="black" points="3786.19,-16 3776.02,-18.96 3785.81,-22.99 3786.19,-16"/>
</g>
<!-- sim_Bleu&#45;&gt;syntaxError_rate -->
<g id="edge210" class="edge">
<title>sim_Bleu-&gt;syntaxError_rate</title>
<path fill="none" stroke="black" d="M3999.67,-287.59C3996.46,-263.61 3990.65,-220.14 3986.8,-191.42"/>
<polygon fill="black" stroke="black" points="3990.29,-191.06 3985.49,-181.61 3983.35,-191.99 3990.29,-191.06"/>
</g>
<!-- error_rate&#45;&gt;sim_codeBleu -->
<g id="edge219" class="edge">
<title>error_rate-&gt;sim_codeBleu</title>
<path fill="none" stroke="black" d="M3601.44,-74.67C3620.65,-64.63 3646.63,-51.06 3668.13,-39.83"/>
<polygon fill="black" stroke="black" points="3669.68,-42.96 3676.93,-35.23 3666.44,-36.76 3669.68,-42.96"/>
</g>
<!-- a_num_pw -->
<g id="node38" class="node">
<title>a_num_pw</title>
<ellipse fill="none" stroke="black" cx="576" cy="-666" rx="53.95" ry="18"/>
<text text-anchor="middle" x="576" y="-661.8" font-family="Times,serif" font-size="14.00">a_num_pw</text>
</g>
<!-- a_num_pw&#45;&gt;n_adp -->
<g id="edge120" class="edge">
<title>a_num_pw-&gt;n_adp</title>
<path fill="none" stroke="black" d="M630.08,-664.06C794.41,-660.83 1280.37,-648.26 1341,-612 1389.68,-582.88 1362.86,-536.99 1409,-504 1437.51,-483.62 1532.12,-466.28 1588.86,-457.39"/>
<polygon fill="black" stroke="black" points="1589.17,-460.88 1598.52,-455.9 1588.1,-453.97 1589.17,-460.88"/>
</g>
<!-- a_num_pw&#45;&gt;a_cconj_pw -->
<g id="edge125" class="edge">
<title>a_num_pw-&gt;a_cconj_pw</title>
<path fill="none" stroke="black" d="M571.53,-647.71C563.95,-613.92 553.2,-539.35 595,-504 647.28,-459.78 833.41,-478.95 901,-468 978.96,-455.37 996.68,-442.12 1075,-432 1375.15,-393.23 1452.8,-412.48 1755,-396 1835.81,-391.59 1928.73,-386.36 1990.13,-382.87"/>
<polygon fill="black" stroke="black" points="1990.3,-386.37 2000.09,-382.3 1989.91,-379.38 1990.3,-386.37"/>
</g>
<!-- a_num_pw&#45;&gt;n_uverb -->
<g id="edge130" class="edge">
<title>a_num_pw-&gt;n_uverb</title>
<path fill="none" stroke="black" d="M547.59,-650.31C495.75,-621.69 395.3,-556.64 442,-504 447.57,-497.72 1033.65,-432.84 1042,-432 1267.42,-409.45 1536.86,-390.25 1649.45,-382.57"/>
<polygon fill="black" stroke="black" points="1649.55,-386.08 1659.29,-381.91 1649.08,-379.09 1649.55,-386.08"/>
</g>
<!-- a_num_pw&#45;&gt;n_upunct -->
<g id="edge121" class="edge">
<title>a_num_pw-&gt;n_upunct</title>
<path fill="none" stroke="black" d="M523.89,-660.7C458.67,-654.22 352.22,-639.66 325,-612 291.05,-577.5 289.35,-547.29 311,-504 322.93,-480.15 478.25,-369.94 503,-360 570.91,-332.73 781.15,-316.68 884.06,-310.27"/>
<polygon fill="black" stroke="black" points="884.19,-313.77 893.96,-309.66 883.76,-306.78 884.19,-313.77"/>
</g>
<!-- a_num_pw&#45;&gt;t_bry -->
<g id="edge122" class="edge">
<title>a_num_pw-&gt;t_bry</title>
<path fill="none" stroke="black" d="M629.99,-664.44C854.32,-661.9 1713.67,-649.85 1982,-612 2113.93,-593.39 2169.16,-623.48 2273,-540 2292.09,-524.65 2303.55,-498.92 2309.96,-479.06"/>
<polygon fill="black" stroke="black" points="2313.27,-480.2 2312.74,-469.62 2306.56,-478.22 2313.27,-480.2"/>
</g>
<!-- a_num_pw&#45;&gt;WTopc15_S -->
<g id="edge123" class="edge">
<title>a_num_pw-&gt;WTopc15_S</title>
<path fill="none" stroke="black" d="M590.24,-648.15C611.08,-623.49 650.05,-577.37 674.42,-548.53"/>
<polygon fill="black" stroke="black" points="677.02,-550.88 680.8,-540.98 671.68,-546.36 677.02,-550.88"/>
</g>
<!-- a_num_pw&#45;&gt;simp_adp_var -->
<g id="edge126" class="edge">
<title>a_num_pw-&gt;simp_adp_var</title>
<path fill="none" stroke="black" d="M608.6,-651.38C669.62,-625.9 801.2,-570.95 870.76,-541.89"/>
<polygon fill="black" stroke="black" points="871.69,-545.3 879.57,-538.21 869,-538.84 871.69,-545.3"/>
</g>
<!-- a_num_pw&#45;&gt;t_stopword -->
<g id="edge127" class="edge">
<title>a_num_pw-&gt;t_stopword</title>
<path fill="none" stroke="black" d="M629.37,-662.74C761.1,-656.92 1112.2,-639.86 1404,-612 1641.46,-589.33 1922.67,-549.65 2043.69,-531.96"/>
<polygon fill="black" stroke="black" points="2044.01,-535.45 2053.4,-530.54 2043,-528.52 2044.01,-535.45"/>
</g>
<!-- a_num_pw&#45;&gt;a_n_ent_pw -->
<g id="edge128" class="edge">
<title>a_num_pw-&gt;a_n_ent_pw</title>
<path fill="none" stroke="black" d="M522.43,-663.35C476.54,-659.38 410.93,-647.32 366,-612 326,-580.55 296.08,-543.63 328,-504 375.08,-445.54 420.72,-488.23 493,-468 568.72,-446.81 654.68,-415.86 706.07,-396.6"/>
<polygon fill="black" stroke="black" points="707.26,-399.89 715.38,-393.09 704.79,-393.34 707.26,-399.89"/>
</g>
<!-- a_num_pw&#45;&gt;t_uword -->
<g id="edge129" class="edge">
<title>a_num_pw-&gt;t_uword</title>
<path fill="none" stroke="black" d="M522.53,-662.99C438.48,-656.94 275.32,-633.1 181,-540 101.29,-461.32 105.29,-371.44 180,-288 214.87,-249.06 223.94,-234.04 273,-216 376.23,-178.03 1152.82,-166.16 1367.28,-163.59"/>
<polygon fill="black" stroke="black" points="1367.07,-167.09 1377.03,-163.47 1366.99,-160.09 1367.07,-167.09"/>
</g>
<!-- a_num_pw&#45;&gt;n_det -->
<g id="edge131" class="edge">
<title>a_num_pw-&gt;n_det</title>
<path fill="none" stroke="black" d="M575.69,-647.74C576.13,-614.01 582.39,-539.53 627,-504 704.26,-442.47 973.56,-489.32 1070,-468 1073.38,-467.25 1076.85,-466.31 1080.29,-465.26"/>
<polygon fill="black" stroke="black" points="1081.28,-468.62 1089.63,-462.1 1079.04,-461.99 1081.28,-468.62"/>
</g>
<!-- a_num_pw&#45;&gt;bilog_ttr -->
<g id="edge132" class="edge">
<title>a_num_pw-&gt;bilog_ttr</title>
<path fill="none" stroke="black" d="M629.41,-662.67C787.28,-655.74 1265.51,-634.3 1662,-612 1735.45,-607.87 1820.21,-602.34 1874.18,-598.73"/>
<polygon fill="black" stroke="black" points="1874.29,-602.23 1884.03,-598.07 1873.82,-595.25 1874.29,-602.23"/>
</g>
<!-- a_num_pw&#45;&gt;root_punct_var -->
<g id="edge124" class="edge">
<title>a_num_pw-&gt;root_punct_var</title>
<path fill="none" stroke="black" d="M524.77,-659.74C487.69,-653.62 438.28,-640.41 404,-612 364.82,-579.53 332.58,-542.37 366,-504 379.67,-488.31 981.43,-413.82 1194.32,-387.91"/>
<polygon fill="black" stroke="black" points="1194.66,-391.39 1204.17,-386.71 1193.82,-384.45 1194.66,-391.39"/>
</g>
<!-- a_n_ent_percent_ps -->
<g id="node39" class="node">
<title>a_n_ent_percent_ps</title>
<ellipse fill="none" stroke="black" cx="3856" cy="-738" rx="88.26" ry="18"/>
<text text-anchor="middle" x="3856" y="-733.8" font-family="Times,serif" font-size="14.00">a_n_ent_percent_ps</text>
</g>
<!-- a_n_ent_percent_ps&#45;&gt;BClar05_S -->
<g id="edge138" class="edge">
<title>a_n_ent_percent_ps-&gt;BClar05_S</title>
<path fill="none" stroke="black" d="M3838.88,-719.88C3815.17,-696.05 3771.17,-651.36 3735,-612 3663.17,-533.84 3668.75,-487.08 3578,-432 3530.68,-403.28 3468.76,-390.12 3422.84,-384.09"/>
<polygon fill="black" stroke="black" points="3423.38,-380.63 3413.03,-382.89 3422.53,-387.58 3423.38,-380.63"/>
</g>
<!-- a_n_ent_percent_ps&#45;&gt;a_n_ent_money_ps -->
<g id="edge137" class="edge">
<title>a_n_ent_percent_ps-&gt;a_n_ent_money_ps</title>
<path fill="none" stroke="black" d="M3854.43,-719.58C3851.7,-690.01 3845.73,-628.13 3839,-576 3836.04,-553.09 3784.95,-220.69 3769.43,-119.81"/>
<polygon fill="black" stroke="black" points="3772.89,-119.28 3767.91,-109.93 3765.98,-120.35 3772.89,-119.28"/>
</g>
<!-- a_n_ent_percent_ps&#45;&gt;a_char_pw -->
<g id="edge139" class="edge">
<title>a_n_ent_percent_ps-&gt;a_char_pw</title>
<path fill="none" stroke="black" d="M3771.76,-732.27C3537.23,-719.11 2880.42,-682.24 2672.77,-670.58"/>
<polygon fill="black" stroke="black" points="2673.17,-667.1 2662.99,-670.03 2672.78,-674.09 2673.17,-667.1"/>
</g>
<!-- a_n_ent_percent_ps&#45;&gt;sta_codeBleu -->
<g id="edge140" class="edge">
<title>a_n_ent_percent_ps-&gt;sta_codeBleu</title>
<path fill="none" stroke="black" d="M3864.09,-719.95C3875.78,-693.72 3896,-641.61 3896,-595 3896,-595 3896,-595 3896,-449 3896,-409.23 3887.1,-363.99 3880.37,-335.47"/>
<polygon fill="black" stroke="black" points="3883.79,-334.7 3878.01,-325.81 3876.99,-336.36 3883.79,-334.7"/>
</g>
<!-- a_n_ent_percent_ps&#45;&gt;sim_Bleu -->
<g id="edge141" class="edge">
<title>a_n_ent_percent_ps-&gt;sim_Bleu</title>
<path fill="none" stroke="black" d="M3872.92,-719.85C3895.87,-694.71 3934,-645.35 3934,-595 3934,-595 3934,-595 3934,-449 3934,-404.74 3961.2,-359.67 3981.19,-332.51"/>
<polygon fill="black" stroke="black" points="3983.73,-334.97 3986.99,-324.89 3978.15,-330.73 3983.73,-334.97"/>
</g>
<!-- bilog_ttr_no_lem&#45;&gt;n_uverb -->
<g id="edge146" class="edge">
<title>bilog_ttr_no_lem-&gt;n_uverb</title>
<path fill="none" stroke="black" d="M1790.06,-503.87C1772.94,-479.33 1741.3,-433.94 1721.25,-405.17"/>
<polygon fill="black" stroke="black" points="1724.13,-403.19 1715.54,-396.99 1718.39,-407.19 1724.13,-403.19"/>
</g>
<!-- simp_part_var -->
<g id="node41" class="node">
<title>simp_part_var</title>
<ellipse fill="none" stroke="black" cx="1631" cy="-306" rx="66.82" ry="18"/>
<text text-anchor="middle" x="1631" y="-301.8" font-family="Times,serif" font-size="14.00">simp_part_var</text>
</g>
<!-- simp_part_var&#45;&gt;simp_noun_var -->
<g id="edge153" class="edge">
<title>simp_part_var-&gt;simp_noun_var</title>
<path fill="none" stroke="black" d="M1679.06,-293.24C1688.29,-291.27 1697.91,-289.41 1707,-288 1894.16,-259.03 2116.43,-244.66 2233.15,-238.63"/>
<polygon fill="black" stroke="black" points="2233.13,-242.14 2242.94,-238.14 2232.78,-235.15 2233.13,-242.14"/>
</g>
<!-- simp_part_var&#45;&gt;t_uword -->
<g id="edge152" class="edge">
<title>simp_part_var-&gt;t_uword</title>
<path fill="none" stroke="black" d="M1627.06,-287.74C1621.63,-267.71 1609.9,-235.01 1588,-216 1556.46,-188.62 1510.66,-175.36 1475.15,-168.95"/>
<polygon fill="black" stroke="black" points="1475.95,-165.53 1465.51,-167.35 1474.8,-172.44 1475.95,-165.53"/>
</g>
<!-- t_n_ent_quantity -->
<g id="node42" class="node">
<title>t_n_ent_quantity</title>
<ellipse fill="none" stroke="black" cx="1792" cy="-306" rx="76.48" ry="18"/>
<text text-anchor="middle" x="1792" y="-301.8" font-family="Times,serif" font-size="14.00">t_n_ent_quantity</text>
</g>
<!-- t_n_ent_quantity&#45;&gt;simp_noun_var -->
<g id="edge172" class="edge">
<title>t_n_ent_quantity-&gt;simp_noun_var</title>
<path fill="none" stroke="black" d="M1849.04,-293.65C1859.96,-291.64 1871.32,-289.66 1882,-288 2006.15,-268.68 2151.29,-252.1 2237.76,-242.85"/>
<polygon fill="black" stroke="black" points="2237.97,-246.34 2247.54,-241.81 2237.23,-239.38 2237.97,-246.34"/>
</g>
<!-- t_n_ent_quantity&#45;&gt;t_uword -->
<g id="edge171" class="edge">
<title>t_n_ent_quantity-&gt;t_uword</title>
<path fill="none" stroke="black" d="M1764.28,-288.89C1730.08,-269.53 1669.74,-237.04 1615,-216 1567.18,-197.62 1510.42,-182.83 1470.88,-173.59"/>
<polygon fill="black" stroke="black" points="1471.71,-170.19 1461.18,-171.36 1470.14,-177.01 1471.71,-170.19"/>
</g>
<!-- syntaxError_rate&#45;&gt;sim_codeBleu -->
<g id="edge203" class="edge">
<title>syntaxError_rate-&gt;sim_codeBleu</title>
<path fill="none" stroke="black" d="M3970.27,-144C3954.35,-123.92 3925.24,-90.87 3893,-72 3857.07,-50.97 3812.28,-37.86 3775.78,-29.94"/>
<polygon fill="black" stroke="black" points="3776.72,-26.56 3766.22,-27.95 3775.29,-33.41 3776.72,-26.56"/>
</g>
<!-- syntaxError_rate&#45;&gt;error_rate -->
<g id="edge204" class="edge">
<title>syntaxError_rate-&gt;error_rate</title>
<path fill="none" stroke="black" d="M3922.1,-150.83C3859,-140.25 3757.57,-123.17 3670,-108 3656.58,-105.68 3642.11,-103.13 3628.58,-100.74"/>
<polygon fill="black" stroke="black" points="3629.42,-97.33 3618.97,-99.03 3628.2,-104.23 3629.42,-97.33"/>
</g>
<!-- sta_Bleu&#45;&gt;sim_codeBleu -->
<g id="edge208" class="edge">
<title>sta_Bleu-&gt;sim_codeBleu</title>
<path fill="none" stroke="black" d="M3718.02,-216.08C3703.66,-192.84 3679.24,-149.21 3670,-108 3666.5,-92.39 3665.1,-87.23 3670,-72 3673.14,-62.24 3678.81,-52.75 3684.83,-44.56"/>
<polygon fill="black" stroke="black" points="3687.52,-46.81 3690.99,-36.8 3682.04,-42.46 3687.52,-46.81"/>
</g>
<!-- sta_Bleu&#45;&gt;error_rate -->
<g id="edge209" class="edge">
<title>sta_Bleu-&gt;error_rate</title>
<path fill="none" stroke="black" d="M3699.52,-220.11C3680.34,-210.78 3655.53,-196.88 3637,-180 3617.28,-162.04 3600.18,-136.89 3588.79,-117.9"/>
<polygon fill="black" stroke="black" points="3591.89,-116.26 3583.84,-109.38 3585.84,-119.78 3591.89,-116.26"/>
</g>
<!-- sta_Bleu&#45;&gt;syntaxError_rate -->
<g id="edge207" class="edge">
<title>sta_Bleu-&gt;syntaxError_rate</title>
<path fill="none" stroke="black" d="M3765.39,-222.97C3806.75,-211.57 3874.86,-192.8 3923.88,-179.29"/>
<polygon fill="black" stroke="black" points="3924.79,-182.67 3933.5,-176.64 3922.93,-175.92 3924.79,-182.67"/>
</g>
<!-- pass_rate&#45;&gt;sim_codeBleu -->
<g id="edge216" class="edge">
<title>pass_rate-&gt;sim_codeBleu</title>
<path fill="none" stroke="black" d="M2942.11,-359.93C2930.71,-333.67 2911,-281.53 2911,-235 2911,-235 2911,-235 2911,-161 2911,-88.09 3434.58,-40.09 3633,-24.51"/>
<polygon fill="black" stroke="black" points="3633.25,-28 3642.95,-23.74 3632.71,-21.02 3633.25,-28"/>
</g>
<!-- pass_rate&#45;&gt;sta_codeBleu -->
<g id="edge214" class="edge">
<title>pass_rate-&gt;sta_codeBleu</title>
<path fill="none" stroke="black" d="M2995.77,-373.53C3145.25,-362.19 3619.88,-326.2 3801.43,-312.43"/>
<polygon fill="black" stroke="black" points="3801.48,-315.93 3811.19,-311.69 3800.95,-308.95 3801.48,-315.93"/>
</g>
<!-- pass_rate&#45;&gt;sim_Bleu -->
<g id="edge217" class="edge">
<title>pass_rate-&gt;sim_Bleu</title>
<path fill="none" stroke="black" d="M2996.41,-374.68C3189.64,-364.99 3921.34,-328.1 3945,-324 3948.78,-323.35 3952.66,-322.52 3956.53,-321.6"/>
<polygon fill="black" stroke="black" points="3957.1,-325.07 3965.88,-319.14 3955.32,-318.3 3957.1,-325.07"/>
</g>
<!-- pass_rate&#45;&gt;error_rate -->
<g id="edge218" class="edge">
<title>pass_rate-&gt;error_rate</title>
<path fill="none" stroke="black" d="M2948.11,-359.59C2944.41,-315.66 2941.54,-199.85 3006,-144 3043.81,-111.24 3375.82,-97.17 3514.03,-92.7"/>
<polygon fill="black" stroke="black" points="3513.82,-96.21 3523.7,-92.4 3513.6,-89.22 3513.82,-96.21"/>
</g>
<!-- pass_rate&#45;&gt;sta_Bleu -->
<g id="edge215" class="edge">
<title>pass_rate-&gt;sta_Bleu</title>
<path fill="none" stroke="black" d="M2991.88,-369.37C3124.19,-345.25 3532.98,-270.73 3677.63,-244.36"/>
<polygon fill="black" stroke="black" points="3678.09,-247.84 3687.3,-242.6 3676.84,-240.95 3678.09,-247.84"/>
</g>
<!-- timeout_rate&#45;&gt;sim_codeBleu -->
<g id="edge223" class="edge">
<title>timeout_rate-&gt;sim_codeBleu</title>
<path fill="none" stroke="black" d="M1223.41,-287.68C1231.51,-252.04 1255.69,-171.55 1313,-144 1525.8,-41.69 3241.81,-22.55 3630.1,-19.51"/>
<polygon fill="black" stroke="black" points="3629.98,-23.02 3639.95,-19.44 3629.92,-16.02 3629.98,-23.02"/>
</g>
<!-- timeout_rate&#45;&gt;error_rate -->
<g id="edge224" class="edge">
<title>timeout_rate-&gt;error_rate</title>
<path fill="none" stroke="black" d="M1229.45,-287.94C1249.8,-253.16 1301.53,-174.77 1370,-144 1470.32,-98.91 3167.87,-92.06 3513.04,-91.13"/>
<polygon fill="black" stroke="black" points="3513.01,-94.63 3523,-91.11 3512.99,-87.63 3513.01,-94.63"/>
</g>
<!-- timeout_rate&#45;&gt;sta_Bleu -->
<g id="edge222" class="edge">
<title>timeout_rate-&gt;sta_Bleu</title>
<path fill="none" stroke="black" d="M1278.38,-301.57C1345.21,-297.75 1457.96,-291.64 1555,-288 2397.57,-256.36 3424.58,-239.59 3672.99,-235.82"/>
<polygon fill="black" stroke="black" points="3672.76,-239.33 3682.71,-235.68 3672.66,-232.33 3672.76,-239.33"/>
</g>
</g>
</svg>